<svg xmlns="http://www.w3.org/2000/svg" xmlns:xlink="http://www.w3.org/1999/xlink" xmlns:lucid="lucid" width="1560" height="1325"><g transform="translate(40 220)" lucid:page-tab-id="0_0"><path d="M-20 186a6 6 0 0 1 6-6h148a6 6 0 0 1 6 6v108a6 6 0 0 1-6 6H-14a6 6 0 0 1-6-6z" stroke="#3a414a" fill="#fff"/><use xlink:href="#a" transform="matrix(1,0,0,1,-20,180) translate(41.795123456790115 62.77777777777778)"/><path d="M560 66a6 6 0 0 1 6-6h148a6 6 0 0 1 6 6v108a6 6 0 0 1-6 6H566a6 6 0 0 1-6-6z" stroke="#3a414a" fill="#fff"/><use xlink:href="#b" transform="matrix(1,0,0,1,560,60) translate(28.21487654320986 62.77777777777778)"/><path d="M335.48 53.95a6.86 6.86 0 0 1 9.04 0l70.96 62.1a5.25 5.25 0 0 1 0 7.9l-70.96 62.1a6.86 6.86 0 0 1-9.04 0l-70.96-62.1a5.25 5.25 0 0 1 0-7.9z" stroke="#3a414a" fill="#fff"/><use xlink:href="#c" transform="matrix(1,0,0,1,260,50) translate(30.714876543209865 74.65277777777777)"/><path d="M177.52 240.5h-36.56v-1h36.56zm84.2-120l-55.26.07-.82.2-.8.33-.73.45-.65.56-.56.67-.46.73-.33.8-.2.84-.06.88-.07 108.98-.24 1-.4.95-.53.87-.66.78-.78.66-.87.53-.95.38-1 .24-1 .08h-7.96v-1h7.92l.88-.07.84-.2.8-.33.73-.45.66-.56.56-.67.44-.73.33-.8.2-.82.07-108.9.08-1 .24-1 .4-.93.52-.87.66-.78.78-.66.87-.53.93-.38 1-.25 55.4-.07z" stroke="#3a414a" stroke-width=".05" fill="#3a414a"/><path d="M140.98 240.5h-.52v-1h.52z" fill="#3a414a"/><path d="M141 240.53h-.56v-1.06h.56zm-.5-1v.94h.45v-.94z" stroke="#3a414a" stroke-width=".05" fill="#3a414a"/><path d="M262.22 120l.04.5h-.55v-1h.56z" fill="#3a414a"/><path d="M262.25 120l.04.53h-.62v-1.06h.6zm-.52-.47v.94h.5l-.03-.47.04-.47z" stroke="#3a414a" stroke-width=".05" fill="#3a414a"/><use xlink:href="#d" transform="matrix(1,0,0,1,177.5180217811547,229.33333333333334) translate(0 14.222222222222223)"/><path d="M396.1 98.03h162.92" stroke="#3a414a" fill="none"/><path stroke="#3a414a" stroke-width=".05" fill="#3a414a"/><path d="M559.52 98.53h-.5v-1h.5z" stroke="#3a414a" stroke-width=".05" fill="#3a414a"/><path d="M740-80c0 33.14-35.82 60-80 60s-80-26.86-80-60 35.82-60 80-60 80 26.86 80 60z" stroke="#3a414a" fill="#fff"/><use xlink:href="#e" transform="matrix(1,0,0,1,580,-140) translate(15.282777777777776 62.77777777777778)"/><path d="M920-140c0 33.14-35.82 60-80 60s-80-26.86-80-60 35.82-60 80-60 80 26.86 80 60z" stroke="#3a414a" fill="#fff"/><use xlink:href="#f" transform="matrix(1,0,0,1,760,-200) translate(35.004999999999995 62.77777777777778)"/><path d="M640 59.04V26.02a6 6 0 0 1 6-6h8a6 6 0 0 0 6-6V-19" stroke="#3a414a" fill="none"/><path d="M640.5 59.54h-1v-.52h1zM660-19.5h.5v.5h-1v-.52z" stroke="#3a414a" stroke-width=".05" fill="#3a414a"/><path d="M681.1 59.02v-63a6 6 0 0 1 6-6H834a6 6 0 0 0 6-6V-79" stroke="#3a414a" fill="none"/><path d="M681.6 59.52h-1V59h1zM840-79.5h.5v.5h-1v-.52z" stroke="#3a414a" stroke-width=".05" fill="#3a414a"/><path d="M567.63 683.5a6 6 0 0 1 6-6h148a6 6 0 0 1 6 6v108a6 6 0 0 1-6 6h-148a6 6 0 0 1-6-6z" stroke="#3a414a" fill="#fff"/><use xlink:href="#g" transform="matrix(1,0,0,1,567.626266347725,677.5) translate(41.14697530864197 62.77777777777778)"/><path d="M60.5 461.25h-1V342.48h1zm0-140.1h-1v-20.2h1z" stroke="#3a414a" stroke-width=".05" fill="#3a414a"/><path d="M60.5 300.98h-1v-.52h1z" fill="#3a414a"/><path d="M60.52 301h-1.05v-.56h1.05zm-1-.5v.45h.95v-.46z" stroke="#3a414a" stroke-width=".05" fill="#3a414a"/><path d="M60.5 461.8l-.5-.05-.5.04v-.56h1z" fill="#3a414a"/><path d="M60.52 461.82l-.52-.04-.52.04v-.6h1.05zm-1-.55v.5l.48-.04.48.03v-.5z" stroke="#3a414a" stroke-width=".05" fill="#3a414a"/><use xlink:href="#h" transform="matrix(1,0,0,1,55.06172839506173,321.14379957171406) translate(0 14.222222222222223)"/><path d="M640.5 376.25h-1V230.63h1zm0-166.95h-1v-28.34h1z" stroke="#3a414a" stroke-width=".05" fill="#3a414a"/><path d="M640.5 180.98h-1v-.52h1z" fill="#3a414a"/><path d="M640.52 181h-1.04v-.56h1.04zm-1-.5v.45h.96v-.46z" stroke="#3a414a" stroke-width=".05" fill="#3a414a"/><path d="M640.5 376.8l-.5-.05-.5.04v-.56h1z" fill="#3a414a"/><path d="M640.52 376.82l-.52-.04-.52.04v-.6h1.04zm-1-.55v.5l.48-.04.48.03v-.5z" stroke="#3a414a" stroke-width=".05" fill="#3a414a"/><use xlink:href="#d" transform="matrix(1,0,0,1,635.0617283950618,209.29934998050229) translate(0 14.222222222222223)"/><path d="M85.47 703.9l.2.8.33.8.45.74.56.66.66.56.74.45.8.34.84.2.88.07h288.53v1H90.88l-1-.07-1-.24-.94-.4-.87-.53-.77-.66-.66-.77-.54-.87-.4-.94-.23-1-.07-124.67h1zm481.17 4.6v1H394.2v-1z" stroke="#3a414a" stroke-width=".05" fill="#3a414a"/><path d="M567.14 709.5h-.5v-1h.5z" fill="#3a414a"/><path d="M567.17 709.54h-.56v-1.05h.57zm-.5-1v.95h.45v-.96z" stroke="#3a414a" stroke-width=".05" fill="#3a414a"/><path d="M85.4 579.36h-1l1-.95z" fill="#3a414a"/><path d="M85.42 579.4h-1.1l1.1-1.04zm-.96-.06h.9v-.87z" stroke="#3a414a" stroke-width=".05" fill="#3a414a"/><use xlink:href="#i" transform="matrix(1,0,0,1,379.4459564553782,698.3435737949073) translate(0 14.222222222222223)"/><path d="M55.48 463.95a6.86 6.86 0 0 1 9.04 0l70.96 62.1a5.25 5.25 0 0 1 0 7.9l-70.96 62.1a6.86 6.86 0 0 1-9.04 0l-70.96-62.1a5.25 5.25 0 0 1 0-7.9z" stroke="#3a414a" fill="#fff"/><use xlink:href="#j" transform="matrix(1,0,0,1,-20,460) translate(37.47413580246913 64.78777777777778)"/><use xlink:href="#k" transform="matrix(1,0,0,1,-20,460) translate(70.74574074074074 91.45444444444445)"/><path d="M635.48 378.95a6.86 6.86 0 0 1 9.04 0l70.96 62.1a5.25 5.25 0 0 1 0 7.9l-70.96 62.1a6.86 6.86 0 0 1-9.04 0l-70.96-62.1a5.25 5.25 0 0 1 0-7.9z" stroke="#3a414a" fill="#fff"/><use xlink:href="#j" transform="matrix(1,0,0,1,560,375) translate(37.47413580246913 64.78777777777778)"/><use xlink:href="#l" transform="matrix(1,0,0,1,560,375) translate(68.2766049382716 91.45444444444445)"/><path d="M660.68 676.53h-1v-44.08h1zm0-65.42h-1V498.5h1z" stroke="#3a414a" stroke-width=".05" fill="#3a414a"/><path d="M660.68 498.5h-1l1-.95z" fill="#3a414a"/><path d="M660.7 498.53h-1.1l1.1-1.04zm-.96-.05h.9v-.87z" stroke="#3a414a" stroke-width=".05" fill="#3a414a"/><path d="M660.68 677.03h-1v-.5h1z" fill="#3a414a"/><path d="M660.7 677.06h-1.05v-.57h1.05zm-1-.52v.47h.95v-.46z" stroke="#3a414a" stroke-width=".05" fill="#3a414a"/><use xlink:href="#i" transform="matrix(1,0,0,1,652.7935800316345,611.1133538158822) translate(0 14.222222222222223)"/><path d="M843.3 1020c0 33.14-35.83 60-80 60-44.2 0-80-26.86-80-60s35.8-60 80-60c44.17 0 80 26.86 80 60z" stroke="#3a414a" fill="#fff"/><use xlink:href="#m" transform="matrix(1,0,0,1,683.2916666625702,960) translate(28.21487654320987 62.77777777777778)"/><path d="M680 1025c0 33.14-35.82 60-80 60s-80-26.86-80-60 35.82-60 80-60 80 26.86 80 60z" stroke="#3a414a" fill="#fff"/><use xlink:href="#n" transform="matrix(1,0,0,1,520,965) translate(9.727222222222219 62.78777777777778)"/><path d="M605.64 798.48v79.94a2.82 2.82 0 0 1-2.82 2.82 2.82 2.82 0 0 0-2.82 2.82V964" stroke="#3a414a" fill="none"/><path d="M606.14 798.5h-1v-.52h1zM600.5 964.52l-.5-.02h-.5v-.5h1z" stroke="#3a414a" stroke-width=".05" fill="#3a414a"/><path d="M690.92 798.44v74.28a6 6 0 0 0 6 6h60.37a6 6 0 0 1 6 6V959" stroke="#3a414a" fill="none"/><path d="M691.42 798.45h-1v-.5h1zM763.8 959.52l-.5-.02h-.5v-.5h1z" stroke="#3a414a" stroke-width=".05" fill="#3a414a"/><path d="M324 531.67a3.2 3.2 0 0 1-5-2.67V381a3.2 3.2 0 0 1 5-2.67l110 73.34a4 4 0 0 1 0 6.66z" stroke="#3a414a" fill="#fff"/><use xlink:href="#o" transform="matrix(6.123233995736766e-17,-1,1,6.123233995736766e-17,323.99494936611666,530) translate(67.01117283950617 59.02777777777778)"/><path d="M436.8 455h5.57m5.58 0h11.17m5.58 0h5.6l.92-.07.92-.22.87-.35.8-.5.73-.6.6-.72.5-.8.36-.88.2-.9.02-5m0-5v-10m.02-5v-10m0-4.98l.02-10m0-5l.02-10m0-4.98v-5l.08-.95.22-.9.36-.88.5-.8.6-.72.72-.6.8-.5.87-.37.92-.22h4.7m4.72 0h9.43m4.7 0l9.44-.02m4.7 0h9.43m4.72 0l9.4-.02m4.72 0h9.43m4.7 0h9.44m4.7-.02h9.43m4.7 0h4.72l.94.06.9.22.87.36.8.5.72.6.6.72.5.8.36.88.22.9v5.75m.02 5.73l.03 11.48m0 5.75l.02 5.74" stroke="#3a414a" fill="none"/><path d="M436.8 455.5h-.56l.05-.5-.06-.5h.56zM600.95 408.55l-1 .88v-.95h1z" stroke="#3a414a" stroke-width=".05" fill="#3a414a"/><path d="M138.28 530h4.66m4.66 0h9.32m4.66 0h9.32m4.66 0h9.32m4.66 0h9.32m4.66 0h9.32m4.66 0h4.66l.93-.07.9-.22.88-.35.8-.5.72-.6.6-.72.5-.8.36-.88.22-.9v-5.34m0-5.32l.03-10.65m0-5.33l.02-10.66m0-5.33l.02-10.64m0-5.33l.02-5.33.07-.94.22-.9.36-.88.5-.8.6-.72.73-.6.8-.5.87-.37.92-.23h4.7m4.72 0h9.42m4.72-.02h9.42m4.7 0l9.44-.02m4.7 0h9.43m4.7 0l9.44-.02m4.72 0h4.7" stroke="#3a414a" fill="none"/><path d="M138.3 530.5h-.56l.04-.5-.04-.5h.55zM318.53 455.5h-.5v-1h.5zM528.6 144.24H394.05v-1H528.6zm30.45 0h-15.7v-1h15.7z" stroke="#3a414a" stroke-width=".05" fill="#3a414a"/><path fill="#3a414a"/><path stroke="#3a414a" stroke-width=".05" fill="#3a414a"/><path d="M559.55 144.24h-.5v-1h.5z" fill="#3a414a"/><path d="M559.58 144.26H559v-1.05h.58zm-.52-1v.95h.47v-.94z" stroke="#3a414a" stroke-width=".05" fill="#3a414a"/><use xlink:href="#i" transform="matrix(1,0,0,1,528.5990519032953,133.07087274625184) translate(0 14.222222222222223)"/><path d="M875.2 343.6a8 8 0 0 1 9.6 0l70.4 52.8a4.5 4.5 0 0 1 0 7.2l-70.4 52.8a8 8 0 0 1-9.6 0l-70.4-52.8a4.5 4.5 0 0 1 0-7.2z" stroke="#3a414a" fill="#fff"/><use xlink:href="#p" transform="matrix(1,0,0,1,805,345) translate(52.81364197530864 59.02777777777778)"/><path d="M880.5 341h-1l-.03-75.87h1zm-5.48-221.42l1 .24.93.4.87.52.78.66.66.78.53.87.38.94.25 1 .04 118.8h-1l-.04-118.68-.2-.82-.33-.8-.45-.73-.56-.66-.67-.55-.73-.45-.8-.33-.84-.2-.88-.07H720.96v-1h153.06z" stroke="#3a414a" stroke-width=".05" fill="#3a414a"/><path d="M720.98 120.5h-.52v-1h.52z" fill="#3a414a"/><path d="M721 120.53h-.56v-1.06h.56zm-.5-1v.94h.45v-.94z" stroke="#3a414a" stroke-width=".05" fill="#3a414a"/><path d="M880.5 341.53l-.5-.03-.5.03V341h1z" fill="#3a414a"/><path d="M880.52 341.56l-.52-.04-.52.04v-.6h1.04zm-1-.55v.5l.48-.03.48.03v-.5z" stroke="#3a414a" stroke-width=".05" fill="#3a414a"/><use xlink:href="#q" transform="matrix(1,0,0,1,872.6172839506173,243.79643400531162) translate(0 14.222222222222223)"/><path d="M911.5 437.84l-.08 320.67-.24 1.02-.4.95-.53.87-.66.77-.78.67-.87.54-.95.4-1 .24-1 .07H728.6v-1h176.37l.88-.06.84-.2.8-.33.73-.44.65-.56.56-.65.45-.74.32-.8.2-.8.07-320.56z" stroke="#3a414a" stroke-width=".05" fill="#3a414a"/><path d="M728.62 764h-.5v-1h.5z" fill="#3a414a"/><path d="M728.65 764.04h-.57V763h.57zm-.52-1v.95h.47v-.96z" stroke="#3a414a" stroke-width=".05" fill="#3a414a"/><path d="M911.5 437.86h-1v-.14l1-.75z" fill="#3a414a"/><path d="M911.52 437.88h-1.05v-.17l1.05-.78zm-1-.15v.1h.95v-.8zM851.1 698.74l-.26 1-.4.95-.52.86-.66.78-.78.66-.87.53-.93.4-1 .23-1 .08h-116.1v-1h116.07l.88-.07.84-.2.8-.33.73-.45.65-.57.56-.66.46-.73.33-.8.2-.82.03-163.04h1zm.06-259.67l-.02 75.18h-1l.02-75.18z" stroke="#3a414a" stroke-width=".05" fill="#3a414a"/><path d="M728.58 704.24h-.5v-1h.5z" fill="#3a414a"/><path d="M728.6 704.27h-.56v-1.05h.56zm-.5-1v.95h.45v-.95z" stroke="#3a414a" stroke-width=".05" fill="#3a414a"/><path d="M851.16 438.94v.14h-1v-.9z" fill="#3a414a"/><path d="M851.2 438.93v.18h-1.06v-.96zm-1 .13h.94v-.1l-.95-.72z" stroke="#3a414a" stroke-width=".05" fill="#3a414a"/><use xlink:href="#q" transform="matrix(1,0,0,1,843.2789128710505,514.2509221563837) translate(0 14.222222222222223)"/><path d="M1280 260c0 33.14-44.77 60-100 60s-100-26.86-100-60 44.77-60 100-60 100 26.86 100 60z" stroke="#3a414a" fill="#fff"/><use xlink:href="#r" transform="matrix(1,0,0,1,1080,200) translate(15.40623456790126 62.77777777777778)"/><path d="M1180 321v73a6 6 0 0 1-6 6H958" stroke="#3a414a" fill="none"/><path d="M1180 320.5h.5v.5h-1v-.5zM958 400.5h-.54l.04-.5-.04-.5h.55z" stroke="#3a414a" stroke-width=".05" fill="#3a414a"/><path d="M1300 60c0 33.14-35.82 60-80 60s-80-26.86-80-60 35.82-60 80-60 80 26.86 80 60z" stroke="#3a414a" fill="#fff"/><use xlink:href="#s" transform="matrix(1,0,0,1,1140,0) translate(56.57907407407408 62.77777777777778)"/><path d="M1180 199v-33a6 6 0 0 1 6-6h28a6 6 0 0 0 6-6v-33" stroke="#3a414a" fill="none"/><path d="M1180.5 199.5h-1v-.5h1zM1220 120.5h.5v.5h-1v-.52z" stroke="#3a414a" stroke-width=".05" fill="#3a414a"/><path d="M1500 120c0 33.14-35.82 60-80 60s-80-26.86-80-60 35.82-60 80-60 80 26.86 80 60z" stroke="#3a414a" fill="#fff"/><use xlink:href="#t" transform="matrix(1,0,0,1,1340,60) translate(55.80746913580247 62.77777777777778)"/><path d="M1247.06 214.43v-10.7a6 6 0 0 1 6-6H1414a6 6 0 0 0 6-6V181" stroke="#3a414a" fill="none"/><path d="M1247.56 215.2l-.02-.02-.98-.5v-.26h1zM1420 180.5h.5v.5h-1v-.52z" stroke="#3a414a" stroke-width=".05" fill="#3a414a"/><path d="M1100 60c0 33.14-35.82 60-80 60s-80-26.86-80-60 35.82-60 80-60 80 26.86 80 60z" stroke="#3a414a" fill="#fff"/><use xlink:href="#u" transform="matrix(1,0,0,1,940,0) translate(48.58524691358024 62.77777777777778)"/><path d="M1126.1 208.43v-37.96a6 6 0 0 0-6-6h-103.85a6 6 0 0 1-6-6V120.5" stroke="#3a414a" fill="none"/><path d="M1126.6 208.75l-1 .36v-.7h1zM1010.75 120.06v.46h-1v-.56zM35.1 767.18l.2.82.32.8.45.73.56.66.66.55.72.45.8.33.84.2.88.07H566.7v1H40.5l-1-.08-1-.24-.93-.4-.87-.52-.78-.66-.66-.78-.53-.87-.4-.94-.24-1L34 578.8h1z" stroke="#3a414a" stroke-width=".05" fill="#3a414a"/><path d="M567.2 772.8h-.53v-1h.52z" fill="#3a414a"/><path d="M567.2 772.82h-.55v-1.05h.56zm-.5-1v.95h.46v-.95z" stroke="#3a414a" stroke-width=".05" fill="#3a414a"/><path d="M35.02 578.74l-1 .08v-.95z" fill="#3a414a"/><path d="M35.08 578.76l-1.08.08v-1.03zm-1.03.03l.9-.08-.9-.8z" stroke="#3a414a" stroke-width=".05" fill="#3a414a"/><path d="M620.6 676.55V499.13" stroke="#3a414a" fill="none"/><path d="M621.1 677.05h-1v-.5h1zM621.1 499.06v.08h-1v-.95z" stroke="#3a414a" stroke-width=".05" fill="#3a414a"/><defs><path fill="#3a414a" d="M106-169C34-169 62-67 57 0H25v-261h32l-1 103c12-21 28-36 61-36 89 0 53 116 60 194h-32v-121c2-32-8-49-39-48" id="v"/><path fill="#3a414a" d="M100-194c62-1 85 37 85 99 1 63-27 99-86 99S16-35 15-95c0-66 28-99 85-99zM99-20c44 1 53-31 53-75 0-43-8-75-51-75s-53 32-53 75 10 74 51 75" id="w"/><path fill="#3a414a" d="M135-143c-3-34-86-38-87 0 15 53 115 12 119 90S17 21 10-45l28-5c4 36 97 45 98 0-10-56-113-15-118-90-4-57 82-63 122-42 12 7 21 19 24 35" id="x"/><path fill="#3a414a" d="M115-194c55 1 70 41 70 98S169 2 115 4C84 4 66-9 55-30l1 105H24l-1-265h31l2 30c10-21 28-34 59-34zm-8 174c40 0 45-34 45-75s-6-73-45-74c-42 0-51 32-51 76 0 43 10 73 51 73" id="y"/><path fill="#3a414a" d="M24-231v-30h32v30H24zM24 0v-190h32V0H24" id="z"/><path fill="#3a414a" d="M59-47c-2 24 18 29 38 22v24C64 9 27 4 27-40v-127H5v-23h24l9-43h21v43h35v23H59v120" id="A"/><path fill="#3a414a" d="M141-36C126-15 110 5 73 4 37 3 15-17 15-53c-1-64 63-63 125-63 3-35-9-54-41-54-24 1-41 7-42 31l-33-3c5-37 33-52 76-52 45 0 72 20 72 64v82c-1 20 7 32 28 27v20c-31 9-61-2-59-35zM48-53c0 20 12 33 32 33 41-3 63-29 60-74-43 2-92-5-92 41" id="B"/><path fill="#3a414a" d="M24 0v-261h32V0H24" id="C"/><g id="a"><use transform="matrix(0.06172839506172839,0,0,0.06172839506172839,0,0)" xlink:href="#v"/><use transform="matrix(0.06172839506172839,0,0,0.06172839506172839,12.345679012345679,0)" xlink:href="#w"/><use transform="matrix(0.06172839506172839,0,0,0.06172839506172839,24.691358024691358,0)" xlink:href="#x"/><use transform="matrix(0.06172839506172839,0,0,0.06172839506172839,35.80246913580247,0)" xlink:href="#y"/><use transform="matrix(0.06172839506172839,0,0,0.06172839506172839,48.148148148148145,0)" xlink:href="#z"/><use transform="matrix(0.06172839506172839,0,0,0.06172839506172839,53.02469135802469,0)" xlink:href="#A"/><use transform="matrix(0.06172839506172839,0,0,0.06172839506172839,59.19753086419753,0)" xlink:href="#B"/><use transform="matrix(0.06172839506172839,0,0,0.06172839506172839,71.54320987654322,0)" xlink:href="#C"/></g><path fill="#3a414a" d="M179-190L93 31C79 59 56 82 12 73V49c39 6 53-20 64-50L1-190h34L92-34l54-156h33" id="D"/><path fill="#3a414a" d="M96-169c-40 0-48 33-48 73s9 75 48 75c24 0 41-14 43-38l32 2c-6 37-31 61-74 61-59 0-76-41-82-99-10-93 101-131 147-64 4 7 5 14 7 22l-32 3c-4-21-16-35-41-35" id="E"/><path fill="#3a414a" d="M117-194c89-4 53 116 60 194h-32v-121c0-31-8-49-39-48C34-167 62-67 57 0H25l-1-190h30c1 10-1 24 2 32 11-22 29-35 61-36" id="F"/><g id="b"><use transform="matrix(0.06172839506172839,0,0,0.06172839506172839,0,0)" xlink:href="#y"/><use transform="matrix(0.06172839506172839,0,0,0.06172839506172839,12.345679012345679,0)" xlink:href="#v"/><use transform="matrix(0.06172839506172839,0,0,0.06172839506172839,24.691358024691358,0)" xlink:href="#D"/><use transform="matrix(0.06172839506172839,0,0,0.06172839506172839,35.80246913580247,0)" xlink:href="#x"/><use transform="matrix(0.06172839506172839,0,0,0.06172839506172839,46.91358024691358,0)" xlink:href="#z"/><use transform="matrix(0.06172839506172839,0,0,0.06172839506172839,51.79012345679013,0)" xlink:href="#E"/><use transform="matrix(0.06172839506172839,0,0,0.06172839506172839,62.90123456790124,0)" xlink:href="#z"/><use transform="matrix(0.06172839506172839,0,0,0.06172839506172839,67.77777777777779,0)" xlink:href="#B"/><use transform="matrix(0.06172839506172839,0,0,0.06172839506172839,80.12345679012347,0)" xlink:href="#F"/><use transform="matrix(0.06172839506172839,0,0,0.06172839506172839,92.46913580246915,0)" xlink:href="#x"/></g><path fill="#3a414a" d="M114-163C36-179 61-72 57 0H25l-1-190h30c1 12-1 29 2 39 6-27 23-49 58-41v29" id="G"/><path fill="#3a414a" d="M100-194c63 0 86 42 84 106H49c0 40 14 67 53 68 26 1 43-12 49-29l28 8c-11 28-37 45-77 45C44 4 14-33 15-96c1-61 26-98 85-98zm52 81c6-60-76-77-97-28-3 7-6 17-6 28h103" id="H"/><path fill="#3a414a" d="M177-190C167-65 218 103 67 71c-23-6-38-20-44-43l32-5c15 47 100 32 89-28v-30C133-14 115 1 83 1 29 1 15-40 15-95c0-56 16-97 71-98 29-1 48 16 59 35 1-10 0-23 2-32h30zM94-22c36 0 50-32 50-73 0-42-14-75-50-75-39 0-46 34-46 75s6 73 46 73" id="I"/><path fill="#3a414a" d="M85-194c31 0 48 13 60 33l-1-100h32l1 261h-30c-2-10 0-23-3-31C134-8 116 4 85 4 32 4 16-35 15-94c0-66 23-100 70-100zm9 24c-40 0-46 34-46 75 0 40 6 74 45 74 42 0 51-32 51-76 0-42-9-74-50-73" id="J"/><g id="c"><use transform="matrix(0.06172839506172839,0,0,0.06172839506172839,0,0)" xlink:href="#G"/><use transform="matrix(0.06172839506172839,0,0,0.06172839506172839,7.345679012345679,0)" xlink:href="#H"/><use transform="matrix(0.06172839506172839,0,0,0.06172839506172839,19.691358024691358,0)" xlink:href="#I"/><use transform="matrix(0.06172839506172839,0,0,0.06172839506172839,32.03703703703704,0)" xlink:href="#z"/><use transform="matrix(0.06172839506172839,0,0,0.06172839506172839,36.91358024691358,0)" xlink:href="#x"/><use transform="matrix(0.06172839506172839,0,0,0.06172839506172839,48.0246913580247,0)" xlink:href="#A"/><use transform="matrix(0.06172839506172839,0,0,0.06172839506172839,54.19753086419754,0)" xlink:href="#H"/><use transform="matrix(0.06172839506172839,0,0,0.06172839506172839,66.54320987654322,0)" xlink:href="#G"/><use transform="matrix(0.06172839506172839,0,0,0.06172839506172839,73.8888888888889,0)" xlink:href="#H"/><use transform="matrix(0.06172839506172839,0,0,0.06172839506172839,86.23456790123458,0)" xlink:href="#J"/></g><path fill="#333" d="M23 0v-37h61v-169l-59 37v-38l62-41h46v211h57V0H23" id="K"/><use transform="matrix(0.04938271604938272,0,0,0.04938271604938272,0,0)" xlink:href="#K" id="d"/><path fill="#3a414a" d="M30-248c87 1 191-15 191 75 0 78-77 80-158 76V0H30v-248zm33 125c57 0 124 11 124-50 0-59-68-47-124-48v98" id="L"/><path fill="#3a414a" d="M-5 72V49h209v23H-5" id="M"/><path fill="#3a414a" d="M33 0v-248h34V0H33" id="N"/><path fill="#3a414a" d="M30-248c118-7 216 8 213 122C240-48 200 0 122 0H30v-248zM63-27c89 8 146-16 146-99s-60-101-146-95v194" id="O"/><g id="e"><use transform="matrix(0.06172839506172839,0,0,0.06172839506172839,0,0)" xlink:href="#L"/><use transform="matrix(0.06172839506172839,0,0,0.06172839506172839,14.814814814814813,0)" xlink:href="#v"/><use transform="matrix(0.06172839506172839,0,0,0.06172839506172839,27.160493827160494,0)" xlink:href="#D"/><use transform="matrix(0.06172839506172839,0,0,0.06172839506172839,38.27160493827161,0)" xlink:href="#x"/><use transform="matrix(0.06172839506172839,0,0,0.06172839506172839,49.38271604938272,0)" xlink:href="#z"/><use transform="matrix(0.06172839506172839,0,0,0.06172839506172839,54.25925925925927,0)" xlink:href="#E"/><use transform="matrix(0.06172839506172839,0,0,0.06172839506172839,65.37037037037038,0)" xlink:href="#z"/><use transform="matrix(0.06172839506172839,0,0,0.06172839506172839,70.24691358024693,0)" xlink:href="#B"/><use transform="matrix(0.06172839506172839,0,0,0.06172839506172839,82.59259259259261,0)" xlink:href="#F"/><use transform="matrix(0.06172839506172839,0,0,0.06172839506172839,94.9382716049383,0)" xlink:href="#M"/><use transform="matrix(0.06172839506172839,0,0,0.06172839506172839,107.28395061728398,0)" xlink:href="#N"/><use transform="matrix(0.06172839506172839,0,0,0.06172839506172839,113.45679012345681,0)" xlink:href="#O"/><path fill="#3a414a" d="M-1.1 1.54h131.66v1.63H-1.1z"/></g><path fill="#3a414a" d="M185-189c-5-48-123-54-124 2 14 75 158 14 163 119 3 78-121 87-175 55-17-10-28-26-33-46l33-7c5 56 141 63 141-1 0-78-155-14-162-118-5-82 145-84 179-34 5 7 8 16 11 25" id="P"/><g id="f"><use transform="matrix(0.06172839506172839,0,0,0.06172839506172839,0,0)" xlink:href="#P"/><use transform="matrix(0.06172839506172839,0,0,0.06172839506172839,14.814814814814813,0)" xlink:href="#y"/><use transform="matrix(0.06172839506172839,0,0,0.06172839506172839,27.160493827160494,0)" xlink:href="#H"/><use transform="matrix(0.06172839506172839,0,0,0.06172839506172839,39.50617283950617,0)" xlink:href="#E"/><use transform="matrix(0.06172839506172839,0,0,0.06172839506172839,50.61728395061728,0)" xlink:href="#z"/><use transform="matrix(0.06172839506172839,0,0,0.06172839506172839,55.49382716049382,0)" xlink:href="#B"/><use transform="matrix(0.06172839506172839,0,0,0.06172839506172839,67.8395061728395,0)" xlink:href="#C"/><use transform="matrix(0.06172839506172839,0,0,0.06172839506172839,72.71604938271605,0)" xlink:href="#A"/><use transform="matrix(0.06172839506172839,0,0,0.06172839506172839,78.88888888888889,0)" xlink:href="#D"/></g><g id="g"><use transform="matrix(0.06172839506172839,0,0,0.06172839506172839,0,0)" xlink:href="#y"/><use transform="matrix(0.06172839506172839,0,0,0.06172839506172839,12.345679012345679,0)" xlink:href="#B"/><use transform="matrix(0.06172839506172839,0,0,0.06172839506172839,24.691358024691358,0)" xlink:href="#A"/><use transform="matrix(0.06172839506172839,0,0,0.06172839506172839,30.864197530864196,0)" xlink:href="#z"/><use transform="matrix(0.06172839506172839,0,0,0.06172839506172839,35.74074074074074,0)" xlink:href="#H"/><use transform="matrix(0.06172839506172839,0,0,0.06172839506172839,48.08641975308642,0)" xlink:href="#F"/><use transform="matrix(0.06172839506172839,0,0,0.06172839506172839,60.432098765432094,0)" xlink:href="#A"/><use transform="matrix(0.06172839506172839,0,0,0.06172839506172839,66.60493827160494,0)" xlink:href="#x"/></g><use transform="matrix(0.04938271604938272,0,0,0.04938271604938272,0,0)" xlink:href="#K" id="h"/><path fill="#333" d="M230 0l2-204L168 0h-37L68-204 70 0H24v-248h70l56 185 57-185h69V0h-46" id="Q"/><use transform="matrix(0.04938271604938272,0,0,0.04938271604938272,0,0)" xlink:href="#Q" id="i"/><path fill="#3a414a" d="M210-169c-67 3-38 105-44 169h-31v-121c0-29-5-50-35-48C34-165 62-65 56 0H25l-1-190h30c1 10-1 24 2 32 10-44 99-50 107 0 11-21 27-35 58-36 85-2 47 119 55 194h-31v-121c0-29-5-49-35-48" id="R"/><g id="j"><use transform="matrix(0.06172839506172839,0,0,0.06172839506172839,0,0)" xlink:href="#B"/><use transform="matrix(0.06172839506172839,0,0,0.06172839506172839,12.345679012345679,0)" xlink:href="#J"/><use transform="matrix(0.06172839506172839,0,0,0.06172839506172839,24.691358024691358,0)" xlink:href="#R"/><use transform="matrix(0.06172839506172839,0,0,0.06172839506172839,43.148148148148145,0)" xlink:href="#z"/><use transform="matrix(0.06172839506172839,0,0,0.06172839506172839,48.02469135802469,0)" xlink:href="#A"/><use transform="matrix(0.06172839506172839,0,0,0.06172839506172839,54.19753086419753,0)" xlink:href="#A"/><use transform="matrix(0.06172839506172839,0,0,0.06172839506172839,60.370370370370374,0)" xlink:href="#H"/><use transform="matrix(0.06172839506172839,0,0,0.06172839506172839,72.71604938271605,0)" xlink:href="#J"/></g><g id="k"><use transform="matrix(0.06172839506172839,0,0,0.06172839506172839,0,0)" xlink:href="#A"/><use transform="matrix(0.06172839506172839,0,0,0.06172839506172839,6.172839506172839,0)" xlink:href="#w"/></g><path fill="#3a414a" d="M115-194c53 0 69 39 70 98 0 66-23 100-70 100C84 3 66-7 56-30L54 0H23l1-261h32v101c10-23 28-34 59-34zm-8 174c40 0 45-34 45-75 0-40-5-75-45-74-42 0-51 32-51 76 0 43 10 73 51 73" id="S"/><g id="l"><use transform="matrix(0.06172839506172839,0,0,0.06172839506172839,0,0)" xlink:href="#S"/><use transform="matrix(0.06172839506172839,0,0,0.06172839506172839,12.345679012345679,0)" xlink:href="#D"/></g><g id="m"><use transform="matrix(0.06172839506172839,0,0,0.06172839506172839,0,0)" xlink:href="#L"/><use transform="matrix(0.06172839506172839,0,0,0.06172839506172839,14.814814814814813,0)" xlink:href="#B"/><use transform="matrix(0.06172839506172839,0,0,0.06172839506172839,27.160493827160494,0)" xlink:href="#A"/><use transform="matrix(0.06172839506172839,0,0,0.06172839506172839,33.333333333333336,0)" xlink:href="#z"/><use transform="matrix(0.06172839506172839,0,0,0.06172839506172839,38.20987654320988,0)" xlink:href="#H"/><use transform="matrix(0.06172839506172839,0,0,0.06172839506172839,50.55555555555556,0)" xlink:href="#F"/><use transform="matrix(0.06172839506172839,0,0,0.06172839506172839,62.901234567901234,0)" xlink:href="#A"/><use transform="matrix(0.06172839506172839,0,0,0.06172839506172839,69.07407407407408,0)" xlink:href="#M"/><use transform="matrix(0.06172839506172839,0,0,0.06172839506172839,81.41975308641976,0)" xlink:href="#N"/><use transform="matrix(0.06172839506172839,0,0,0.06172839506172839,87.5925925925926,0)" xlink:href="#O"/><path fill="#3a414a" d="M-1.1 1.54h105.8v1.63H-1.1z"/></g><path fill="#3a414a" d="M190 0L58-211 59 0H30v-248h39L202-35l-2-213h31V0h-41" id="T"/><g id="n"><use transform="matrix(0.06172839506172839,0,0,0.06172839506172839,0,0)" xlink:href="#L"/><use transform="matrix(0.06172839506172839,0,0,0.06172839506172839,14.814814814814813,0)" xlink:href="#B"/><use transform="matrix(0.06172839506172839,0,0,0.06172839506172839,27.160493827160494,0)" xlink:href="#A"/><use transform="matrix(0.06172839506172839,0,0,0.06172839506172839,33.333333333333336,0)" xlink:href="#z"/><use transform="matrix(0.06172839506172839,0,0,0.06172839506172839,38.20987654320988,0)" xlink:href="#H"/><use transform="matrix(0.06172839506172839,0,0,0.06172839506172839,50.55555555555556,0)" xlink:href="#F"/><use transform="matrix(0.06172839506172839,0,0,0.06172839506172839,62.901234567901234,0)" xlink:href="#A"/><use transform="matrix(0.06172839506172839,0,0,0.06172839506172839,69.07407407407408,0)" xlink:href="#M"/><use transform="matrix(0.06172839506172839,0,0,0.06172839506172839,81.41975308641976,0)" xlink:href="#T"/><use transform="matrix(0.06172839506172839,0,0,0.06172839506172839,97.40740740740742,0)" xlink:href="#B"/><use transform="matrix(0.06172839506172839,0,0,0.06172839506172839,109.7530864197531,0)" xlink:href="#R"/><use transform="matrix(0.06172839506172839,0,0,0.06172839506172839,128.2098765432099,0)" xlink:href="#H"/></g><path fill="#3a414a" d="M233-177c-1 41-23 64-60 70L243 0h-38l-65-103H63V0H30v-248c88 3 205-21 203 71zM63-129c60-2 137 13 137-47 0-61-80-42-137-45v92" id="U"/><use transform="matrix(0.06172839506172839,0,0,0.06172839506172839,0,0)" xlink:href="#U" id="o"/><g id="p"><use transform="matrix(0.06172839506172839,0,0,0.06172839506172839,0,0)" xlink:href="#A"/><use transform="matrix(0.06172839506172839,0,0,0.06172839506172839,6.172839506172839,0)" xlink:href="#G"/><use transform="matrix(0.06172839506172839,0,0,0.06172839506172839,13.518518518518519,0)" xlink:href="#H"/><use transform="matrix(0.06172839506172839,0,0,0.06172839506172839,25.864197530864196,0)" xlink:href="#B"/><use transform="matrix(0.06172839506172839,0,0,0.06172839506172839,38.20987654320987,0)" xlink:href="#A"/></g><use transform="matrix(0.04938271604938272,0,0,0.04938271604938272,0,0)" xlink:href="#Q" id="q"/><path fill="#3a414a" d="M127-220V0H93v-220H8v-28h204v28h-85" id="V"/><g id="r"><use transform="matrix(0.06172839506172839,0,0,0.06172839506172839,0,0)" xlink:href="#V"/><use transform="matrix(0.06172839506172839,0,0,0.06172839506172839,12.716049382716047,0)" xlink:href="#G"/><use transform="matrix(0.06172839506172839,0,0,0.06172839506172839,20.061728395061728,0)" xlink:href="#H"/><use transform="matrix(0.06172839506172839,0,0,0.06172839506172839,32.407407407407405,0)" xlink:href="#B"/><use transform="matrix(0.06172839506172839,0,0,0.06172839506172839,44.75308641975308,0)" xlink:href="#A"/><use transform="matrix(0.06172839506172839,0,0,0.06172839506172839,50.925925925925924,0)" xlink:href="#R"/><use transform="matrix(0.06172839506172839,0,0,0.06172839506172839,69.38271604938271,0)" xlink:href="#H"/><use transform="matrix(0.06172839506172839,0,0,0.06172839506172839,81.72839506172839,0)" xlink:href="#F"/><use transform="matrix(0.06172839506172839,0,0,0.06172839506172839,94.07407407407408,0)" xlink:href="#A"/><use transform="matrix(0.06172839506172839,0,0,0.06172839506172839,100.24691358024691,0)" xlink:href="#M"/><use transform="matrix(0.06172839506172839,0,0,0.06172839506172839,112.5925925925926,0)" xlink:href="#O"/><use transform="matrix(0.06172839506172839,0,0,0.06172839506172839,128.58024691358025,0)" xlink:href="#H"/><use transform="matrix(0.06172839506172839,0,0,0.06172839506172839,140.92592592592592,0)" xlink:href="#A"/><use transform="matrix(0.06172839506172839,0,0,0.06172839506172839,147.09876543209876,0)" xlink:href="#B"/><use transform="matrix(0.06172839506172839,0,0,0.06172839506172839,159.44444444444443,0)" xlink:href="#z"/><use transform="matrix(0.06172839506172839,0,0,0.06172839506172839,164.32098765432096,0)" xlink:href="#C"/></g><g id="s"><use transform="matrix(0.06172839506172839,0,0,0.06172839506172839,0,0)" xlink:href="#O"/><use transform="matrix(0.06172839506172839,0,0,0.06172839506172839,15.987654320987653,0)" xlink:href="#B"/><use transform="matrix(0.06172839506172839,0,0,0.06172839506172839,28.333333333333332,0)" xlink:href="#A"/><use transform="matrix(0.06172839506172839,0,0,0.06172839506172839,34.50617283950617,0)" xlink:href="#H"/></g><g id="t"><use transform="matrix(0.06172839506172839,0,0,0.06172839506172839,0,0)" xlink:href="#V"/><use transform="matrix(0.06172839506172839,0,0,0.06172839506172839,12.716049382716047,0)" xlink:href="#z"/><use transform="matrix(0.06172839506172839,0,0,0.06172839506172839,17.592592592592588,0)" xlink:href="#R"/><use transform="matrix(0.06172839506172839,0,0,0.06172839506172839,36.04938271604938,0)" xlink:href="#H"/></g><path fill="#3a414a" d="M84 4C-5 8 30-112 23-190h32v120c0 31 7 50 39 49 72-2 45-101 50-169h31l1 190h-30c-1-10 1-25-2-33-11 22-28 36-60 37" id="W"/><g id="u"><use transform="matrix(0.06172839506172839,0,0,0.06172839506172839,0,0)" xlink:href="#U"/><use transform="matrix(0.06172839506172839,0,0,0.06172839506172839,15.987654320987653,0)" xlink:href="#H"/><use transform="matrix(0.06172839506172839,0,0,0.06172839506172839,28.333333333333332,0)" xlink:href="#x"/><use transform="matrix(0.06172839506172839,0,0,0.06172839506172839,39.44444444444444,0)" xlink:href="#W"/><use transform="matrix(0.06172839506172839,0,0,0.06172839506172839,51.79012345679012,0)" xlink:href="#C"/><use transform="matrix(0.06172839506172839,0,0,0.06172839506172839,56.666666666666664,0)" xlink:href="#A"/></g></defs></g></svg>