<svg xmlns="http://www.w3.org/2000/svg" xmlns:xlink="http://www.w3.org/1999/xlink" xmlns:lucid="lucid" width="1274.11" height="305.23"><g transform="translate(-200 -480)" lucid:page-tab-id="0_0"><path d="M220 500h97v90h-97zM317 500h180v90H317zM497 500h298v90H497zM795 500h114v90H795zM909 500h121.1v90H909zM1030.1 500h295v90h-295zM1325.1 500h129v90h-129z" fill="#9cf"/><path d="M220 590h97v175.23h-97zM317 590h180v175.23H317zM497 590h298v175.23H497zM795 590h114v175.23H795zM909 590h121.1v175.23H909zM1030.1 590h295v175.23h-295zM1325.1 590h129v175.23h-129z" fill="#fff"/><path d="M220 500v90M317 500v90M497 500v90M795 500v90M909 500v90M1030.1 500v90M1325.1 500v90M1454.1 500v90M220 590v175.23M317 590v175.23M497 590v175.23M795 590v175.23M909 590v175.23M1030.1 590v175.23M1325.1 590v175.23M1454.1 590v175.23M220 500h97M317 500h180M497 500h298M795 500h114M909 500h121.1M1030.1 500h295M1325.1 500h129M220 590h97M220 765.23h97M317 590h180M317 765.23h180M497 590h298M497 765.23h298M795 590h114M795 765.23h114M909 590h121.1M909 765.23h121.1M1030.1 590h295M1030.1 765.23h295M1325.1 590h129M1325.1 765.23h129" stroke="#3a414a" fill="none"/><use xlink:href="#a" transform="matrix(1,0,0,1,225,505) translate(9.580246913580247 44.44444444444444)"/><use xlink:href="#b" transform="matrix(1,0,0,1,225,505) translate(55.25925925925926 44.44444444444444)"/><use xlink:href="#a" transform="matrix(1,0,0,1,322,505) translate(4.197530864197546 44.44444444444444)"/><use xlink:href="#c" transform="matrix(1,0,0,1,322,505) translate(49.87654320987656 44.44444444444444)"/><use xlink:href="#d" transform="matrix(1,0,0,1,322,505) translate(118.95061728395062 44.44444444444444)"/><use xlink:href="#e" transform="matrix(1,0,0,1,502,505) translate(88.5679012345679 44.44444444444444)"/><use xlink:href="#f" transform="matrix(1,0,0,1,800,505) translate(17.555555555555557 44.44444444444444)"/><use xlink:href="#g" transform="matrix(1,0,0,1,914,505) translate(6.061728395061735 44.44444444444444)"/><use xlink:href="#h" transform="matrix(1,0,0,1,914,505) translate(59.086419753086425 44.44444444444444)"/><use xlink:href="#i" transform="matrix(1,0,0,1,1035.111111111111,505) translate(119.07407407407408 44.44444444444444)"/><use xlink:href="#j" transform="matrix(1,0,0,1,1330.111111111111,505) translate(15.055555555555557 44.44444444444444)"/><use xlink:href="#k" transform="matrix(1,0,0,1,1330.111111111111,505) translate(60.73456790123457 44.44444444444444)"/><use xlink:href="#l" transform="matrix(1,0,0,1,225,595) translate(37.32716049382716 87.44444444444446)"/><use xlink:href="#m" transform="matrix(1,0,0,1,322,595) translate(29.444444444444436 87.44444444444446)"/><use xlink:href="#n" transform="matrix(1,0,0,1,502,595) translate(4.918619791666657 30.71223958333332)"/><use xlink:href="#o" transform="matrix(1,0,0,1,502,595) translate(56.47005208333333 30.71223958333332)"/><use xlink:href="#p" transform="matrix(1,0,0,1,502,595) translate(70.61263020833333 30.71223958333332)"/><use xlink:href="#q" transform="matrix(1,0,0,1,502,595) translate(163.84700520833334 30.71223958333332)"/><use xlink:href="#r" transform="matrix(1,0,0,1,502,595) translate(247.50911458333334 30.71223958333332)"/><use xlink:href="#s" transform="matrix(1,0,0,1,502,595) translate(14.507812499999972 54.31705729166666)"/><use xlink:href="#t" transform="matrix(1,0,0,1,502,595) translate(35.59895833333331 54.31705729166666)"/><use xlink:href="#u" transform="matrix(1,0,0,1,502,595) translate(93.35416666666664 54.31705729166666)"/><use xlink:href="#v" transform="matrix(1,0,0,1,502,595) translate(121.27539062499999 54.31705729166666)"/><use xlink:href="#w" transform="matrix(1,0,0,1,502,595) translate(190.083984375 54.31705729166666)"/><use xlink:href="#x" transform="matrix(1,0,0,1,502,595) translate(18.269856770833314 77.921875)"/><use xlink:href="#y" transform="matrix(1,0,0,1,502,595) translate(49.254882812499986 77.921875)"/><use xlink:href="#z" transform="matrix(1,0,0,1,502,595) translate(123.56477864583333 77.921875)"/><use xlink:href="#A" transform="matrix(1,0,0,1,502,595) translate(194.20149739583334 77.921875)"/><use xlink:href="#B" transform="matrix(1,0,0,1,502,595) translate(228.65657552083334 77.921875)"/><use xlink:href="#C" transform="matrix(1,0,0,1,502,595) translate(7.724283854166657 101.52669270833331)"/><use xlink:href="#D" transform="matrix(1,0,0,1,502,595) translate(51.751627604166664 101.52669270833331)"/><use xlink:href="#E" transform="matrix(1,0,0,1,502,595) translate(179.36490885416666 101.52669270833331)"/><use xlink:href="#F" transform="matrix(1,0,0,1,502,595) translate(52.41178385416666 125.13151041666666)"/><use xlink:href="#G" transform="matrix(1,0,0,1,502,595) translate(106.4853515625 125.13151041666666)"/><use xlink:href="#H" transform="matrix(1,0,0,1,502,595) translate(139.53548177083331 125.13151041666666)"/><use xlink:href="#I" transform="matrix(1,0,0,1,502,595) translate(165.14615885416669 125.13151041666666)"/><use xlink:href="#J" transform="matrix(1,0,0,1,502,595) translate(84.73828125 148.73632812500003)"/><g><use xlink:href="#K" transform="matrix(1,0,0,1,800,595) translate(31.043209876543212 87.44444444444446)"/></g><g><use xlink:href="#L" transform="matrix(1,0,0,1,914,595) translate(0.44444444444443576 87.44444444444446)"/></g><g><use xlink:href="#M" transform="matrix(1,0,0,1,1035.111111111111,595) translate(9.8720703125 18.90983072916665)"/><use xlink:href="#N" transform="matrix(1,0,0,1,1035.111111111111,595) translate(65.0458984375 18.90983072916665)"/><use xlink:href="#O" transform="matrix(1,0,0,1,1035.111111111111,595) translate(100.91438802083334 18.90983072916665)"/><use xlink:href="#P" transform="matrix(1,0,0,1,1035.111111111111,595) translate(136.80826822916669 18.90983072916665)"/><use xlink:href="#Q" transform="matrix(1,0,0,1,1035.111111111111,595) translate(198.45670572916669 18.90983072916665)"/><use xlink:href="#R" transform="matrix(1,0,0,1,1035.111111111111,595) translate(221.96842447916669 18.90983072916665)"/><use xlink:href="#S" transform="matrix(1,0,0,1,1035.111111111111,595) translate(1.2688802083333428 42.514648437499986)"/><use xlink:href="#s" transform="matrix(1,0,0,1,1035.111111111111,595) translate(94.75716145833336 42.514648437499986)"/><use xlink:href="#T" transform="matrix(1,0,0,1,1035.111111111111,595) translate(115.84830729166669 42.514648437499986)"/><use xlink:href="#o" transform="matrix(1,0,0,1,1035.111111111111,595) translate(178.74088541666669 42.514648437499986)"/><use xlink:href="#U" transform="matrix(1,0,0,1,1035.111111111111,595) translate(192.88346354166669 42.514648437499986)"/><use xlink:href="#V" transform="matrix(1,0,0,1,1035.111111111111,595) translate(251.21419270833334 42.514648437499986)"/><use xlink:href="#W" transform="matrix(1,0,0,1,1035.111111111111,595) translate(9.918619791666657 66.11946614583331)"/><use xlink:href="#X" transform="matrix(1,0,0,1,1035.111111111111,595) translate(65.744140625 66.11946614583331)"/><use xlink:href="#Y" transform="matrix(1,0,0,1,1035.111111111111,595) translate(94.82486979166666 66.11946614583331)"/><use xlink:href="#Z" transform="matrix(1,0,0,1,1035.111111111111,595) translate(140.037109375 66.11946614583331)"/><use xlink:href="#aa" transform="matrix(1,0,0,1,1035.111111111111,595) translate(205.35026041666669 66.11946614583331)"/><use xlink:href="#ab" transform="matrix(1,0,0,1,1035.111111111111,595) translate(225.48502604166669 66.11946614583331)"/><use xlink:href="#ac" transform="matrix(1,0,0,1,1035.111111111111,595) translate(31.361002604166643 89.72428385416666)"/><use xlink:href="#Z" transform="matrix(1,0,0,1,1035.111111111111,595) translate(56.209960937499986 89.72428385416666)"/><use xlink:href="#ad" transform="matrix(1,0,0,1,1035.111111111111,595) translate(121.52311197916667 89.72428385416666)"/><use xlink:href="#ae" transform="matrix(1,0,0,1,1035.111111111111,595) translate(141.04850260416669 89.72428385416666)"/><use xlink:href="#af" transform="matrix(1,0,0,1,1035.111111111111,595) translate(196.95865885416669 89.72428385416666)"/><use xlink:href="#ag" transform="matrix(1,0,0,1,1035.111111111111,595) translate(14.438151041666657 113.3291015625)"/><use xlink:href="#Q" transform="matrix(1,0,0,1,1035.111111111111,595) translate(91.53255208333333 113.3291015625)"/><use xlink:href="#ah" transform="matrix(1,0,0,1,1035.111111111111,595) translate(115.04427083333333 113.3291015625)"/><use xlink:href="#ai" transform="matrix(1,0,0,1,1035.111111111111,595) translate(176.96354166666666 113.3291015625)"/><use xlink:href="#aj" transform="matrix(1,0,0,1,1035.111111111111,595) translate(213.98307291666666 113.3291015625)"/><use xlink:href="#ak" transform="matrix(1,0,0,1,1035.111111111111,595) translate(254.21875 113.3291015625)"/><use xlink:href="#x" transform="matrix(1,0,0,1,1035.111111111111,595) translate(47.00162760416666 136.93391927083334)"/><use xlink:href="#al" transform="matrix(1,0,0,1,1035.111111111111,595) translate(77.98665364583333 136.93391927083334)"/><use xlink:href="#am" transform="matrix(1,0,0,1,1035.111111111111,595) translate(113.25423177083333 136.93391927083334)"/><use xlink:href="#an" transform="matrix(1,0,0,1,1035.111111111111,595) translate(157.2392578125 136.93391927083334)"/><use xlink:href="#o" transform="matrix(1,0,0,1,1035.111111111111,595) translate(209.76399739583334 136.93391927083334)"/><use xlink:href="#ao" transform="matrix(1,0,0,1,1035.111111111111,595) translate(223.90657552083334 136.93391927083334)"/><use xlink:href="#ap" transform="matrix(1,0,0,1,1035.111111111111,595) translate(16.456705729166657 160.53873697916669)"/><use xlink:href="#aq" transform="matrix(1,0,0,1,1035.111111111111,595) translate(143.36751302083334 160.53873697916669)"/><use xlink:href="#ar" transform="matrix(1,0,0,1,1035.111111111111,595) translate(167.69173177083334 160.53873697916669)"/><use xlink:href="#as" transform="matrix(1,0,0,1,1035.111111111111,595) translate(212.02376302083334 160.53873697916669)"/></g><g><use xlink:href="#L" transform="matrix(1,0,0,1,1330.111111111111,595) translate(3.9444444444444358 87.44444444444446)"/></g><defs><path d="M160-131c35 5 61 23 61 61C221 17 115-2 30 0v-248c76 3 177-17 177 60 0 33-19 50-47 57zm-97-11c50-1 110 9 110-42 0-47-63-36-110-37v79zm0 115c55-2 124 14 124-45 0-56-70-42-124-44v89" id="at"/><path d="M84 4C-5 8 30-112 23-190h32v120c0 31 7 50 39 49 72-2 45-101 50-169h31l1 190h-30c-1-10 1-25-2-33-11 22-28 36-60 37" id="au"/><path d="M177-190C167-65 218 103 67 71c-23-6-38-20-44-43l32-5c15 47 100 32 89-28v-30C133-14 115 1 83 1 29 1 15-40 15-95c0-56 16-97 71-98 29-1 48 16 59 35 1-10 0-23 2-32h30zM94-22c36 0 50-32 50-73 0-42-14-75-50-75-39 0-46 34-46 75s6 73 46 73" id="av"/><g id="a"><use transform="matrix(0.06172839506172839,0,0,0.06172839506172839,0,0)" xlink:href="#at"/><use transform="matrix(0.06172839506172839,0,0,0.06172839506172839,14.814814814814813,0)" xlink:href="#au"/><use transform="matrix(0.06172839506172839,0,0,0.06172839506172839,27.160493827160494,0)" xlink:href="#av"/></g><path d="M33 0v-248h34V0H33" id="aw"/><path d="M30-248c118-7 216 8 213 122C240-48 200 0 122 0H30v-248zM63-27c89 8 146-16 146-99s-60-101-146-95v194" id="ax"/><g id="b"><use transform="matrix(0.06172839506172839,0,0,0.06172839506172839,0,0)" xlink:href="#aw"/><use transform="matrix(0.06172839506172839,0,0,0.06172839506172839,6.172839506172839,0)" xlink:href="#ax"/></g><path d="M63-220v92h138v28H63V0H30v-248h175v28H63" id="ay"/><path d="M100-194c62-1 85 37 85 99 1 63-27 99-86 99S16-35 15-95c0-66 28-99 85-99zM99-20c44 1 53-31 53-75 0-43-8-75-51-75s-53 32-53 75 10 74 51 75" id="az"/><path d="M117-194c89-4 53 116 60 194h-32v-121c0-31-8-49-39-48C34-167 62-67 57 0H25l-1-190h30c1 10-1 24 2 32 11-22 29-35 61-36" id="aA"/><path d="M85-194c31 0 48 13 60 33l-1-100h32l1 261h-30c-2-10 0-23-3-31C134-8 116 4 85 4 32 4 16-35 15-94c0-66 23-100 70-100zm9 24c-40 0-46 34-46 75 0 40 6 74 45 74 42 0 51-32 51-76 0-42-9-74-50-73" id="aB"/><g id="c"><use transform="matrix(0.06172839506172839,0,0,0.06172839506172839,0,0)" xlink:href="#ay"/><use transform="matrix(0.06172839506172839,0,0,0.06172839506172839,13.518518518518517,0)" xlink:href="#az"/><use transform="matrix(0.06172839506172839,0,0,0.06172839506172839,25.864197530864196,0)" xlink:href="#au"/><use transform="matrix(0.06172839506172839,0,0,0.06172839506172839,38.20987654320987,0)" xlink:href="#aA"/><use transform="matrix(0.06172839506172839,0,0,0.06172839506172839,50.55555555555555,0)" xlink:href="#aB"/></g><path d="M141-36C126-15 110 5 73 4 37 3 15-17 15-53c-1-64 63-63 125-63 3-35-9-54-41-54-24 1-41 7-42 31l-33-3c5-37 33-52 76-52 45 0 72 20 72 64v82c-1 20 7 32 28 27v20c-31 9-61-2-59-35zM48-53c0 20 12 33 32 33 41-3 63-29 60-74-43 2-92-5-92 41" id="aC"/><path d="M59-47c-2 24 18 29 38 22v24C64 9 27 4 27-40v-127H5v-23h24l9-43h21v43h35v23H59v120" id="aD"/><path d="M100-194c63 0 86 42 84 106H49c0 40 14 67 53 68 26 1 43-12 49-29l28 8c-11 28-37 45-77 45C44 4 14-33 15-96c1-61 26-98 85-98zm52 81c6-60-76-77-97-28-3 7-6 17-6 28h103" id="aE"/><g id="d"><use transform="matrix(0.06172839506172839,0,0,0.06172839506172839,0,0)" xlink:href="#ax"/><use transform="matrix(0.06172839506172839,0,0,0.06172839506172839,15.987654320987653,0)" xlink:href="#aC"/><use transform="matrix(0.06172839506172839,0,0,0.06172839506172839,28.333333333333332,0)" xlink:href="#aD"/><use transform="matrix(0.06172839506172839,0,0,0.06172839506172839,34.50617283950617,0)" xlink:href="#aE"/></g><path d="M135-143c-3-34-86-38-87 0 15 53 115 12 119 90S17 21 10-45l28-5c4 36 97 45 98 0-10-56-113-15-118-90-4-57 82-63 122-42 12 7 21 19 24 35" id="aF"/><path d="M96-169c-40 0-48 33-48 73s9 75 48 75c24 0 41-14 43-38l32 2c-6 37-31 61-74 61-59 0-76-41-82-99-10-93 101-131 147-64 4 7 5 14 7 22l-32 3c-4-21-16-35-41-35" id="aG"/><path d="M114-163C36-179 61-72 57 0H25l-1-190h30c1 12-1 29 2 39 6-27 23-49 58-41v29" id="aH"/><path d="M24-231v-30h32v30H24zM24 0v-190h32V0H24" id="aI"/><path d="M115-194c55 1 70 41 70 98S169 2 115 4C84 4 66-9 55-30l1 105H24l-1-265h31l2 30c10-21 28-34 59-34zm-8 174c40 0 45-34 45-75s-6-73-45-74c-42 0-51 32-51 76 0 43 10 73 51 73" id="aJ"/><g id="e"><use transform="matrix(0.06172839506172839,0,0,0.06172839506172839,0,0)" xlink:href="#ax"/><use transform="matrix(0.06172839506172839,0,0,0.06172839506172839,15.987654320987653,0)" xlink:href="#aE"/><use transform="matrix(0.06172839506172839,0,0,0.06172839506172839,28.333333333333332,0)" xlink:href="#aF"/><use transform="matrix(0.06172839506172839,0,0,0.06172839506172839,39.44444444444444,0)" xlink:href="#aG"/><use transform="matrix(0.06172839506172839,0,0,0.06172839506172839,50.55555555555556,0)" xlink:href="#aH"/><use transform="matrix(0.06172839506172839,0,0,0.06172839506172839,57.901234567901234,0)" xlink:href="#aI"/><use transform="matrix(0.06172839506172839,0,0,0.06172839506172839,62.77777777777778,0)" xlink:href="#aJ"/><use transform="matrix(0.06172839506172839,0,0,0.06172839506172839,75.12345679012346,0)" xlink:href="#aD"/><use transform="matrix(0.06172839506172839,0,0,0.06172839506172839,81.29629629629629,0)" xlink:href="#aI"/><use transform="matrix(0.06172839506172839,0,0,0.06172839506172839,86.17283950617283,0)" xlink:href="#az"/><use transform="matrix(0.06172839506172839,0,0,0.06172839506172839,98.51851851851852,0)" xlink:href="#aA"/></g><path d="M30-248c87 1 191-15 191 75 0 78-77 80-158 76V0H30v-248zm33 125c57 0 124 11 124-50 0-59-68-47-124-48v98" id="aK"/><path d="M179-190L93 31C79 59 56 82 12 73V49c39 6 53-20 64-50L1-190h34L92-34l54-156h33" id="aL"/><g id="f"><use transform="matrix(0.06172839506172839,0,0,0.06172839506172839,0,0)" xlink:href="#aK"/><use transform="matrix(0.06172839506172839,0,0,0.06172839506172839,14.814814814814813,0)" xlink:href="#aH"/><use transform="matrix(0.06172839506172839,0,0,0.06172839506172839,22.160493827160494,0)" xlink:href="#aI"/><use transform="matrix(0.06172839506172839,0,0,0.06172839506172839,27.037037037037038,0)" xlink:href="#az"/><use transform="matrix(0.06172839506172839,0,0,0.06172839506172839,39.382716049382715,0)" xlink:href="#aH"/><use transform="matrix(0.06172839506172839,0,0,0.06172839506172839,46.72839506172839,0)" xlink:href="#aI"/><use transform="matrix(0.06172839506172839,0,0,0.06172839506172839,51.60493827160494,0)" xlink:href="#aD"/><use transform="matrix(0.06172839506172839,0,0,0.06172839506172839,57.77777777777778,0)" xlink:href="#aL"/></g><path d="M185-189c-5-48-123-54-124 2 14 75 158 14 163 119 3 78-121 87-175 55-17-10-28-26-33-46l33-7c5 56 141 63 141-1 0-78-155-14-162-118-5-82 145-84 179-34 5 7 8 16 11 25" id="aM"/><g id="g"><use transform="matrix(0.06172839506172839,0,0,0.06172839506172839,0,0)" xlink:href="#aM"/><use transform="matrix(0.06172839506172839,0,0,0.06172839506172839,14.814814814814813,0)" xlink:href="#aD"/><use transform="matrix(0.06172839506172839,0,0,0.06172839506172839,20.98765432098765,0)" xlink:href="#aC"/><use transform="matrix(0.06172839506172839,0,0,0.06172839506172839,33.33333333333333,0)" xlink:href="#aH"/><use transform="matrix(0.06172839506172839,0,0,0.06172839506172839,40.679012345679006,0)" xlink:href="#aD"/></g><g id="h"><use transform="matrix(0.06172839506172839,0,0,0.06172839506172839,0,0)" xlink:href="#ax"/><use transform="matrix(0.06172839506172839,0,0,0.06172839506172839,15.987654320987653,0)" xlink:href="#aC"/><use transform="matrix(0.06172839506172839,0,0,0.06172839506172839,28.333333333333332,0)" xlink:href="#aD"/><use transform="matrix(0.06172839506172839,0,0,0.06172839506172839,34.50617283950617,0)" xlink:href="#aE"/></g><path d="M190 0L58-211 59 0H30v-248h39L202-35l-2-213h31V0h-41" id="aN"/><g id="i"><use transform="matrix(0.06172839506172839,0,0,0.06172839506172839,0,0)" xlink:href="#aN"/><use transform="matrix(0.06172839506172839,0,0,0.06172839506172839,15.987654320987653,0)" xlink:href="#az"/><use transform="matrix(0.06172839506172839,0,0,0.06172839506172839,28.333333333333332,0)" xlink:href="#aD"/><use transform="matrix(0.06172839506172839,0,0,0.06172839506172839,34.50617283950617,0)" xlink:href="#aE"/></g><path d="M30 0v-248h187v28H63v79h144v27H63v87h162V0H30" id="aO"/><g id="j"><use transform="matrix(0.06172839506172839,0,0,0.06172839506172839,0,0)" xlink:href="#aO"/><use transform="matrix(0.06172839506172839,0,0,0.06172839506172839,14.814814814814813,0)" xlink:href="#aA"/><use transform="matrix(0.06172839506172839,0,0,0.06172839506172839,27.160493827160494,0)" xlink:href="#aB"/></g><g id="k"><use transform="matrix(0.06172839506172839,0,0,0.06172839506172839,0,0)" xlink:href="#aB"/><use transform="matrix(0.06172839506172839,0,0,0.06172839506172839,12.345679012345679,0)" xlink:href="#aC"/><use transform="matrix(0.06172839506172839,0,0,0.06172839506172839,24.691358024691358,0)" xlink:href="#aD"/><use transform="matrix(0.06172839506172839,0,0,0.06172839506172839,30.864197530864196,0)" xlink:href="#aE"/></g><path d="M27 0v-27h64v-190l-56 39v-29l58-41h29v221h61V0H27" id="aP"/><use transform="matrix(0.06172839506172839,0,0,0.06172839506172839,0,0)" xlink:href="#aP" id="l"/><path d="M64 0c3-98 48-159 88-221H18v-27h164v26C143-157 98-101 97 0H64" id="aQ"/><path d="M0 4l72-265h28L28 4H0" id="aR"/><path d="M101-251c68 0 85 55 85 127S166 4 100 4C33 4 14-52 14-124c0-73 17-127 87-127zm-1 229c47 0 54-49 54-102s-4-102-53-102c-51 0-55 48-55 102 0 53 5 102 54 102" id="aS"/><path d="M126-127c33 6 58 20 58 59 0 88-139 92-164 29-3-8-5-16-6-25l32-3c6 27 21 44 54 44 32 0 52-15 52-46 0-38-36-46-79-43v-28c39 1 72-4 72-42 0-27-17-43-46-43-28 0-47 15-49 41l-32-3c6-42 35-63 81-64 48-1 79 21 79 65 0 36-21 52-52 59" id="aT"/><path d="M101-251c82-7 93 87 43 132L82-64C71-53 59-42 53-27h129V0H18c2-99 128-94 128-182 0-28-16-43-45-43s-46 15-49 41l-32-3c6-41 34-60 81-64" id="aU"/><g id="m"><use transform="matrix(0.06172839506172839,0,0,0.06172839506172839,0,0)" xlink:href="#aP"/><use transform="matrix(0.06172839506172839,0,0,0.06172839506172839,12.345679012345679,0)" xlink:href="#aQ"/><use transform="matrix(0.06172839506172839,0,0,0.06172839506172839,24.691358024691358,0)" xlink:href="#aR"/><use transform="matrix(0.06172839506172839,0,0,0.06172839506172839,30.864197530864196,0)" xlink:href="#aS"/><use transform="matrix(0.06172839506172839,0,0,0.06172839506172839,43.20987654320987,0)" xlink:href="#aT"/><use transform="matrix(0.06172839506172839,0,0,0.06172839506172839,55.55555555555555,0)" xlink:href="#aR"/><use transform="matrix(0.06172839506172839,0,0,0.06172839506172839,61.72839506172839,0)" xlink:href="#aU"/><use transform="matrix(0.06172839506172839,0,0,0.06172839506172839,74.07407407407408,0)" xlink:href="#aS"/><use transform="matrix(0.06172839506172839,0,0,0.06172839506172839,86.41975308641976,0)" xlink:href="#aU"/><use transform="matrix(0.06172839506172839,0,0,0.06172839506172839,98.76543209876544,0)" xlink:href="#aU"/></g><path fill="#222" d="M1477 0h-168c-114-383-232-756-342-1143-19-66-26-106-27-119-15 88-39 184-70 289L584 0H416L27-1462h180l231 903c32 127 55 241 70 344 18-122 46-241 80-358l262-889h180l275 897c32 103 59 220 81 350 13-95 37-210 72-346l230-901h180" id="aV"/><path fill="#222" d="M690-1114c271 2 402 123 402 399V0H926v-709c-1-177-76-266-252-266-251 0-332 135-332 402V0H176v-1556h166c-4 200 8 426-8 612h10c61-100 187-171 346-170" id="aW"/><path fill="#222" d="M995-51C878-2 799 19 639 20c-329 2-524-221-524-559 0-326 172-577 481-577 278 0 451 210 446 493v105H287c4 242 121 392 358 393 118 0 235-25 350-74v148zM864-653c2-195-85-324-270-324-190 0-288 139-303 324h573" id="aX"/><path fill="#222" d="M694-1116c270 0 399 125 398 401V0H926v-709c-1-177-76-266-252-266-250 0-332 133-332 400V0H176v-1096h135l27 150h8c62-101 190-170 348-170" id="aY"/><g id="n"><use transform="matrix(0.008463541666666668,0,0,0.008463541666666668,0,0)" xlink:href="#aV"/><use transform="matrix(0.008463541666666668,0,0,0.008463541666666668,16.046875000000004,0)" xlink:href="#aW"/><use transform="matrix(0.008463541666666668,0,0,0.008463541666666668,26.685546875000007,0)" xlink:href="#aX"/><use transform="matrix(0.008463541666666668,0,0,0.008463541666666668,36.41015625000001,0)" xlink:href="#aY"/></g><path fill="#222" d="M588-1114c260 0 384 106 385 366V0H850l-33-156h-8C708-34 639 17 442 20 231 23 94-94 94-303c0-221 177-337 531-348l186-6c11-203-40-320-233-320-91 0-195 28-310 84l-51-127c97-53 229-94 371-94zM268-301c-1 123 81 184 207 184 203 0 334-120 332-323v-99c-257 14-539-7-539 238" id="aZ"/><use transform="matrix(0.008463541666666668,0,0,0.008463541666666668,0,0)" xlink:href="#aZ" id="o"/><path fill="#222" d="M621-1116c316 0 501 239 501 567 0 339-180 575-508 569S119-212 115-549c-4-339 178-567 506-567zm-5 141c-239 0-329 168-329 426 0 255 93 430 331 430s332-174 332-430-95-426-334-426" id="ba"/><path fill="#222" d="M84-473v-152h491v152H84" id="bb"/><path fill="#222" d="M115-545c0-330 146-571 454-571 149 0 263 54 342 162h13c-20-185-8-401-11-602h166V0H944l-22-147h-9C836-36 722 20 569 20c-309 0-454-234-454-565zm172 2c0 249 78 424 303 424 257 0 327-150 323-426-4-282-68-432-325-432-220 0-301 191-301 434" id="bc"/><path fill="#222" d="M1368-1116c259 2 372 131 371 401V0h-166v-713c0-168-66-262-230-262-221 0-303 131-303 363V0H874v-713c-1-169-66-262-231-262-235 0-301 142-301 400V0H176v-1096h135l27 150h8c56-99 174-170 324-170 171 0 283 62 336 186h8c60-108 189-187 354-186" id="bd"/><path fill="#222" d="M342 0H176v-1096h166V0zm-82-1282c-61 0-98-43-98-111 0-69 36-110 98-110 59 0 98 43 98 110s-39 111-98 111" id="be"/><g id="p"><use transform="matrix(0.008463541666666668,0,0,0.008463541666666668,0,0)" xlink:href="#aY"/><use transform="matrix(0.008463541666666668,0,0,0.008463541666666668,10.638671875000002,0)" xlink:href="#ba"/><use transform="matrix(0.008463541666666668,0,0,0.008463541666666668,21.108072916666668,0)" xlink:href="#aY"/><use transform="matrix(0.008463541666666668,0,0,0.008463541666666668,31.74674479166667,0)" xlink:href="#bb"/><use transform="matrix(0.008463541666666668,0,0,0.008463541666666668,37.32421875000001,0)" xlink:href="#aZ"/><use transform="matrix(0.008463541666666668,0,0,0.008463541666666668,46.96419270833334,0)" xlink:href="#bc"/><use transform="matrix(0.008463541666666668,0,0,0.008463541666666668,57.585937500000014,0)" xlink:href="#bd"/><use transform="matrix(0.008463541666666668,0,0,0.008463541666666668,73.70898437500001,0)" xlink:href="#be"/><use transform="matrix(0.008463541666666668,0,0,0.008463541666666668,78.09309895833334,0)" xlink:href="#aY"/></g><path fill="#222" d="M1141-549c0 329-147 569-455 569-159 0-273-61-344-161h-12c23 199 7 418 12 633H176v-1588h135l23 150h8c77-108 175-170 344-170 311 0 455 237 455 567zm-172-2c0-242-88-424-307-424-256 0-323 154-320 426 3 280 68 430 324 430 213 0 303-196 303-432" id="bf"/><path fill="#222" d="M342 0H176v-1556h166V0" id="bg"/><path fill="#222" d="M526-162c88-293 120-356 326-934h178L559 152c-47 123-102 209-163 262-93 80-237 94-380 61V342c184 39 305-9 367-180L444 6 2-1096h178c103 283 263 645 338 934h8" id="bh"/><g id="q"><use transform="matrix(0.008463541666666668,0,0,0.008463541666666668,0,0)" xlink:href="#aX"/><use transform="matrix(0.008463541666666668,0,0,0.008463541666666668,9.724609375000002,0)" xlink:href="#bd"/><use transform="matrix(0.008463541666666668,0,0,0.008463541666666668,25.847656250000007,0)" xlink:href="#bf"/><use transform="matrix(0.008463541666666668,0,0,0.008463541666666668,36.46940104166667,0)" xlink:href="#bg"/><use transform="matrix(0.008463541666666668,0,0,0.008463541666666668,40.85351562500001,0)" xlink:href="#ba"/><use transform="matrix(0.008463541666666668,0,0,0.008463541666666668,50.97591145833334,0)" xlink:href="#bh"/><use transform="matrix(0.008463541666666668,0,0,0.008463541666666668,59.71028645833334,0)" xlink:href="#aX"/><use transform="matrix(0.008463541666666668,0,0,0.008463541666666668,69.43489583333334,0)" xlink:href="#aX"/></g><path fill="#222" d="M354-322c-2 123 60 204 176 205 51 1 114-10 150-20v127C647 7 557 20 506 20 294 20 188-92 188-315v-652H31v-80l157-69 70-234h96v254h318v129H354v645" id="bi"/><path fill="#222" d="M340-893c80-153 237-262 467-211l-23 154c-45-10-85-15-120-15-184-3-322 182-322 377V0H176v-1096h137l19 203h8" id="bj"/><path fill="#222" d="M502-977c-130 0-238 32-238 139 0 75 39 101 95 134 33 19 97 46 192 81 130 48 217 95 263 143s69 108 69 181C883-73 695 20 449 20 304 20 190-3 109-49v-154c91 47 216 86 344 86 149 0 270-36 270-168 0-43-21-76-55-109-56-55-367-158-434-208-74-55-128-109-128-225 0-327 490-342 754-217l-59 135c-110-45-210-68-299-68" id="bk"/><g id="r"><use transform="matrix(0.008463541666666668,0,0,0.008463541666666668,0,0)" xlink:href="#bi"/><use transform="matrix(0.008463541666666668,0,0,0.008463541666666668,6.119140625000001,0)" xlink:href="#bj"/><use transform="matrix(0.008463541666666668,0,0,0.008463541666666668,13.194661458333336,0)" xlink:href="#be"/><use transform="matrix(0.008463541666666668,0,0,0.008463541666666668,17.57877604166667,0)" xlink:href="#aX"/><use transform="matrix(0.008463541666666668,0,0,0.008463541666666668,27.30338541666667,0)" xlink:href="#bk"/></g><g id="s"><use transform="matrix(0.008463541666666668,0,0,0.008463541666666668,0,0)" xlink:href="#bi"/><use transform="matrix(0.008463541666666668,0,0,0.008463541666666668,6.119140625000001,0)" xlink:href="#ba"/></g><path fill="#222" d="M287-543c-1 247 91 418 323 418 91 0 185-20 281-59v147C818 1 725 20 614 20c-329 0-499-221-499-561 0-349 172-575 510-575 96 0 221 26 282 57l-51 141c-61-25-157-50-235-51-223 0-334 142-334 426" id="bl"/><g id="t"><use transform="matrix(0.008463541666666668,0,0,0.008463541666666668,0,0)" xlink:href="#bk"/><use transform="matrix(0.008463541666666668,0,0,0.008463541666666668,8.268880208333334,0)" xlink:href="#aX"/><use transform="matrix(0.008463541666666668,0,0,0.008463541666666668,17.993489583333336,0)" xlink:href="#aZ"/><use transform="matrix(0.008463541666666668,0,0,0.008463541666666668,27.63346354166667,0)" xlink:href="#bj"/><use transform="matrix(0.008463541666666668,0,0,0.008463541666666668,34.36197916666667,0)" xlink:href="#bl"/><use transform="matrix(0.008463541666666668,0,0,0.008463541666666668,42.61393229166667,0)" xlink:href="#aW"/></g><path fill="#222" d="M575-1430c-169 0-190 146-184 334h279v129H391V0H225v-967H29v-75l196-60c-15-299 97-465 353-465 58 0 126 12 204 35l-43 133c-64-21-119-31-164-31" id="bm"/><g id="u"><use transform="matrix(0.008463541666666668,0,0,0.008463541666666668,0,0)" xlink:href="#bm"/><use transform="matrix(0.008463541666666668,0,0,0.008463541666666668,5.873697916666668,0)" xlink:href="#ba"/><use transform="matrix(0.008463541666666668,0,0,0.008463541666666668,16.343098958333336,0)" xlink:href="#bj"/></g><g id="v"><use transform="matrix(0.008463541666666668,0,0,0.008463541666666668,0,0)" xlink:href="#aZ"/><use transform="matrix(0.008463541666666668,0,0,0.008463541666666668,9.639973958333334,0)" xlink:href="#aY"/><use transform="matrix(0.008463541666666668,0,0,0.008463541666666668,20.278645833333336,0)" xlink:href="#ba"/><use transform="matrix(0.008463541666666668,0,0,0.008463541666666668,30.748046875000004,0)" xlink:href="#bi"/><use transform="matrix(0.008463541666666668,0,0,0.008463541666666668,36.86718750000001,0)" xlink:href="#aW"/><use transform="matrix(0.008463541666666668,0,0,0.008463541666666668,47.50585937500001,0)" xlink:href="#aX"/><use transform="matrix(0.008463541666666668,0,0,0.008463541666666668,57.23046875000001,0)" xlink:href="#bj"/></g><path fill="#222" d="M63 264c30-115 88-378 105-502h182l15 23C327-69 250 132 188 264H63" id="bn"/><g id="w"><use transform="matrix(0.008463541666666668,0,0,0.008463541666666668,0,0)" xlink:href="#aX"/><use transform="matrix(0.008463541666666668,0,0,0.008463541666666668,9.724609375000002,0)" xlink:href="#bd"/><use transform="matrix(0.008463541666666668,0,0,0.008463541666666668,25.847656250000007,0)" xlink:href="#bf"/><use transform="matrix(0.008463541666666668,0,0,0.008463541666666668,36.46940104166667,0)" xlink:href="#bg"/><use transform="matrix(0.008463541666666668,0,0,0.008463541666666668,40.85351562500001,0)" xlink:href="#ba"/><use transform="matrix(0.008463541666666668,0,0,0.008463541666666668,50.97591145833334,0)" xlink:href="#bh"/><use transform="matrix(0.008463541666666668,0,0,0.008463541666666668,59.71028645833334,0)" xlink:href="#aX"/><use transform="matrix(0.008463541666666668,0,0,0.008463541666666668,69.43489583333334,0)" xlink:href="#aX"/><use transform="matrix(0.008463541666666668,0,0,0.008463541666666668,79.15950520833334,0)" xlink:href="#bn"/></g><g id="x"><use transform="matrix(0.008463541666666668,0,0,0.008463541666666668,0,0)" xlink:href="#bi"/><use transform="matrix(0.008463541666666668,0,0,0.008463541666666668,6.119140625000001,0)" xlink:href="#aW"/><use transform="matrix(0.008463541666666668,0,0,0.008463541666666668,16.757812500000004,0)" xlink:href="#aX"/></g><path fill="#222" d="M125-741c0-247 161-377 414-375 57 0 109 7 155 20h379v105l-203 24c37 48 72 129 72 219 0 255-227 390-504 345-71 37-106 84-106 141 0 78 66 88 164 88h194c219-1 369 87 369 293 0 121-49 213-146 277s-239 96-426 96c-250 0-448-83-448-306C39 36 147-58 283-86c-52-23-102-79-99-152 4-104 57-143 133-192-107-42-192-164-192-311zM438-25c-143-1-242 70-239 209s131 181 290 181c139 0 242-21 309-63s101-98 101-169c0-147-88-158-262-158H438zm94-970c-158 0-243 88-243 250 0 153 93 233 246 233 162 0 243-79 243-236 0-165-82-247-246-247" id="bo"/><g id="y"><use transform="matrix(0.008463541666666668,0,0,0.008463541666666668,0,0)" xlink:href="#bf"/><use transform="matrix(0.008463541666666668,0,0,0.008463541666666668,10.621744791666668,0)" xlink:href="#bj"/><use transform="matrix(0.008463541666666668,0,0,0.008463541666666668,17.350260416666668,0)" xlink:href="#ba"/><use transform="matrix(0.008463541666666668,0,0,0.008463541666666668,27.819661458333336,0)" xlink:href="#bo"/><use transform="matrix(0.008463541666666668,0,0,0.008463541666666668,37.315755208333336,0)" xlink:href="#bj"/><use transform="matrix(0.008463541666666668,0,0,0.008463541666666668,44.04427083333334,0)" xlink:href="#aZ"/><use transform="matrix(0.008463541666666668,0,0,0.008463541666666668,53.68424479166667,0)" xlink:href="#bd"/></g><path fill="#222" d="M270 29c-76 0-118-48-118-135 0-84 38-135 118-136 81 0 123 51 123 136 0 82-44 135-123 135" id="bp"/><g id="z"><use transform="matrix(0.008463541666666668,0,0,0.008463541666666668,0,0)" xlink:href="#bl"/><use transform="matrix(0.008463541666666668,0,0,0.008463541666666668,8.251953125000002,0)" xlink:href="#bj"/><use transform="matrix(0.008463541666666668,0,0,0.008463541666666668,14.980468750000004,0)" xlink:href="#aZ"/><use transform="matrix(0.008463541666666668,0,0,0.008463541666666668,24.620442708333336,0)" xlink:href="#bk"/><use transform="matrix(0.008463541666666668,0,0,0.008463541666666668,32.88932291666667,0)" xlink:href="#aW"/><use transform="matrix(0.008463541666666668,0,0,0.008463541666666668,43.52799479166667,0)" xlink:href="#aX"/><use transform="matrix(0.008463541666666668,0,0,0.008463541666666668,53.25260416666667,0)" xlink:href="#bk"/><use transform="matrix(0.008463541666666668,0,0,0.008463541666666668,61.52148437500001,0)" xlink:href="#bp"/></g><path fill="#222" d="M651 0H481v-1311H18v-151h1096v151H651V0" id="bq"/><g id="A"><use transform="matrix(0.008463541666666668,0,0,0.008463541666666668,0,0)" xlink:href="#bq"/><use transform="matrix(0.008463541666666668,0,0,0.008463541666666668,9.589192708333334,0)" xlink:href="#aW"/><use transform="matrix(0.008463541666666668,0,0,0.008463541666666668,20.227864583333336,0)" xlink:href="#aX"/></g><g id="B"><use transform="matrix(0.008463541666666668,0,0,0.008463541666666668,0,0)" xlink:href="#aX"/><use transform="matrix(0.008463541666666668,0,0,0.008463541666666668,9.724609375000002,0)" xlink:href="#bj"/><use transform="matrix(0.008463541666666668,0,0,0.008463541666666668,16.800130208333336,0)" xlink:href="#bj"/><use transform="matrix(0.008463541666666668,0,0,0.008463541666666668,23.528645833333336,0)" xlink:href="#ba"/><use transform="matrix(0.008463541666666668,0,0,0.008463541666666668,33.998046875,0)" xlink:href="#bj"/></g><path fill="#222" d="M270 29c-76 0-118-48-118-135 0-84 38-135 118-136 81 0 123 51 123 136 0 82-44 135-123 135zm0-883c-76 0-118-48-118-135 0-90 39-135 118-135 82 0 123 45 123 135 0 82-44 135-123 135" id="br"/><g id="C"><use transform="matrix(0.008463541666666668,0,0,0.008463541666666668,0,0)" xlink:href="#bk"/><use transform="matrix(0.008463541666666668,0,0,0.008463541666666668,8.268880208333334,0)" xlink:href="#aZ"/><use transform="matrix(0.008463541666666668,0,0,0.008463541666666668,17.908854166666668,0)" xlink:href="#bh"/><use transform="matrix(0.008463541666666668,0,0,0.008463541666666668,26.64322916666667,0)" xlink:href="#bk"/><use transform="matrix(0.008463541666666668,0,0,0.008463541666666668,34.91210937500001,0)" xlink:href="#br"/></g><path fill="#222" d="M319-1462l-40 528H174l-41-528h186zm369 0l-41 528H543l-41-528h186" id="bs"/><path fill="#222" d="M1120 0L938-465H352L172 0H0l578-1468h143L1296 0h-176zM885-618c-81-228-168-420-238-664-57 230-159 449-235 664h473" id="bt"/><path fill="#222" d="M686 20c-159 0-273-61-344-161h-12L295 0H176v-1556h166c-2 198 6 423-8 606h8c77-109 192-164 344-164 310 0 455 234 455 565 0 329-147 569-455 569zm283-571c0-257-72-424-307-424-256 0-320 146-320 426s68 430 324 430c228 0 303-184 303-432" id="bu"/><path fill="#222" d="M563 20c-271 0-399-123-399-399v-717h168v711c1 177 76 266 252 266 250 0 331-135 331-401v-576h166V0H944l-24-147h-9C848-44 724 20 563 20" id="bv"/><path fill="#222" d="M1016 0H201v-1462h815v151H371v471h606v150H371v538h645V0" id="bw"/><g id="D"><use transform="matrix(0.008463541666666668,0,0,0.008463541666666668,0,0)" xlink:href="#bs"/><use transform="matrix(0.008463541666666668,0,0,0.008463541666666668,5.73828125,0)" xlink:href="#bt"/><use transform="matrix(0.008463541666666668,0,0,0.008463541666666668,16.70703125,0)" xlink:href="#bi"/><use transform="matrix(0.008463541666666668,0,0,0.008463541666666668,22.826171875,0)" xlink:href="#bi"/><use transform="matrix(0.008463541666666668,0,0,0.008463541666666668,28.9453125,0)" xlink:href="#bj"/><use transform="matrix(0.008463541666666668,0,0,0.008463541666666668,36.020833333333336,0)" xlink:href="#be"/><use transform="matrix(0.008463541666666668,0,0,0.008463541666666668,40.40494791666667,0)" xlink:href="#bu"/><use transform="matrix(0.008463541666666668,0,0,0.008463541666666668,51.02669270833334,0)" xlink:href="#bv"/><use transform="matrix(0.008463541666666668,0,0,0.008463541666666668,61.66536458333334,0)" xlink:href="#bi"/><use transform="matrix(0.008463541666666668,0,0,0.008463541666666668,67.78450520833334,0)" xlink:href="#aX"/><use transform="matrix(0.008463541666666668,0,0,0.008463541666666668,77.50911458333334,0)" xlink:href="#bw"/><use transform="matrix(0.008463541666666668,0,0,0.008463541666666668,87.14908854166669,0)" xlink:href="#bj"/><use transform="matrix(0.008463541666666668,0,0,0.008463541666666668,94.224609375,0)" xlink:href="#bj"/><use transform="matrix(0.008463541666666668,0,0,0.008463541666666668,100.953125,0)" xlink:href="#ba"/><use transform="matrix(0.008463541666666668,0,0,0.008463541666666668,111.42252604166667,0)" xlink:href="#bj"/><use transform="matrix(0.008463541666666668,0,0,0.008463541666666668,118.498046875,0)" xlink:href="#br"/></g><path fill="#222" d="M319-1462l-40 528H174l-41-528h186" id="bx"/><path fill="#222" d="M987-1460c452 0 726 278 733 731 3 188-63 360-168 443-54 43-115 65-184 65-115 0-203-82-215-185h-8c-48 106-144 184-291 185-210 1-319-162-319-381 0-261 171-462 428-459 99 1 230 21 309 47-8 164-25 326-25 492 0 119 44 178 133 178 61 0 110-36 148-108s57-164 57-279c0-374-226-600-598-600-465 0-722 288-727 753-4 403 222 635 625 633 140 0 285-29 436-86v133c-128 56-273 84-436 84-478 0-767-282-764-757 2-367 166-641 412-777 133-73 283-112 454-112zm-24 522c-185 1-277 144-277 340 0 169 65 254 195 254 138 0 214-104 225-313l14-261c-48-13-100-20-157-20" id="by"/><path fill="#222" d="M922 315H-4V184h926v131" id="bz"/><path fill="#222" d="M1128-1036c0 321-241 464-585 461H371V0H201v-1462h379c365 0 548 142 548 426zm-176 8c0-218-150-286-391-287H371v594h153c270-3 428-62 428-307" id="bA"/><g id="E"><use transform="matrix(0.008463541666666668,0,0,0.008463541666666668,0,0)" xlink:href="#bx"/><use transform="matrix(0.008463541666666668,0,0,0.008463541666666668,3.8339843750000004,0)" xlink:href="#bw"/><use transform="matrix(0.008463541666666668,0,0,0.008463541666666668,13.473958333333334,0)" xlink:href="#bc"/><use transform="matrix(0.008463541666666668,0,0,0.008463541666666668,24.095703125,0)" xlink:href="#by"/><use transform="matrix(0.008463541666666668,0,0,0.008463541666666668,39.677083333333336,0)" xlink:href="#be"/><use transform="matrix(0.008463541666666668,0,0,0.008463541666666668,44.06119791666667,0)" xlink:href="#bi"/><use transform="matrix(0.008463541666666668,0,0,0.008463541666666668,50.18033854166667,0)" xlink:href="#bz"/><use transform="matrix(0.008463541666666668,0,0,0.008463541666666668,57.94986979166667,0)" xlink:href="#bA"/><use transform="matrix(0.008463541666666668,0,0,0.008463541666666668,68.38541666666667,0)" xlink:href="#aZ"/><use transform="matrix(0.008463541666666668,0,0,0.008463541666666668,78.025390625,0)" xlink:href="#bo"/><use transform="matrix(0.008463541666666668,0,0,0.008463541666666668,87.521484375,0)" xlink:href="#aX"/><use transform="matrix(0.008463541666666668,0,0,0.008463541666666668,97.07682291666667,0)" xlink:href="#bx"/></g><path fill="#222" d="M25 352c109-1 151-60 151-172v-1276h166V168c0 216-100 324-299 324-63 0-115-8-154-25V332c46 13 91 20 136 20zm235-1634c-61 0-98-43-98-111 0-69 36-110 98-110 59 0 98 43 98 110s-39 111-98 111" id="bB"/><g id="F"><use transform="matrix(0.008463541666666668,0,0,0.008463541666666668,0,0)" xlink:href="#ba"/><use transform="matrix(0.008463541666666668,0,0,0.008463541666666668,10.469401041666668,0)" xlink:href="#bu"/><use transform="matrix(0.008463541666666668,0,0,0.008463541666666668,21.091145833333336,0)" xlink:href="#bB"/><use transform="matrix(0.008463541666666668,0,0,0.008463541666666668,25.47526041666667,0)" xlink:href="#aX"/><use transform="matrix(0.008463541666666668,0,0,0.008463541666666668,35.19986979166667,0)" xlink:href="#bl"/><use transform="matrix(0.008463541666666668,0,0,0.008463541666666668,43.45182291666667,0)" xlink:href="#bi"/></g><g id="G"><use transform="matrix(0.008463541666666668,0,0,0.008463541666666668,0,0)" xlink:href="#aW"/><use transform="matrix(0.008463541666666668,0,0,0.008463541666666668,10.638671875000002,0)" xlink:href="#aZ"/><use transform="matrix(0.008463541666666668,0,0,0.008463541666666668,20.278645833333336,0)" xlink:href="#bk"/></g><g id="H"><use transform="matrix(0.008463541666666668,0,0,0.008463541666666668,0,0)" xlink:href="#aY"/><use transform="matrix(0.008463541666666668,0,0,0.008463541666666668,10.638671875000002,0)" xlink:href="#ba"/></g><g id="I"><use transform="matrix(0.008463541666666668,0,0,0.008463541666666668,0,0)" xlink:href="#aZ"/><use transform="matrix(0.008463541666666668,0,0,0.008463541666666668,9.639973958333334,0)" xlink:href="#bi"/><use transform="matrix(0.008463541666666668,0,0,0.008463541666666668,15.759114583333336,0)" xlink:href="#bi"/><use transform="matrix(0.008463541666666668,0,0,0.008463541666666668,21.878255208333336,0)" xlink:href="#bj"/><use transform="matrix(0.008463541666666668,0,0,0.008463541666666668,28.95377604166667,0)" xlink:href="#be"/><use transform="matrix(0.008463541666666668,0,0,0.008463541666666668,33.33789062500001,0)" xlink:href="#bu"/><use transform="matrix(0.008463541666666668,0,0,0.008463541666666668,43.95963541666667,0)" xlink:href="#bv"/><use transform="matrix(0.008463541666666668,0,0,0.008463541666666668,54.59830729166667,0)" xlink:href="#bi"/><use transform="matrix(0.008463541666666668,0,0,0.008463541666666668,60.71744791666668,0)" xlink:href="#aX"/></g><g id="J"><use transform="matrix(0.008463541666666668,0,0,0.008463541666666668,0,0)" xlink:href="#bx"/><use transform="matrix(0.008463541666666668,0,0,0.008463541666666668,3.317708333333334,0)" xlink:href="#bk"/><use transform="matrix(0.008463541666666668,0,0,0.008463541666666668,11.586588541666668,0)" xlink:href="#bi"/><use transform="matrix(0.008463541666666668,0,0,0.008463541666666668,17.705729166666668,0)" xlink:href="#aZ"/><use transform="matrix(0.008463541666666668,0,0,0.008463541666666668,27.345703125,0)" xlink:href="#bi"/><use transform="matrix(0.008463541666666668,0,0,0.008463541666666668,33.46484375,0)" xlink:href="#bv"/><use transform="matrix(0.008463541666666668,0,0,0.008463541666666668,44.103515625,0)" xlink:href="#bk"/><use transform="matrix(0.008463541666666668,0,0,0.008463541666666668,52.372395833333336,0)" xlink:href="#bz"/><use transform="matrix(0.008463541666666668,0,0,0.008463541666666668,60.141927083333336,0)" xlink:href="#aX"/><use transform="matrix(0.008463541666666668,0,0,0.008463541666666668,69.86653645833334,0)" xlink:href="#aY"/><use transform="matrix(0.008463541666666668,0,0,0.008463541666666668,80.50520833333334,0)" xlink:href="#bi"/><use transform="matrix(0.008463541666666668,0,0,0.008463541666666668,86.62434895833334,0)" xlink:href="#bj"/><use transform="matrix(0.008463541666666668,0,0,0.008463541666666668,93.69986979166666,0)" xlink:href="#bh"/><use transform="matrix(0.008463541666666668,0,0,0.008463541666666668,103.12825520833334,0)" xlink:href="#bx"/><use transform="matrix(0.008463541666666668,0,0,0.008463541666666668,106.96223958333334,0)" xlink:href="#bs"/><use transform="matrix(0.008463541666666668,0,0,0.008463541666666668,113.91080729166667,0)" xlink:href="#bp"/></g><path d="M106-169C34-169 62-67 57 0H25v-261h32l-1 103c12-21 28-36 61-36 89 0 53 116 60 194h-32v-121c2-32-8-49-39-48" id="bC"/><g id="K"><use transform="matrix(0.06172839506172839,0,0,0.06172839506172839,0,0)" xlink:href="#bC"/><use transform="matrix(0.06172839506172839,0,0,0.06172839506172839,12.345679012345679,0)" xlink:href="#aI"/><use transform="matrix(0.06172839506172839,0,0,0.06172839506172839,17.22222222222222,0)" xlink:href="#av"/><use transform="matrix(0.06172839506172839,0,0,0.06172839506172839,29.5679012345679,0)" xlink:href="#bC"/></g><path d="M134-131c28 9 52 24 51 62-1 50-34 73-85 73S17-19 16-69c0-36 21-54 49-61-75-25-45-126 34-121 46 3 78 18 79 63 0 33-17 51-44 57zm-34-11c31 1 46-15 46-44 0-28-17-43-47-42-29 0-46 13-45 42 1 28 16 44 46 44zm1 122c35 0 51-18 51-52 0-30-18-46-53-46-33 0-51 17-51 47 0 34 19 51 53 51" id="bD"/><g id="L"><use transform="matrix(0.06172839506172839,0,0,0.06172839506172839,0,0)" xlink:href="#aP"/><use transform="matrix(0.06172839506172839,0,0,0.06172839506172839,12.345679012345679,0)" xlink:href="#bD"/><use transform="matrix(0.06172839506172839,0,0,0.06172839506172839,24.691358024691358,0)" xlink:href="#aR"/><use transform="matrix(0.06172839506172839,0,0,0.06172839506172839,30.864197530864196,0)" xlink:href="#aS"/><use transform="matrix(0.06172839506172839,0,0,0.06172839506172839,43.20987654320987,0)" xlink:href="#aT"/><use transform="matrix(0.06172839506172839,0,0,0.06172839506172839,55.55555555555555,0)" xlink:href="#aR"/><use transform="matrix(0.06172839506172839,0,0,0.06172839506172839,61.72839506172839,0)" xlink:href="#aU"/><use transform="matrix(0.06172839506172839,0,0,0.06172839506172839,74.07407407407408,0)" xlink:href="#aS"/><use transform="matrix(0.06172839506172839,0,0,0.06172839506172839,86.41975308641976,0)" xlink:href="#aU"/><use transform="matrix(0.06172839506172839,0,0,0.06172839506172839,98.76543209876544,0)" xlink:href="#aU"/></g><path fill="#222" d="M371 0H201v-1462h815v151H371v535h606v151H371V0" id="bE"/><path fill="#222" d="M201 0v-1462h170V0H201" id="bF"/><path fill="#222" d="M1174 0H981L588-643 188 0H8l486-764-453-698h188l363 579 366-579h181L686-770" id="bG"/><path fill="#222" d="M649-1462c450-4 719 268 719 717 0 484-276 748-762 745H201v-1462h448zM578-147c400 1 610-197 610-592 1-379-192-576-570-576H371v1168h207" id="bH"/><g id="M"><use transform="matrix(0.008463541666666668,0,0,0.008463541666666668,0,0)" xlink:href="#bE"/><use transform="matrix(0.008463541666666668,0,0,0.008463541666666668,8.945963541666668,0)" xlink:href="#bF"/><use transform="matrix(0.008463541666666668,0,0,0.008463541666666668,13.778645833333336,0)" xlink:href="#bG"/><use transform="matrix(0.008463541666666668,0,0,0.008463541666666668,23.782552083333336,0)" xlink:href="#bw"/><use transform="matrix(0.008463541666666668,0,0,0.008463541666666668,33.42252604166667,0)" xlink:href="#bH"/><use transform="matrix(0.008463541666666668,0,0,0.008463541666666668,46.05859375000001,0)" xlink:href="#br"/></g><path fill="#222" d="M1214-416C1213-138 1004 0 711 0H201v-1462h413c194 0 334 29 421 87s130 150 130 275c0 188-114 295-284 324v10c222 38 333 155 333 350zm-225-667c0-194-147-232-368-232H371v479h280c219-3 338-46 338-247zm43 655c0-204-147-264-370-264H371v547h305c220-1 356-73 356-283" id="bI"/><g id="N"><use transform="matrix(0.008463541666666668,0,0,0.008463541666666668,0,0)" xlink:href="#bI"/><use transform="matrix(0.008463541666666668,0,0,0.008463541666666668,11.231119791666668,0)" xlink:href="#bv"/><use transform="matrix(0.008463541666666668,0,0,0.008463541666666668,21.86979166666667,0)" xlink:href="#bo"/></g><path fill="#222" d="M1169-178c39-215 75-309 230-918h172L1268 0h-197c-99-332-184-548-272-911h-8C712-564 610-319 514 0H322L23-1096h174c71 275 124 485 161 629s59 241 64 291h8c76-328 186-611 279-920h180l196 629c37 115 63 211 76 289h8" id="bJ"/><g id="O"><use transform="matrix(0.008463541666666668,0,0,0.008463541666666668,0,0)" xlink:href="#bJ"/><use transform="matrix(0.008463541666666668,0,0,0.008463541666666668,13.482421875000002,0)" xlink:href="#aZ"/><use transform="matrix(0.008463541666666668,0,0,0.008463541666666668,23.122395833333336,0)" xlink:href="#bk"/></g><g id="P"><use transform="matrix(0.008463541666666668,0,0,0.008463541666666668,0,0)" xlink:href="#bl"/><use transform="matrix(0.008463541666666668,0,0,0.008463541666666668,8.251953125000002,0)" xlink:href="#aZ"/><use transform="matrix(0.008463541666666668,0,0,0.008463541666666668,17.891927083333336,0)" xlink:href="#bv"/><use transform="matrix(0.008463541666666668,0,0,0.008463541666666668,28.530598958333336,0)" xlink:href="#bk"/><use transform="matrix(0.008463541666666668,0,0,0.008463541666666668,36.79947916666667,0)" xlink:href="#aX"/><use transform="matrix(0.008463541666666668,0,0,0.008463541666666668,46.52408854166667,0)" xlink:href="#bc"/></g><g id="Q"><use transform="matrix(0.008463541666666668,0,0,0.008463541666666668,0,0)" xlink:href="#bu"/><use transform="matrix(0.008463541666666668,0,0,0.008463541666666668,10.274739583333334,0)" xlink:href="#bh"/></g><path fill="#222" d="M340-561c134-179 332-366 485-535h197L578-629 1053 0H852L465-518 340-410V0H176v-1556h164c-4 336 9 669-8 995h8" id="bK"/><g id="R"><use transform="matrix(0.008463541666666668,0,0,0.008463541666666668,0,0)" xlink:href="#bi"/><use transform="matrix(0.008463541666666668,0,0,0.008463541666666668,6.119140625000001,0)" xlink:href="#bK"/><use transform="matrix(0.008463541666666668,0,0,0.008463541666666668,15.21744791666667,0)" xlink:href="#be"/><use transform="matrix(0.008463541666666668,0,0,0.008463541666666668,19.6015625,0)" xlink:href="#aY"/><use transform="matrix(0.008463541666666668,0,0,0.008463541666666668,30.240234375,0)" xlink:href="#bi"/><use transform="matrix(0.008463541666666668,0,0,0.008463541666666668,36.359375,0)" xlink:href="#aX"/><use transform="matrix(0.008463541666666668,0,0,0.008463541666666668,46.083984375,0)" xlink:href="#bj"/></g><g id="S"><use transform="matrix(0.008463541666666668,0,0,0.008463541666666668,0,0)" xlink:href="#aZ"/><use transform="matrix(0.008463541666666668,0,0,0.008463541666666668,9.639973958333334,0)" xlink:href="#bi"/><use transform="matrix(0.008463541666666668,0,0,0.008463541666666668,15.759114583333336,0)" xlink:href="#bi"/><use transform="matrix(0.008463541666666668,0,0,0.008463541666666668,21.878255208333336,0)" xlink:href="#aX"/><use transform="matrix(0.008463541666666668,0,0,0.008463541666666668,31.602864583333332,0)" xlink:href="#bd"/><use transform="matrix(0.008463541666666668,0,0,0.008463541666666668,47.72591145833334,0)" xlink:href="#bf"/><use transform="matrix(0.008463541666666668,0,0,0.008463541666666668,58.347656250000014,0)" xlink:href="#bi"/><use transform="matrix(0.008463541666666668,0,0,0.008463541666666668,64.46679687500001,0)" xlink:href="#be"/><use transform="matrix(0.008463541666666668,0,0,0.008463541666666668,68.85091145833334,0)" xlink:href="#aY"/><use transform="matrix(0.008463541666666668,0,0,0.008463541666666668,79.48958333333334,0)" xlink:href="#bo"/></g><g id="T"><use transform="matrix(0.008463541666666668,0,0,0.008463541666666668,0,0)" xlink:href="#bl"/><use transform="matrix(0.008463541666666668,0,0,0.008463541666666668,8.251953125000002,0)" xlink:href="#aW"/><use transform="matrix(0.008463541666666668,0,0,0.008463541666666668,18.890625000000004,0)" xlink:href="#aZ"/><use transform="matrix(0.008463541666666668,0,0,0.008463541666666668,28.530598958333336,0)" xlink:href="#aY"/><use transform="matrix(0.008463541666666668,0,0,0.008463541666666668,39.169270833333336,0)" xlink:href="#bo"/><use transform="matrix(0.008463541666666668,0,0,0.008463541666666668,48.665364583333336,0)" xlink:href="#aX"/></g><g id="U"><use transform="matrix(0.008463541666666668,0,0,0.008463541666666668,0,0)" xlink:href="#bJ"/><use transform="matrix(0.008463541666666668,0,0,0.008463541666666668,13.482421875000002,0)" xlink:href="#be"/><use transform="matrix(0.008463541666666668,0,0,0.008463541666666668,17.866536458333336,0)" xlink:href="#bc"/><use transform="matrix(0.008463541666666668,0,0,0.008463541666666668,28.488281250000004,0)" xlink:href="#bo"/><use transform="matrix(0.008463541666666668,0,0,0.008463541666666668,37.98437500000001,0)" xlink:href="#aX"/><use transform="matrix(0.008463541666666668,0,0,0.008463541666666668,47.70898437500001,0)" xlink:href="#bi"/></g><g id="V"><use transform="matrix(0.008463541666666668,0,0,0.008463541666666668,0,0)" xlink:href="#bi"/><use transform="matrix(0.008463541666666668,0,0,0.008463541666666668,6.119140625000001,0)" xlink:href="#aW"/><use transform="matrix(0.008463541666666668,0,0,0.008463541666666668,16.757812500000004,0)" xlink:href="#aZ"/><use transform="matrix(0.008463541666666668,0,0,0.008463541666666668,26.397786458333336,0)" xlink:href="#bi"/></g><g id="W"><use transform="matrix(0.008463541666666668,0,0,0.008463541666666668,0,0)" xlink:href="#aW"/><use transform="matrix(0.008463541666666668,0,0,0.008463541666666668,10.638671875000002,0)" xlink:href="#aZ"/><use transform="matrix(0.008463541666666668,0,0,0.008463541666666668,20.278645833333336,0)" xlink:href="#bc"/><use transform="matrix(0.008463541666666668,0,0,0.008463541666666668,30.900390625000004,0)" xlink:href="#aY"/><use transform="matrix(0.008463541666666668,0,0,0.008463541666666668,41.36979166666667,0)" xlink:href="#bx"/><use transform="matrix(0.008463541666666668,0,0,0.008463541666666668,45.20377604166667,0)" xlink:href="#bi"/></g><g id="X"><use transform="matrix(0.008463541666666668,0,0,0.008463541666666668,0,0)" xlink:href="#bh"/><use transform="matrix(0.008463541666666668,0,0,0.008463541666666668,8.734375000000002,0)" xlink:href="#aX"/><use transform="matrix(0.008463541666666668,0,0,0.008463541666666668,18.458984375000004,0)" xlink:href="#bi"/></g><g id="Y"><use transform="matrix(0.008463541666666668,0,0,0.008463541666666668,0,0)" xlink:href="#bu"/><use transform="matrix(0.008463541666666668,0,0,0.008463541666666668,10.621744791666668,0)" xlink:href="#aX"/><use transform="matrix(0.008463541666666668,0,0,0.008463541666666668,20.346354166666675,0)" xlink:href="#aX"/><use transform="matrix(0.008463541666666668,0,0,0.008463541666666668,30.07096354166667,0)" xlink:href="#aY"/></g><g id="Z"><use transform="matrix(0.008463541666666668,0,0,0.008463541666666668,0,0)" xlink:href="#bl"/><use transform="matrix(0.008463541666666668,0,0,0.008463541666666668,8.251953125000002,0)" xlink:href="#bj"/><use transform="matrix(0.008463541666666668,0,0,0.008463541666666668,14.980468750000004,0)" xlink:href="#aX"/><use transform="matrix(0.008463541666666668,0,0,0.008463541666666668,24.705078125000007,0)" xlink:href="#aZ"/><use transform="matrix(0.008463541666666668,0,0,0.008463541666666668,34.34505208333334,0)" xlink:href="#bi"/><use transform="matrix(0.008463541666666668,0,0,0.008463541666666668,40.46419270833335,0)" xlink:href="#aX"/><use transform="matrix(0.008463541666666668,0,0,0.008463541666666668,50.18880208333334,0)" xlink:href="#bc"/></g><path fill="#222" d="M383 324C201 116 82-188 82-561c0-378 120-688 301-901h162c-172 227-289 529-289 899 0 361 122 665 287 887H383" id="bL"/><g id="aa"><use transform="matrix(0.008463541666666668,0,0,0.008463541666666668,0,0)" xlink:href="#bL"/><use transform="matrix(0.008463541666666668,0,0,0.008463541666666668,5.128906250000001,0)" xlink:href="#be"/><use transform="matrix(0.008463541666666668,0,0,0.008463541666666668,9.513020833333336,0)" xlink:href="#bi"/></g><g id="ab"><use transform="matrix(0.008463541666666668,0,0,0.008463541666666668,0,0)" xlink:href="#bJ"/><use transform="matrix(0.008463541666666668,0,0,0.008463541666666668,13.482421875000002,0)" xlink:href="#ba"/><use transform="matrix(0.008463541666666668,0,0,0.008463541666666668,23.95182291666667,0)" xlink:href="#bv"/><use transform="matrix(0.008463541666666668,0,0,0.008463541666666668,34.59049479166667,0)" xlink:href="#bg"/><use transform="matrix(0.008463541666666668,0,0,0.008463541666666668,38.97460937500001,0)" xlink:href="#bc"/></g><g id="ac"><use transform="matrix(0.008463541666666668,0,0,0.008463541666666668,0,0)" xlink:href="#bu"/><use transform="matrix(0.008463541666666668,0,0,0.008463541666666668,10.621744791666668,0)" xlink:href="#aX"/></g><g id="ad"><use transform="matrix(0.008463541666666668,0,0,0.008463541666666668,0,0)" xlink:href="#be"/><use transform="matrix(0.008463541666666668,0,0,0.008463541666666668,4.384114583333334,0)" xlink:href="#aY"/></g><g id="ae"><use transform="matrix(0.008463541666666668,0,0,0.008463541666666668,0,0)" xlink:href="#aZ"/><use transform="matrix(0.008463541666666668,0,0,0.008463541666666668,9.639973958333334,0)" xlink:href="#bc"/><use transform="matrix(0.008463541666666668,0,0,0.008463541666666668,20.26171875,0)" xlink:href="#bd"/><use transform="matrix(0.008463541666666668,0,0,0.008463541666666668,36.384765625,0)" xlink:href="#be"/><use transform="matrix(0.008463541666666668,0,0,0.008463541666666668,40.768880208333336,0)" xlink:href="#aY"/></g><path fill="#222" d="M223-1462c182 213 301 524 301 901 0 373-119 679-301 885H63c166-222 287-526 287-887 0-369-117-672-289-899h162" id="bM"/><g id="af"><use transform="matrix(0.008463541666666668,0,0,0.008463541666666668,0,0)" xlink:href="#bd"/><use transform="matrix(0.008463541666666668,0,0,0.008463541666666668,16.123046875000004,0)" xlink:href="#ba"/><use transform="matrix(0.008463541666666668,0,0,0.008463541666666668,26.59244791666667,0)" xlink:href="#bc"/><use transform="matrix(0.008463541666666668,0,0,0.008463541666666668,37.21419270833334,0)" xlink:href="#aX"/><use transform="matrix(0.008463541666666668,0,0,0.008463541666666668,46.93880208333334,0)" xlink:href="#bM"/><use transform="matrix(0.008463541666666668,0,0,0.008463541666666668,52.06770833333334,0)" xlink:href="#bp"/></g><path fill="#222" d="M602-1462c329 0 526 109 526 413 0 193-98 324-294 392L1231 0h-201L676-608H371V0H201v-1462h401zm350 422c0-215-129-271-360-273H371v559h233c223 0 348-78 348-286" id="bN"/><path fill="#222" d="M516-150c94-315 146-423 332-946h178L610 0H416L0-1096h178c98 281 253 670 330 946h8" id="bO"/><g id="ag"><use transform="matrix(0.008463541666666668,0,0,0.008463541666666668,0,0)" xlink:href="#bN"/><use transform="matrix(0.008463541666666668,0,0,0.008463541666666668,10.714843750000002,0)" xlink:href="#aX"/><use transform="matrix(0.008463541666666668,0,0,0.008463541666666668,20.439453125000004,0)" xlink:href="#bk"/><use transform="matrix(0.008463541666666668,0,0,0.008463541666666668,28.708333333333336,0)" xlink:href="#ba"/><use transform="matrix(0.008463541666666668,0,0,0.008463541666666668,39.177734375,0)" xlink:href="#bg"/><use transform="matrix(0.008463541666666668,0,0,0.008463541666666668,43.56184895833334,0)" xlink:href="#bO"/><use transform="matrix(0.008463541666666668,0,0,0.008463541666666668,52.245442708333336,0)" xlink:href="#aX"/><use transform="matrix(0.008463541666666668,0,0,0.008463541666666668,61.970052083333336,0)" xlink:href="#bc"/></g><g id="ah"><use transform="matrix(0.008463541666666668,0,0,0.008463541666666668,0,0)" xlink:href="#bf"/><use transform="matrix(0.008463541666666668,0,0,0.008463541666666668,10.621744791666668,0)" xlink:href="#bg"/><use transform="matrix(0.008463541666666668,0,0,0.008463541666666668,15.005859375000002,0)" xlink:href="#aZ"/><use transform="matrix(0.008463541666666668,0,0,0.008463541666666668,24.645833333333336,0)" xlink:href="#bl"/><use transform="matrix(0.008463541666666668,0,0,0.008463541666666668,32.897786458333336,0)" xlink:href="#be"/><use transform="matrix(0.008463541666666668,0,0,0.008463541666666668,37.28190104166667,0)" xlink:href="#aY"/><use transform="matrix(0.008463541666666668,0,0,0.008463541666666668,47.92057291666667,0)" xlink:href="#bo"/></g><g id="ai"><use transform="matrix(0.008463541666666668,0,0,0.008463541666666668,0,0)" xlink:href="#bi"/><use transform="matrix(0.008463541666666668,0,0,0.008463541666666668,6.119140625000001,0)" xlink:href="#aW"/><use transform="matrix(0.008463541666666668,0,0,0.008463541666666668,16.757812500000004,0)" xlink:href="#aZ"/><use transform="matrix(0.008463541666666668,0,0,0.008463541666666668,26.397786458333336,0)" xlink:href="#bi"/></g><g id="aj"><use transform="matrix(0.008463541666666668,0,0,0.008463541666666668,0,0)" xlink:href="#aZ"/><use transform="matrix(0.008463541666666668,0,0,0.008463541666666668,9.639973958333334,0)" xlink:href="#bj"/><use transform="matrix(0.008463541666666668,0,0,0.008463541666666668,16.368489583333336,0)" xlink:href="#aX"/><use transform="matrix(0.008463541666666668,0,0,0.008463541666666668,26.093098958333336,0)" xlink:href="#aZ"/></g><g id="ak"><use transform="matrix(0.008463541666666668,0,0,0.008463541666666668,0,0)" xlink:href="#ba"/><use transform="matrix(0.008463541666666668,0,0,0.008463541666666668,10.469401041666668,0)" xlink:href="#bm"/></g><g id="al"><use transform="matrix(0.008463541666666668,0,0,0.008463541666666668,0,0)" xlink:href="#bw"/><use transform="matrix(0.008463541666666668,0,0,0.008463541666666668,9.639973958333334,0)" xlink:href="#bc"/><use transform="matrix(0.008463541666666668,0,0,0.008463541666666668,20.26171875,0)" xlink:href="#be"/><use transform="matrix(0.008463541666666668,0,0,0.008463541666666668,24.645833333333336,0)" xlink:href="#bi"/></g><g id="am"><use transform="matrix(0.008463541666666668,0,0,0.008463541666666668,0,0)" xlink:href="#bf"/><use transform="matrix(0.008463541666666668,0,0,0.008463541666666668,10.621744791666668,0)" xlink:href="#aZ"/><use transform="matrix(0.008463541666666668,0,0,0.008463541666666668,20.26171875,0)" xlink:href="#bo"/><use transform="matrix(0.008463541666666668,0,0,0.008463541666666668,29.7578125,0)" xlink:href="#aX"/></g><g id="an"><use transform="matrix(0.008463541666666668,0,0,0.008463541666666668,0,0)" xlink:href="#be"/><use transform="matrix(0.008463541666666668,0,0,0.008463541666666668,4.384114583333334,0)" xlink:href="#aY"/><use transform="matrix(0.008463541666666668,0,0,0.008463541666666668,15.022786458333336,0)" xlink:href="#bk"/><use transform="matrix(0.008463541666666668,0,0,0.008463541666666668,23.29166666666667,0)" xlink:href="#be"/><use transform="matrix(0.008463541666666668,0,0,0.008463541666666668,27.675781250000007,0)" xlink:href="#bc"/><use transform="matrix(0.008463541666666668,0,0,0.008463541666666668,38.29752604166667,0)" xlink:href="#aX"/></g><g id="ao"><use transform="matrix(0.008463541666666668,0,0,0.008463541666666668,0,0)" xlink:href="#bx"/><use transform="matrix(0.008463541666666668,0,0,0.008463541666666668,3.8339843750000004,0)" xlink:href="#be"/><use transform="matrix(0.008463541666666668,0,0,0.008463541666666668,8.218098958333334,0)" xlink:href="#bm"/></g><g id="ap"><use transform="matrix(0.008463541666666668,0,0,0.008463541666666668,0,0)" xlink:href="#bv"/><use transform="matrix(0.008463541666666668,0,0,0.008463541666666668,10.638671875000002,0)" xlink:href="#bk"/><use transform="matrix(0.008463541666666668,0,0,0.008463541666666668,18.907552083333336,0)" xlink:href="#aX"/><use transform="matrix(0.008463541666666668,0,0,0.008463541666666668,28.632161458333336,0)" xlink:href="#bj"/><use transform="matrix(0.008463541666666668,0,0,0.008463541666666668,35.70768229166667,0)" xlink:href="#bp"/><use transform="matrix(0.008463541666666668,0,0,0.008463541666666668,40.32031250000001,0)" xlink:href="#be"/><use transform="matrix(0.008463541666666668,0,0,0.008463541666666668,44.70442708333334,0)" xlink:href="#bk"/><use transform="matrix(0.008463541666666668,0,0,0.008463541666666668,52.97330729166668,0)" xlink:href="#bz"/><use transform="matrix(0.008463541666666668,0,0,0.008463541666666668,60.74283854166668,0)" xlink:href="#aZ"/><use transform="matrix(0.008463541666666668,0,0,0.008463541666666668,70.38281250000001,0)" xlink:href="#bc"/><use transform="matrix(0.008463541666666668,0,0,0.008463541666666668,81.0045572916667,0)" xlink:href="#bd"/><use transform="matrix(0.008463541666666668,0,0,0.008463541666666668,97.12760416666669,0)" xlink:href="#be"/><use transform="matrix(0.008463541666666668,0,0,0.008463541666666668,101.51171875000001,0)" xlink:href="#aY"/><use transform="matrix(0.008463541666666668,0,0,0.008463541666666668,112.15039062500001,0)" xlink:href="#bL"/><use transform="matrix(0.008463541666666668,0,0,0.008463541666666668,117.27929687500001,0)" xlink:href="#bM"/></g><path fill="#222" d="M119-858v-137h930v137H119zm0 409v-137h930v137H119" id="bP"/><g id="aq"><use transform="matrix(0.008463541666666668,0,0,0.008463541666666668,0,0)" xlink:href="#bP"/><use transform="matrix(0.008463541666666668,0,0,0.008463541666666668,9.910807291666668,0)" xlink:href="#bP"/></g><g id="ar"><use transform="matrix(0.008463541666666668,0,0,0.008463541666666668,0,0)" xlink:href="#bq"/><use transform="matrix(0.008463541666666668,0,0,0.008463541666666668,8.725911458333334,0)" xlink:href="#bj"/><use transform="matrix(0.008463541666666668,0,0,0.008463541666666668,15.801432291666666,0)" xlink:href="#bv"/><use transform="matrix(0.008463541666666668,0,0,0.008463541666666668,26.44010416666667,0)" xlink:href="#aX"/><use transform="matrix(0.008463541666666668,0,0,0.008463541666666668,35.99544270833334,0)" xlink:href="#bx"/></g><g id="as"><use transform="matrix(0.008463541666666668,0,0,0.008463541666666668,0,0)" xlink:href="#bu"/><use transform="matrix(0.008463541666666668,0,0,0.008463541666666668,10.621744791666668,0)" xlink:href="#bj"/><use transform="matrix(0.008463541666666668,0,0,0.008463541666666668,17.350260416666668,0)" xlink:href="#aZ"/><use transform="matrix(0.008463541666666668,0,0,0.008463541666666668,26.990234375,0)" xlink:href="#aY"/><use transform="matrix(0.008463541666666668,0,0,0.008463541666666668,37.62890625,0)" xlink:href="#bl"/><use transform="matrix(0.008463541666666668,0,0,0.008463541666666668,45.880859375,0)" xlink:href="#aW"/></g></defs></g></svg>