<svg xmlns="http://www.w3.org/2000/svg" xmlns:xlink="http://www.w3.org/1999/xlink" xmlns:lucid="lucid" width="1424.53" height="1400"><g transform="translate(-115.46913580246914 -220)" lucid:page-tab-id="0_0"><path d="M0 0h1760v2656H0z" fill="#fff"/><path d="M400 246c0-3.3 2.7-6 6-6h1108c3.3 0 6 2.7 6 6v1348c0 3.3-2.7 6-6 6H406c-3.3 0-6-2.7-6-6z" stroke="#5e5e5e" stroke-width="3" fill="#fff"/><use xlink:href="#a" transform="matrix(1,0,0,1,405,245) translate(318.5185185185186 17.77777777777778)"/><use xlink:href="#b" transform="matrix(1,0,0,1,405,245) translate(423.33333333333337 17.77777777777778)"/><use xlink:href="#c" transform="matrix(1,0,0,1,405,245) translate(660.1851851851852 17.77777777777778)"/><use xlink:href="#d" transform="matrix(1,0,0,1,405,245) translate(736.5432098765432 17.77777777777778)"/><path d="M239.75 839.75c0 10.9-8.84 19.75-19.75 19.75-10.9 0-19.75-8.84-19.75-19.75 0-10.9 8.84-19.75 19.75-19.75 10.9 0 19.75 8.84 19.75 19.75z" stroke="#5e5e5e" stroke-width="3" fill="#fff"/><path d="M220 859.5v49.3c0 3.3 1.44 8.27 3.2 11.07L260 978m-40-63.2L180 978m0-98.75h80" stroke="#5e5e5e" stroke-width="3" fill="none"/><path d="M180 826c0-3.3 2.7-6 6-6h68c3.3 0 6 2.7 6 6v168c0 3.3-2.7 6-6 6h-68c-3.3 0-6-2.7-6-6z" fill="none"/><use xlink:href="#e" transform="matrix(1,0,0,1,100,978) translate(37.46913580246914 17.77777777777778)"/><use xlink:href="#f" transform="matrix(1,0,0,1,100,978) translate(159.38271604938274 17.77777777777778)"/><path d="M620 380c0 33.14-35.82 60-80 60s-80-26.86-80-60 35.82-60 80-60 80 26.86 80 60z" stroke="#5e5e5e" stroke-width="3" fill="#fff"/><use xlink:href="#g" transform="matrix(1,0,0,1,460,320) translate(58.029999999999994 63.15)"/><path d="M1240 357.86c0 33.14-35.82 60-80 60s-80-26.86-80-60c0-33.13 35.82-60 80-60s80 26.87 80 60z" stroke="#5e5e5e" stroke-width="3" fill="#fff"/><use xlink:href="#h" transform="matrix(1,0,0,1,1080,297.864032176406) translate(9.805000000000001 63.15)"/><use xlink:href="#i" transform="matrix(1,0,0,1,1080,297.864032176406) translate(78.355 63.15)"/><use xlink:href="#j" transform="matrix(1,0,0,1,1080,297.864032176406) translate(121.25500000000001 63.15)"/><path d="M1240 500c0 33.14-35.82 60-80 60s-80-26.86-80-60 35.82-60 80-60 80 26.86 80 60z" stroke="#5e5e5e" stroke-width="3" fill="#fff"/><use xlink:href="#k" transform="matrix(1,0,0,1,1080,440) translate(29.129999999999992 40.65)"/><use xlink:href="#l" transform="matrix(1,0,0,1,1080,440) translate(92.98 40.65)"/><use xlink:href="#m" transform="matrix(1,0,0,1,1080,440) translate(37.129999999999995 62.25)"/><use xlink:href="#n" transform="matrix(1,0,0,1,1080,440) translate(79.97999999999999 62.25)"/><use xlink:href="#o" transform="matrix(1,0,0,1,1080,440) translate(93.93 62.25)"/><use xlink:href="#p" transform="matrix(1,0,0,1,1080,440) translate(45.58 83.85000000000001)"/><path d="M1077.5 357.86h-9.84m-9.85 0h-19.67m-9.85 0h-19.68m-9.85 0h-19.68m-9.85 0h-19.68m-9.85 0H920m-9.84 0h-19.7m-9.83 0h-19.7m-9.83 0h-19.7m-9.83 0h-19.7m-9.83 0h-19.7m-9.83 0h-19.68m-9.84 0h-19.7m-9.83 0h-19.7m-9.83 0h-19.7m-9.83 0h-9.86" stroke="#5e5e5e" stroke-width="2" fill="none"/><path d="M1078.5 357.84v.44l.02.58h-1.05v-2h1.06" fill="#5e5e5e"/><path d="M619.28 357.86l14.26-4.63v9.27z" stroke="#5e5e5e" stroke-width="2" fill="#5e5e5e"/><path d="M1077.5 500h-10.7m-10.7 0h-21.37m-10.7 0h-21.38m-10.7 0h-21.38m-10.7 0h-21.4m-10.68 0h-21.4m-10.7 0h-21.38m-10.7 0h-10.68l-3.03-.82-2.14-2.15-.82-3.03v-9.4m0-9.4v-18.78m0-9.4v-18.78m0-9.4v-9.4l-.82-3-2.15-2.17-3.03-.82h-9.86m-9.86 0H801.5m-9.86 0h-19.72m-9.86 0h-19.72m-9.86 0h-19.72m-9.86 0h-19.72m-9.86 0H653.6m-9.86 0h-9.86" stroke="#5e5e5e" stroke-width="2" fill="none"/><path d="M1078.5 499.98v.43l.02.6h-1.05v-2h1.06" fill="#5e5e5e"/><path d="M618.6 403.45l14.28-4.63v9.27z" stroke="#5e5e5e" stroke-width="2" fill="#5e5e5e"/><path d="M880 306c0-3.3 2.7-6 6-6h148c3.3 0 6 2.7 6 6v28c0 3.3-2.7 6-6 6H886c-3.3 0-6-2.7-6-6z" fill="#fff"/><use xlink:href="#q" transform="matrix(1,0,0,1,880,300) translate(18.95561728395061 22.787777777777777)"/><path d="M880 466c0-3.3 2.7-6 6-6h148c3.3 0 6 2.7 6 6v28c0 3.3-2.7 6-6 6H886c-3.3 0-6-2.7-6-6z" fill="#fff"/><use xlink:href="#r" transform="matrix(1,0,0,1,880,460) translate(20.745740740740736 22.787777777777777)"/><path d="M620 570c0 33.14-35.82 60-80 60s-80-26.86-80-60 35.82-60 80-60 80 26.86 80 60z" stroke="#5e5e5e" stroke-width="3" fill="#fff"/><use xlink:href="#s" transform="matrix(1,0,0,1,460,510) translate(18.279999999999994 63.15)"/><use xlink:href="#t" transform="matrix(1,0,0,1,460,510) translate(61.83 63.15)"/><path d="M1180 720c0 33.14-35.82 60-80 60s-80-26.86-80-60 35.82-60 80-60 80 26.86 80 60z" stroke="#5e5e5e" stroke-width="3" fill="#fff"/><use xlink:href="#u" transform="matrix(1,0,0,1,1020,660) translate(27.57999999999999 51.9)"/><use xlink:href="#v" transform="matrix(1,0,0,1,1020,660) translate(63.529999999999994 51.9)"/><use xlink:href="#w" transform="matrix(1,0,0,1,1020,660) translate(24.07999999999999 73.5)"/><use xlink:href="#j" transform="matrix(1,0,0,1,1020,660) translate(106.98 73.5)"/><path d="M1180 1140c0 33.14-35.82 60-80 60s-80-26.86-80-60 35.82-60 80-60 80 26.86 80 60z" stroke="#5e5e5e" stroke-width="3" fill="#fff"/><use xlink:href="#u" transform="matrix(1,0,0,1,1020,1080) translate(23.07999999999999 51.9)"/><use xlink:href="#x" transform="matrix(1,0,0,1,1020,1080) translate(59.029999999999994 51.9)"/><use xlink:href="#j" transform="matrix(1,0,0,1,1020,1080) translate(65.53 73.5)"/><path d="M620 760c0 33.14-35.82 60-80 60s-80-26.86-80-60 35.82-60 80-60 80 26.86 80 60z" stroke="#5e5e5e" stroke-width="3" fill="#fff"/><use xlink:href="#y" transform="matrix(1,0,0,1,460,700) translate(21.555 63.15)"/><use xlink:href="#t" transform="matrix(1,0,0,1,460,700) translate(58.555 63.15)"/><path d="M620 950c0 33.14-35.82 60-80 60s-80-26.86-80-60 35.82-60 80-60 80 26.86 80 60z" stroke="#5e5e5e" stroke-width="3" fill="#fff"/><use xlink:href="#z" transform="matrix(1,0,0,1,460,890) translate(37.55499999999999 51.9)"/><use xlink:href="#t" transform="matrix(1,0,0,1,460,890) translate(40.05499999999999 73.5)"/><path d="M620 1140c0 33.14-35.82 60-80 60s-80-26.86-80-60 35.82-60 80-60 80 26.86 80 60z" stroke="#5e5e5e" stroke-width="3" fill="#fff"/><use xlink:href="#A" transform="matrix(1,0,0,1,460,1080) translate(9.079999999999993 63.15)"/><use xlink:href="#t" transform="matrix(1,0,0,1,460,1080) translate(71.03 63.15)"/><path d="M620 1330c0 33.14-35.82 60-80 60s-80-26.86-80-60 35.82-60 80-60 80 26.86 80 60z" stroke="#5e5e5e" stroke-width="3" fill="#fff"/><use xlink:href="#B" transform="matrix(1,0,0,1,460,1270) translate(34.605 63.15)"/><use xlink:href="#C" transform="matrix(1,0,0,1,460,1270) translate(72.555 63.15)"/><path d="M1000 720h-9.67m-9.67 0h-19.33m-9.66 0h-19.34m-9.66 0h-19.34m-9.66 0h-19.34m-9.66 0h-19.34m-9.66 0H826l-3.03-.82-2.15-2.15L820 714v-9.2m0-9.2v-18.4m0-9.2v-18.4m0-9.2V622m0-9.2v-18.4m0-9.2V576l-.82-3.03-2.15-2.15L814 570h-9.67m-9.66 0h-19.34m-9.66 0h-19.34m-9.66 0h-19.34m-9.66 0h-19.34m-9.66 0h-19.33m-9.67 0H640" stroke="#5e5e5e" stroke-width="2" fill="none"/><path d="M1015.26 720l-14.26 4.64v-9.28zM624.74 570l14.26-4.64v9.28z" stroke="#5e5e5e" stroke-width="2" fill="#5e5e5e"/><path d="M820 686c0-3.3 2.7-6 6-6h148c3.3 0 6 2.7 6 6v28c0 3.3-2.7 6-6 6H826c-3.3 0-6-2.7-6-6z" fill="#fff"/><use xlink:href="#r" transform="matrix(1,0,0,1,820,680) translate(20.745740740740736 22.787777777777777)"/><path d="M1000 1140h-10m-10 0h-20m-10 0h-20m-10 0h-20m-10 0h-20m-10 0h-20m-10 0h-20m-10 0h-20m-10 0h-20m-10 0h-20m-10 0h-20m-10 0h-20m-10 0h-10" stroke="#5e5e5e" stroke-width="2" fill="none"/><path d="M1015.26 1140l-14.26 4.64v-9.28zM624.74 1140l14.26-4.64v9.28z" stroke="#5e5e5e" stroke-width="2" fill="#5e5e5e"/><path d="M820 1106c0-3.3 2.7-6 6-6h148c3.3 0 6 2.7 6 6v28c0 3.3-2.7 6-6 6H826c-3.3 0-6-2.7-6-6z" fill="#fff"/><use xlink:href="#r" transform="matrix(1,0,0,1,820,1100) translate(20.745740740740736 22.787777777777777)"/><path d="M1480 910c0 33.14-35.82 60-80 60s-80-26.86-80-60 35.82-60 80-60 80 26.86 80 60z" stroke="#5e5e5e" stroke-width="3" fill="#fff"/><use xlink:href="#D" transform="matrix(1,0,0,1,1320,850) translate(51.03 40.65)"/><use xlink:href="#x" transform="matrix(1,0,0,1,1320,850) translate(41.05499999999999 62.25)"/><use xlink:href="#E" transform="matrix(1,0,0,1,1320,850) translate(43.004999999999995 83.85000000000001)"/><path d="M1400 972.5v10.77m0 10.76v21.54m0 10.76v21.54m0 10.76v21.54m0 10.76v21.54m0 10.76V1134l-.82 3.03-2.15 2.15-3.03.82h-10.78m-10.78 0h-21.55m-10.8 0h-21.54m-10.78 0h-21.56m-10.77 0h-21.56m-10.8 0h-21.54m-10.78 0H1200" stroke="#5e5e5e" stroke-width="2" fill="none"/><path d="M1399.98 971.5h1.02v1.03h-2v-1.06" fill="#5e5e5e"/><path d="M1184.74 1140l14.26-4.64v9.28z" stroke="#5e5e5e" stroke-width="2" fill="#5e5e5e"/><path d="M1200 720h10.78m10.78 0h21.55m10.8 0h21.55m10.77 0h21.56m10.78 0h21.55m10.8 0h21.54m10.78 0H1394l3.03.82 2.15 2.15.82 3.03v10.12m0 10.13v20.25m0 10.12v20.25m0 10.13v20.25m0 10.12v10.13" stroke="#5e5e5e" stroke-width="2" fill="none"/><path d="M1184.74 720l14.26-4.64v9.28z" stroke="#5e5e5e" stroke-width="2" fill="#5e5e5e"/><path d="M1401 848.53l-.98-.03H1399v-1.03h2" fill="#5e5e5e"/><path d="M640 760h10.4m10.38 0h20.78m10.4 0h20.76m10.4 0h20.77m10.38 0h20.78m10.4 0h20.76m10.4 0h20.77m10.38 0h20.78m10.4 0h20.76m10.4 0h20.77m10.38 0h20.78m10.38 0h20.78m10.4 0H1014l3.03.82 2.15 2.15.82 3.03v12.67m0 12.66V804l.82 3.03 2.15 2.15 3.03.82h10.22m10.22 0h20.45m10.2 0h20.46m10.22 0h20.44m10.22 0h20.45m10.2 0h20.46m10.22 0h20.44m10.22 0h20.45m10.2 0h20.46m10.22 0h20.44m10.22 0h20.45m10.2 0h20.46m10.22 0H1394l3.03.82 2.15 2.15.82 3.03v10.5m0 10.5v10.5" stroke="#5e5e5e" stroke-width="2" fill="none"/><path d="M624.74 760l14.26-4.64v9.28z" stroke="#5e5e5e" stroke-width="2" fill="#5e5e5e"/><path d="M1401 848.53l-.98-.03H1399v-1.03h2" fill="#5e5e5e"/><path d="M640 950h10.07m10.07 0h20.14m10.07 0h20.14m10.06 0h20.14m10.07 0h20.14m10.08 0h20.14m10.07 0h20.13m10.07 0h20.15m10.07 0h20.14m10.07 0h20.14m10.07 0h20.14m10.07 0h20.14m10.06 0h20.14m10.07 0h20.14m10.08 0h20.14m10.07 0h20.13m10.07 0h20.14m10.07 0h20.15m10.07 0h20.14m10.07 0H1214l3.03.82 2.15 2.15.82 3.03v12.67m0 12.66V994l.82 3.03 2.15 2.15 3.03.82h9.33m9.34 0h18.66m9.34 0h18.66m9.34 0h18.66m9.34 0h18.66m9.34 0h18.66m9.34 0h9.33l3.03-.82 2.15-2.15.82-3.03v-7.17m0-7.16v-7.17" stroke="#5e5e5e" stroke-width="2" fill="none"/><path d="M624.74 950l14.26-4.64v9.28z" stroke="#5e5e5e" stroke-width="2" fill="#5e5e5e"/><path d="M1399.98 971.5h1.02v1.03h-2v-1.06" fill="#5e5e5e"/><path d="M1220 726c0-3.3 2.7-6 6-6h148c3.3 0 6 2.7 6 6v28c0 3.3-2.7 6-6 6h-148c-3.3 0-6-2.7-6-6z" fill="#fff"/><use xlink:href="#q" transform="matrix(1,0,0,1,1220,720) translate(18.95561728395061 22.787777777777777)"/><path d="M1220 816c0-3.3 2.7-6 6-6h148c3.3 0 6 2.7 6 6v28c0 3.3-2.7 6-6 6h-148c-3.3 0-6-2.7-6-6z" fill="#fff"/><use xlink:href="#q" transform="matrix(1,0,0,1,1220,810) translate(18.95561728395061 22.787777777777777)"/><path d="M1220 966c0-3.3 2.7-6 6-6h148c3.3 0 6 2.7 6 6v28c0 3.3-2.7 6-6 6h-148c-3.3 0-6-2.7-6-6z" fill="#fff"/><use xlink:href="#q" transform="matrix(1,0,0,1,1220,960) translate(18.95561728395061 22.787777777777777)"/><path d="M1220 1106c0-3.3 2.7-6 6-6h148c3.3 0 6 2.7 6 6v28c0 3.3-2.7 6-6 6h-148c-3.3 0-6-2.7-6-6z" fill="#fff"/><use xlink:href="#q" transform="matrix(1,0,0,1,1220,1100) translate(18.95561728395061 22.787777777777777)"/><path d="M620 1520c0 33.14-35.82 60-80 60s-80-26.86-80-60 35.82-60 80-60 80 26.86 80 60z" stroke="#5e5e5e" stroke-width="3" fill="#fff"/><use xlink:href="#F" transform="matrix(1,0,0,1,460,1460) translate(61.555 63.15)"/><path d="M222.5 898.8H334c3.3 0 6-2.7 6-6V386c0-3.3 2.7-6 6-6h111.5M222.53 898.8h-4.03" stroke="#5e5e5e" stroke-width="2" fill="none"/><path d="M458.5 379.98v.43l.02.6h-1.05v-2h1.06" fill="#5e5e5e"/><path d="M222.5 898.8H334c3.3 0 6-2.7 6-6V576c0-3.3 2.7-6 6-6h111.5M222.53 898.8h-4.03" stroke="#5e5e5e" stroke-width="2" fill="none"/><path d="M458.5 569.98v.43l.02.6h-1.05v-2h1.06" fill="#5e5e5e"/><path d="M222.5 898.8H334c3.3 0 6-2.7 6-6V766c0-3.3 2.7-6 6-6h111.5M222.53 898.8h-4.03" stroke="#5e5e5e" stroke-width="2" fill="none"/><path d="M458.5 759.98v.43l.02.6h-1.05v-2h1.06" fill="#5e5e5e"/><path d="M222.5 898.8H334c3.3 0 6 2.68 6 6V944c0 3.3 2.7 6 6 6h111.5M222.53 898.8h-4.03" stroke="#5e5e5e" stroke-width="2" fill="none"/><path d="M458.5 949.98v.43l.02.6h-1.05v-2h1.06" fill="#5e5e5e"/><path d="M222.5 898.8H334c3.3 0 6 2.68 6 6V1134c0 3.3 2.7 6 6 6h111.5M222.53 898.8h-4.03" stroke="#5e5e5e" stroke-width="2" fill="none"/><path d="M458.5 1139.98v.43l.02.6h-1.05v-2h1.06" fill="#5e5e5e"/><path d="M222.5 898.8H334c3.3 0 6 2.68 6 6V1324c0 3.3 2.7 6 6 6h111.5M222.53 898.8h-4.03" stroke="#5e5e5e" stroke-width="2" fill="none"/><path d="M458.5 1329.98v.43l.02.6h-1.05v-2h1.06" fill="#5e5e5e"/><path d="M222.5 898.8H334c3.3 0 6 2.68 6 6V1514c0 3.3 2.7 6 6 6h111.5M222.53 898.8h-4.03" stroke="#5e5e5e" stroke-width="2" fill="none"/><path d="M458.5 1519.98v.43l.02.6h-1.05v-2h1.06" fill="#5e5e5e"/><path d="M622.5 1520h9.82m9.83 0h19.64m9.8 0h19.66m9.82 0h19.65m9.82 0h19.65m9.82 0h19.65m9.82 0h19.64m9.82 0h19.64m9.83 0h19.64m9.83 0h19.64m9.82 0H927m9.83 0h19.65m9.82 0h19.65m9.82 0h19.65m9.82 0h19.65m9.8 0h19.65m9.83 0h9.82l3.03-.82 2.15-2.15.82-3.03v-9.8m0-9.8v-19.6m0-9.8v-19.6m0-9.8V1416m0-9.8v-19.6m0-9.8v-19.6m0-9.8v-19.6m0-9.8v-19.6m0-9.8V1269m0-9.8v-19.6m0-9.8v-9.8" stroke="#5e5e5e" stroke-width="2" fill="none"/><path d="M622.53 1521h-1.06l.03-.98v-.43l-.02-.6h1.05" fill="#5e5e5e"/><path d="M1100 1204.74l4.64 14.26h-9.28z" stroke="#5e5e5e" stroke-width="2" fill="#5e5e5e"/><path d="M920 1466c0-3.3 2.7-6 6-6h148c3.3 0 6 2.7 6 6v28c0 3.3-2.7 6-6 6H926c-3.3 0-6-2.7-6-6z" fill="#fff"/><use xlink:href="#r" transform="matrix(1,0,0,1,920,1460) translate(20.745740740740736 22.787777777777777)"/><path d="M540 460v15.5l.82 3.03 2.15 2.15 3.03.82h10.38m10.38 0h20.76m10.38 0h20.77m10.38 0h20.76m10.4 0h20.75m10.38 0h20.77m10.38 0h20.76m10.38 0H764l3.03.82 2.15 2.15.82 3.03v10.06m0 10.07v20.12m0 10.07v20.13m0 10.06v20.14m0 10.06v20.13m0 10.06v20.12m0 10.06v20.13m0 10.07v20.13m0 10.07v20.12m0 10.06v20.12m0 10.07v20.13m0 10.06v20.13m0 10.06v20.13m0 10.06v20.13m0 10.06v20.14m0 10.06v20.13m0 10.07v20.12m0 10.07v20.1m0 10.08V1041m0 10.07v20.13m0 10.06v20.13m0 10.05v20.13m0 10.06v20.13m0 10.06v20.13m0 10.06v20.13m0 10.07v20.12m0 10.07v20.13m0 10.07v20.13m0 10.06v20.12m0 10.06v20.13m0 10.07v20.13m0 10.06v20.13m0 10.05v20.13m0 10.07v20.12m0 10.07V1514l-.82 3.03-2.15 2.15-3.03.82h-9.43m-9.44 0h-18.86m-9.44 0h-18.86m-9.44 0h-18.86m-9.44 0h-18.86m-9.44 0h-9.43" stroke="#5e5e5e" stroke-width="2" fill="none"/><path d="M540 444.74l4.64 14.26h-9.28z" stroke="#5e5e5e" stroke-width="2" fill="#5e5e5e"/><path d="M622.53 1521h-1.06l.03-.98v-.43l-.02-.6h1.05" fill="#5e5e5e"/><path d="M540 650v4l.82 3.03 2.15 2.15 3.03.82h10.2m10.17 0h20.37m10.2 0h20.36m10.18 0h20.37m10.2 0h20.36m10.2 0h20.36m10.2 0h10.17l.47.2.2.47.2.47.47.2h12.77m12.78 0H769" stroke="#5e5e5e" stroke-width="2" fill="none"/><path d="M540 634.74l4.64 14.26h-9.28z" stroke="#5e5e5e" stroke-width="2" fill="#5e5e5e"/><path d="M768.97 661.33H770M540 840v7.33l.82 3.03 2.15 2.15 3.03.83h10.62m10.62 0h21.24m10.62 0h21.23m10.62 0h21.24m10.6 0h21.25m10.62 0h21.23m10.62 0h21.24m10.62 0H769" stroke="#5e5e5e" stroke-width="2" fill="none"/><path d="M540 824.74l4.64 14.26h-9.28z" stroke="#5e5e5e" stroke-width="2" fill="#5e5e5e"/><path d="M768.97 853.33H770M540 1030v14.67l.82 3.02 2.15 2.15 3.03.82h10.62m10.62 0h21.24m10.62 0h21.23m10.62 0h21.24m10.6 0h21.25m10.62 0h21.23m10.62 0h21.24m10.62 0H769" stroke="#5e5e5e" stroke-width="2" fill="none"/><path d="M540 1014.74l4.64 14.26h-9.28z" stroke="#5e5e5e" stroke-width="2" fill="#5e5e5e"/><path d="M768.97 1050.67H770M540 1220v19.33l.82 3.03 2.15 2.15 3.03.83h10.62m10.62 0h21.24m10.62 0h21.23m10.62 0h21.24m10.6 0h21.25m10.62 0h21.23m10.62 0h21.24m10.62 0H769" stroke="#5e5e5e" stroke-width="2" fill="none"/><path d="M540 1204.74l4.64 14.26h-9.28z" stroke="#5e5e5e" stroke-width="2" fill="#5e5e5e"/><path d="M768.97 1245.33H770M540 1410v16l.82 3.03 2.15 2.15 3.03.82h10.62m10.62 0h21.24m10.62 0h21.23m10.62 0h21.24m10.6 0h21.25m10.62 0h21.23m10.62 0h21.24m10.62 0H769" stroke="#5e5e5e" stroke-width="2" fill="none"/><path d="M540 1394.74l4.64 14.26h-9.28z" stroke="#5e5e5e" stroke-width="2" fill="#5e5e5e"/><path d="M768.97 1432H770" stroke="#5e5e5e" stroke-width="2" fill="none"/><path d="M580 1396c0-3.3 2.7-6 6-6h148c3.3 0 6 2.7 6 6v28c0 3.3-2.7 6-6 6H586c-3.3 0-6-2.7-6-6z" fill="#fff"/><g><use xlink:href="#r" transform="matrix(1,0,0,1,580,1390) translate(20.745740740740736 22.787777777777777)"/></g><path d="M580 1206c0-3.3 2.7-6 6-6h148c3.3 0 6 2.7 6 6v28c0 3.3-2.7 6-6 6H586c-3.3 0-6-2.7-6-6z" fill="#fff"/><g><use xlink:href="#r" transform="matrix(1,0,0,1,580,1200) translate(20.745740740740736 22.787777777777777)"/></g><path d="M580 1016c0-3.3 2.7-6 6-6h148c3.3 0 6 2.7 6 6v28c0 3.3-2.7 6-6 6H586c-3.3 0-6-2.7-6-6z" fill="#fff"/><g><use xlink:href="#r" transform="matrix(1,0,0,1,580,1010) translate(20.745740740740736 22.787777777777777)"/></g><path d="M580 816c0-3.3 2.7-6 6-6h148c3.3 0 6 2.7 6 6v28c0 3.3-2.7 6-6 6H586c-3.3 0-6-2.7-6-6z" fill="#fff"/><g><use xlink:href="#r" transform="matrix(1,0,0,1,580,810) translate(20.745740740740736 22.787777777777777)"/></g><path d="M580 626c0-3.3 2.7-6 6-6h148c3.3 0 6 2.7 6 6v28c0 3.3-2.7 6-6 6H586c-3.3 0-6-2.7-6-6z" fill="#fff"/><g><use xlink:href="#r" transform="matrix(1,0,0,1,580,620) translate(20.745740740740736 22.787777777777777)"/></g><path d="M580 446c0-3.3 2.7-6 6-6h148c3.3 0 6 2.7 6 6v28c0 3.3-2.7 6-6 6H586c-3.3 0-6-2.7-6-6z" fill="#fff"/><g><use xlink:href="#r" transform="matrix(1,0,0,1,580,440) translate(20.745740740740736 22.787777777777777)"/></g><path d="M1100 800v10m0 10v20m0 10v20m0 10v10l-.82 3.03-2.15 2.15-3.03.82h-9.8m-9.78 0h-19.57m-9.8 0h-19.57m-9.78 0h-19.58m-9.8 0h-19.56m-9.8 0H937.4m-9.8 0h-19.57m-9.8 0h-19.56m-9.8 0H849.3m-9.78 0h-19.58m-9.8 0H790.6m-9.8 0H771" stroke="#5e5e5e" stroke-width="2" fill="none"/><path d="M1100 784.74l4.64 14.26h-9.28z" stroke="#5e5e5e" stroke-width="2" fill="#5e5e5e"/><path d="M771.03 896H770" stroke="#5e5e5e" stroke-width="2" fill="none"/><path d="M840 856c0-3.3 2.7-6 6-6h148c3.3 0 6 2.7 6 6v28c0 3.3-2.7 6-6 6H846c-3.3 0-6-2.7-6-6z" fill="#fff"/><g><use xlink:href="#r" transform="matrix(1,0,0,1,840,850) translate(20.745740740740736 22.787777777777777)"/></g><defs><path fill="#333" d="M30 0v-248h187v28H63v79h144v27H63v87h162V0H30" id="G"/><path fill="#333" d="M210-169c-67 3-38 105-44 169h-31v-121c0-29-5-50-35-48C34-165 62-65 56 0H25l-1-190h30c1 10-1 24 2 32 10-44 99-50 107 0 11-21 27-35 58-36 85-2 47 119 55 194h-31v-121c0-29-5-49-35-48" id="H"/><path fill="#333" d="M115-194c55 1 70 41 70 98S169 2 115 4C84 4 66-9 55-30l1 105H24l-1-265h31l2 30c10-21 28-34 59-34zm-8 174c40 0 45-34 45-75s-6-73-45-74c-42 0-51 32-51 76 0 43 10 73 51 73" id="I"/><path fill="#333" d="M24 0v-261h32V0H24" id="J"/><path fill="#333" d="M100-194c62-1 85 37 85 99 1 63-27 99-86 99S16-35 15-95c0-66 28-99 85-99zM99-20c44 1 53-31 53-75 0-43-8-75-51-75s-53 32-53 75 10 74 51 75" id="K"/><path fill="#333" d="M179-190L93 31C79 59 56 82 12 73V49c39 6 53-20 64-50L1-190h34L92-34l54-156h33" id="L"/><path fill="#333" d="M100-194c63 0 86 42 84 106H49c0 40 14 67 53 68 26 1 43-12 49-29l28 8c-11 28-37 45-77 45C44 4 14-33 15-96c1-61 26-98 85-98zm52 81c6-60-76-77-97-28-3 7-6 17-6 28h103" id="M"/><g id="a"><use transform="matrix(0.06172839506172839,0,0,0.06172839506172839,0,0)" xlink:href="#G"/><use transform="matrix(0.06172839506172839,0,0,0.06172839506172839,14.814814814814813,0)" xlink:href="#H"/><use transform="matrix(0.06172839506172839,0,0,0.06172839506172839,33.2716049382716,0)" xlink:href="#I"/><use transform="matrix(0.06172839506172839,0,0,0.06172839506172839,45.61728395061728,0)" xlink:href="#J"/><use transform="matrix(0.06172839506172839,0,0,0.06172839506172839,50.49382716049382,0)" xlink:href="#K"/><use transform="matrix(0.06172839506172839,0,0,0.06172839506172839,62.8395061728395,0)" xlink:href="#L"/><use transform="matrix(0.06172839506172839,0,0,0.06172839506172839,73.9506172839506,0)" xlink:href="#M"/><use transform="matrix(0.06172839506172839,0,0,0.06172839506172839,86.29629629629629,0)" xlink:href="#M"/></g><path fill="#333" d="M30-248c118-7 216 8 213 122C240-48 200 0 122 0H30v-248zM63-27c89 8 146-16 146-99s-60-101-146-95v194" id="N"/><path fill="#333" d="M141-36C126-15 110 5 73 4 37 3 15-17 15-53c-1-64 63-63 125-63 3-35-9-54-41-54-24 1-41 7-42 31l-33-3c5-37 33-52 76-52 45 0 72 20 72 64v82c-1 20 7 32 28 27v20c-31 9-61-2-59-35zM48-53c0 20 12 33 32 33 41-3 63-29 60-74-43 2-92-5-92 41" id="O"/><path fill="#333" d="M59-47c-2 24 18 29 38 22v24C64 9 27 4 27-40v-127H5v-23h24l9-43h21v43h35v23H59v120" id="P"/><path fill="#333" d="M115-194c53 0 69 39 70 98 0 66-23 100-70 100C84 3 66-7 56-30L54 0H23l1-261h32v101c10-23 28-34 59-34zm-8 174c40 0 45-34 45-75 0-40-5-75-45-74-42 0-51 32-51 76 0 43 10 73 51 73" id="Q"/><path fill="#333" d="M135-143c-3-34-86-38-87 0 15 53 115 12 119 90S17 21 10-45l28-5c4 36 97 45 98 0-10-56-113-15-118-90-4-57 82-63 122-42 12 7 21 19 24 35" id="R"/><path fill="#333" d="M0 4l72-265h28L28 4H0" id="S"/><path fill="#333" d="M240 0l2-218c-23 76-54 145-80 218h-23L58-218 59 0H30v-248h44l77 211c21-75 51-140 76-211h43V0h-30" id="T"/><path fill="#333" d="M117-194c89-4 53 116 60 194h-32v-121c0-31-8-49-39-48C34-167 62-67 57 0H25l-1-190h30c1 10-1 24 2 32 11-22 29-35 61-36" id="U"/><path fill="#333" d="M177-190C167-65 218 103 67 71c-23-6-38-20-44-43l32-5c15 47 100 32 89-28v-30C133-14 115 1 83 1 29 1 15-40 15-95c0-56 16-97 71-98 29-1 48 16 59 35 1-10 0-23 2-32h30zM94-22c36 0 50-32 50-73 0-42-14-75-50-75-39 0-46 34-46 75s6 73 46 73" id="V"/><g id="b"><use transform="matrix(0.06172839506172839,0,0,0.06172839506172839,0,0)" xlink:href="#N"/><use transform="matrix(0.06172839506172839,0,0,0.06172839506172839,15.987654320987653,0)" xlink:href="#O"/><use transform="matrix(0.06172839506172839,0,0,0.06172839506172839,28.333333333333332,0)" xlink:href="#P"/><use transform="matrix(0.06172839506172839,0,0,0.06172839506172839,34.50617283950617,0)" xlink:href="#O"/><use transform="matrix(0.06172839506172839,0,0,0.06172839506172839,46.85185185185185,0)" xlink:href="#Q"/><use transform="matrix(0.06172839506172839,0,0,0.06172839506172839,59.197530864197525,0)" xlink:href="#O"/><use transform="matrix(0.06172839506172839,0,0,0.06172839506172839,71.5432098765432,0)" xlink:href="#R"/><use transform="matrix(0.06172839506172839,0,0,0.06172839506172839,82.65432098765432,0)" xlink:href="#M"/><use transform="matrix(0.06172839506172839,0,0,0.06172839506172839,95,0)" xlink:href="#S"/><use transform="matrix(0.06172839506172839,0,0,0.06172839506172839,101.17283950617283,0)" xlink:href="#T"/><use transform="matrix(0.06172839506172839,0,0,0.06172839506172839,119.62962962962962,0)" xlink:href="#O"/><use transform="matrix(0.06172839506172839,0,0,0.06172839506172839,131.9753086419753,0)" xlink:href="#U"/><use transform="matrix(0.06172839506172839,0,0,0.06172839506172839,144.32098765432096,0)" xlink:href="#O"/><use transform="matrix(0.06172839506172839,0,0,0.06172839506172839,156.66666666666663,0)" xlink:href="#V"/><use transform="matrix(0.06172839506172839,0,0,0.06172839506172839,169.0123456790123,0)" xlink:href="#M"/><use transform="matrix(0.06172839506172839,0,0,0.06172839506172839,181.35802469135797,0)" xlink:href="#H"/><use transform="matrix(0.06172839506172839,0,0,0.06172839506172839,199.81481481481475,0)" xlink:href="#M"/><use transform="matrix(0.06172839506172839,0,0,0.06172839506172839,212.16049382716042,0)" xlink:href="#U"/><use transform="matrix(0.06172839506172839,0,0,0.06172839506172839,224.5061728395061,0)" xlink:href="#P"/></g><path fill="#333" d="M87 75C49 33 22-17 22-94c0-76 28-126 65-167h31c-38 41-64 92-64 168S80 34 118 75H87" id="W"/><path fill="#333" d="M205 0l-28-72H64L36 0H1l101-248h38L239 0h-34zm-38-99l-47-123c-12 45-31 82-46 123h93" id="X"/><path fill="#333" d="M85-194c31 0 48 13 60 33l-1-100h32l1 261h-30c-2-10 0-23-3-31C134-8 116 4 85 4 32 4 16-35 15-94c0-66 23-100 70-100zm9 24c-40 0-46 34-46 75 0 40 6 74 45 74 42 0 51-32 51-76 0-42-9-74-50-73" id="Y"/><path fill="#333" d="M24-231v-30h32v30H24zM24 0v-190h32V0H24" id="Z"/><g id="c"><use transform="matrix(0.06172839506172839,0,0,0.06172839506172839,0,0)" xlink:href="#W"/><use transform="matrix(0.06172839506172839,0,0,0.06172839506172839,7.345679012345679,0)" xlink:href="#X"/><use transform="matrix(0.06172839506172839,0,0,0.06172839506172839,22.160493827160494,0)" xlink:href="#Y"/><use transform="matrix(0.06172839506172839,0,0,0.06172839506172839,34.50617283950617,0)" xlink:href="#H"/><use transform="matrix(0.06172839506172839,0,0,0.06172839506172839,52.96296296296296,0)" xlink:href="#Z"/><use transform="matrix(0.06172839506172839,0,0,0.06172839506172839,57.839506172839506,0)" xlink:href="#U"/></g><path fill="#333" d="M137 0h-34L2-248h35l83 218 83-218h36" id="aa"/><path fill="#333" d="M206 0h-36l-40-164L89 0H53L-1-190h32L70-26l43-164h34l41 164 42-164h31" id="ab"/><path fill="#333" d="M33-261c38 41 65 92 65 168S71 34 33 75H2C39 34 66-17 66-93S39-220 2-261h31" id="ac"/><g id="d"><use transform="matrix(0.06172839506172839,0,0,0.06172839506172839,0,0)" xlink:href="#aa"/><use transform="matrix(0.06172839506172839,0,0,0.06172839506172839,14.382716049382715,0)" xlink:href="#Z"/><use transform="matrix(0.06172839506172839,0,0,0.06172839506172839,19.25925925925926,0)" xlink:href="#M"/><use transform="matrix(0.06172839506172839,0,0,0.06172839506172839,31.604938271604937,0)" xlink:href="#ab"/><use transform="matrix(0.06172839506172839,0,0,0.06172839506172839,47.59259259259259,0)" xlink:href="#ac"/></g><path fill="#333" d="M16-82v-28h88v28H16" id="ad"/><path fill="#333" d="M108 0H70L1-190h34L89-25l56-165h34" id="ae"/><g id="e"><use transform="matrix(0.06172839506172839,0,0,0.06172839506172839,0,0)" xlink:href="#X"/><use transform="matrix(0.06172839506172839,0,0,0.06172839506172839,14.814814814814813,0)" xlink:href="#Y"/><use transform="matrix(0.06172839506172839,0,0,0.06172839506172839,27.160493827160494,0)" xlink:href="#H"/><use transform="matrix(0.06172839506172839,0,0,0.06172839506172839,45.61728395061728,0)" xlink:href="#Z"/><use transform="matrix(0.06172839506172839,0,0,0.06172839506172839,50.49382716049382,0)" xlink:href="#U"/><use transform="matrix(0.06172839506172839,0,0,0.06172839506172839,62.8395061728395,0)" xlink:href="#ad"/><use transform="matrix(0.06172839506172839,0,0,0.06172839506172839,70.18518518518518,0)" xlink:href="#J"/><use transform="matrix(0.06172839506172839,0,0,0.06172839506172839,75.06172839506172,0)" xlink:href="#M"/><use transform="matrix(0.06172839506172839,0,0,0.06172839506172839,87.4074074074074,0)" xlink:href="#ae"/><use transform="matrix(0.06172839506172839,0,0,0.06172839506172839,98.51851851851852,0)" xlink:href="#M"/><use transform="matrix(0.06172839506172839,0,0,0.06172839506172839,110.8641975308642,0)" xlink:href="#J"/></g><path fill="#333" d="M84 4C-5 8 30-112 23-190h32v120c0 31 7 50 39 49 72-2 45-101 50-169h31l1 190h-30c-1-10 1-25-2-33-11 22-28 36-60 37" id="af"/><path fill="#333" d="M114-163C36-179 61-72 57 0H25l-1-190h30c1 12-1 29 2 39 6-27 23-49 58-41v29" id="ag"/><g id="f"><use transform="matrix(0.06172839506172839,0,0,0.06172839506172839,0,0)" xlink:href="#af"/><use transform="matrix(0.06172839506172839,0,0,0.06172839506172839,12.345679012345679,0)" xlink:href="#R"/><use transform="matrix(0.06172839506172839,0,0,0.06172839506172839,23.45679012345679,0)" xlink:href="#M"/><use transform="matrix(0.06172839506172839,0,0,0.06172839506172839,35.80246913580247,0)" xlink:href="#ag"/></g><path d="M30 0v-248h33v221h125V0H30" id="ah"/><path d="M100-194c62-1 85 37 85 99 1 63-27 99-86 99S16-35 15-95c0-66 28-99 85-99zM99-20c44 1 53-31 53-75 0-43-8-75-51-75s-53 32-53 75 10 74 51 75" id="ai"/><path d="M177-190C167-65 218 103 67 71c-23-6-38-20-44-43l32-5c15 47 100 32 89-28v-30C133-14 115 1 83 1 29 1 15-40 15-95c0-56 16-97 71-98 29-1 48 16 59 35 1-10 0-23 2-32h30zM94-22c36 0 50-32 50-73 0-42-14-75-50-75-39 0-46 34-46 75s6 73 46 73" id="aj"/><path d="M24-231v-30h32v30H24zM24 0v-190h32V0H24" id="ak"/><path d="M117-194c89-4 53 116 60 194h-32v-121c0-31-8-49-39-48C34-167 62-67 57 0H25l-1-190h30c1 10-1 24 2 32 11-22 29-35 61-36" id="al"/><g id="g"><use transform="matrix(0.05,0,0,0.05,0,0)" xlink:href="#ah"/><use transform="matrix(0.05,0,0,0.05,10,0)" xlink:href="#ai"/><use transform="matrix(0.05,0,0,0.05,20,0)" xlink:href="#aj"/><use transform="matrix(0.05,0,0,0.05,30,0)" xlink:href="#ak"/><use transform="matrix(0.05,0,0,0.05,33.95,0)" xlink:href="#al"/></g><path d="M137 0h-34L2-248h35l83 218 83-218h36" id="am"/><path d="M141-36C126-15 110 5 73 4 37 3 15-17 15-53c-1-64 63-63 125-63 3-35-9-54-41-54-24 1-41 7-42 31l-33-3c5-37 33-52 76-52 45 0 72 20 72 64v82c-1 20 7 32 28 27v20c-31 9-61-2-59-35zM48-53c0 20 12 33 32 33 41-3 63-29 60-74-43 2-92-5-92 41" id="an"/><path d="M24 0v-261h32V0H24" id="ao"/><path d="M85-194c31 0 48 13 60 33l-1-100h32l1 261h-30c-2-10 0-23-3-31C134-8 116 4 85 4 32 4 16-35 15-94c0-66 23-100 70-100zm9 24c-40 0-46 34-46 75 0 40 6 74 45 74 42 0 51-32 51-76 0-42-9-74-50-73" id="ap"/><path d="M59-47c-2 24 18 29 38 22v24C64 9 27 4 27-40v-127H5v-23h24l9-43h21v43h35v23H59v120" id="aq"/><path d="M100-194c63 0 86 42 84 106H49c0 40 14 67 53 68 26 1 43-12 49-29l28 8c-11 28-37 45-77 45C44 4 14-33 15-96c1-61 26-98 85-98zm52 81c6-60-76-77-97-28-3 7-6 17-6 28h103" id="ar"/><g id="h"><use transform="matrix(0.05,0,0,0.05,0,0)" xlink:href="#am"/><use transform="matrix(0.05,0,0,0.05,10.65,0)" xlink:href="#an"/><use transform="matrix(0.05,0,0,0.05,20.65,0)" xlink:href="#ao"/><use transform="matrix(0.05,0,0,0.05,24.599999999999998,0)" xlink:href="#ak"/><use transform="matrix(0.05,0,0,0.05,28.549999999999997,0)" xlink:href="#ap"/><use transform="matrix(0.05,0,0,0.05,38.55,0)" xlink:href="#an"/><use transform="matrix(0.05,0,0,0.05,48.55,0)" xlink:href="#aq"/><use transform="matrix(0.05,0,0,0.05,53.54999999999999,0)" xlink:href="#ar"/></g><g id="i"><use transform="matrix(0.05,0,0,0.05,0,0)" xlink:href="#ao"/><use transform="matrix(0.05,0,0,0.05,3.95,0)" xlink:href="#ai"/><use transform="matrix(0.05,0,0,0.05,13.949999999999998,0)" xlink:href="#aj"/><use transform="matrix(0.05,0,0,0.05,23.95,0)" xlink:href="#ak"/><use transform="matrix(0.05,0,0,0.05,27.899999999999995,0)" xlink:href="#al"/></g><path d="M101-234c-31-9-42 10-38 44h38v23H63V0H32v-167H5v-23h27c-7-52 17-82 69-68v24" id="as"/><g id="j"><use transform="matrix(0.05,0,0,0.05,0,0)" xlink:href="#ak"/><use transform="matrix(0.05,0,0,0.05,3.95,0)" xlink:href="#al"/><use transform="matrix(0.05,0,0,0.05,13.949999999999998,0)" xlink:href="#as"/><use transform="matrix(0.05,0,0,0.05,18.95,0)" xlink:href="#ai"/></g><path d="M30-248c118-7 216 8 213 122C240-48 200 0 122 0H30v-248zM63-27c89 8 146-16 146-99s-60-101-146-95v194" id="at"/><path d="M135-143c-3-34-86-38-87 0 15 53 115 12 119 90S17 21 10-45l28-5c4 36 97 45 98 0-10-56-113-15-118-90-4-57 82-63 122-42 12 7 21 19 24 35" id="au"/><path d="M115-194c55 1 70 41 70 98S169 2 115 4C84 4 66-9 55-30l1 105H24l-1-265h31l2 30c10-21 28-34 59-34zm-8 174c40 0 45-34 45-75s-6-73-45-74c-42 0-51 32-51 76 0 43 10 73 51 73" id="av"/><path d="M179-190L93 31C79 59 56 82 12 73V49c39 6 53-20 64-50L1-190h34L92-34l54-156h33" id="aw"/><g id="k"><use transform="matrix(0.05,0,0,0.05,0,0)" xlink:href="#at"/><use transform="matrix(0.05,0,0,0.05,12.950000000000001,0)" xlink:href="#ak"/><use transform="matrix(0.05,0,0,0.05,16.900000000000002,0)" xlink:href="#au"/><use transform="matrix(0.05,0,0,0.05,25.900000000000002,0)" xlink:href="#av"/><use transform="matrix(0.05,0,0,0.05,35.900000000000006,0)" xlink:href="#ao"/><use transform="matrix(0.05,0,0,0.05,39.85000000000001,0)" xlink:href="#an"/><use transform="matrix(0.05,0,0,0.05,49.85000000000001,0)" xlink:href="#aw"/></g><g id="l"><use transform="matrix(0.05,0,0,0.05,0,0)" xlink:href="#ao"/><use transform="matrix(0.05,0,0,0.05,3.95,0)" xlink:href="#ai"/><use transform="matrix(0.05,0,0,0.05,13.949999999999998,0)" xlink:href="#aj"/><use transform="matrix(0.05,0,0,0.05,23.95,0)" xlink:href="#ak"/><use transform="matrix(0.05,0,0,0.05,27.899999999999995,0)" xlink:href="#al"/></g><path d="M114-163C36-179 61-72 57 0H25l-1-190h30c1 12-1 29 2 39 6-27 23-49 58-41v29" id="ax"/><g id="m"><use transform="matrix(0.05,0,0,0.05,0,0)" xlink:href="#ar"/><use transform="matrix(0.05,0,0,0.05,10,0)" xlink:href="#ax"/><use transform="matrix(0.05,0,0,0.05,15.949999999999998,0)" xlink:href="#ax"/><use transform="matrix(0.05,0,0,0.05,21.9,0)" xlink:href="#ai"/><use transform="matrix(0.05,0,0,0.05,31.899999999999995,0)" xlink:href="#ax"/></g><g id="n"><use transform="matrix(0.05,0,0,0.05,0,0)" xlink:href="#ak"/><use transform="matrix(0.05,0,0,0.05,3.95,0)" xlink:href="#as"/></g><g id="o"><use transform="matrix(0.05,0,0,0.05,0,0)" xlink:href="#ak"/><use transform="matrix(0.05,0,0,0.05,3.95,0)" xlink:href="#al"/><use transform="matrix(0.05,0,0,0.05,13.949999999999998,0)" xlink:href="#as"/><use transform="matrix(0.05,0,0,0.05,18.95,0)" xlink:href="#ai"/></g><path d="M96-169c-40 0-48 33-48 73s9 75 48 75c24 0 41-14 43-38l32 2c-6 37-31 61-74 61-59 0-76-41-82-99-10-93 101-131 147-64 4 7 5 14 7 22l-32 3c-4-21-16-35-41-35" id="ay"/><g id="p"><use transform="matrix(0.05,0,0,0.05,0,0)" xlink:href="#ak"/><use transform="matrix(0.05,0,0,0.05,3.95,0)" xlink:href="#al"/><use transform="matrix(0.05,0,0,0.05,13.949999999999998,0)" xlink:href="#ay"/><use transform="matrix(0.05,0,0,0.05,22.95,0)" xlink:href="#ai"/><use transform="matrix(0.05,0,0,0.05,32.95,0)" xlink:href="#ax"/><use transform="matrix(0.05,0,0,0.05,38.900000000000006,0)" xlink:href="#ax"/><use transform="matrix(0.05,0,0,0.05,44.85000000000001,0)" xlink:href="#ar"/><use transform="matrix(0.05,0,0,0.05,54.85,0)" xlink:href="#ay"/><use transform="matrix(0.05,0,0,0.05,63.85,0)" xlink:href="#aq"/></g><path fill="#333" d="M18-100v-36l175-74v27L42-118l151 64v27" id="az"/><path fill="#333" d="M96-169c-40 0-48 33-48 73s9 75 48 75c24 0 41-14 43-38l32 2c-6 37-31 61-74 61-59 0-76-41-82-99-10-93 101-131 147-64 4 7 5 14 7 22l-32 3c-4-21-16-35-41-35" id="aA"/><path fill="#333" d="M18-27v-27l151-64-151-65v-27l175 74v36" id="aB"/><g id="q"><use transform="matrix(0.06172839506172839,0,0,0.06172839506172839,0,0)" xlink:href="#az"/><use transform="matrix(0.06172839506172839,0,0,0.06172839506172839,12.962962962962962,0)" xlink:href="#az"/><use transform="matrix(0.06172839506172839,0,0,0.06172839506172839,25.925925925925924,0)" xlink:href="#Z"/><use transform="matrix(0.06172839506172839,0,0,0.06172839506172839,30.80246913580247,0)" xlink:href="#U"/><use transform="matrix(0.06172839506172839,0,0,0.06172839506172839,43.148148148148145,0)" xlink:href="#aA"/><use transform="matrix(0.06172839506172839,0,0,0.06172839506172839,54.25925925925925,0)" xlink:href="#J"/><use transform="matrix(0.06172839506172839,0,0,0.06172839506172839,59.1358024691358,0)" xlink:href="#af"/><use transform="matrix(0.06172839506172839,0,0,0.06172839506172839,71.48148148148148,0)" xlink:href="#Y"/><use transform="matrix(0.06172839506172839,0,0,0.06172839506172839,83.82716049382717,0)" xlink:href="#M"/><use transform="matrix(0.06172839506172839,0,0,0.06172839506172839,96.17283950617285,0)" xlink:href="#aB"/><use transform="matrix(0.06172839506172839,0,0,0.06172839506172839,109.13580246913581,0)" xlink:href="#aB"/></g><path fill="#333" d="M141 0L90-78 38 0H4l68-98-65-92h35l48 74 47-74h35l-64 92 68 98h-35" id="aC"/><g id="r"><use transform="matrix(0.06172839506172839,0,0,0.06172839506172839,0,0)" xlink:href="#az"/><use transform="matrix(0.06172839506172839,0,0,0.06172839506172839,12.962962962962962,0)" xlink:href="#az"/><use transform="matrix(0.06172839506172839,0,0,0.06172839506172839,25.925925925925924,0)" xlink:href="#M"/><use transform="matrix(0.06172839506172839,0,0,0.06172839506172839,38.2716049382716,0)" xlink:href="#aC"/><use transform="matrix(0.06172839506172839,0,0,0.06172839506172839,49.38271604938271,0)" xlink:href="#P"/><use transform="matrix(0.06172839506172839,0,0,0.06172839506172839,55.55555555555555,0)" xlink:href="#M"/><use transform="matrix(0.06172839506172839,0,0,0.06172839506172839,67.90123456790123,0)" xlink:href="#U"/><use transform="matrix(0.06172839506172839,0,0,0.06172839506172839,80.24691358024691,0)" xlink:href="#Y"/><use transform="matrix(0.06172839506172839,0,0,0.06172839506172839,92.5925925925926,0)" xlink:href="#aB"/><use transform="matrix(0.06172839506172839,0,0,0.06172839506172839,105.55555555555556,0)" xlink:href="#aB"/></g><path d="M206 0h-36l-40-164L89 0H53L-1-190h32L70-26l43-164h34l41 164 42-164h31" id="aD"/><g id="s"><use transform="matrix(0.05,0,0,0.05,0,0)" xlink:href="#am"/><use transform="matrix(0.05,0,0,0.05,11.65,0)" xlink:href="#ak"/><use transform="matrix(0.05,0,0,0.05,15.600000000000001,0)" xlink:href="#ar"/><use transform="matrix(0.05,0,0,0.05,25.6,0)" xlink:href="#aD"/></g><path d="M30 0v-248h187v28H63v79h144v27H63v87h162V0H30" id="aE"/><path d="M210-169c-67 3-38 105-44 169h-31v-121c0-29-5-50-35-48C34-165 62-65 56 0H25l-1-190h30c1 10-1 24 2 32 10-44 99-50 107 0 11-21 27-35 58-36 85-2 47 119 55 194h-31v-121c0-29-5-49-35-48" id="aF"/><g id="t"><use transform="matrix(0.05,0,0,0.05,0,0)" xlink:href="#aE"/><use transform="matrix(0.05,0,0,0.05,12,0)" xlink:href="#aF"/><use transform="matrix(0.05,0,0,0.05,26.950000000000003,0)" xlink:href="#av"/><use transform="matrix(0.05,0,0,0.05,36.95,0)" xlink:href="#ao"/><use transform="matrix(0.05,0,0,0.05,40.900000000000006,0)" xlink:href="#ai"/><use transform="matrix(0.05,0,0,0.05,50.900000000000006,0)" xlink:href="#aw"/><use transform="matrix(0.05,0,0,0.05,59.900000000000006,0)" xlink:href="#ar"/><use transform="matrix(0.05,0,0,0.05,69.9,0)" xlink:href="#ar"/></g><g id="u"><use transform="matrix(0.05,0,0,0.05,0,0)" xlink:href="#aE"/><use transform="matrix(0.05,0,0,0.05,12,0)" xlink:href="#ap"/><use transform="matrix(0.05,0,0,0.05,22,0)" xlink:href="#ak"/><use transform="matrix(0.05,0,0,0.05,25.950000000000003,0)" xlink:href="#aq"/></g><g id="v"><use transform="matrix(0.05,0,0,0.05,0,0)" xlink:href="#av"/><use transform="matrix(0.05,0,0,0.05,10,0)" xlink:href="#ar"/><use transform="matrix(0.05,0,0,0.05,20,0)" xlink:href="#ax"/><use transform="matrix(0.05,0,0,0.05,25.950000000000003,0)" xlink:href="#au"/><use transform="matrix(0.05,0,0,0.05,34.95,0)" xlink:href="#ai"/><use transform="matrix(0.05,0,0,0.05,44.95,0)" xlink:href="#al"/><use transform="matrix(0.05,0,0,0.05,54.95,0)" xlink:href="#an"/><use transform="matrix(0.05,0,0,0.05,64.95,0)" xlink:href="#ao"/></g><g id="w"><use transform="matrix(0.05,0,0,0.05,0,0)" xlink:href="#ar"/><use transform="matrix(0.05,0,0,0.05,10,0)" xlink:href="#aF"/><use transform="matrix(0.05,0,0,0.05,24.950000000000003,0)" xlink:href="#av"/><use transform="matrix(0.05,0,0,0.05,34.95,0)" xlink:href="#ao"/><use transform="matrix(0.05,0,0,0.05,38.900000000000006,0)" xlink:href="#ai"/><use transform="matrix(0.05,0,0,0.05,48.900000000000006,0)" xlink:href="#aw"/><use transform="matrix(0.05,0,0,0.05,57.900000000000006,0)" xlink:href="#ar"/><use transform="matrix(0.05,0,0,0.05,67.9,0)" xlink:href="#ar"/></g><g id="x"><use transform="matrix(0.05,0,0,0.05,0,0)" xlink:href="#ar"/><use transform="matrix(0.05,0,0,0.05,10,0)" xlink:href="#aF"/><use transform="matrix(0.05,0,0,0.05,24.950000000000003,0)" xlink:href="#av"/><use transform="matrix(0.05,0,0,0.05,34.95,0)" xlink:href="#ao"/><use transform="matrix(0.05,0,0,0.05,38.900000000000006,0)" xlink:href="#ai"/><use transform="matrix(0.05,0,0,0.05,48.900000000000006,0)" xlink:href="#aw"/><use transform="matrix(0.05,0,0,0.05,57.900000000000006,0)" xlink:href="#ar"/><use transform="matrix(0.05,0,0,0.05,67.9,0)" xlink:href="#ar"/></g><path d="M205 0l-28-72H64L36 0H1l101-248h38L239 0h-34zm-38-99l-47-123c-12 45-31 82-46 123h93" id="aG"/><g id="y"><use transform="matrix(0.05,0,0,0.05,0,0)" xlink:href="#aG"/><use transform="matrix(0.05,0,0,0.05,12,0)" xlink:href="#ap"/><use transform="matrix(0.05,0,0,0.05,22,0)" xlink:href="#ap"/></g><path d="M108 0H70L1-190h34L89-25l56-165h34" id="aH"/><g id="z"><use transform="matrix(0.05,0,0,0.05,0,0)" xlink:href="#at"/><use transform="matrix(0.05,0,0,0.05,12.950000000000001,0)" xlink:href="#ar"/><use transform="matrix(0.05,0,0,0.05,22.950000000000003,0)" xlink:href="#an"/><use transform="matrix(0.05,0,0,0.05,32.95,0)" xlink:href="#ay"/><use transform="matrix(0.05,0,0,0.05,41.95,0)" xlink:href="#aq"/><use transform="matrix(0.05,0,0,0.05,46.95,0)" xlink:href="#ak"/><use transform="matrix(0.05,0,0,0.05,50.900000000000006,0)" xlink:href="#aH"/><use transform="matrix(0.05,0,0,0.05,59.900000000000006,0)" xlink:href="#an"/><use transform="matrix(0.05,0,0,0.05,69.9,0)" xlink:href="#aq"/><use transform="matrix(0.05,0,0,0.05,74.9,0)" xlink:href="#ar"/></g><path d="M185-189c-5-48-123-54-124 2 14 75 158 14 163 119 3 78-121 87-175 55-17-10-28-26-33-46l33-7c5 56 141 63 141-1 0-78-155-14-162-118-5-82 145-84 179-34 5 7 8 16 11 25" id="aI"/><path d="M106-169C34-169 62-67 57 0H25v-261h32l-1 103c12-21 28-36 61-36 89 0 53 116 60 194h-32v-121c2-32-8-49-39-48" id="aJ"/><g id="A"><use transform="matrix(0.05,0,0,0.05,0,0)" xlink:href="#aI"/><use transform="matrix(0.05,0,0,0.05,12,0)" xlink:href="#ar"/><use transform="matrix(0.05,0,0,0.05,22,0)" xlink:href="#an"/><use transform="matrix(0.05,0,0,0.05,32,0)" xlink:href="#ax"/><use transform="matrix(0.05,0,0,0.05,37.95,0)" xlink:href="#ay"/><use transform="matrix(0.05,0,0,0.05,46.95,0)" xlink:href="#aJ"/></g><path d="M233-177c-1 41-23 64-60 70L243 0h-38l-65-103H63V0H30v-248c88 3 205-21 203 71zM63-129c60-2 137 13 137-47 0-61-80-42-137-45v92" id="aK"/><path d="M84 4C-5 8 30-112 23-190h32v120c0 31 7 50 39 49 72-2 45-101 50-169h31l1 190h-30c-1-10 1-25-2-33-11 22-28 36-60 37" id="aL"/><g id="B"><use transform="matrix(0.05,0,0,0.05,0,0)" xlink:href="#aK"/><use transform="matrix(0.05,0,0,0.05,12.950000000000001,0)" xlink:href="#aL"/><use transform="matrix(0.05,0,0,0.05,22.950000000000003,0)" xlink:href="#al"/></g><g id="C"><use transform="matrix(0.05,0,0,0.05,0,0)" xlink:href="#av"/><use transform="matrix(0.05,0,0,0.05,10,0)" xlink:href="#an"/><use transform="matrix(0.05,0,0,0.05,20,0)" xlink:href="#aw"/><use transform="matrix(0.05,0,0,0.05,29,0)" xlink:href="#ax"/><use transform="matrix(0.05,0,0,0.05,34.95,0)" xlink:href="#ai"/><use transform="matrix(0.05,0,0,0.05,44.95,0)" xlink:href="#ao"/><use transform="matrix(0.05,0,0,0.05,48.900000000000006,0)" xlink:href="#ao"/></g><path d="M232-93c-1 65-40 97-104 97C67 4 28-28 28-90v-158h33c8 89-33 224 67 224 102 0 64-133 71-224h33v155" id="aM"/><g id="D"><use transform="matrix(0.05,0,0,0.05,0,0)" xlink:href="#aM"/><use transform="matrix(0.05,0,0,0.05,12.950000000000001,0)" xlink:href="#av"/><use transform="matrix(0.05,0,0,0.05,22.950000000000003,0)" xlink:href="#ap"/><use transform="matrix(0.05,0,0,0.05,32.95,0)" xlink:href="#an"/><use transform="matrix(0.05,0,0,0.05,42.95,0)" xlink:href="#aq"/><use transform="matrix(0.05,0,0,0.05,47.95,0)" xlink:href="#ar"/></g><path d="M115-194c53 0 69 39 70 98 0 66-23 100-70 100C84 3 66-7 56-30L54 0H23l1-261h32v101c10-23 28-34 59-34zm-8 174c40 0 45-34 45-75 0-40-5-75-45-74-42 0-51 32-51 76 0 43 10 73 51 73" id="aN"/><g id="E"><use transform="matrix(0.05,0,0,0.05,0,0)" xlink:href="#ap"/><use transform="matrix(0.05,0,0,0.05,10,0)" xlink:href="#an"/><use transform="matrix(0.05,0,0,0.05,20,0)" xlink:href="#aq"/><use transform="matrix(0.05,0,0,0.05,25,0)" xlink:href="#an"/><use transform="matrix(0.05,0,0,0.05,35,0)" xlink:href="#aN"/><use transform="matrix(0.05,0,0,0.05,45,0)" xlink:href="#an"/><use transform="matrix(0.05,0,0,0.05,55,0)" xlink:href="#au"/><use transform="matrix(0.05,0,0,0.05,64,0)" xlink:href="#ar"/></g><path d="M197 0v-115H63V0H30v-248h33v105h134v-105h34V0h-34" id="aO"/><g id="F"><use transform="matrix(0.05,0,0,0.05,0,0)" xlink:href="#aO"/><use transform="matrix(0.05,0,0,0.05,12.950000000000001,0)" xlink:href="#ar"/><use transform="matrix(0.05,0,0,0.05,22.950000000000003,0)" xlink:href="#ao"/><use transform="matrix(0.05,0,0,0.05,26.900000000000002,0)" xlink:href="#av"/></g></defs></g></svg>