<svg width="1653" height="993" xmlns="http://www.w3.org/2000/svg" xmlns:xlink="http://www.w3.org/1999/xlink" overflow="hidden"><defs><clipPath id="clip0"><rect x="1950" y="61" width="1653" height="993"/></clipPath><clipPath id="clip1"><rect x="1950" y="61" width="1650" height="990"/></clipPath><clipPath id="clip2"><rect x="1950" y="61" width="1650" height="990"/></clipPath><clipPath id="clip3"><rect x="1950" y="61" width="1650" height="990"/></clipPath><clipPath id="clip4"><rect x="1950" y="61" width="1650" height="990"/></clipPath><clipPath id="clip5"><rect x="2157" y="231" width="1396" height="439"/></clipPath><clipPath id="clip6"><rect x="1950" y="61" width="1650" height="990"/></clipPath><clipPath id="clip7"><rect x="2157" y="231" width="1396" height="439"/></clipPath><clipPath id="clip8"><rect x="1950" y="61" width="1650" height="990"/></clipPath><clipPath id="clip9"><rect x="1950" y="61" width="1650" height="990"/></clipPath><clipPath id="clip10"><rect x="1950" y="61" width="1650" height="990"/></clipPath><clipPath id="clip11"><rect x="1950" y="61" width="1650" height="990"/></clipPath><clipPath id="clip12"><rect x="1950" y="61" width="1650" height="990"/></clipPath><clipPath id="clip13"><rect x="1950" y="61" width="1650" height="990"/></clipPath><clipPath id="clip14"><rect x="1950" y="61" width="1650" height="990"/></clipPath><clipPath id="clip15"><rect x="1950" y="61" width="1650" height="990"/></clipPath><clipPath id="clip16"><rect x="1950" y="61" width="1650" height="990"/></clipPath><clipPath id="clip17"><rect x="1950" y="61" width="1650" height="990"/></clipPath><clipPath id="clip18"><rect x="1950" y="61" width="1650" height="990"/></clipPath><clipPath id="clip19"><rect x="1950" y="61" width="1650" height="990"/></clipPath><clipPath id="clip20"><rect x="1950" y="61" width="1650" height="990"/></clipPath><clipPath id="clip21"><rect x="1950" y="61" width="1650" height="990"/></clipPath><clipPath id="clip22"><rect x="1950" y="61" width="1650" height="990"/></clipPath><clipPath id="clip23"><rect x="1950" y="61" width="1650" height="990"/></clipPath><clipPath id="clip24"><rect x="1950" y="61" width="1650" height="990"/></clipPath><clipPath id="clip25"><rect x="1950" y="61" width="1650" height="990"/></clipPath><clipPath id="clip26"><rect x="1950" y="61" width="1650" height="990"/></clipPath><clipPath id="clip27"><rect x="1950" y="61" width="1650" height="990"/></clipPath><clipPath id="clip28"><rect x="1950" y="61" width="1650" height="990"/></clipPath><clipPath id="clip29"><rect x="1950" y="61" width="1650" height="990"/></clipPath><clipPath id="clip30"><rect x="1950" y="61" width="1650" height="990"/></clipPath><clipPath id="clip31"><rect x="1950" y="61" width="1650" height="990"/></clipPath></defs><g clip-path="url(#clip0)" transform="translate(-1950 -61)"><rect x="1951" y="61.9999" width="1650" height="990" fill="#FFFFFF"/><g clip-path="url(#clip1)"><path d="M2157.5 594.52 3550.5 594.52M2157.5 521.517 3550.5 521.517M2157.5 449.515 3550.5 449.515M2157.5 376.513 3550.5 376.513M2157.5 304.51 3550.5 304.51M2157.5 231.5 3550.5 231.5" stroke="#D9D9D9" stroke-width="3.4375" stroke-linejoin="round" stroke-miterlimit="10" fill="none"/></g><g clip-path="url(#clip2)"><path d="M2157.5 666.5 3550.5 666.5" stroke="#D9D9D9" stroke-width="3.4375" stroke-linejoin="round" stroke-miterlimit="10" fill="none" fill-rule="evenodd"/></g><g clip-path="url(#clip3)"><path d="M2157.5 666.5 2157.5 746.5M2436.58 666.5 2436.58 746.5M2714.59 666.5 2714.59 746.5M2993.6 666.5 2993.6 746.5M3271.61 666.5 3271.61 746.5M3550.5 666.5 3550.5 746.5" stroke="#D9D9D9" stroke-width="3.4375" stroke-linejoin="round" stroke-miterlimit="10" fill="none"/></g><g clip-path="url(#clip4)"><path d="M2157.5 746.5 2157.5 826.5M2436.58 746.5 2436.58 826.5M2714.59 746.5 2714.59 826.5M2993.6 746.5 2993.6 826.5M3271.61 746.5 3271.61 826.5M3550.5 746.5 3550.5 826.5" stroke="#D9D9D9" stroke-width="3.4375" stroke-linejoin="round" stroke-miterlimit="10" fill="none"/></g><g clip-path="url(#clip5)"><path d="M2297 275 2576.08 333.011 2854.09 406.013 3133.1 536.018 3411 667" stroke="#70AD47" stroke-width="10.3125" stroke-linecap="round" stroke-linejoin="round" stroke-miterlimit="10" fill="none"/></g><g clip-path="url(#clip6)"><path d="M2308.28 275.375C2308.28 281.45 2303.36 286.375 2297.28 286.375 2291.21 286.375 2286.28 281.45 2286.28 275.375 2286.28 269.3 2291.21 264.375 2297.28 264.375 2303.36 264.375 2308.28 269.3 2308.28 275.375Z" stroke="#70AD47" stroke-width="3.4375" stroke-linejoin="round" stroke-miterlimit="10" fill="#70AD47"/><path d="M2586.28 333.375C2586.28 339.45 2581.36 344.374 2575.28 344.374 2569.21 344.374 2564.28 339.45 2564.28 333.375 2564.28 327.3 2569.21 322.375 2575.28 322.375 2581.36 322.375 2586.28 327.3 2586.28 333.375Z" stroke="#70AD47" stroke-width="3.4375" stroke-linejoin="round" stroke-miterlimit="10" fill="#70AD47"/><path d="M2865.28 405.375C2865.28 411.45 2860.36 416.375 2854.28 416.375 2848.21 416.375 2843.28 411.45 2843.28 405.375 2843.28 399.3 2848.21 394.375 2854.28 394.375 2860.36 394.375 2865.28 399.3 2865.28 405.375Z" stroke="#70AD47" stroke-width="3.4375" stroke-linejoin="round" stroke-miterlimit="10" fill="#70AD47"/><path d="M3143.28 536.375C3143.28 542.45 3138.36 547.375 3132.28 547.375 3126.21 547.375 3121.28 542.45 3121.28 536.375 3121.28 530.3 3126.21 525.375 3132.28 525.375 3138.36 525.375 3143.28 530.3 3143.28 536.375Z" stroke="#70AD47" stroke-width="3.4375" stroke-linejoin="round" stroke-miterlimit="10" fill="#70AD47"/><path d="M3422.28 666.375C3422.28 672.45 3417.36 677.374 3411.28 677.374 3405.21 677.374 3400.28 672.45 3400.28 666.375 3400.28 660.3 3405.21 655.375 3411.28 655.375 3417.36 655.375 3422.28 660.3 3422.28 666.375Z" stroke="#70AD47" stroke-width="3.4375" stroke-linejoin="round" stroke-miterlimit="10" fill="#70AD47"/></g><g clip-path="url(#clip7)"><path d="M2297 275 2576.08 304.01 2854.09 391.013 3133.1 435.014 3411 667" stroke="#5B9BD5" stroke-width="10.3125" stroke-linecap="round" stroke-linejoin="round" stroke-miterlimit="10" fill="none"/></g><g clip-path="url(#clip8)"><path d="M2308.28 275.375C2308.28 281.45 2303.36 286.375 2297.28 286.375 2291.21 286.375 2286.28 281.45 2286.28 275.375 2286.28 269.3 2291.21 264.375 2297.28 264.375 2303.36 264.375 2308.28 269.3 2308.28 275.375Z" stroke="#5B9BD5" stroke-width="3.4375" stroke-linejoin="round" stroke-miterlimit="10" fill="#5B9BD5"/><path d="M2586.28 304.375C2586.28 310.45 2581.36 315.374 2575.28 315.374 2569.21 315.374 2564.28 310.45 2564.28 304.375 2564.28 298.3 2569.21 293.375 2575.28 293.375 2581.36 293.375 2586.28 298.3 2586.28 304.375Z" stroke="#5B9BD5" stroke-width="3.4375" stroke-linejoin="round" stroke-miterlimit="10" fill="#5B9BD5"/><path d="M2865.28 391.375C2865.28 397.45 2860.36 402.374 2854.28 402.374 2848.21 402.374 2843.28 397.45 2843.28 391.375 2843.28 385.3 2848.21 380.375 2854.28 380.375 2860.36 380.375 2865.28 385.3 2865.28 391.375Z" stroke="#5B9BD5" stroke-width="3.4375" stroke-linejoin="round" stroke-miterlimit="10" fill="#5B9BD5"/><path d="M3143.28 434.375C3143.28 440.45 3138.36 445.374 3132.28 445.374 3126.21 445.374 3121.28 440.45 3121.28 434.375 3121.28 428.3 3126.21 423.375 3132.28 423.375 3138.36 423.375 3143.28 428.3 3143.28 434.375Z" stroke="#5B9BD5" stroke-width="3.4375" stroke-linejoin="round" stroke-miterlimit="10" fill="#5B9BD5"/><path d="M3422.28 666.375C3422.28 672.45 3417.36 677.374 3411.28 677.374 3405.21 677.374 3400.28 672.45 3400.28 666.375 3400.28 660.3 3405.21 655.375 3411.28 655.375 3417.36 655.375 3422.28 660.3 3422.28 666.375Z" stroke="#5B9BD5" stroke-width="3.4375" stroke-linejoin="round" stroke-miterlimit="10" fill="#5B9BD5"/></g><g clip-path="url(#clip9)"><text fill="#595959" font-family="Calibri,Calibri_MSFontService,sans-serif" font-weight="400" font-size="41" transform="matrix(1 0 0 1 2098.66 679)">0</text></g><g clip-path="url(#clip10)"><text fill="#595959" font-family="Calibri,Calibri_MSFontService,sans-serif" font-weight="400" font-size="41" transform="matrix(1 0 0 1 2098.66 606)">5</text></g><g clip-path="url(#clip11)"><text fill="#595959" font-family="Calibri,Calibri_MSFontService,sans-serif" font-weight="400" font-size="41" transform="matrix(1 0 0 1 2077.76 533)">10</text></g><g clip-path="url(#clip12)"><text fill="#595959" font-family="Calibri,Calibri_MSFontService,sans-serif" font-weight="400" font-size="41" transform="matrix(1 0 0 1 2077.76 461)">15</text></g><g clip-path="url(#clip13)"><text fill="#595959" font-family="Calibri,Calibri_MSFontService,sans-serif" font-weight="400" font-size="41" transform="matrix(1 0 0 1 2077.76 388)">20</text></g><g clip-path="url(#clip14)"><text fill="#595959" font-family="Calibri,Calibri_MSFontService,sans-serif" font-weight="400" font-size="41" transform="matrix(1 0 0 1 2077.76 316)">25</text></g><g clip-path="url(#clip15)"><text fill="#595959" font-family="Calibri,Calibri_MSFontService,sans-serif" font-weight="400" font-size="41" transform="matrix(1 0 0 1 2077.76 243)">30</text></g><g clip-path="url(#clip16)"><text fill="#595959" font-family="Calibri,Calibri_MSFontService,sans-serif" font-weight="400" font-size="41" transform="matrix(1 0 0 1 2807.66 732)">SPR 1</text></g><g clip-path="url(#clip17)"><text fill="#595959" font-family="Calibri,Calibri_MSFontService,sans-serif" font-weight="400" font-size="41" transform="matrix(1 0 0 1 3364.67 732)">SPR 2</text></g><g clip-path="url(#clip18)"><text fill="#595959" font-family="Calibri,Calibri_MSFontService,sans-serif" font-weight="400" font-size="41" transform="matrix(1 0 0 1 2286.63 812)">1</text></g><g clip-path="url(#clip19)"><text fill="#595959" font-family="Calibri,Calibri_MSFontService,sans-serif" font-weight="400" font-size="41" transform="matrix(1 0 0 1 2565.14 812)">2</text></g><g clip-path="url(#clip20)"><text fill="#595959" font-family="Calibri,Calibri_MSFontService,sans-serif" font-weight="400" font-size="41" transform="matrix(1 0 0 1 2843.65 812)">3</text></g><g clip-path="url(#clip21)"><text fill="#595959" font-family="Calibri,Calibri_MSFontService,sans-serif" font-weight="400" font-size="41" transform="matrix(1 0 0 1 3122.15 812)">4</text></g><g clip-path="url(#clip22)"><text fill="#595959" font-family="Calibri,Calibri_MSFontService,sans-serif" font-weight="400" font-size="41" transform="matrix(1 0 0 1 3400.66 812)">5</text></g><g clip-path="url(#clip23)"><text fill="#595959" font-family="Calibri,Calibri_MSFontService,sans-serif" font-weight="400" font-size="46" transform="matrix(6.12323e-17 -1 1 6.12323e-17 2052.07 609)">Tasks(Not Hours)</text></g><g clip-path="url(#clip24)"><text fill="#595959" font-family="Calibri,Calibri_MSFontService,sans-serif" font-weight="400" font-size="46" transform="matrix(1 0 0 1 2707.83 878)">Weeks / Sprints</text></g><g clip-path="url(#clip25)"><text fill="#595959" font-family="Calibri,Calibri_MSFontService,sans-serif" font-weight="400" font-size="64" transform="matrix(1 0 0 1 2561.48 157)">Burndown Chart</text></g><g clip-path="url(#clip26)"><path d="M2544 986 2632 986" stroke="#70AD47" stroke-width="10.3125" stroke-linecap="round" stroke-linejoin="round" stroke-miterlimit="10" fill="none" fill-rule="evenodd"/></g><g clip-path="url(#clip27)"><path d="M2598 985C2598 991.075 2593.07 995.999 2587 995.999 2580.92 995.999 2576 991.075 2576 985 2576 978.925 2580.92 974 2587 974 2593.07 974 2598 978.925 2598 985Z" stroke="#70AD47" stroke-width="3.4375" stroke-linejoin="round" stroke-miterlimit="10" fill="#70AD47"/></g><g clip-path="url(#clip28)"><text fill="#595959" font-family="Calibri,Calibri_MSFontService,sans-serif" font-weight="400" font-size="41" transform="matrix(1 0 0 1 2641.2 997)">Series1</text></g><g clip-path="url(#clip29)"><path d="M2806 986 2894 986" stroke="#5B9BD5" stroke-width="10.3125" stroke-linecap="round" stroke-linejoin="round" stroke-miterlimit="10" fill="none" fill-rule="evenodd"/></g><g clip-path="url(#clip30)"><path d="M2860.02 985C2860.02 991.075 2855.31 995.999 2849.5 995.999 2843.69 995.999 2838.98 991.075 2838.98 985 2838.98 978.925 2843.69 974 2849.5 974 2855.31 974 2860.02 978.925 2860.02 985Z" stroke="#5B9BD5" stroke-width="3.4375" stroke-linejoin="round" stroke-miterlimit="10" fill="#5B9BD5"/></g><g clip-path="url(#clip31)"><text fill="#595959" font-family="Calibri,Calibri_MSFontService,sans-serif" font-weight="400" font-size="41" transform="matrix(1 0 0 1 2902.89 997)">Series2</text></g><rect x="1951.5" y="62.5001" width="1650" height="990" stroke="#D9D9D9" stroke-width="3.4375" stroke-linejoin="round" stroke-miterlimit="10" fill="none"/></g></svg>