<svg width="1653" height="993" xmlns="http://www.w3.org/2000/svg" xmlns:xlink="http://www.w3.org/1999/xlink" overflow="hidden"><defs><clipPath id="clip0"><rect x="1953" y="1202" width="1653" height="993"/></clipPath><clipPath id="clip1"><rect x="1954" y="1203" width="1650" height="990"/></clipPath><clipPath id="clip2"><rect x="1954" y="1203" width="1650" height="990"/></clipPath><clipPath id="clip3"><rect x="1954" y="1203" width="1650" height="990"/></clipPath><clipPath id="clip4"><rect x="1954" y="1203" width="1650" height="990"/></clipPath><clipPath id="clip5"><rect x="2161" y="1373" width="1396" height="438"/></clipPath><clipPath id="clip6"><rect x="1954" y="1203" width="1650" height="990"/></clipPath><clipPath id="clip7"><rect x="2161" y="1373" width="1396" height="438"/></clipPath><clipPath id="clip8"><rect x="1954" y="1203" width="1650" height="990"/></clipPath><clipPath id="clip9"><rect x="1954" y="1203" width="1650" height="990"/></clipPath><clipPath id="clip10"><rect x="1954" y="1203" width="1650" height="990"/></clipPath><clipPath id="clip11"><rect x="1954" y="1203" width="1650" height="990"/></clipPath><clipPath id="clip12"><rect x="1954" y="1203" width="1650" height="990"/></clipPath><clipPath id="clip13"><rect x="1954" y="1203" width="1650" height="990"/></clipPath><clipPath id="clip14"><rect x="1954" y="1203" width="1650" height="990"/></clipPath><clipPath id="clip15"><rect x="1954" y="1203" width="1650" height="990"/></clipPath><clipPath id="clip16"><rect x="1954" y="1203" width="1650" height="990"/></clipPath><clipPath id="clip17"><rect x="1954" y="1203" width="1650" height="990"/></clipPath><clipPath id="clip18"><rect x="1954" y="1203" width="1650" height="990"/></clipPath><clipPath id="clip19"><rect x="1954" y="1203" width="1650" height="990"/></clipPath><clipPath id="clip20"><rect x="1954" y="1203" width="1650" height="990"/></clipPath><clipPath id="clip21"><rect x="1954" y="1203" width="1650" height="990"/></clipPath><clipPath id="clip22"><rect x="1954" y="1203" width="1650" height="990"/></clipPath><clipPath id="clip23"><rect x="1954" y="1203" width="1650" height="990"/></clipPath><clipPath id="clip24"><rect x="1954" y="1203" width="1650" height="990"/></clipPath><clipPath id="clip25"><rect x="1954" y="1203" width="1650" height="990"/></clipPath><clipPath id="clip26"><rect x="1954" y="1203" width="1650" height="990"/></clipPath><clipPath id="clip27"><rect x="1954" y="1203" width="1650" height="990"/></clipPath><clipPath id="clip28"><rect x="1954" y="1203" width="1650" height="990"/></clipPath><clipPath id="clip29"><rect x="1954" y="1203" width="1650" height="990"/></clipPath><clipPath id="clip30"><rect x="1954" y="1203" width="1650" height="990"/></clipPath><clipPath id="clip31"><rect x="1954" y="1203" width="1650" height="990"/></clipPath><clipPath id="clip32"><rect x="1954" y="1203" width="1650" height="990"/></clipPath></defs><g clip-path="url(#clip0)" transform="translate(-1953 -1202)"><rect x="1954" y="1203" width="1650" height="990" fill="#FFFFFF"/><g clip-path="url(#clip1)"><path d="M2161.5 1735.56 3553.5 1735.56M2161.5 1663.55 3553.5 1663.55M2161.5 1590.55 3553.5 1590.55M2161.5 1518.55 3553.5 1518.55M2161.5 1445.55 3553.5 1445.55M2161.5 1373.5 3553.5 1373.5" stroke="#D9D9D9" stroke-width="3.4375" stroke-linejoin="round" stroke-miterlimit="10" fill="none"/></g><g clip-path="url(#clip2)"><path d="M2161.5 1808.5 3553.5 1808.5" stroke="#D9D9D9" stroke-width="3.4375" stroke-linejoin="round" stroke-miterlimit="10" fill="none" fill-rule="evenodd"/></g><g clip-path="url(#clip3)"><path d="M2161.5 1808.5 2161.5 1888.5M2439.58 1808.5 2439.58 1888.5M2718.59 1808.5 2718.59 1888.5M2996.6 1808.5 2996.6 1888.5M3275.61 1808.5 3275.61 1888.5M3553.5 1808.5 3553.5 1888.5" stroke="#D9D9D9" stroke-width="3.4375" stroke-linejoin="round" stroke-miterlimit="10" fill="none"/></g><g clip-path="url(#clip4)"><path d="M2161.5 1888.5 2161.5 1968.5M2439.58 1888.5 2439.58 1968.5M2718.59 1888.5 2718.59 1968.5M2996.6 1888.5 2996.6 1968.5M3275.61 1888.5 3275.61 1968.5M3553.5 1888.5 3553.5 1968.5" stroke="#D9D9D9" stroke-width="3.4375" stroke-linejoin="round" stroke-miterlimit="10" fill="none"/></g><g clip-path="url(#clip5)"><path d="M2301 1808 2579.08 1736.06 2857.09 1678.05 3136.1 1547.05 3415 1417" stroke="#4472C4" stroke-width="10.3125" stroke-linecap="round" stroke-linejoin="round" stroke-miterlimit="10" fill="none"/></g><g clip-path="url(#clip6)"><path d="M2311.72 1808.62C2311.72 1814.7 2306.79 1819.62 2300.72 1819.62 2294.64 1819.62 2289.72 1814.7 2289.72 1808.62 2289.72 1802.55 2294.64 1797.62 2300.72 1797.62 2306.79 1797.62 2311.72 1802.55 2311.72 1808.62Z" stroke="#4472C4" stroke-width="3.4375" stroke-linejoin="round" stroke-miterlimit="10" fill="#4472C4"/><path d="M2590.72 1735.62C2590.72 1741.7 2585.79 1746.62 2579.72 1746.62 2573.64 1746.62 2568.72 1741.7 2568.72 1735.62 2568.72 1729.55 2573.64 1724.62 2579.72 1724.62 2585.79 1724.62 2590.72 1729.55 2590.72 1735.62Z" stroke="#4472C4" stroke-width="3.4375" stroke-linejoin="round" stroke-miterlimit="10" fill="#4472C4"/><path d="M2868.72 1677.62C2868.72 1683.7 2863.79 1688.62 2857.72 1688.62 2851.64 1688.62 2846.72 1683.7 2846.72 1677.62 2846.72 1671.55 2851.64 1666.62 2857.72 1666.62 2863.79 1666.62 2868.72 1671.55 2868.72 1677.62Z" stroke="#4472C4" stroke-width="3.4375" stroke-linejoin="round" stroke-miterlimit="10" fill="#4472C4"/><path d="M3147.72 1547.62C3147.72 1553.7 3142.79 1558.62 3136.72 1558.62 3130.64 1558.62 3125.72 1553.7 3125.72 1547.62 3125.72 1541.55 3130.64 1536.62 3136.72 1536.62 3142.79 1536.62 3147.72 1541.55 3147.72 1547.62Z" stroke="#4472C4" stroke-width="3.4375" stroke-linejoin="round" stroke-miterlimit="10" fill="#4472C4"/><path d="M3425.72 1416.62C3425.72 1422.7 3420.79 1427.62 3414.72 1427.62 3408.64 1427.62 3403.72 1422.7 3403.72 1416.62 3403.72 1410.55 3408.64 1405.62 3414.72 1405.62 3420.79 1405.62 3425.72 1410.55 3425.72 1416.62Z" stroke="#4472C4" stroke-width="3.4375" stroke-linejoin="round" stroke-miterlimit="10" fill="#4472C4"/></g><g clip-path="url(#clip7)"><path d="M2301 1808 2579.08 1779.06 2857.09 1692.06 3136.1 1649.05 3415 1417" stroke="#ED7D31" stroke-width="10.3125" stroke-linecap="round" stroke-linejoin="round" stroke-miterlimit="10" fill="none"/></g><g clip-path="url(#clip8)"><path d="M2311.72 1808.62C2311.72 1814.7 2306.79 1819.62 2300.72 1819.62 2294.64 1819.62 2289.72 1814.7 2289.72 1808.62 2289.72 1802.55 2294.64 1797.62 2300.72 1797.62 2306.79 1797.62 2311.72 1802.55 2311.72 1808.62Z" stroke="#ED7D31" stroke-width="3.4375" stroke-linejoin="round" stroke-miterlimit="10" fill="#ED7D31"/><path d="M2590.72 1779.62C2590.72 1785.7 2585.79 1790.62 2579.72 1790.62 2573.64 1790.62 2568.72 1785.7 2568.72 1779.62 2568.72 1773.55 2573.64 1768.62 2579.72 1768.62 2585.79 1768.62 2590.72 1773.55 2590.72 1779.62Z" stroke="#ED7D31" stroke-width="3.4375" stroke-linejoin="round" stroke-miterlimit="10" fill="#ED7D31"/><path d="M2868.72 1692.62C2868.72 1698.7 2863.79 1703.62 2857.72 1703.62 2851.64 1703.62 2846.72 1698.7 2846.72 1692.62 2846.72 1686.55 2851.64 1681.62 2857.72 1681.62 2863.79 1681.62 2868.72 1686.55 2868.72 1692.62Z" stroke="#ED7D31" stroke-width="3.4375" stroke-linejoin="round" stroke-miterlimit="10" fill="#ED7D31"/><path d="M3147.72 1648.62C3147.72 1654.7 3142.79 1659.62 3136.72 1659.62 3130.64 1659.62 3125.72 1654.7 3125.72 1648.62 3125.72 1642.55 3130.64 1637.62 3136.72 1637.62 3142.79 1637.62 3147.72 1642.55 3147.72 1648.62Z" stroke="#ED7D31" stroke-width="3.4375" stroke-linejoin="round" stroke-miterlimit="10" fill="#ED7D31"/><path d="M3425.72 1416.62C3425.72 1422.7 3420.79 1427.62 3414.72 1427.62 3408.64 1427.62 3403.72 1422.7 3403.72 1416.62 3403.72 1410.55 3408.64 1405.62 3414.72 1405.62 3420.79 1405.62 3425.72 1410.55 3425.72 1416.62Z" stroke="#ED7D31" stroke-width="3.4375" stroke-linejoin="round" stroke-miterlimit="10" fill="#ED7D31"/></g><g clip-path="url(#clip9)"><text fill="#595959" font-family="Calibri,Calibri_MSFontService,sans-serif" font-weight="400" font-size="41" transform="matrix(1 0 0 1 2102.1 1820)">0</text></g><g clip-path="url(#clip10)"><text fill="#595959" font-family="Calibri,Calibri_MSFontService,sans-serif" font-weight="400" font-size="41" transform="matrix(1 0 0 1 2102.1 1747)">5</text></g><g clip-path="url(#clip11)"><text fill="#595959" font-family="Calibri,Calibri_MSFontService,sans-serif" font-weight="400" font-size="41" transform="matrix(1 0 0 1 2081.2 1675)">10</text></g><g clip-path="url(#clip12)"><text fill="#595959" font-family="Calibri,Calibri_MSFontService,sans-serif" font-weight="400" font-size="41" transform="matrix(1 0 0 1 2081.2 1602)">15</text></g><g clip-path="url(#clip13)"><text fill="#595959" font-family="Calibri,Calibri_MSFontService,sans-serif" font-weight="400" font-size="41" transform="matrix(1 0 0 1 2081.2 1530)">20</text></g><g clip-path="url(#clip14)"><text fill="#595959" font-family="Calibri,Calibri_MSFontService,sans-serif" font-weight="400" font-size="41" transform="matrix(1 0 0 1 2081.2 1457)">25</text></g><g clip-path="url(#clip15)"><text fill="#595959" font-family="Calibri,Calibri_MSFontService,sans-serif" font-weight="400" font-size="41" transform="matrix(1 0 0 1 2081.2 1385)">30</text></g><g clip-path="url(#clip16)"><text fill="#595959" font-family="Calibri,Calibri_MSFontService,sans-serif" font-weight="400" font-size="41" transform="matrix(1 0 0 1 2254.08 1873)">SPR 1</text></g><g clip-path="url(#clip17)"><text fill="#595959" font-family="Calibri,Calibri_MSFontService,sans-serif" font-weight="400" font-size="41" transform="matrix(1 0 0 1 2811.09 1873)">SPR 2</text></g><g clip-path="url(#clip18)"><text fill="#595959" font-family="Calibri,Calibri_MSFontService,sans-serif" font-weight="400" font-size="41" transform="matrix(1 0 0 1 3368.11 1873)">SPR 3</text></g><g clip-path="url(#clip19)"><text fill="#595959" font-family="Calibri,Calibri_MSFontService,sans-serif" font-weight="400" font-size="41" transform="matrix(1 0 0 1 2290.07 1953)">1</text></g><g clip-path="url(#clip20)"><text fill="#595959" font-family="Calibri,Calibri_MSFontService,sans-serif" font-weight="400" font-size="41" transform="matrix(1 0 0 1 2568.58 1953)">2</text></g><g clip-path="url(#clip21)"><text fill="#595959" font-family="Calibri,Calibri_MSFontService,sans-serif" font-weight="400" font-size="41" transform="matrix(1 0 0 1 2847.08 1953)">3</text></g><g clip-path="url(#clip22)"><text fill="#595959" font-family="Calibri,Calibri_MSFontService,sans-serif" font-weight="400" font-size="41" transform="matrix(1 0 0 1 3125.59 1953)">4</text></g><g clip-path="url(#clip23)"><text fill="#595959" font-family="Calibri,Calibri_MSFontService,sans-serif" font-weight="400" font-size="41" transform="matrix(1 0 0 1 3404.1 1953)">5</text></g><g clip-path="url(#clip24)"><text fill="#595959" font-family="Calibri,Calibri_MSFontService,sans-serif" font-weight="400" font-size="46" transform="matrix(6.12323e-17 -1 1 6.12323e-17 2055.51 1755)">Tasks (Not Hours)</text></g><g clip-path="url(#clip25)"><text fill="#595959" font-family="Calibri,Calibri_MSFontService,sans-serif" font-weight="400" font-size="46" transform="matrix(1 0 0 1 2711.27 2019)">Weeks / Sprints</text></g><g clip-path="url(#clip26)"><text fill="#595959" font-family="Calibri,Calibri_MSFontService,sans-serif" font-weight="400" font-size="64" transform="matrix(1 0 0 1 2247.09 1299)">Backwards Burndown / Tasks Done Chart</text></g><g clip-path="url(#clip27)"><path d="M2547 2127 2635 2127" stroke="#4472C4" stroke-width="10.3125" stroke-linecap="round" stroke-linejoin="round" stroke-miterlimit="10" fill="none" fill-rule="evenodd"/></g><g clip-path="url(#clip28)"><path d="M2602 2126C2602 2132.07 2597.07 2137 2591 2137 2584.93 2137 2580 2132.07 2580 2126 2580 2119.92 2584.93 2115 2591 2115 2597.07 2115 2602 2119.92 2602 2126Z" stroke="#4472C4" stroke-width="3.4375" stroke-linejoin="round" stroke-miterlimit="10" fill="#4472C4"/></g><g clip-path="url(#clip29)"><text fill="#595959" font-family="Calibri,Calibri_MSFontService,sans-serif" font-weight="400" font-size="41" transform="matrix(1 0 0 1 2644.46 2139)">Planned</text></g><g clip-path="url(#clip30)"><path d="M2824 2127 2912 2127" stroke="#ED7D31" stroke-width="10.3125" stroke-linecap="round" stroke-linejoin="round" stroke-miterlimit="10" fill="none" fill-rule="evenodd"/></g><g clip-path="url(#clip31)"><path d="M2879 2126C2879 2132.07 2874.07 2137 2868 2137 2861.93 2137 2857 2132.07 2857 2126 2857 2119.92 2861.93 2115 2868 2115 2874.07 2115 2879 2119.92 2879 2126Z" stroke="#ED7D31" stroke-width="3.4375" stroke-linejoin="round" stroke-miterlimit="10" fill="#ED7D31"/></g><g clip-path="url(#clip32)"><text fill="#595959" font-family="Calibri,Calibri_MSFontService,sans-serif" font-weight="400" font-size="41" transform="matrix(1 0 0 1 2921.37 2139)">Actual</text></g><rect x="1954.5" y="1203.5" width="1650" height="990" stroke="#D9D9D9" stroke-width="3.4375" stroke-linejoin="round" stroke-miterlimit="10" fill="none"/></g></svg>