<svg width="1653" height="992" xmlns="http://www.w3.org/2000/svg" xmlns:xlink="http://www.w3.org/1999/xlink" overflow="hidden"><defs><clipPath id="clip0"><rect x="879" y="137" width="1653" height="992"/></clipPath><clipPath id="clip1"><rect x="880" y="137" width="1650" height="990"/></clipPath><clipPath id="clip2"><rect x="880" y="137" width="1650" height="990"/></clipPath><clipPath id="clip3"><rect x="1087" y="307" width="1396" height="515"/></clipPath><clipPath id="clip4"><rect x="1087" y="307" width="1396" height="515"/></clipPath><clipPath id="clip5"><rect x="880" y="137" width="1650" height="990"/></clipPath><clipPath id="clip6"><rect x="880" y="137" width="1650" height="990"/></clipPath><clipPath id="clip7"><rect x="880" y="137" width="1650" height="990"/></clipPath><clipPath id="clip8"><rect x="880" y="137" width="1650" height="990"/></clipPath><clipPath id="clip9"><rect x="880" y="137" width="1650" height="990"/></clipPath><clipPath id="clip10"><rect x="880" y="137" width="1650" height="990"/></clipPath><clipPath id="clip11"><rect x="880" y="137" width="1650" height="990"/></clipPath><clipPath id="clip12"><rect x="880" y="137" width="1650" height="990"/></clipPath><clipPath id="clip13"><rect x="880" y="137" width="1650" height="990"/></clipPath><clipPath id="clip14"><rect x="880" y="137" width="1650" height="990"/></clipPath><clipPath id="clip15"><rect x="880" y="137" width="1650" height="990"/></clipPath><clipPath id="clip16"><rect x="880" y="137" width="1650" height="990"/></clipPath><clipPath id="clip17"><rect x="880" y="137" width="1650" height="990"/></clipPath><clipPath id="clip18"><rect x="880" y="137" width="1650" height="990"/></clipPath><clipPath id="clip19"><rect x="880" y="137" width="1650" height="990"/></clipPath><clipPath id="clip20"><rect x="880" y="137" width="1650" height="990"/></clipPath><clipPath id="clip21"><rect x="880" y="137" width="1650" height="990"/></clipPath><clipPath id="clip22"><rect x="880" y="137" width="1650" height="990"/></clipPath><clipPath id="clip23"><rect x="880" y="137" width="1650" height="990"/></clipPath><clipPath id="clip24"><rect x="880" y="137" width="1650" height="990"/></clipPath><clipPath id="clip25"><rect x="880" y="137" width="1650" height="990"/></clipPath><clipPath id="clip26"><rect x="880" y="137" width="1650" height="990"/></clipPath><clipPath id="clip27"><rect x="880" y="137" width="1650" height="990"/></clipPath><clipPath id="clip28"><rect x="880" y="137" width="1650" height="990"/></clipPath><clipPath id="clip29"><rect x="880" y="137" width="1650" height="990"/></clipPath><clipPath id="clip30"><rect x="880" y="137" width="1650" height="990"/></clipPath></defs><g clip-path="url(#clip0)" transform="translate(-879 -137)"><rect x="880" y="138" width="1650" height="989" fill="#FFFFFF"/><g clip-path="url(#clip1)"><path d="M1087.5 733.524 2479.5 733.524M1087.5 648.521 2479.5 648.521M1087.5 563.519 2479.5 563.519M1087.5 478.516 2479.5 478.516M1087.5 392.513 2479.5 392.513M1087.5 307.5 2479.5 307.5" stroke="#D9D9D9" stroke-width="3.4375" stroke-linejoin="round" stroke-miterlimit="10" fill="none"/></g><g clip-path="url(#clip2)"><path d="M1087.5 819.5 2479.5 819.5" stroke="#D9D9D9" stroke-width="3.4375" stroke-linejoin="round" stroke-miterlimit="10" fill="none" fill-rule="evenodd"/></g><g clip-path="url(#clip3)"><path d="M1226 461 1505.05 580.019 1783.06 700.023 2062 819" stroke="#4472C4" stroke-width="10.3125" stroke-linecap="round" stroke-linejoin="round" stroke-miterlimit="10" fill="none"/></g><g clip-path="url(#clip4)"><path d="M1226 410 1505.05 512.017 1783.06 597.02 2062 819" stroke="#ED7D31" stroke-width="10.3125" stroke-linecap="round" stroke-linejoin="round" stroke-miterlimit="10" fill="none"/></g><g clip-path="url(#clip5)"><text fill="#404040" font-family="Calibri,Calibri_MSFontService,sans-serif" font-weight="400" font-size="41" transform="matrix(1 0 0 1 1205.4 532)">21</text></g><g clip-path="url(#clip6)"><text fill="#404040" font-family="Calibri,Calibri_MSFontService,sans-serif" font-weight="400" font-size="41" transform="matrix(1 0 0 1 1483.91 651)">14</text></g><g clip-path="url(#clip7)"><text fill="#404040" font-family="Calibri,Calibri_MSFontService,sans-serif" font-weight="400" font-size="41" transform="matrix(1 0 0 1 1772.87 771)">7</text></g><g clip-path="url(#clip8)"><text fill="#404040" font-family="Calibri,Calibri_MSFontService,sans-serif" font-weight="400" font-size="41" transform="matrix(1 0 0 1 1205.4 366)">24</text></g><g clip-path="url(#clip9)"><text fill="#404040" font-family="Calibri,Calibri_MSFontService,sans-serif" font-weight="400" font-size="41" transform="matrix(1 0 0 1 1483.91 469)">18</text></g><g clip-path="url(#clip10)"><text fill="#404040" font-family="Calibri,Calibri_MSFontService,sans-serif" font-weight="400" font-size="41" transform="matrix(1 0 0 1 1762.42 554)">13</text></g><g clip-path="url(#clip11)"><text fill="#404040" font-family="Calibri,Calibri_MSFontService,sans-serif" font-weight="400" font-size="41" transform="matrix(1 0 0 1 2051.37 776)">0</text></g><g clip-path="url(#clip12)"><text fill="#595959" font-family="Calibri,Calibri_MSFontService,sans-serif" font-weight="400" font-size="41" transform="matrix(1 0 0 1 1027.88 831)">0</text></g><g clip-path="url(#clip13)"><text fill="#595959" font-family="Calibri,Calibri_MSFontService,sans-serif" font-weight="400" font-size="41" transform="matrix(1 0 0 1 1027.88 745)">5</text></g><g clip-path="url(#clip14)"><text fill="#595959" font-family="Calibri,Calibri_MSFontService,sans-serif" font-weight="400" font-size="41" transform="matrix(1 0 0 1 1006.98 660)">10</text></g><g clip-path="url(#clip15)"><text fill="#595959" font-family="Calibri,Calibri_MSFontService,sans-serif" font-weight="400" font-size="41" transform="matrix(1 0 0 1 1006.98 575)">15</text></g><g clip-path="url(#clip16)"><text fill="#595959" font-family="Calibri,Calibri_MSFontService,sans-serif" font-weight="400" font-size="41" transform="matrix(1 0 0 1 1006.98 490)">20</text></g><g clip-path="url(#clip17)"><text fill="#595959" font-family="Calibri,Calibri_MSFontService,sans-serif" font-weight="400" font-size="41" transform="matrix(1 0 0 1 1006.98 404)">25</text></g><g clip-path="url(#clip18)"><text fill="#595959" font-family="Calibri,Calibri_MSFontService,sans-serif" font-weight="400" font-size="41" transform="matrix(1 0 0 1 1006.98 319)">30</text></g><g clip-path="url(#clip19)"><text fill="#595959" font-family="Calibri,Calibri_MSFontService,sans-serif" font-weight="400" font-size="41" transform="matrix(1 0 0 1 1215.85 884)">8</text></g><g clip-path="url(#clip20)"><text fill="#595959" font-family="Calibri,Calibri_MSFontService,sans-serif" font-weight="400" font-size="41" transform="matrix(1 0 0 1 1478.71 884)">8.5</text></g><g clip-path="url(#clip21)"><text fill="#595959" font-family="Calibri,Calibri_MSFontService,sans-serif" font-weight="400" font-size="41" transform="matrix(1 0 0 1 1772.87 884)">9</text></g><g clip-path="url(#clip22)"><text fill="#595959" font-family="Calibri,Calibri_MSFontService,sans-serif" font-weight="400" font-size="41" transform="matrix(1 0 0 1 2035.72 884)">9.5</text></g><g clip-path="url(#clip23)"><text fill="#595959" font-family="Calibri,Calibri_MSFontService,sans-serif" font-weight="400" font-size="41" transform="matrix(1 0 0 1 2319.43 884)">10</text></g><g clip-path="url(#clip24)"><text fill="#595959" font-family="Calibri,Calibri_MSFontService,sans-serif" font-weight="400" font-size="46" transform="matrix(6.12323e-17 -1 1 6.12323e-17 981.292 741)">Tasks(NOT HOURS)</text></g><g clip-path="url(#clip25)"><text fill="#595959" font-family="Calibri,Calibri_MSFontService,sans-serif" font-weight="400" font-size="46" transform="matrix(1 0 0 1 1720.75 953)">Weeks</text></g><g clip-path="url(#clip26)"><text fill="#595959" font-family="Calibri,Calibri_MSFontService,sans-serif" font-weight="400" font-size="64" transform="matrix(1 0 0 1 1411.2 233)">SPR 4 Burndown Chart</text></g><g clip-path="url(#clip27)"><path d="M1473 1061 1561 1061" stroke="#4472C4" stroke-width="10.3125" stroke-linecap="round" stroke-linejoin="round" stroke-miterlimit="10" fill="none" fill-rule="evenodd"/></g><g clip-path="url(#clip28)"><text fill="#595959" font-family="Calibri,Calibri_MSFontService,sans-serif" font-weight="400" font-size="41" transform="matrix(1 0 0 1 1570.24 1073)">Planned</text></g><g clip-path="url(#clip29)"><path d="M1750 1061 1838 1061" stroke="#ED7D31" stroke-width="10.3125" stroke-linecap="round" stroke-linejoin="round" stroke-miterlimit="10" fill="none" fill-rule="evenodd"/></g><g clip-path="url(#clip30)"><text fill="#595959" font-family="Calibri,Calibri_MSFontService,sans-serif" font-weight="400" font-size="41" transform="matrix(1 0 0 1 1847.16 1073)">Actual</text></g><rect x="880.5" y="138.5" width="1650" height="989" stroke="#D9D9D9" stroke-width="3.4375" stroke-linejoin="round" stroke-miterlimit="10" fill="none"/></g></svg>