<svg xmlns="http://www.w3.org/2000/svg" xmlns:xlink="http://www.w3.org/1999/xlink" xmlns:lucid="lucid" width="948.95" height="433.33"><g transform="translate(-460 -460)" lucid:page-tab-id="0_0"><path d="M480 480h908.95v40H480zM480 520h258.95v40H480zM738.95 520h260v40h-260zM998.95 520h106v40h-106zM1104.95 520h118v40h-118zM1222.95 520h166v40h-166z" fill="#9cf"/><path d="M480 560h258.95v143.33H480zM738.95 560h260v143.33h-260zM998.95 560h106v143.33h-106zM1104.95 560h118v143.33h-118z" fill="#fff"/><path d="M1222.95 560h166v143.33h-166z" fill="#008a0e"/><path d="M480 703.33h258.95v170H480zM738.95 703.33h260v170h-260zM998.95 703.33h106v170h-106zM1104.95 703.33h118v170h-118z" fill="#fff"/><path d="M1222.95 703.33h166v170h-166z" fill="#008a0e"/><path d="M480 873.33h258.95H480zM738.95 873.33h130-130zM868.95 873.33h130-130zM998.95 873.33h106-106zM1104.95 873.33h118-118zM1222.95 873.33h166-166zM480 873.33h258.95H480zM738.95 873.33h130-130zM868.95 873.33h130-130zM998.95 873.33h106-106zM1104.95 873.33h118-118zM1222.95 873.33h166-166zM480 873.33h258.95H480zM738.95 873.33h130-130zM868.95 873.33h130-130zM998.95 873.33h106-106zM1104.95 873.33h118-118zM1222.95 873.33h166-166zM480 873.33h258.95H480zM738.95 873.33h130-130zM868.95 873.33h130-130zM998.95 873.33h106-106zM1104.95 873.33h118-118zM1222.95 873.33h166-166zM480 873.33h258.95H480zM738.95 873.33h130-130zM868.95 873.33h130-130zM998.95 873.33h106-106zM1104.95 873.33h118-118zM1222.95 873.33h166-166zM480 873.33h258.95H480zM738.95 873.33h130-130zM868.95 873.33h130-130zM998.95 873.33h106-106zM1104.95 873.33h118-118zM1222.95 873.33h166-166zM480 873.33h258.95H480zM738.95 873.33h130-130zM868.95 873.33h130-130zM998.95 873.33h106-106zM1104.95 873.33h118-118zM1222.95 873.33h166-166zM480 873.33h258.95H480zM738.95 873.33h130-130zM868.95 873.33h130-130zM998.95 873.33h106-106zM1104.95 873.33h118-118zM1222.95 873.33h166-166zM480 873.33h258.95H480zM738.95 873.33h130-130zM868.95 873.33h130-130zM998.95 873.33h106-106zM1104.95 873.33h118-118zM1222.95 873.33h166-166zM480 873.33h258.95H480zM738.95 873.33h130-130zM868.95 873.33h130-130zM998.95 873.33h106-106zM1104.95 873.33h118-118zM1222.95 873.33h166-166zM480 873.33h258.95H480zM738.95 873.33h130-130zM868.95 873.33h130-130zM998.95 873.33h106-106zM1104.95 873.33h118-118zM1222.95 873.33h166-166zM480 873.33h258.95H480zM738.95 873.33h130-130zM868.95 873.33h130-130zM998.95 873.33h106-106zM1104.95 873.33h118-118zM1222.95 873.33h166-166zM480 873.33h258.95H480zM738.95 873.33h130-130zM868.95 873.33h130-130zM998.95 873.33h106-106zM1104.95 873.33h118-118zM1222.95 873.33h166-166zM480 873.33h258.95H480zM738.95 873.33h130-130zM868.95 873.33h130-130zM998.95 873.33h106-106zM1104.95 873.33h118-118zM1222.95 873.33h166-166zM480 873.33h258.95H480zM738.95 873.33h130-130zM868.95 873.33h130-130zM998.95 873.33h106-106zM1104.95 873.33h118-118zM1222.95 873.33h166-166z" fill="#fff"/><path d="M480 480v40M1388.95 480v40M480 520v40M738.95 520v40M998.95 520v40M1104.95 520v40M1222.95 520v40M1388.95 520v40M480 560v143.33M738.95 560v143.33M998.95 560v143.33M1104.95 560v143.33M1222.95 560v143.33M1388.95 560v143.33M480 703.33v170M738.95 703.33v170M998.95 703.33v170M1104.95 703.33v170M1222.95 703.33v170M1388.95 703.33v170M480 480h908.95M480 520h258.95M738.95 520h260M998.95 520h106M1104.95 520h118M1222.95 520h166M480 560h258.95M738.95 560h260M998.95 560h106M1104.95 560h118M1222.95 560h166M480 703.33h258.95M738.95 703.33h260M998.95 703.33h106M1104.95 703.33h118M1222.95 703.33h166M480 873.33h258.95M738.95 873.33h130M868.95 873.33h130M998.95 873.33h106M1104.95 873.33h118M1222.95 873.33h166M480 873.33h258.95M738.95 873.33h130M868.95 873.33h130M998.95 873.33h106M1104.95 873.33h118M1222.95 873.33h166M480 873.33h258.95M738.95 873.33h130M868.95 873.33h130M998.95 873.33h106M1104.95 873.33h118M1222.95 873.33h166M480 873.33h258.95M738.95 873.33h130M868.95 873.33h130M998.95 873.33h106M1104.95 873.33h118M1222.95 873.33h166M480 873.33h258.95M738.95 873.33h130M868.95 873.33h130M998.95 873.33h106M1104.95 873.33h118M1222.95 873.33h166M480 873.33h258.95M738.95 873.33h130M868.95 873.33h130M998.95 873.33h106M1104.95 873.33h118M1222.95 873.33h166M480 873.33h258.95M738.95 873.33h130M868.95 873.33h130M998.95 873.33h106M1104.95 873.33h118M1222.95 873.33h166M480 873.33h258.95M738.95 873.33h130M868.95 873.33h130M998.95 873.33h106M1104.95 873.33h118M1222.95 873.33h166M480 873.33h258.95M738.95 873.33h130M868.95 873.33h130M998.95 873.33h106M1104.95 873.33h118M1222.95 873.33h166M480 873.33h258.95M738.95 873.33h130M868.95 873.33h130M998.95 873.33h106M1104.95 873.33h118M1222.95 873.33h166M480 873.33h258.95M738.95 873.33h130M868.95 873.33h130M998.95 873.33h106M1104.95 873.33h118M1222.95 873.33h166M480 873.33h258.95M738.95 873.33h130M868.95 873.33h130M998.95 873.33h106M1104.95 873.33h118M1222.95 873.33h166M480 873.33h258.95M738.95 873.33h130M868.95 873.33h130M998.95 873.33h106M1104.95 873.33h118M1222.95 873.33h166M480 873.33h258.95M738.95 873.33h130M868.95 873.33h130M998.95 873.33h106M1104.95 873.33h118M1222.95 873.33h166M480 873.33h258.95M480 873.33h258.95M738.95 873.33h130M738.95 873.33h130M868.95 873.33h130M868.95 873.33h130M998.95 873.33h106M998.95 873.33h106M1104.95 873.33h118M1104.95 873.33h118M1222.95 873.33h166M1222.95 873.33h166" stroke="#5e5e5e" fill="none"/><use xlink:href="#a" transform="matrix(1,0,0,1,485,485) translate(401.38271604938274 19.444444444444443)"/><use xlink:href="#b" transform="matrix(1,0,0,1,485,485) translate(445.7654320987655 19.444444444444443)"/><use xlink:href="#c" transform="matrix(1,0,0,1,485,525) translate(94.9320987654321 19.444444444444443)"/><use xlink:href="#d" transform="matrix(1,0,0,1,743.9506172839506,525) translate(69.5679012345679 19.444444444444443)"/><use xlink:href="#e" transform="matrix(1,0,0,1,1003.9506172839506,525) translate(18.401234567901234 19.444444444444443)"/><use xlink:href="#f" transform="matrix(1,0,0,1,1109.9506172839506,525) translate(7.0864197530864175 19.444444444444443)"/><use xlink:href="#g" transform="matrix(1,0,0,1,1227.9506172839506,525) translate(60.74691358024691 19.444444444444443)"/><use xlink:href="#h" transform="matrix(1,0,0,1,485,565) translate(82.55555555555556 71.44444444444444)"/><use xlink:href="#i" transform="matrix(1,0,0,1,743.9506172839506,565) translate(15.308641975308632 44.77777777777778)"/><use xlink:href="#j" transform="matrix(1,0,0,1,743.9506172839506,565) translate(73.2716049382716 44.77777777777778)"/><use xlink:href="#k" transform="matrix(1,0,0,1,743.9506172839506,565) translate(116.48148148148148 44.77777777777778)"/><use xlink:href="#l" transform="matrix(1,0,0,1,743.9506172839506,565) translate(144.7530864197531 44.77777777777778)"/><use xlink:href="#m" transform="matrix(1,0,0,1,743.9506172839506,565) translate(202.65432098765433 44.77777777777778)"/><use xlink:href="#n" transform="matrix(1,0,0,1,743.9506172839506,565) translate(10.987654320987644 71.44444444444446)"/><use xlink:href="#o" transform="matrix(1,0,0,1,743.9506172839506,565) translate(68.88888888888889 71.44444444444446)"/><use xlink:href="#p" transform="matrix(1,0,0,1,743.9506172839506,565) translate(128.08641975308643 71.44444444444446)"/><use xlink:href="#q" transform="matrix(1,0,0,1,743.9506172839506,565) translate(179.8148148148148 71.44444444444446)"/><use xlink:href="#r" transform="matrix(1,0,0,1,743.9506172839506,565) translate(79.38271604938271 98.11111111111111)"/><use xlink:href="#s" transform="matrix(1,0,0,1,743.9506172839506,565) translate(117.59259259259258 98.11111111111111)"/><g><use xlink:href="#t" transform="matrix(1,0,0,1,1003.9506172839506,565) translate(41.82716049382716 71.44444444444444)"/></g><g><use xlink:href="#u" transform="matrix(1,0,0,1,1109.9506172839506,565) translate(25.604938271604937 71.44444444444444)"/></g><g><use xlink:href="#v" transform="matrix(1,0,0,1,485,708.3333333333334) translate(0.02469135802473943 84.44444444444446)"/></g><g><use xlink:href="#w" transform="matrix(1,0,0,1,743.9506172839506,708.3333333333334) translate(0 38.93333333333333)"/><use xlink:href="#x" transform="matrix(1,0,0,1,743.9506172839506,708.3333333333334) translate(48.68888888888889 38.93333333333333)"/><use xlink:href="#y" transform="matrix(1,0,0,1,743.9506172839506,708.3333333333334) translate(84.9851851851852 38.93333333333333)"/><use xlink:href="#z" transform="matrix(1,0,0,1,743.9506172839506,708.3333333333334) translate(99.45185185185187 38.93333333333333)"/><use xlink:href="#A" transform="matrix(1,0,0,1,743.9506172839506,708.3333333333334) translate(123.20000000000002 38.93333333333333)"/><use xlink:href="#B" transform="matrix(1,0,0,1,743.9506172839506,708.3333333333334) translate(171.83703703703705 38.93333333333333)"/><use xlink:href="#C" transform="matrix(1,0,0,1,743.9506172839506,708.3333333333334) translate(0 61.33333333333333)"/><use xlink:href="#x" transform="matrix(1,0,0,1,743.9506172839506,708.3333333333334) translate(63.10370370370371 61.33333333333333)"/><use xlink:href="#D" transform="matrix(1,0,0,1,743.9506172839506,708.3333333333334) translate(99.4 61.33333333333333)"/><use xlink:href="#E" transform="matrix(1,0,0,1,743.9506172839506,708.3333333333334) translate(130.51111111111112 61.33333333333333)"/><use xlink:href="#F" transform="matrix(1,0,0,1,743.9506172839506,708.3333333333334) translate(174.94814814814816 61.33333333333333)"/><use xlink:href="#G" transform="matrix(1,0,0,1,743.9506172839506,708.3333333333334) translate(205.85185185185188 61.33333333333333)"/><use xlink:href="#H" transform="matrix(1,0,0,1,743.9506172839506,708.3333333333334) translate(0 83.73333333333333)"/><use xlink:href="#I" transform="matrix(1,0,0,1,743.9506172839506,708.3333333333334) translate(25.92592592592593 83.73333333333333)"/><use xlink:href="#J" transform="matrix(1,0,0,1,743.9506172839506,708.3333333333334) translate(62.22222222222223 83.73333333333333)"/><use xlink:href="#F" transform="matrix(1,0,0,1,743.9506172839506,708.3333333333334) translate(141.91851851851854 83.73333333333333)"/><use xlink:href="#K" transform="matrix(1,0,0,1,743.9506172839506,708.3333333333334) translate(172.82222222222225 83.73333333333333)"/><use xlink:href="#L" transform="matrix(1,0,0,1,743.9506172839506,708.3333333333334) translate(203.93333333333337 83.73333333333333)"/><use xlink:href="#M" transform="matrix(1,0,0,1,743.9506172839506,708.3333333333334) translate(0 106.13333333333333)"/><use xlink:href="#N" transform="matrix(1,0,0,1,743.9506172839506,708.3333333333334) translate(81.92592592592595 106.13333333333333)"/><use xlink:href="#O" transform="matrix(1,0,0,1,743.9506172839506,708.3333333333334) translate(96.39259259259262 106.13333333333333)"/><use xlink:href="#P" transform="matrix(1,0,0,1,743.9506172839506,708.3333333333334) translate(137.87407407407412 106.13333333333333)"/><use xlink:href="#Q" transform="matrix(1,0,0,1,743.9506172839506,708.3333333333334) translate(178.21481481481487 106.13333333333333)"/><use xlink:href="#R" transform="matrix(1,0,0,1,743.9506172839506,708.3333333333334) translate(0 128.53333333333333)"/><use xlink:href="#S" transform="matrix(1,0,0,1,743.9506172839506,708.3333333333334) translate(66.37037037037038 128.53333333333333)"/><use xlink:href="#z" transform="matrix(1,0,0,1,743.9506172839506,708.3333333333334) translate(87.11111111111113 128.53333333333333)"/><use xlink:href="#T" transform="matrix(1,0,0,1,743.9506172839506,708.3333333333334) translate(110.85925925925928 128.53333333333333)"/><use xlink:href="#U" transform="matrix(1,0,0,1,743.9506172839506,708.3333333333334) translate(154.31111111111113 128.53333333333333)"/></g><g><use xlink:href="#V" transform="matrix(1,0,0,1,1003.9506172839506,708.3333333333334) translate(41.82716049382716 84.44444444444446)"/></g><g><use xlink:href="#u" transform="matrix(1,0,0,1,1109.9506172839506,708.3333333333334) translate(25.604938271604937 84.44444444444446)"/></g><defs><path d="M30 0v-248h187v28H63v79h144v27H63v87h162V0H30" id="W"/><path d="M85-194c31 0 48 13 60 33l-1-100h32l1 261h-30c-2-10 0-23-3-31C134-8 116 4 85 4 32 4 16-35 15-94c0-66 23-100 70-100zm9 24c-40 0-46 34-46 75 0 40 6 74 45 74 42 0 51-32 51-76 0-42-9-74-50-73" id="X"/><path d="M24-231v-30h32v30H24zM24 0v-190h32V0H24" id="Y"/><path d="M59-47c-2 24 18 29 38 22v24C64 9 27 4 27-40v-127H5v-23h24l9-43h21v43h35v23H59v120" id="Z"/><g id="a"><use transform="matrix(0.06172839506172839,0,0,0.06172839506172839,0,0)" xlink:href="#W"/><use transform="matrix(0.06172839506172839,0,0,0.06172839506172839,14.814814814814813,0)" xlink:href="#X"/><use transform="matrix(0.06172839506172839,0,0,0.06172839506172839,27.160493827160494,0)" xlink:href="#Y"/><use transform="matrix(0.06172839506172839,0,0,0.06172839506172839,32.03703703703704,0)" xlink:href="#Z"/></g><path d="M30-248c87 1 191-15 191 75 0 78-77 80-158 76V0H30v-248zm33 125c57 0 124 11 124-50 0-59-68-47-124-48v98" id="aa"/><path d="M141-36C126-15 110 5 73 4 37 3 15-17 15-53c-1-64 63-63 125-63 3-35-9-54-41-54-24 1-41 7-42 31l-33-3c5-37 33-52 76-52 45 0 72 20 72 64v82c-1 20 7 32 28 27v20c-31 9-61-2-59-35zM48-53c0 20 12 33 32 33 41-3 63-29 60-74-43 2-92-5-92 41" id="ab"/><path d="M177-190C167-65 218 103 67 71c-23-6-38-20-44-43l32-5c15 47 100 32 89-28v-30C133-14 115 1 83 1 29 1 15-40 15-95c0-56 16-97 71-98 29-1 48 16 59 35 1-10 0-23 2-32h30zM94-22c36 0 50-32 50-73 0-42-14-75-50-75-39 0-46 34-46 75s6 73 46 73" id="ac"/><path d="M100-194c63 0 86 42 84 106H49c0 40 14 67 53 68 26 1 43-12 49-29l28 8c-11 28-37 45-77 45C44 4 14-33 15-96c1-61 26-98 85-98zm52 81c6-60-76-77-97-28-3 7-6 17-6 28h103" id="ad"/><g id="b"><use transform="matrix(0.06172839506172839,0,0,0.06172839506172839,0,0)" xlink:href="#aa"/><use transform="matrix(0.06172839506172839,0,0,0.06172839506172839,14.814814814814813,0)" xlink:href="#ab"/><use transform="matrix(0.06172839506172839,0,0,0.06172839506172839,27.160493827160494,0)" xlink:href="#ac"/><use transform="matrix(0.06172839506172839,0,0,0.06172839506172839,39.50617283950617,0)" xlink:href="#ad"/></g><path d="M190 0L58-211 59 0H30v-248h39L202-35l-2-213h31V0h-41" id="ae"/><path d="M210-169c-67 3-38 105-44 169h-31v-121c0-29-5-50-35-48C34-165 62-65 56 0H25l-1-190h30c1 10-1 24 2 32 10-44 99-50 107 0 11-21 27-35 58-36 85-2 47 119 55 194h-31v-121c0-29-5-49-35-48" id="af"/><g id="c"><use transform="matrix(0.06172839506172839,0,0,0.06172839506172839,0,0)" xlink:href="#ae"/><use transform="matrix(0.06172839506172839,0,0,0.06172839506172839,15.987654320987653,0)" xlink:href="#ab"/><use transform="matrix(0.06172839506172839,0,0,0.06172839506172839,28.333333333333332,0)" xlink:href="#af"/><use transform="matrix(0.06172839506172839,0,0,0.06172839506172839,46.79012345679012,0)" xlink:href="#ad"/></g><path d="M30-248c118-7 216 8 213 122C240-48 200 0 122 0H30v-248zM63-27c89 8 146-16 146-99s-60-101-146-95v194" id="ag"/><path d="M135-143c-3-34-86-38-87 0 15 53 115 12 119 90S17 21 10-45l28-5c4 36 97 45 98 0-10-56-113-15-118-90-4-57 82-63 122-42 12 7 21 19 24 35" id="ah"/><path d="M96-169c-40 0-48 33-48 73s9 75 48 75c24 0 41-14 43-38l32 2c-6 37-31 61-74 61-59 0-76-41-82-99-10-93 101-131 147-64 4 7 5 14 7 22l-32 3c-4-21-16-35-41-35" id="ai"/><path d="M114-163C36-179 61-72 57 0H25l-1-190h30c1 12-1 29 2 39 6-27 23-49 58-41v29" id="aj"/><path d="M115-194c55 1 70 41 70 98S169 2 115 4C84 4 66-9 55-30l1 105H24l-1-265h31l2 30c10-21 28-34 59-34zm-8 174c40 0 45-34 45-75s-6-73-45-74c-42 0-51 32-51 76 0 43 10 73 51 73" id="ak"/><path d="M100-194c62-1 85 37 85 99 1 63-27 99-86 99S16-35 15-95c0-66 28-99 85-99zM99-20c44 1 53-31 53-75 0-43-8-75-51-75s-53 32-53 75 10 74 51 75" id="al"/><path d="M117-194c89-4 53 116 60 194h-32v-121c0-31-8-49-39-48C34-167 62-67 57 0H25l-1-190h30c1 10-1 24 2 32 11-22 29-35 61-36" id="am"/><g id="d"><use transform="matrix(0.06172839506172839,0,0,0.06172839506172839,0,0)" xlink:href="#ag"/><use transform="matrix(0.06172839506172839,0,0,0.06172839506172839,15.987654320987653,0)" xlink:href="#ad"/><use transform="matrix(0.06172839506172839,0,0,0.06172839506172839,28.333333333333332,0)" xlink:href="#ah"/><use transform="matrix(0.06172839506172839,0,0,0.06172839506172839,39.44444444444444,0)" xlink:href="#ai"/><use transform="matrix(0.06172839506172839,0,0,0.06172839506172839,50.55555555555556,0)" xlink:href="#aj"/><use transform="matrix(0.06172839506172839,0,0,0.06172839506172839,57.901234567901234,0)" xlink:href="#Y"/><use transform="matrix(0.06172839506172839,0,0,0.06172839506172839,62.77777777777778,0)" xlink:href="#ak"/><use transform="matrix(0.06172839506172839,0,0,0.06172839506172839,75.12345679012346,0)" xlink:href="#Z"/><use transform="matrix(0.06172839506172839,0,0,0.06172839506172839,81.29629629629629,0)" xlink:href="#Y"/><use transform="matrix(0.06172839506172839,0,0,0.06172839506172839,86.17283950617283,0)" xlink:href="#al"/><use transform="matrix(0.06172839506172839,0,0,0.06172839506172839,98.51851851851852,0)" xlink:href="#am"/></g><path d="M212-179c-10-28-35-45-73-45-59 0-87 40-87 99 0 60 29 101 89 101 43 0 62-24 78-52l27 14C228-24 195 4 139 4 59 4 22-46 18-125c-6-104 99-153 187-111 19 9 31 26 39 46" id="an"/><path d="M84 4C-5 8 30-112 23-190h32v120c0 31 7 50 39 49 72-2 45-101 50-169h31l1 190h-30c-1-10 1-25-2-33-11 22-28 36-60 37" id="ao"/><g id="e"><use transform="matrix(0.06172839506172839,0,0,0.06172839506172839,0,0)" xlink:href="#an"/><use transform="matrix(0.06172839506172839,0,0,0.06172839506172839,15.987654320987653,0)" xlink:href="#al"/><use transform="matrix(0.06172839506172839,0,0,0.06172839506172839,28.333333333333332,0)" xlink:href="#ao"/><use transform="matrix(0.06172839506172839,0,0,0.06172839506172839,40.67901234567901,0)" xlink:href="#am"/><use transform="matrix(0.06172839506172839,0,0,0.06172839506172839,53.02469135802469,0)" xlink:href="#Z"/></g><path d="M252-156c43 0 55 33 55 80 0 46-13 78-56 78-42 0-55-33-55-78 0-48 12-80 56-80zM93 0H65l162-248h28zM13-171c-1-47 13-79 56-79s55 33 55 79-13 79-55 79c-43 0-56-33-56-79zM251-17c28 0 30-29 30-59 0-31-1-60-29-60-29 0-31 29-31 60 0 29 2 59 30 59zM69-112c27 0 28-30 29-59 0-31-1-60-29-60-29 0-30 30-30 60s2 59 30 59" id="ap"/><g id="f"><use transform="matrix(0.06172839506172839,0,0,0.06172839506172839,0,0)" xlink:href="#ap"/><use transform="matrix(0.06172839506172839,0,0,0.06172839506172839,19.753086419753085,0)" xlink:href="#aa"/><use transform="matrix(0.06172839506172839,0,0,0.06172839506172839,34.5679012345679,0)" xlink:href="#ab"/><use transform="matrix(0.06172839506172839,0,0,0.06172839506172839,46.913580246913575,0)" xlink:href="#ah"/><use transform="matrix(0.06172839506172839,0,0,0.06172839506172839,58.02469135802468,0)" xlink:href="#ah"/><use transform="matrix(0.06172839506172839,0,0,0.06172839506172839,69.1358024691358,0)" xlink:href="#ad"/><use transform="matrix(0.06172839506172839,0,0,0.06172839506172839,81.48148148148148,0)" xlink:href="#X"/></g><path d="M0 4l72-265h28L28 4H0" id="aq"/><path d="M63-220v92h138v28H63V0H30v-248h175v28H63" id="ar"/><g id="g"><use transform="matrix(0.06172839506172839,0,0,0.06172839506172839,0,0)" xlink:href="#aa"/><use transform="matrix(0.06172839506172839,0,0,0.06172839506172839,14.814814814814813,0)" xlink:href="#aq"/><use transform="matrix(0.06172839506172839,0,0,0.06172839506172839,20.98765432098765,0)" xlink:href="#ar"/></g><path d="M-5 72V49h209v23H-5" id="as"/><g id="h"><use transform="matrix(0.06172839506172839,0,0,0.06172839506172839,0,0)" xlink:href="#Z"/><use transform="matrix(0.06172839506172839,0,0,0.06172839506172839,6.172839506172839,0)" xlink:href="#ad"/><use transform="matrix(0.06172839506172839,0,0,0.06172839506172839,18.51851851851852,0)" xlink:href="#ah"/><use transform="matrix(0.06172839506172839,0,0,0.06172839506172839,29.62962962962963,0)" xlink:href="#Z"/><use transform="matrix(0.06172839506172839,0,0,0.06172839506172839,35.80246913580247,0)" xlink:href="#as"/><use transform="matrix(0.06172839506172839,0,0,0.06172839506172839,48.148148148148145,0)" xlink:href="#ad"/><use transform="matrix(0.06172839506172839,0,0,0.06172839506172839,60.49382716049382,0)" xlink:href="#X"/><use transform="matrix(0.06172839506172839,0,0,0.06172839506172839,72.8395061728395,0)" xlink:href="#Y"/><use transform="matrix(0.06172839506172839,0,0,0.06172839506172839,77.71604938271605,0)" xlink:href="#Z"/></g><path d="M127-220V0H93v-220H8v-28h204v28h-85" id="at"/><g id="i"><use transform="matrix(0.06172839506172839,0,0,0.06172839506172839,0,0)" xlink:href="#at"/><use transform="matrix(0.06172839506172839,0,0,0.06172839506172839,11.049382716049381,0)" xlink:href="#ad"/><use transform="matrix(0.06172839506172839,0,0,0.06172839506172839,23.39506172839506,0)" xlink:href="#ah"/><use transform="matrix(0.06172839506172839,0,0,0.06172839506172839,34.50617283950617,0)" xlink:href="#Z"/><use transform="matrix(0.06172839506172839,0,0,0.06172839506172839,40.67901234567901,0)" xlink:href="#ah"/></g><path d="M106-169C34-169 62-67 57 0H25v-261h32l-1 103c12-21 28-36 61-36 89 0 53 116 60 194h-32v-121c2-32-8-49-39-48" id="au"/><g id="j"><use transform="matrix(0.06172839506172839,0,0,0.06172839506172839,0,0)" xlink:href="#Z"/><use transform="matrix(0.06172839506172839,0,0,0.06172839506172839,6.172839506172839,0)" xlink:href="#au"/><use transform="matrix(0.06172839506172839,0,0,0.06172839506172839,18.51851851851852,0)" xlink:href="#ab"/><use transform="matrix(0.06172839506172839,0,0,0.06172839506172839,30.864197530864196,0)" xlink:href="#Z"/></g><path d="M24 0v-261h32V0H24" id="av"/><g id="k"><use transform="matrix(0.06172839506172839,0,0,0.06172839506172839,0,0)" xlink:href="#ab"/><use transform="matrix(0.06172839506172839,0,0,0.06172839506172839,12.345679012345679,0)" xlink:href="#av"/><use transform="matrix(0.06172839506172839,0,0,0.06172839506172839,17.22222222222222,0)" xlink:href="#av"/></g><path d="M101-234c-31-9-42 10-38 44h38v23H63V0H32v-167H5v-23h27c-7-52 17-82 69-68v24" id="aw"/><g id="l"><use transform="matrix(0.06172839506172839,0,0,0.06172839506172839,0,0)" xlink:href="#aw"/><use transform="matrix(0.06172839506172839,0,0,0.06172839506172839,6.172839506172839,0)" xlink:href="#Y"/><use transform="matrix(0.06172839506172839,0,0,0.06172839506172839,11.049382716049383,0)" xlink:href="#ad"/><use transform="matrix(0.06172839506172839,0,0,0.06172839506172839,23.395061728395063,0)" xlink:href="#av"/><use transform="matrix(0.06172839506172839,0,0,0.06172839506172839,28.271604938271608,0)" xlink:href="#X"/><use transform="matrix(0.06172839506172839,0,0,0.06172839506172839,40.617283950617285,0)" xlink:href="#ah"/></g><g id="m"><use transform="matrix(0.06172839506172839,0,0,0.06172839506172839,0,0)" xlink:href="#ab"/><use transform="matrix(0.06172839506172839,0,0,0.06172839506172839,12.345679012345679,0)" xlink:href="#aj"/><use transform="matrix(0.06172839506172839,0,0,0.06172839506172839,19.691358024691358,0)" xlink:href="#ad"/></g><path d="M108 0H70L1-190h34L89-25l56-165h34" id="ax"/><path d="M68-38c1 34 0 65-14 84H32c9-13 17-26 17-46H33v-38h35" id="ay"/><g id="n"><use transform="matrix(0.06172839506172839,0,0,0.06172839506172839,0,0)" xlink:href="#ax"/><use transform="matrix(0.06172839506172839,0,0,0.06172839506172839,11.11111111111111,0)" xlink:href="#ab"/><use transform="matrix(0.06172839506172839,0,0,0.06172839506172839,23.45679012345679,0)" xlink:href="#av"/><use transform="matrix(0.06172839506172839,0,0,0.06172839506172839,28.333333333333336,0)" xlink:href="#Y"/><use transform="matrix(0.06172839506172839,0,0,0.06172839506172839,33.20987654320988,0)" xlink:href="#X"/><use transform="matrix(0.06172839506172839,0,0,0.06172839506172839,45.55555555555556,0)" xlink:href="#ay"/></g><path d="M206 0h-36l-40-164L89 0H53L-1-190h32L70-26l43-164h34l41 164 42-164h31" id="az"/><g id="o"><use transform="matrix(0.06172839506172839,0,0,0.06172839506172839,0,0)" xlink:href="#az"/><use transform="matrix(0.06172839506172839,0,0,0.06172839506172839,15.987654320987653,0)" xlink:href="#au"/><use transform="matrix(0.06172839506172839,0,0,0.06172839506172839,28.333333333333332,0)" xlink:href="#ad"/><use transform="matrix(0.06172839506172839,0,0,0.06172839506172839,40.67901234567901,0)" xlink:href="#am"/></g><g id="p"><use transform="matrix(0.06172839506172839,0,0,0.06172839506172839,0,0)" xlink:href="#ax"/><use transform="matrix(0.06172839506172839,0,0,0.06172839506172839,11.11111111111111,0)" xlink:href="#ab"/><use transform="matrix(0.06172839506172839,0,0,0.06172839506172839,23.45679012345679,0)" xlink:href="#av"/><use transform="matrix(0.06172839506172839,0,0,0.06172839506172839,28.333333333333336,0)" xlink:href="#Y"/><use transform="matrix(0.06172839506172839,0,0,0.06172839506172839,33.20987654320988,0)" xlink:href="#X"/></g><g id="q"><use transform="matrix(0.06172839506172839,0,0,0.06172839506172839,0,0)" xlink:href="#Y"/><use transform="matrix(0.06172839506172839,0,0,0.06172839506172839,4.876543209876543,0)" xlink:href="#am"/><use transform="matrix(0.06172839506172839,0,0,0.06172839506172839,17.22222222222222,0)" xlink:href="#ak"/><use transform="matrix(0.06172839506172839,0,0,0.06172839506172839,29.5679012345679,0)" xlink:href="#ao"/><use transform="matrix(0.06172839506172839,0,0,0.06172839506172839,41.913580246913575,0)" xlink:href="#Z"/><use transform="matrix(0.06172839506172839,0,0,0.06172839506172839,48.08641975308642,0)" xlink:href="#ah"/></g><g id="r"><use transform="matrix(0.06172839506172839,0,0,0.06172839506172839,0,0)" xlink:href="#ab"/><use transform="matrix(0.06172839506172839,0,0,0.06172839506172839,12.345679012345679,0)" xlink:href="#aj"/><use transform="matrix(0.06172839506172839,0,0,0.06172839506172839,19.691358024691358,0)" xlink:href="#ad"/></g><g id="s"><use transform="matrix(0.06172839506172839,0,0,0.06172839506172839,0,0)" xlink:href="#ac"/><use transform="matrix(0.06172839506172839,0,0,0.06172839506172839,12.345679012345679,0)" xlink:href="#Y"/><use transform="matrix(0.06172839506172839,0,0,0.06172839506172839,17.22222222222222,0)" xlink:href="#ax"/><use transform="matrix(0.06172839506172839,0,0,0.06172839506172839,28.333333333333332,0)" xlink:href="#ad"/><use transform="matrix(0.06172839506172839,0,0,0.06172839506172839,40.67901234567901,0)" xlink:href="#am"/></g><path d="M110-160c48 1 74 30 74 79 0 53-28 85-80 85-65 0-83-55-86-122-5-90 50-162 133-122 14 7 22 21 27 39l-31 6c-5-40-67-38-82-6-9 19-15 44-15 74 11-20 30-34 60-33zm-7 138c34 0 49-23 49-58s-16-56-50-56c-29 0-50 16-49 49 1 36 15 65 50 65" id="aA"/><use transform="matrix(0.06172839506172839,0,0,0.06172839506172839,0,0)" xlink:href="#aA" id="t"/><path d="M27 0v-27h64v-190l-56 39v-29l58-41h29v221h61V0H27" id="aB"/><path d="M101-251c68 0 85 55 85 127S166 4 100 4C33 4 14-52 14-124c0-73 17-127 87-127zm-1 229c47 0 54-49 54-102s-4-102-53-102c-51 0-55 48-55 102 0 53 5 102 54 102" id="aC"/><g id="u"><use transform="matrix(0.06172839506172839,0,0,0.06172839506172839,0,0)" xlink:href="#aB"/><use transform="matrix(0.06172839506172839,0,0,0.06172839506172839,12.345679012345679,0)" xlink:href="#aC"/><use transform="matrix(0.06172839506172839,0,0,0.06172839506172839,24.691358024691358,0)" xlink:href="#aC"/><use transform="matrix(0.06172839506172839,0,0,0.06172839506172839,37.03703703703704,0)" xlink:href="#ap"/></g><path d="M115-194c53 0 69 39 70 98 0 66-23 100-70 100C84 3 66-7 56-30L54 0H23l1-261h32v101c10-23 28-34 59-34zm-8 174c40 0 45-34 45-75 0-40-5-75-45-74-42 0-51 32-51 76 0 43 10 73 51 73" id="aD"/><g id="v"><use transform="matrix(0.06172839506172839,0,0,0.06172839506172839,0,0)" xlink:href="#Z"/><use transform="matrix(0.06172839506172839,0,0,0.06172839506172839,6.172839506172839,0)" xlink:href="#ad"/><use transform="matrix(0.06172839506172839,0,0,0.06172839506172839,18.51851851851852,0)" xlink:href="#ah"/><use transform="matrix(0.06172839506172839,0,0,0.06172839506172839,29.62962962962963,0)" xlink:href="#Z"/><use transform="matrix(0.06172839506172839,0,0,0.06172839506172839,35.80246913580247,0)" xlink:href="#as"/><use transform="matrix(0.06172839506172839,0,0,0.06172839506172839,48.148148148148145,0)" xlink:href="#ad"/><use transform="matrix(0.06172839506172839,0,0,0.06172839506172839,60.49382716049382,0)" xlink:href="#X"/><use transform="matrix(0.06172839506172839,0,0,0.06172839506172839,72.8395061728395,0)" xlink:href="#Y"/><use transform="matrix(0.06172839506172839,0,0,0.06172839506172839,77.71604938271605,0)" xlink:href="#Z"/><use transform="matrix(0.06172839506172839,0,0,0.06172839506172839,83.88888888888889,0)" xlink:href="#as"/><use transform="matrix(0.06172839506172839,0,0,0.06172839506172839,96.23456790123457,0)" xlink:href="#Y"/><use transform="matrix(0.06172839506172839,0,0,0.06172839506172839,101.11111111111111,0)" xlink:href="#am"/><use transform="matrix(0.06172839506172839,0,0,0.06172839506172839,113.4567901234568,0)" xlink:href="#ax"/><use transform="matrix(0.06172839506172839,0,0,0.06172839506172839,124.56790123456791,0)" xlink:href="#ab"/><use transform="matrix(0.06172839506172839,0,0,0.06172839506172839,136.9135802469136,0)" xlink:href="#av"/><use transform="matrix(0.06172839506172839,0,0,0.06172839506172839,141.79012345679013,0)" xlink:href="#Y"/><use transform="matrix(0.06172839506172839,0,0,0.06172839506172839,146.66666666666666,0)" xlink:href="#X"/><use transform="matrix(0.06172839506172839,0,0,0.06172839506172839,159.01234567901233,0)" xlink:href="#as"/><use transform="matrix(0.06172839506172839,0,0,0.06172839506172839,171.358024691358,0)" xlink:href="#ax"/><use transform="matrix(0.06172839506172839,0,0,0.06172839506172839,182.4691358024691,0)" xlink:href="#ab"/><use transform="matrix(0.06172839506172839,0,0,0.06172839506172839,194.81481481481478,0)" xlink:href="#aj"/><use transform="matrix(0.06172839506172839,0,0,0.06172839506172839,202.16049382716045,0)" xlink:href="#Y"/><use transform="matrix(0.06172839506172839,0,0,0.06172839506172839,207.03703703703698,0)" xlink:href="#ab"/><use transform="matrix(0.06172839506172839,0,0,0.06172839506172839,219.38271604938265,0)" xlink:href="#aD"/><use transform="matrix(0.06172839506172839,0,0,0.06172839506172839,231.72839506172832,0)" xlink:href="#av"/><use transform="matrix(0.06172839506172839,0,0,0.06172839506172839,236.60493827160485,0)" xlink:href="#ad"/></g><g id="w"><use transform="matrix(0.05185185185185186,0,0,0.05185185185185186,0,0)" xlink:href="#at"/><use transform="matrix(0.05185185185185186,0,0,0.05185185185185186,9.281481481481482,0)" xlink:href="#ad"/><use transform="matrix(0.05185185185185186,0,0,0.05185185185185186,19.651851851851852,0)" xlink:href="#ah"/><use transform="matrix(0.05185185185185186,0,0,0.05185185185185186,28.985185185185188,0)" xlink:href="#Z"/><use transform="matrix(0.05185185185185186,0,0,0.05185185185185186,34.17037037037037,0)" xlink:href="#ah"/></g><g id="x"><use transform="matrix(0.05185185185185186,0,0,0.05185185185185186,0,0)" xlink:href="#Z"/><use transform="matrix(0.05185185185185186,0,0,0.05185185185185186,5.185185185185186,0)" xlink:href="#au"/><use transform="matrix(0.05185185185185186,0,0,0.05185185185185186,15.555555555555557,0)" xlink:href="#ab"/><use transform="matrix(0.05185185185185186,0,0,0.05185185185185186,25.92592592592593,0)" xlink:href="#Z"/></g><g id="y"><use transform="matrix(0.05185185185185186,0,0,0.05185185185185186,0,0)" xlink:href="#Y"/><use transform="matrix(0.05185185185185186,0,0,0.05185185185185186,4.0962962962962965,0)" xlink:href="#aw"/></g><g id="z"><use transform="matrix(0.05185185185185186,0,0,0.05185185185185186,0,0)" xlink:href="#ab"/><use transform="matrix(0.05185185185185186,0,0,0.05185185185185186,10.370370370370372,0)" xlink:href="#av"/><use transform="matrix(0.05185185185185186,0,0,0.05185185185185186,14.466666666666669,0)" xlink:href="#av"/></g><g id="A"><use transform="matrix(0.05185185185185186,0,0,0.05185185185185186,0,0)" xlink:href="#aw"/><use transform="matrix(0.05185185185185186,0,0,0.05185185185185186,5.185185185185186,0)" xlink:href="#Y"/><use transform="matrix(0.05185185185185186,0,0,0.05185185185185186,9.281481481481482,0)" xlink:href="#ad"/><use transform="matrix(0.05185185185185186,0,0,0.05185185185185186,19.651851851851852,0)" xlink:href="#av"/><use transform="matrix(0.05185185185185186,0,0,0.05185185185185186,23.748148148148147,0)" xlink:href="#X"/><use transform="matrix(0.05185185185185186,0,0,0.05185185185185186,34.11851851851852,0)" xlink:href="#ah"/></g><g id="B"><use transform="matrix(0.05185185185185186,0,0,0.05185185185185186,0,0)" xlink:href="#ab"/><use transform="matrix(0.05185185185185186,0,0,0.05185185185185186,10.370370370370372,0)" xlink:href="#aj"/><use transform="matrix(0.05185185185185186,0,0,0.05185185185185186,16.540740740740745,0)" xlink:href="#ad"/></g><g id="C"><use transform="matrix(0.05185185185185186,0,0,0.05185185185185186,0,0)" xlink:href="#Y"/><use transform="matrix(0.05185185185185186,0,0,0.05185185185185186,4.0962962962962965,0)" xlink:href="#am"/><use transform="matrix(0.05185185185185186,0,0,0.05185185185185186,14.466666666666669,0)" xlink:href="#ax"/><use transform="matrix(0.05185185185185186,0,0,0.05185185185185186,23.800000000000004,0)" xlink:href="#ab"/><use transform="matrix(0.05185185185185186,0,0,0.05185185185185186,34.17037037037038,0)" xlink:href="#av"/><use transform="matrix(0.05185185185185186,0,0,0.05185185185185186,38.26666666666667,0)" xlink:href="#Y"/><use transform="matrix(0.05185185185185186,0,0,0.05185185185185186,42.36296296296297,0)" xlink:href="#X"/><use transform="matrix(0.05185185185185186,0,0,0.05185185185185186,52.73333333333334,0)" xlink:href="#ay"/></g><g id="D"><use transform="matrix(0.05185185185185186,0,0,0.05185185185185186,0,0)" xlink:href="#Z"/><use transform="matrix(0.05185185185185186,0,0,0.05185185185185186,5.185185185185186,0)" xlink:href="#au"/><use transform="matrix(0.05185185185185186,0,0,0.05185185185185186,15.555555555555557,0)" xlink:href="#ad"/></g><g id="E"><use transform="matrix(0.05185185185185186,0,0,0.05185185185185186,0,0)" xlink:href="#ad"/><use transform="matrix(0.05185185185185186,0,0,0.05185185185185186,10.370370370370372,0)" xlink:href="#aj"/><use transform="matrix(0.05185185185185186,0,0,0.05185185185185186,16.540740740740745,0)" xlink:href="#aj"/><use transform="matrix(0.05185185185185186,0,0,0.05185185185185186,22.711111111111116,0)" xlink:href="#al"/><use transform="matrix(0.05185185185185186,0,0,0.05185185185185186,33.08148148148149,0)" xlink:href="#aj"/></g><g id="F"><use transform="matrix(0.05185185185185186,0,0,0.05185185185185186,0,0)" xlink:href="#az"/><use transform="matrix(0.05185185185185186,0,0,0.05185185185185186,13.42962962962963,0)" xlink:href="#Y"/><use transform="matrix(0.05185185185185186,0,0,0.05185185185185186,17.525925925925925,0)" xlink:href="#av"/><use transform="matrix(0.05185185185185186,0,0,0.05185185185185186,21.62222222222222,0)" xlink:href="#av"/></g><g id="G"><use transform="matrix(0.05185185185185186,0,0,0.05185185185185186,0,0)" xlink:href="#ak"/><use transform="matrix(0.05185185185185186,0,0,0.05185185185185186,10.370370370370372,0)" xlink:href="#al"/><use transform="matrix(0.05185185185185186,0,0,0.05185185185185186,20.740740740740744,0)" xlink:href="#ak"/></g><g id="H"><use transform="matrix(0.05185185185185186,0,0,0.05185185185185186,0,0)" xlink:href="#ao"/><use transform="matrix(0.05185185185185186,0,0,0.05185185185185186,10.370370370370372,0)" xlink:href="#ak"/></g><g id="I"><use transform="matrix(0.05185185185185186,0,0,0.05185185185185186,0,0)" xlink:href="#ab"/><use transform="matrix(0.05185185185185186,0,0,0.05185185185185186,10.370370370370372,0)" xlink:href="#am"/><use transform="matrix(0.05185185185185186,0,0,0.05185185185185186,20.740740740740744,0)" xlink:href="#X"/></g><g id="J"><use transform="matrix(0.05185185185185186,0,0,0.05185185185185186,0,0)" xlink:href="#ax"/><use transform="matrix(0.05185185185185186,0,0,0.05185185185185186,9.333333333333334,0)" xlink:href="#ab"/><use transform="matrix(0.05185185185185186,0,0,0.05185185185185186,19.703703703703706,0)" xlink:href="#aj"/><use transform="matrix(0.05185185185185186,0,0,0.05185185185185186,25.874074074074077,0)" xlink:href="#Y"/><use transform="matrix(0.05185185185185186,0,0,0.05185185185185186,29.970370370370375,0)" xlink:href="#ab"/><use transform="matrix(0.05185185185185186,0,0,0.05185185185185186,40.34074074074075,0)" xlink:href="#aD"/><use transform="matrix(0.05185185185185186,0,0,0.05185185185185186,50.71111111111112,0)" xlink:href="#av"/><use transform="matrix(0.05185185185185186,0,0,0.05185185185185186,54.80740740740741,0)" xlink:href="#ad"/><use transform="matrix(0.05185185185185186,0,0,0.05185185185185186,65.17777777777779,0)" xlink:href="#ah"/></g><g id="K"><use transform="matrix(0.05185185185185186,0,0,0.05185185185185186,0,0)" xlink:href="#am"/><use transform="matrix(0.05185185185185186,0,0,0.05185185185185186,10.370370370370372,0)" xlink:href="#al"/><use transform="matrix(0.05185185185185186,0,0,0.05185185185185186,20.740740740740744,0)" xlink:href="#Z"/></g><g id="L"><use transform="matrix(0.05185185185185186,0,0,0.05185185185185186,0,0)" xlink:href="#au"/><use transform="matrix(0.05185185185185186,0,0,0.05185185185185186,10.370370370370372,0)" xlink:href="#ab"/><use transform="matrix(0.05185185185185186,0,0,0.05185185185185186,20.740740740740744,0)" xlink:href="#ax"/><use transform="matrix(0.05185185185185186,0,0,0.05185185185185186,30.074074074074076,0)" xlink:href="#ad"/></g><g id="M"><use transform="matrix(0.05185185185185186,0,0,0.05185185185185186,0,0)" xlink:href="#ai"/><use transform="matrix(0.05185185185185186,0,0,0.05185185185185186,9.333333333333334,0)" xlink:href="#au"/><use transform="matrix(0.05185185185185186,0,0,0.05185185185185186,19.703703703703706,0)" xlink:href="#ab"/><use transform="matrix(0.05185185185185186,0,0,0.05185185185185186,30.074074074074076,0)" xlink:href="#am"/><use transform="matrix(0.05185185185185186,0,0,0.05185185185185186,40.44444444444445,0)" xlink:href="#ac"/><use transform="matrix(0.05185185185185186,0,0,0.05185185185185186,50.814814814814824,0)" xlink:href="#ad"/><use transform="matrix(0.05185185185185186,0,0,0.05185185185185186,61.185185185185205,0)" xlink:href="#X"/><use transform="matrix(0.05185185185185186,0,0,0.05185185185185186,71.55555555555557,0)" xlink:href="#ay"/></g><g id="N"><use transform="matrix(0.05185185185185186,0,0,0.05185185185185186,0,0)" xlink:href="#Y"/><use transform="matrix(0.05185185185185186,0,0,0.05185185185185186,4.0962962962962965,0)" xlink:href="#Z"/></g><g id="O"><use transform="matrix(0.05185185185185186,0,0,0.05185185185185186,0,0)" xlink:href="#Z"/><use transform="matrix(0.05185185185185186,0,0,0.05185185185185186,5.185185185185186,0)" xlink:href="#au"/><use transform="matrix(0.05185185185185186,0,0,0.05185185185185186,15.555555555555557,0)" xlink:href="#ad"/><use transform="matrix(0.05185185185185186,0,0,0.05185185185185186,25.92592592592593,0)" xlink:href="#am"/></g><g id="P"><use transform="matrix(0.05185185185185186,0,0,0.05185185185185186,0,0)" xlink:href="#Z"/><use transform="matrix(0.05185185185185186,0,0,0.05185185185185186,5.185185185185186,0)" xlink:href="#aj"/><use transform="matrix(0.05185185185185186,0,0,0.05185185185185186,11.355555555555558,0)" xlink:href="#Y"/><use transform="matrix(0.05185185185185186,0,0,0.05185185185185186,15.451851851851853,0)" xlink:href="#ad"/><use transform="matrix(0.05185185185185186,0,0,0.05185185185185186,25.822222222222226,0)" xlink:href="#ah"/></g><g id="Q"><use transform="matrix(0.05185185185185186,0,0,0.05185185185185186,0,0)" xlink:href="#Z"/><use transform="matrix(0.05185185185185186,0,0,0.05185185185185186,5.185185185185186,0)" xlink:href="#al"/></g><g id="R"><use transform="matrix(0.05185185185185186,0,0,0.05185185185185186,0,0)" xlink:href="#ai"/><use transform="matrix(0.05185185185185186,0,0,0.05185185185185186,9.333333333333334,0)" xlink:href="#au"/><use transform="matrix(0.05185185185185186,0,0,0.05185185185185186,19.703703703703706,0)" xlink:href="#ab"/><use transform="matrix(0.05185185185185186,0,0,0.05185185185185186,30.074074074074076,0)" xlink:href="#am"/><use transform="matrix(0.05185185185185186,0,0,0.05185185185185186,40.44444444444445,0)" xlink:href="#ac"/><use transform="matrix(0.05185185185185186,0,0,0.05185185185185186,50.814814814814824,0)" xlink:href="#ad"/></g><g id="S"><use transform="matrix(0.05185185185185186,0,0,0.05185185185185186,0,0)" xlink:href="#Z"/><use transform="matrix(0.05185185185185186,0,0,0.05185185185185186,5.185185185185186,0)" xlink:href="#al"/></g><g id="T"><use transform="matrix(0.05185185185185186,0,0,0.05185185185185186,0,0)" xlink:href="#ax"/><use transform="matrix(0.05185185185185186,0,0,0.05185185185185186,9.333333333333334,0)" xlink:href="#ab"/><use transform="matrix(0.05185185185185186,0,0,0.05185185185185186,19.703703703703706,0)" xlink:href="#av"/><use transform="matrix(0.05185185185185186,0,0,0.05185185185185186,23.800000000000004,0)" xlink:href="#Y"/><use transform="matrix(0.05185185185185186,0,0,0.05185185185185186,27.8962962962963,0)" xlink:href="#X"/></g><g id="U"><use transform="matrix(0.05185185185185186,0,0,0.05185185185185186,0,0)" xlink:href="#ax"/><use transform="matrix(0.05185185185185186,0,0,0.05185185185185186,9.333333333333334,0)" xlink:href="#ab"/><use transform="matrix(0.05185185185185186,0,0,0.05185185185185186,19.703703703703706,0)" xlink:href="#aj"/><use transform="matrix(0.05185185185185186,0,0,0.05185185185185186,25.874074074074077,0)" xlink:href="#Y"/><use transform="matrix(0.05185185185185186,0,0,0.05185185185185186,29.970370370370375,0)" xlink:href="#ab"/><use transform="matrix(0.05185185185185186,0,0,0.05185185185185186,40.34074074074075,0)" xlink:href="#aD"/><use transform="matrix(0.05185185185185186,0,0,0.05185185185185186,50.71111111111112,0)" xlink:href="#av"/><use transform="matrix(0.05185185185185186,0,0,0.05185185185185186,54.80740740740741,0)" xlink:href="#ad"/><use transform="matrix(0.05185185185185186,0,0,0.05185185185185186,65.17777777777779,0)" xlink:href="#ah"/></g><use transform="matrix(0.06172839506172839,0,0,0.06172839506172839,0,0)" xlink:href="#aB" id="V"/></defs></g></svg>