<svg xmlns="http://www.w3.org/2000/svg" xmlns:xlink="http://www.w3.org/1999/xlink" xmlns:lucid="lucid" width="847.96" height="603.33"><g transform="translate(-460 -460)" lucid:page-tab-id="0_0"><path d="M480 480h807.96v40H480zM480 520h157.96v40H480zM637.96 520h260v40h-260zM897.96 520h106v40h-106zM1003.96 520h118v40h-118zM1121.96 520h166v40h-166z" fill="#9cf"/><path d="M480 560h157.96v143.33H480zM637.96 560h260v143.33h-260zM897.96 560h106v143.33h-106zM1003.96 560h118v143.33h-118z" fill="#fff"/><path d="M1121.96 560h166v143.33h-166z" fill="#008a0e"/><path d="M480 703.33h157.96v170H480zM637.96 703.33h260v170h-260zM897.96 703.33h106v170h-106zM1003.96 703.33h118v170h-118z" fill="#fff"/><path d="M1121.96 703.33h166v170h-166z" fill="#008a0e"/><path d="M480 873.33h157.96v170H480zM637.96 873.33h260v170h-260zM897.96 873.33h106v170h-106zM1003.96 873.33h118v170h-118z" fill="#fff"/><path d="M1121.96 873.33h166v170h-166z" fill="#008a0e"/><path d="M480 1043.33h157.96H480zM637.96 1043.33h130-130zM767.96 1043.33h130-130zM897.96 1043.33h106-106zM1003.96 1043.33h118-118zM1121.96 1043.33h166-166zM480 1043.33h157.96H480zM637.96 1043.33h130-130zM767.96 1043.33h130-130zM897.96 1043.33h106-106zM1003.96 1043.33h118-118zM1121.96 1043.33h166-166zM480 1043.33h157.96H480zM637.96 1043.33h130-130zM767.96 1043.33h130-130zM897.96 1043.33h106-106zM1003.96 1043.33h118-118zM1121.96 1043.33h166-166zM480 1043.33h157.96H480zM637.96 1043.33h130-130zM767.96 1043.33h130-130zM897.96 1043.33h106-106zM1003.96 1043.33h118-118zM1121.96 1043.33h166-166zM480 1043.33h157.96H480zM637.96 1043.33h130-130zM767.96 1043.33h130-130zM897.96 1043.33h106-106zM1003.96 1043.33h118-118zM1121.96 1043.33h166-166zM480 1043.33h157.96H480zM637.96 1043.33h130-130zM767.96 1043.33h130-130zM897.96 1043.33h106-106zM1003.96 1043.33h118-118zM1121.96 1043.33h166-166zM480 1043.33h157.96H480zM637.96 1043.33h130-130zM767.96 1043.33h130-130zM897.96 1043.33h106-106zM1003.96 1043.33h118-118zM1121.96 1043.33h166-166zM480 1043.33h157.96H480zM637.96 1043.33h130-130zM767.96 1043.33h130-130zM897.96 1043.33h106-106zM1003.96 1043.33h118-118zM1121.96 1043.33h166-166zM480 1043.33h157.96H480zM637.96 1043.33h130-130zM767.96 1043.33h130-130zM897.96 1043.33h106-106zM1003.96 1043.33h118-118zM1121.96 1043.33h166-166zM480 1043.33h157.96H480zM637.96 1043.33h130-130zM767.96 1043.33h130-130zM897.96 1043.33h106-106zM1003.96 1043.33h118-118zM1121.96 1043.33h166-166zM480 1043.33h157.96H480zM637.96 1043.33h130-130zM767.96 1043.33h130-130zM897.96 1043.33h106-106zM1003.96 1043.33h118-118zM1121.96 1043.33h166-166zM480 1043.33h157.96H480zM637.96 1043.33h130-130zM767.96 1043.33h130-130zM897.96 1043.33h106-106zM1003.96 1043.33h118-118zM1121.96 1043.33h166-166zM480 1043.33h157.96H480zM637.96 1043.33h130-130zM767.96 1043.33h130-130zM897.96 1043.33h106-106zM1003.96 1043.33h118-118zM1121.96 1043.33h166-166zM480 1043.33h157.96H480zM637.96 1043.33h130-130zM767.96 1043.33h130-130zM897.96 1043.33h106-106zM1003.96 1043.33h118-118zM1121.96 1043.33h166-166zM480 1043.33h157.96H480zM637.96 1043.33h130-130zM767.96 1043.33h130-130zM897.96 1043.33h106-106zM1003.96 1043.33h118-118zM1121.96 1043.33h166-166z" fill="#fff"/><path d="M480 480v40M1287.96 480v40M480 520v40M637.96 520v40M897.96 520v40M1003.96 520v40M1121.96 520v40M1287.96 520v40M480 560v143.33M637.96 560v143.33M897.96 560v143.33M1003.96 560v143.33M1121.96 560v143.33M1287.96 560v143.33M480 703.33v170M637.96 703.33v170M897.96 703.33v170M1003.96 703.33v170M1121.96 703.33v170M1287.96 703.33v170M480 873.33v170M637.96 873.33v170M897.96 873.33v170M1003.96 873.33v170M1121.96 873.33v170M1287.96 873.33v170M480 480h807.96M480 520h157.96M637.96 520h260M897.96 520h106M1003.96 520h118M1121.96 520h166M480 560h157.96M637.96 560h260M897.96 560h106M1003.96 560h118M1121.96 560h166M480 703.33h157.96M637.96 703.33h260M897.96 703.33h106M1003.96 703.33h118M1121.96 703.33h166M480 873.33h157.96M637.96 873.33h260M897.96 873.33h106M1003.96 873.33h118M1121.96 873.33h166M480 1043.33h157.96M637.96 1043.33h130M767.96 1043.33h130M897.96 1043.33h106M1003.96 1043.33h118M1121.96 1043.33h166M480 1043.33h157.96M637.96 1043.33h130M767.96 1043.33h130M897.96 1043.33h106M1003.96 1043.33h118M1121.96 1043.33h166M480 1043.33h157.96M637.96 1043.33h130M767.96 1043.33h130M897.96 1043.33h106M1003.96 1043.33h118M1121.96 1043.33h166M480 1043.33h157.96M637.96 1043.33h130M767.96 1043.33h130M897.96 1043.33h106M1003.96 1043.33h118M1121.96 1043.33h166M480 1043.33h157.96M637.96 1043.33h130M767.96 1043.33h130M897.96 1043.33h106M1003.96 1043.33h118M1121.96 1043.33h166M480 1043.33h157.96M637.96 1043.33h130M767.96 1043.33h130M897.96 1043.33h106M1003.96 1043.33h118M1121.96 1043.33h166M480 1043.33h157.96M637.96 1043.33h130M767.96 1043.33h130M897.96 1043.33h106M1003.96 1043.33h118M1121.96 1043.33h166M480 1043.33h157.96M637.96 1043.33h130M767.96 1043.33h130M897.96 1043.33h106M1003.96 1043.33h118M1121.96 1043.33h166M480 1043.33h157.96M637.96 1043.33h130M767.96 1043.33h130M897.96 1043.33h106M1003.96 1043.33h118M1121.96 1043.33h166M480 1043.33h157.96M637.96 1043.33h130M767.96 1043.33h130M897.96 1043.33h106M1003.96 1043.33h118M1121.96 1043.33h166M480 1043.33h157.96M637.96 1043.33h130M767.96 1043.33h130M897.96 1043.33h106M1003.96 1043.33h118M1121.96 1043.33h166M480 1043.33h157.96M637.96 1043.33h130M767.96 1043.33h130M897.96 1043.33h106M1003.96 1043.33h118M1121.96 1043.33h166M480 1043.33h157.96M637.96 1043.33h130M767.96 1043.33h130M897.96 1043.33h106M1003.96 1043.33h118M1121.96 1043.33h166M480 1043.33h157.96M637.96 1043.33h130M767.96 1043.33h130M897.96 1043.33h106M1003.96 1043.33h118M1121.96 1043.33h166M480 1043.33h157.96M480 1043.33h157.96M637.96 1043.33h130M637.96 1043.33h130M767.96 1043.33h130M767.96 1043.33h130M897.96 1043.33h106M897.96 1043.33h106M1003.96 1043.33h118M1003.96 1043.33h118M1121.96 1043.33h166M1121.96 1043.33h166" stroke="#5e5e5e" fill="none"/><use xlink:href="#a" transform="matrix(1,0,0,1,485,485) translate(342.858024691358 19.444444444444443)"/><use xlink:href="#b" transform="matrix(1,0,0,1,485,485) translate(403.2901234567901 19.444444444444443)"/><use xlink:href="#c" transform="matrix(1,0,0,1,485,525) translate(44.4320987654321 19.444444444444443)"/><use xlink:href="#d" transform="matrix(1,0,0,1,642.962962962963,525) translate(69.5679012345679 19.444444444444443)"/><use xlink:href="#e" transform="matrix(1,0,0,1,902.962962962963,525) translate(18.401234567901234 19.444444444444443)"/><use xlink:href="#f" transform="matrix(1,0,0,1,1008.962962962963,525) translate(7.0864197530864175 19.444444444444443)"/><use xlink:href="#g" transform="matrix(1,0,0,1,1126.962962962963,525) translate(60.74691358024691 19.444444444444443)"/><use xlink:href="#h" transform="matrix(1,0,0,1,485,565) translate(16.03703703703703 71.44444444444444)"/><use xlink:href="#i" transform="matrix(1,0,0,1,642.962962962963,565) translate(31.820987654320987 18.111111111111107)"/><use xlink:href="#j" transform="matrix(1,0,0,1,642.962962962963,565) translate(84.90740740740742 18.111111111111107)"/><use xlink:href="#k" transform="matrix(1,0,0,1,642.962962962963,565) translate(128.1172839506173 18.111111111111107)"/><use xlink:href="#l" transform="matrix(1,0,0,1,642.962962962963,565) translate(187.3148148148148 18.111111111111107)"/><use xlink:href="#m" transform="matrix(1,0,0,1,642.962962962963,565) translate(2.9320987654321016 44.77777777777777)"/><use xlink:href="#n" transform="matrix(1,0,0,1,642.962962962963,565) translate(76.88271604938271 44.77777777777777)"/><use xlink:href="#o" transform="matrix(1,0,0,1,642.962962962963,565) translate(181.69753086419752 44.77777777777777)"/><use xlink:href="#p" transform="matrix(1,0,0,1,642.962962962963,565) translate(224.9074074074074 44.77777777777777)"/><use xlink:href="#q" transform="matrix(1,0,0,1,642.962962962963,565) translate(21.66666666666667 71.44444444444444)"/><use xlink:href="#r" transform="matrix(1,0,0,1,642.962962962963,565) translate(75.98765432098767 71.44444444444444)"/><use xlink:href="#s" transform="matrix(1,0,0,1,642.962962962963,565) translate(128.51851851851853 71.44444444444444)"/><use xlink:href="#l" transform="matrix(1,0,0,1,642.962962962963,565) translate(197.4691358024691 71.44444444444444)"/><use xlink:href="#t" transform="matrix(1,0,0,1,642.962962962963,565) translate(14.444444444444443 98.11111111111111)"/><use xlink:href="#u" transform="matrix(1,0,0,1,642.962962962963,565) translate(114.75308641975309 98.11111111111111)"/><use xlink:href="#v" transform="matrix(1,0,0,1,642.962962962963,565) translate(215.8641975308642 98.11111111111111)"/><use xlink:href="#w" transform="matrix(1,0,0,1,642.962962962963,565) translate(61.88271604938271 124.77777777777777)"/><use xlink:href="#x" transform="matrix(1,0,0,1,642.962962962963,565) translate(98.05555555555554 124.77777777777777)"/><g><use xlink:href="#y" transform="matrix(1,0,0,1,902.962962962963,565) translate(41.82716049382716 71.44444444444444)"/></g><g><use xlink:href="#z" transform="matrix(1,0,0,1,1008.962962962963,565) translate(25.604938271604937 71.44444444444444)"/></g><g><use xlink:href="#A" transform="matrix(1,0,0,1,485,708.3333333333334) translate(7.42592592592591 84.44444444444446)"/></g><g><use xlink:href="#i" transform="matrix(1,0,0,1,642.962962962963,708.3333333333334) translate(31.820987654320987 17.77777777777778)"/><use xlink:href="#j" transform="matrix(1,0,0,1,642.962962962963,708.3333333333334) translate(84.90740740740742 17.77777777777778)"/><use xlink:href="#k" transform="matrix(1,0,0,1,642.962962962963,708.3333333333334) translate(128.1172839506173 17.77777777777778)"/><use xlink:href="#l" transform="matrix(1,0,0,1,642.962962962963,708.3333333333334) translate(187.3148148148148 17.77777777777778)"/><use xlink:href="#B" transform="matrix(1,0,0,1,642.962962962963,708.3333333333334) translate(11.574074074074076 44.44444444444444)"/><use xlink:href="#n" transform="matrix(1,0,0,1,642.962962962963,708.3333333333334) translate(102.74691358024691 44.44444444444444)"/><use xlink:href="#C" transform="matrix(1,0,0,1,642.962962962963,708.3333333333334) translate(207.56172839506172 44.44444444444444)"/><use xlink:href="#m" transform="matrix(1,0,0,1,642.962962962963,708.3333333333334) translate(13.395061728395063 71.11111111111111)"/><use xlink:href="#u" transform="matrix(1,0,0,1,642.962962962963,708.3333333333334) translate(87.34567901234567 71.11111111111111)"/><use xlink:href="#D" transform="matrix(1,0,0,1,642.962962962963,708.3333333333334) translate(188.45679012345678 71.11111111111111)"/><use xlink:href="#s" transform="matrix(1,0,0,1,642.962962962963,708.3333333333334) translate(24.93827160493828 97.77777777777777)"/><use xlink:href="#E" transform="matrix(1,0,0,1,642.962962962963,708.3333333333334) translate(93.88888888888889 97.77777777777777)"/><use xlink:href="#F" transform="matrix(1,0,0,1,642.962962962963,708.3333333333334) translate(130.92592592592592 97.77777777777777)"/><use xlink:href="#u" transform="matrix(1,0,0,1,642.962962962963,708.3333333333334) translate(46.51234567901234 124.44444444444446)"/><use xlink:href="#G" transform="matrix(1,0,0,1,642.962962962963,708.3333333333334) translate(147.62345679012344 124.44444444444446)"/><use xlink:href="#H" transform="matrix(1,0,0,1,642.962962962963,708.3333333333334) translate(173.48765432098764 124.44444444444446)"/><use xlink:href="#x" transform="matrix(1,0,0,1,642.962962962963,708.3333333333334) translate(79.96913580246913 151.11111111111111)"/></g><g><use xlink:href="#y" transform="matrix(1,0,0,1,902.962962962963,708.3333333333334) translate(41.82716049382716 84.44444444444446)"/></g><g><use xlink:href="#z" transform="matrix(1,0,0,1,1008.962962962963,708.3333333333334) translate(25.604938271604937 84.44444444444446)"/></g><g><use xlink:href="#I" transform="matrix(1,0,0,1,485,878.3333333333334) translate(0.018518518518504834 84.44444444444446)"/></g><g><use xlink:href="#i" transform="matrix(1,0,0,1,642.962962962963,878.3333333333334) translate(31.820987654320987 17.77777777777778)"/><use xlink:href="#j" transform="matrix(1,0,0,1,642.962962962963,878.3333333333334) translate(84.90740740740742 17.77777777777778)"/><use xlink:href="#k" transform="matrix(1,0,0,1,642.962962962963,878.3333333333334) translate(128.1172839506173 17.77777777777778)"/><use xlink:href="#l" transform="matrix(1,0,0,1,642.962962962963,878.3333333333334) translate(187.3148148148148 17.77777777777778)"/><use xlink:href="#B" transform="matrix(1,0,0,1,642.962962962963,878.3333333333334) translate(13.425925925925924 44.44444444444444)"/><use xlink:href="#u" transform="matrix(1,0,0,1,642.962962962963,878.3333333333334) translate(104.59876543209876 44.44444444444444)"/><use xlink:href="#C" transform="matrix(1,0,0,1,642.962962962963,878.3333333333334) translate(205.70987654320987 44.44444444444444)"/><use xlink:href="#m" transform="matrix(1,0,0,1,642.962962962963,878.3333333333334) translate(11.543209876543216 71.11111111111111)"/><use xlink:href="#n" transform="matrix(1,0,0,1,642.962962962963,878.3333333333334) translate(85.49382716049382 71.11111111111111)"/><use xlink:href="#D" transform="matrix(1,0,0,1,642.962962962963,878.3333333333334) translate(190.30864197530863 71.11111111111111)"/><use xlink:href="#s" transform="matrix(1,0,0,1,642.962962962963,878.3333333333334) translate(24.93827160493828 97.77777777777777)"/><use xlink:href="#E" transform="matrix(1,0,0,1,642.962962962963,878.3333333333334) translate(93.88888888888889 97.77777777777777)"/><use xlink:href="#F" transform="matrix(1,0,0,1,642.962962962963,878.3333333333334) translate(130.92592592592592 97.77777777777777)"/><use xlink:href="#u" transform="matrix(1,0,0,1,642.962962962963,878.3333333333334) translate(46.51234567901234 124.44444444444446)"/><use xlink:href="#G" transform="matrix(1,0,0,1,642.962962962963,878.3333333333334) translate(147.62345679012344 124.44444444444446)"/><use xlink:href="#H" transform="matrix(1,0,0,1,642.962962962963,878.3333333333334) translate(173.48765432098764 124.44444444444446)"/><use xlink:href="#x" transform="matrix(1,0,0,1,642.962962962963,878.3333333333334) translate(79.96913580246913 151.11111111111111)"/></g><g><use xlink:href="#J" transform="matrix(1,0,0,1,902.962962962963,878.3333333333334) translate(36.48765432098766 84.44444444444446)"/></g><g><use xlink:href="#z" transform="matrix(1,0,0,1,1008.962962962963,878.3333333333334) translate(25.604938271604937 84.44444444444446)"/></g><defs><path d="M30 0v-248h33v221h125V0H30" id="K"/><path d="M100-194c62-1 85 37 85 99 1 63-27 99-86 99S16-35 15-95c0-66 28-99 85-99zM99-20c44 1 53-31 53-75 0-43-8-75-51-75s-53 32-53 75 10 74 51 75" id="L"/><path d="M177-190C167-65 218 103 67 71c-23-6-38-20-44-43l32-5c15 47 100 32 89-28v-30C133-14 115 1 83 1 29 1 15-40 15-95c0-56 16-97 71-98 29-1 48 16 59 35 1-10 0-23 2-32h30zM94-22c36 0 50-32 50-73 0-42-14-75-50-75-39 0-46 34-46 75s6 73 46 73" id="M"/><path d="M24-231v-30h32v30H24zM24 0v-190h32V0H24" id="N"/><path d="M117-194c89-4 53 116 60 194h-32v-121c0-31-8-49-39-48C34-167 62-67 57 0H25l-1-190h30c1 10-1 24 2 32 11-22 29-35 61-36" id="O"/><g id="a"><use transform="matrix(0.06172839506172839,0,0,0.06172839506172839,0,0)" xlink:href="#K"/><use transform="matrix(0.06172839506172839,0,0,0.06172839506172839,12.345679012345679,0)" xlink:href="#L"/><use transform="matrix(0.06172839506172839,0,0,0.06172839506172839,24.691358024691358,0)" xlink:href="#M"/><use transform="matrix(0.06172839506172839,0,0,0.06172839506172839,37.03703703703704,0)" xlink:href="#N"/><use transform="matrix(0.06172839506172839,0,0,0.06172839506172839,41.91358024691358,0)" xlink:href="#O"/></g><path d="M30-248c87 1 191-15 191 75 0 78-77 80-158 76V0H30v-248zm33 125c57 0 124 11 124-50 0-59-68-47-124-48v98" id="P"/><path d="M141-36C126-15 110 5 73 4 37 3 15-17 15-53c-1-64 63-63 125-63 3-35-9-54-41-54-24 1-41 7-42 31l-33-3c5-37 33-52 76-52 45 0 72 20 72 64v82c-1 20 7 32 28 27v20c-31 9-61-2-59-35zM48-53c0 20 12 33 32 33 41-3 63-29 60-74-43 2-92-5-92 41" id="Q"/><path d="M100-194c63 0 86 42 84 106H49c0 40 14 67 53 68 26 1 43-12 49-29l28 8c-11 28-37 45-77 45C44 4 14-33 15-96c1-61 26-98 85-98zm52 81c6-60-76-77-97-28-3 7-6 17-6 28h103" id="R"/><g id="b"><use transform="matrix(0.06172839506172839,0,0,0.06172839506172839,0,0)" xlink:href="#P"/><use transform="matrix(0.06172839506172839,0,0,0.06172839506172839,14.814814814814813,0)" xlink:href="#Q"/><use transform="matrix(0.06172839506172839,0,0,0.06172839506172839,27.160493827160494,0)" xlink:href="#M"/><use transform="matrix(0.06172839506172839,0,0,0.06172839506172839,39.50617283950617,0)" xlink:href="#R"/></g><path d="M190 0L58-211 59 0H30v-248h39L202-35l-2-213h31V0h-41" id="S"/><path d="M210-169c-67 3-38 105-44 169h-31v-121c0-29-5-50-35-48C34-165 62-65 56 0H25l-1-190h30c1 10-1 24 2 32 10-44 99-50 107 0 11-21 27-35 58-36 85-2 47 119 55 194h-31v-121c0-29-5-49-35-48" id="T"/><g id="c"><use transform="matrix(0.06172839506172839,0,0,0.06172839506172839,0,0)" xlink:href="#S"/><use transform="matrix(0.06172839506172839,0,0,0.06172839506172839,15.987654320987653,0)" xlink:href="#Q"/><use transform="matrix(0.06172839506172839,0,0,0.06172839506172839,28.333333333333332,0)" xlink:href="#T"/><use transform="matrix(0.06172839506172839,0,0,0.06172839506172839,46.79012345679012,0)" xlink:href="#R"/></g><path d="M30-248c118-7 216 8 213 122C240-48 200 0 122 0H30v-248zM63-27c89 8 146-16 146-99s-60-101-146-95v194" id="U"/><path d="M135-143c-3-34-86-38-87 0 15 53 115 12 119 90S17 21 10-45l28-5c4 36 97 45 98 0-10-56-113-15-118-90-4-57 82-63 122-42 12 7 21 19 24 35" id="V"/><path d="M96-169c-40 0-48 33-48 73s9 75 48 75c24 0 41-14 43-38l32 2c-6 37-31 61-74 61-59 0-76-41-82-99-10-93 101-131 147-64 4 7 5 14 7 22l-32 3c-4-21-16-35-41-35" id="W"/><path d="M114-163C36-179 61-72 57 0H25l-1-190h30c1 12-1 29 2 39 6-27 23-49 58-41v29" id="X"/><path d="M115-194c55 1 70 41 70 98S169 2 115 4C84 4 66-9 55-30l1 105H24l-1-265h31l2 30c10-21 28-34 59-34zm-8 174c40 0 45-34 45-75s-6-73-45-74c-42 0-51 32-51 76 0 43 10 73 51 73" id="Y"/><path d="M59-47c-2 24 18 29 38 22v24C64 9 27 4 27-40v-127H5v-23h24l9-43h21v43h35v23H59v120" id="Z"/><g id="d"><use transform="matrix(0.06172839506172839,0,0,0.06172839506172839,0,0)" xlink:href="#U"/><use transform="matrix(0.06172839506172839,0,0,0.06172839506172839,15.987654320987653,0)" xlink:href="#R"/><use transform="matrix(0.06172839506172839,0,0,0.06172839506172839,28.333333333333332,0)" xlink:href="#V"/><use transform="matrix(0.06172839506172839,0,0,0.06172839506172839,39.44444444444444,0)" xlink:href="#W"/><use transform="matrix(0.06172839506172839,0,0,0.06172839506172839,50.55555555555556,0)" xlink:href="#X"/><use transform="matrix(0.06172839506172839,0,0,0.06172839506172839,57.901234567901234,0)" xlink:href="#N"/><use transform="matrix(0.06172839506172839,0,0,0.06172839506172839,62.77777777777778,0)" xlink:href="#Y"/><use transform="matrix(0.06172839506172839,0,0,0.06172839506172839,75.12345679012346,0)" xlink:href="#Z"/><use transform="matrix(0.06172839506172839,0,0,0.06172839506172839,81.29629629629629,0)" xlink:href="#N"/><use transform="matrix(0.06172839506172839,0,0,0.06172839506172839,86.17283950617283,0)" xlink:href="#L"/><use transform="matrix(0.06172839506172839,0,0,0.06172839506172839,98.51851851851852,0)" xlink:href="#O"/></g><path d="M212-179c-10-28-35-45-73-45-59 0-87 40-87 99 0 60 29 101 89 101 43 0 62-24 78-52l27 14C228-24 195 4 139 4 59 4 22-46 18-125c-6-104 99-153 187-111 19 9 31 26 39 46" id="aa"/><path d="M84 4C-5 8 30-112 23-190h32v120c0 31 7 50 39 49 72-2 45-101 50-169h31l1 190h-30c-1-10 1-25-2-33-11 22-28 36-60 37" id="ab"/><g id="e"><use transform="matrix(0.06172839506172839,0,0,0.06172839506172839,0,0)" xlink:href="#aa"/><use transform="matrix(0.06172839506172839,0,0,0.06172839506172839,15.987654320987653,0)" xlink:href="#L"/><use transform="matrix(0.06172839506172839,0,0,0.06172839506172839,28.333333333333332,0)" xlink:href="#ab"/><use transform="matrix(0.06172839506172839,0,0,0.06172839506172839,40.67901234567901,0)" xlink:href="#O"/><use transform="matrix(0.06172839506172839,0,0,0.06172839506172839,53.02469135802469,0)" xlink:href="#Z"/></g><path d="M252-156c43 0 55 33 55 80 0 46-13 78-56 78-42 0-55-33-55-78 0-48 12-80 56-80zM93 0H65l162-248h28zM13-171c-1-47 13-79 56-79s55 33 55 79-13 79-55 79c-43 0-56-33-56-79zM251-17c28 0 30-29 30-59 0-31-1-60-29-60-29 0-31 29-31 60 0 29 2 59 30 59zM69-112c27 0 28-30 29-59 0-31-1-60-29-60-29 0-30 30-30 60s2 59 30 59" id="ac"/><path d="M85-194c31 0 48 13 60 33l-1-100h32l1 261h-30c-2-10 0-23-3-31C134-8 116 4 85 4 32 4 16-35 15-94c0-66 23-100 70-100zm9 24c-40 0-46 34-46 75 0 40 6 74 45 74 42 0 51-32 51-76 0-42-9-74-50-73" id="ad"/><g id="f"><use transform="matrix(0.06172839506172839,0,0,0.06172839506172839,0,0)" xlink:href="#ac"/><use transform="matrix(0.06172839506172839,0,0,0.06172839506172839,19.753086419753085,0)" xlink:href="#P"/><use transform="matrix(0.06172839506172839,0,0,0.06172839506172839,34.5679012345679,0)" xlink:href="#Q"/><use transform="matrix(0.06172839506172839,0,0,0.06172839506172839,46.913580246913575,0)" xlink:href="#V"/><use transform="matrix(0.06172839506172839,0,0,0.06172839506172839,58.02469135802468,0)" xlink:href="#V"/><use transform="matrix(0.06172839506172839,0,0,0.06172839506172839,69.1358024691358,0)" xlink:href="#R"/><use transform="matrix(0.06172839506172839,0,0,0.06172839506172839,81.48148148148148,0)" xlink:href="#ad"/></g><path d="M0 4l72-265h28L28 4H0" id="ae"/><path d="M63-220v92h138v28H63V0H30v-248h175v28H63" id="af"/><g id="g"><use transform="matrix(0.06172839506172839,0,0,0.06172839506172839,0,0)" xlink:href="#P"/><use transform="matrix(0.06172839506172839,0,0,0.06172839506172839,14.814814814814813,0)" xlink:href="#ae"/><use transform="matrix(0.06172839506172839,0,0,0.06172839506172839,20.98765432098765,0)" xlink:href="#af"/></g><path d="M-5 72V49h209v23H-5" id="ag"/><g id="h"><use transform="matrix(0.06172839506172839,0,0,0.06172839506172839,0,0)" xlink:href="#Z"/><use transform="matrix(0.06172839506172839,0,0,0.06172839506172839,6.172839506172839,0)" xlink:href="#R"/><use transform="matrix(0.06172839506172839,0,0,0.06172839506172839,18.51851851851852,0)" xlink:href="#V"/><use transform="matrix(0.06172839506172839,0,0,0.06172839506172839,29.62962962962963,0)" xlink:href="#Z"/><use transform="matrix(0.06172839506172839,0,0,0.06172839506172839,35.80246913580247,0)" xlink:href="#ag"/><use transform="matrix(0.06172839506172839,0,0,0.06172839506172839,48.148148148148145,0)" xlink:href="#W"/><use transform="matrix(0.06172839506172839,0,0,0.06172839506172839,59.25925925925925,0)" xlink:href="#L"/><use transform="matrix(0.06172839506172839,0,0,0.06172839506172839,71.60493827160494,0)" xlink:href="#X"/><use transform="matrix(0.06172839506172839,0,0,0.06172839506172839,78.95061728395062,0)" xlink:href="#X"/><use transform="matrix(0.06172839506172839,0,0,0.06172839506172839,86.2962962962963,0)" xlink:href="#R"/><use transform="matrix(0.06172839506172839,0,0,0.06172839506172839,98.64197530864199,0)" xlink:href="#W"/><use transform="matrix(0.06172839506172839,0,0,0.06172839506172839,109.7530864197531,0)" xlink:href="#Z"/></g><g id="i"><use transform="matrix(0.06172839506172839,0,0,0.06172839506172839,0,0)" xlink:href="#Z"/><use transform="matrix(0.06172839506172839,0,0,0.06172839506172839,6.172839506172839,0)" xlink:href="#R"/><use transform="matrix(0.06172839506172839,0,0,0.06172839506172839,18.51851851851852,0)" xlink:href="#V"/><use transform="matrix(0.06172839506172839,0,0,0.06172839506172839,29.62962962962963,0)" xlink:href="#Z"/><use transform="matrix(0.06172839506172839,0,0,0.06172839506172839,35.80246913580247,0)" xlink:href="#V"/></g><path d="M106-169C34-169 62-67 57 0H25v-261h32l-1 103c12-21 28-36 61-36 89 0 53 116 60 194h-32v-121c2-32-8-49-39-48" id="ah"/><g id="j"><use transform="matrix(0.06172839506172839,0,0,0.06172839506172839,0,0)" xlink:href="#Z"/><use transform="matrix(0.06172839506172839,0,0,0.06172839506172839,6.172839506172839,0)" xlink:href="#ah"/><use transform="matrix(0.06172839506172839,0,0,0.06172839506172839,18.51851851851852,0)" xlink:href="#Q"/><use transform="matrix(0.06172839506172839,0,0,0.06172839506172839,30.864197530864196,0)" xlink:href="#Z"/></g><g id="k"><use transform="matrix(0.06172839506172839,0,0,0.06172839506172839,0,0)" xlink:href="#ab"/><use transform="matrix(0.06172839506172839,0,0,0.06172839506172839,12.345679012345679,0)" xlink:href="#V"/><use transform="matrix(0.06172839506172839,0,0,0.06172839506172839,23.45679012345679,0)" xlink:href="#N"/><use transform="matrix(0.06172839506172839,0,0,0.06172839506172839,28.333333333333336,0)" xlink:href="#O"/><use transform="matrix(0.06172839506172839,0,0,0.06172839506172839,40.67901234567901,0)" xlink:href="#M"/></g><g id="l"><use transform="matrix(0.06172839506172839,0,0,0.06172839506172839,0,0)" xlink:href="#Z"/><use transform="matrix(0.06172839506172839,0,0,0.06172839506172839,6.172839506172839,0)" xlink:href="#ah"/><use transform="matrix(0.06172839506172839,0,0,0.06172839506172839,18.51851851851852,0)" xlink:href="#R"/></g><g id="m"><use transform="matrix(0.06172839506172839,0,0,0.06172839506172839,0,0)" xlink:href="#W"/><use transform="matrix(0.06172839506172839,0,0,0.06172839506172839,11.11111111111111,0)" xlink:href="#L"/><use transform="matrix(0.06172839506172839,0,0,0.06172839506172839,23.45679012345679,0)" xlink:href="#X"/><use transform="matrix(0.06172839506172839,0,0,0.06172839506172839,30.80246913580247,0)" xlink:href="#X"/><use transform="matrix(0.06172839506172839,0,0,0.06172839506172839,38.148148148148145,0)" xlink:href="#R"/><use transform="matrix(0.06172839506172839,0,0,0.06172839506172839,50.49382716049382,0)" xlink:href="#W"/><use transform="matrix(0.06172839506172839,0,0,0.06172839506172839,61.60493827160494,0)" xlink:href="#Z"/></g><g id="n"><use transform="matrix(0.06172839506172839,0,0,0.06172839506172839,0,0)" xlink:href="#ab"/><use transform="matrix(0.06172839506172839,0,0,0.06172839506172839,12.345679012345679,0)" xlink:href="#V"/><use transform="matrix(0.06172839506172839,0,0,0.06172839506172839,23.45679012345679,0)" xlink:href="#R"/><use transform="matrix(0.06172839506172839,0,0,0.06172839506172839,35.80246913580247,0)" xlink:href="#X"/><use transform="matrix(0.06172839506172839,0,0,0.06172839506172839,43.148148148148145,0)" xlink:href="#O"/><use transform="matrix(0.06172839506172839,0,0,0.06172839506172839,55.49382716049382,0)" xlink:href="#Q"/><use transform="matrix(0.06172839506172839,0,0,0.06172839506172839,67.8395061728395,0)" xlink:href="#T"/><use transform="matrix(0.06172839506172839,0,0,0.06172839506172839,86.29629629629629,0)" xlink:href="#R"/></g><g id="o"><use transform="matrix(0.06172839506172839,0,0,0.06172839506172839,0,0)" xlink:href="#Q"/><use transform="matrix(0.06172839506172839,0,0,0.06172839506172839,12.345679012345679,0)" xlink:href="#O"/><use transform="matrix(0.06172839506172839,0,0,0.06172839506172839,24.691358024691358,0)" xlink:href="#ad"/></g><path d="M33 0v-248h34V0H33" id="ai"/><g id="p"><use transform="matrix(0.06172839506172839,0,0,0.06172839506172839,0,0)" xlink:href="#ai"/><use transform="matrix(0.06172839506172839,0,0,0.06172839506172839,6.172839506172839,0)" xlink:href="#U"/></g><g id="q"><use transform="matrix(0.06172839506172839,0,0,0.06172839506172839,0,0)" xlink:href="#ad"/><use transform="matrix(0.06172839506172839,0,0,0.06172839506172839,12.345679012345679,0)" xlink:href="#L"/><use transform="matrix(0.06172839506172839,0,0,0.06172839506172839,24.691358024691358,0)" xlink:href="#R"/><use transform="matrix(0.06172839506172839,0,0,0.06172839506172839,37.03703703703704,0)" xlink:href="#V"/></g><path d="M140-251c81 0 123 46 123 126C263-46 219 4 140 4 59 4 17-45 17-125s42-126 123-126zm0 227c63 0 89-41 89-101s-29-99-89-99c-61 0-89 39-89 99S79-25 140-24" id="aj"/><path d="M127-220V0H93v-220H8v-28h204v28h-85" id="ak"/><g id="r"><use transform="matrix(0.06172839506172839,0,0,0.06172839506172839,0,0)" xlink:href="#S"/><use transform="matrix(0.06172839506172839,0,0,0.06172839506172839,15.987654320987653,0)" xlink:href="#aj"/><use transform="matrix(0.06172839506172839,0,0,0.06172839506172839,33.2716049382716,0)" xlink:href="#ak"/></g><g id="s"><use transform="matrix(0.06172839506172839,0,0,0.06172839506172839,0,0)" xlink:href="#Z"/><use transform="matrix(0.06172839506172839,0,0,0.06172839506172839,6.172839506172839,0)" xlink:href="#X"/><use transform="matrix(0.06172839506172839,0,0,0.06172839506172839,13.518518518518519,0)" xlink:href="#N"/><use transform="matrix(0.06172839506172839,0,0,0.06172839506172839,18.395061728395063,0)" xlink:href="#M"/><use transform="matrix(0.06172839506172839,0,0,0.06172839506172839,30.74074074074074,0)" xlink:href="#M"/><use transform="matrix(0.06172839506172839,0,0,0.06172839506172839,43.08641975308642,0)" xlink:href="#R"/><use transform="matrix(0.06172839506172839,0,0,0.06172839506172839,55.432098765432094,0)" xlink:href="#X"/></g><path d="M109-170H84l-4-78h32zm-65 0H19l-4-78h33" id="al"/><g id="t"><use transform="matrix(0.06172839506172839,0,0,0.06172839506172839,0,0)" xlink:href="#al"/><use transform="matrix(0.06172839506172839,0,0,0.06172839506172839,7.8395061728395055,0)" xlink:href="#ai"/><use transform="matrix(0.06172839506172839,0,0,0.06172839506172839,14.012345679012345,0)" xlink:href="#O"/><use transform="matrix(0.06172839506172839,0,0,0.06172839506172839,26.358024691358025,0)" xlink:href="#W"/><use transform="matrix(0.06172839506172839,0,0,0.06172839506172839,37.46913580246914,0)" xlink:href="#L"/><use transform="matrix(0.06172839506172839,0,0,0.06172839506172839,49.81481481481482,0)" xlink:href="#X"/><use transform="matrix(0.06172839506172839,0,0,0.06172839506172839,57.160493827160494,0)" xlink:href="#X"/><use transform="matrix(0.06172839506172839,0,0,0.06172839506172839,64.50617283950618,0)" xlink:href="#R"/><use transform="matrix(0.06172839506172839,0,0,0.06172839506172839,76.85185185185186,0)" xlink:href="#W"/><use transform="matrix(0.06172839506172839,0,0,0.06172839506172839,87.96296296296298,0)" xlink:href="#Z"/></g><path d="M206 0h-36l-40-164L89 0H53L-1-190h32L70-26l43-164h34l41 164 42-164h31" id="am"/><g id="u"><use transform="matrix(0.06172839506172839,0,0,0.06172839506172839,0,0)" xlink:href="#Y"/><use transform="matrix(0.06172839506172839,0,0,0.06172839506172839,12.345679012345679,0)" xlink:href="#Q"/><use transform="matrix(0.06172839506172839,0,0,0.06172839506172839,24.691358024691358,0)" xlink:href="#V"/><use transform="matrix(0.06172839506172839,0,0,0.06172839506172839,35.80246913580247,0)" xlink:href="#V"/><use transform="matrix(0.06172839506172839,0,0,0.06172839506172839,46.91358024691358,0)" xlink:href="#am"/><use transform="matrix(0.06172839506172839,0,0,0.06172839506172839,62.901234567901234,0)" xlink:href="#L"/><use transform="matrix(0.06172839506172839,0,0,0.06172839506172839,75.24691358024691,0)" xlink:href="#X"/><use transform="matrix(0.06172839506172839,0,0,0.06172839506172839,82.5925925925926,0)" xlink:href="#ad"/></g><g id="v"><use transform="matrix(0.06172839506172839,0,0,0.06172839506172839,0,0)" xlink:href="#L"/><use transform="matrix(0.06172839506172839,0,0,0.06172839506172839,12.345679012345679,0)" xlink:href="#X"/></g><g id="w"><use transform="matrix(0.06172839506172839,0,0,0.06172839506172839,0,0)" xlink:href="#ai"/><use transform="matrix(0.06172839506172839,0,0,0.06172839506172839,6.172839506172839,0)" xlink:href="#U"/><use transform="matrix(0.06172839506172839,0,0,0.06172839506172839,22.160493827160494,0)" xlink:href="#al"/></g><g id="x"><use transform="matrix(0.06172839506172839,0,0,0.06172839506172839,0,0)" xlink:href="#T"/><use transform="matrix(0.06172839506172839,0,0,0.06172839506172839,18.456790123456788,0)" xlink:href="#R"/><use transform="matrix(0.06172839506172839,0,0,0.06172839506172839,30.80246913580247,0)" xlink:href="#V"/><use transform="matrix(0.06172839506172839,0,0,0.06172839506172839,41.91358024691358,0)" xlink:href="#V"/><use transform="matrix(0.06172839506172839,0,0,0.06172839506172839,53.0246913580247,0)" xlink:href="#Q"/><use transform="matrix(0.06172839506172839,0,0,0.06172839506172839,65.37037037037038,0)" xlink:href="#M"/><use transform="matrix(0.06172839506172839,0,0,0.06172839506172839,77.71604938271606,0)" xlink:href="#R"/></g><path d="M134-131c28 9 52 24 51 62-1 50-34 73-85 73S17-19 16-69c0-36 21-54 49-61-75-25-45-126 34-121 46 3 78 18 79 63 0 33-17 51-44 57zm-34-11c31 1 46-15 46-44 0-28-17-43-47-42-29 0-46 13-45 42 1 28 16 44 46 44zm1 122c35 0 51-18 51-52 0-30-18-46-53-46-33 0-51 17-51 47 0 34 19 51 53 51" id="an"/><use transform="matrix(0.06172839506172839,0,0,0.06172839506172839,0,0)" xlink:href="#an" id="y"/><path d="M27 0v-27h64v-190l-56 39v-29l58-41h29v221h61V0H27" id="ao"/><path d="M101-251c68 0 85 55 85 127S166 4 100 4C33 4 14-52 14-124c0-73 17-127 87-127zm-1 229c47 0 54-49 54-102s-4-102-53-102c-51 0-55 48-55 102 0 53 5 102 54 102" id="ap"/><g id="z"><use transform="matrix(0.06172839506172839,0,0,0.06172839506172839,0,0)" xlink:href="#ao"/><use transform="matrix(0.06172839506172839,0,0,0.06172839506172839,12.345679012345679,0)" xlink:href="#ap"/><use transform="matrix(0.06172839506172839,0,0,0.06172839506172839,24.691358024691358,0)" xlink:href="#ap"/><use transform="matrix(0.06172839506172839,0,0,0.06172839506172839,37.03703703703704,0)" xlink:href="#ac"/></g><g id="A"><use transform="matrix(0.06172839506172839,0,0,0.06172839506172839,0,0)" xlink:href="#Z"/><use transform="matrix(0.06172839506172839,0,0,0.06172839506172839,6.172839506172839,0)" xlink:href="#R"/><use transform="matrix(0.06172839506172839,0,0,0.06172839506172839,18.51851851851852,0)" xlink:href="#V"/><use transform="matrix(0.06172839506172839,0,0,0.06172839506172839,29.62962962962963,0)" xlink:href="#Z"/><use transform="matrix(0.06172839506172839,0,0,0.06172839506172839,35.80246913580247,0)" xlink:href="#ag"/><use transform="matrix(0.06172839506172839,0,0,0.06172839506172839,48.148148148148145,0)" xlink:href="#N"/><use transform="matrix(0.06172839506172839,0,0,0.06172839506172839,53.02469135802469,0)" xlink:href="#O"/><use transform="matrix(0.06172839506172839,0,0,0.06172839506172839,65.37037037037037,0)" xlink:href="#W"/><use transform="matrix(0.06172839506172839,0,0,0.06172839506172839,76.48148148148148,0)" xlink:href="#L"/><use transform="matrix(0.06172839506172839,0,0,0.06172839506172839,88.82716049382717,0)" xlink:href="#X"/><use transform="matrix(0.06172839506172839,0,0,0.06172839506172839,96.17283950617285,0)" xlink:href="#X"/><use transform="matrix(0.06172839506172839,0,0,0.06172839506172839,103.51851851851853,0)" xlink:href="#R"/><use transform="matrix(0.06172839506172839,0,0,0.06172839506172839,115.86419753086422,0)" xlink:href="#W"/><use transform="matrix(0.06172839506172839,0,0,0.06172839506172839,126.97530864197533,0)" xlink:href="#Z"/></g><g id="B"><use transform="matrix(0.06172839506172839,0,0,0.06172839506172839,0,0)" xlink:href="#N"/><use transform="matrix(0.06172839506172839,0,0,0.06172839506172839,4.876543209876543,0)" xlink:href="#O"/><use transform="matrix(0.06172839506172839,0,0,0.06172839506172839,17.22222222222222,0)" xlink:href="#W"/><use transform="matrix(0.06172839506172839,0,0,0.06172839506172839,28.333333333333332,0)" xlink:href="#L"/><use transform="matrix(0.06172839506172839,0,0,0.06172839506172839,40.67901234567901,0)" xlink:href="#X"/><use transform="matrix(0.06172839506172839,0,0,0.06172839506172839,48.02469135802469,0)" xlink:href="#X"/><use transform="matrix(0.06172839506172839,0,0,0.06172839506172839,55.37037037037037,0)" xlink:href="#R"/><use transform="matrix(0.06172839506172839,0,0,0.06172839506172839,67.71604938271605,0)" xlink:href="#W"/><use transform="matrix(0.06172839506172839,0,0,0.06172839506172839,78.82716049382717,0)" xlink:href="#Z"/></g><path d="M115-194c53 0 69 39 70 98 0 66-23 100-70 100C84 3 66-7 56-30L54 0H23l1-261h32v101c10-23 28-34 59-34zm-8 174c40 0 45-34 45-75 0-40-5-75-45-74-42 0-51 32-51 76 0 43 10 73 51 73" id="aq"/><g id="C"><use transform="matrix(0.06172839506172839,0,0,0.06172839506172839,0,0)" xlink:href="#aq"/><use transform="matrix(0.06172839506172839,0,0,0.06172839506172839,12.345679012345679,0)" xlink:href="#ab"/><use transform="matrix(0.06172839506172839,0,0,0.06172839506172839,24.691358024691358,0)" xlink:href="#Z"/></g><g id="D"><use transform="matrix(0.06172839506172839,0,0,0.06172839506172839,0,0)" xlink:href="#ad"/><use transform="matrix(0.06172839506172839,0,0,0.06172839506172839,12.345679012345679,0)" xlink:href="#L"/><use transform="matrix(0.06172839506172839,0,0,0.06172839506172839,24.691358024691358,0)" xlink:href="#R"/><use transform="matrix(0.06172839506172839,0,0,0.06172839506172839,37.03703703703704,0)" xlink:href="#V"/></g><g id="E"><use transform="matrix(0.06172839506172839,0,0,0.06172839506172839,0,0)" xlink:href="#Z"/><use transform="matrix(0.06172839506172839,0,0,0.06172839506172839,6.172839506172839,0)" xlink:href="#ah"/><use transform="matrix(0.06172839506172839,0,0,0.06172839506172839,18.51851851851852,0)" xlink:href="#R"/></g><g id="F"><use transform="matrix(0.06172839506172839,0,0,0.06172839506172839,0,0)" xlink:href="#al"/><use transform="matrix(0.06172839506172839,0,0,0.06172839506172839,7.8395061728395055,0)" xlink:href="#ai"/><use transform="matrix(0.06172839506172839,0,0,0.06172839506172839,14.012345679012345,0)" xlink:href="#O"/><use transform="matrix(0.06172839506172839,0,0,0.06172839506172839,26.358024691358025,0)" xlink:href="#W"/><use transform="matrix(0.06172839506172839,0,0,0.06172839506172839,37.46913580246914,0)" xlink:href="#L"/><use transform="matrix(0.06172839506172839,0,0,0.06172839506172839,49.81481481481482,0)" xlink:href="#X"/><use transform="matrix(0.06172839506172839,0,0,0.06172839506172839,57.160493827160494,0)" xlink:href="#X"/><use transform="matrix(0.06172839506172839,0,0,0.06172839506172839,64.50617283950618,0)" xlink:href="#R"/><use transform="matrix(0.06172839506172839,0,0,0.06172839506172839,76.85185185185186,0)" xlink:href="#W"/><use transform="matrix(0.06172839506172839,0,0,0.06172839506172839,87.96296296296298,0)" xlink:href="#Z"/></g><g id="G"><use transform="matrix(0.06172839506172839,0,0,0.06172839506172839,0,0)" xlink:href="#L"/><use transform="matrix(0.06172839506172839,0,0,0.06172839506172839,12.345679012345679,0)" xlink:href="#X"/></g><g id="H"><use transform="matrix(0.06172839506172839,0,0,0.06172839506172839,0,0)" xlink:href="#ai"/><use transform="matrix(0.06172839506172839,0,0,0.06172839506172839,6.172839506172839,0)" xlink:href="#U"/><use transform="matrix(0.06172839506172839,0,0,0.06172839506172839,22.160493827160494,0)" xlink:href="#al"/></g><g id="I"><use transform="matrix(0.06172839506172839,0,0,0.06172839506172839,0,0)" xlink:href="#Z"/><use transform="matrix(0.06172839506172839,0,0,0.06172839506172839,6.172839506172839,0)" xlink:href="#R"/><use transform="matrix(0.06172839506172839,0,0,0.06172839506172839,18.51851851851852,0)" xlink:href="#V"/><use transform="matrix(0.06172839506172839,0,0,0.06172839506172839,29.62962962962963,0)" xlink:href="#Z"/><use transform="matrix(0.06172839506172839,0,0,0.06172839506172839,35.80246913580247,0)" xlink:href="#ag"/><use transform="matrix(0.06172839506172839,0,0,0.06172839506172839,48.148148148148145,0)" xlink:href="#N"/><use transform="matrix(0.06172839506172839,0,0,0.06172839506172839,53.02469135802469,0)" xlink:href="#O"/><use transform="matrix(0.06172839506172839,0,0,0.06172839506172839,65.37037037037037,0)" xlink:href="#W"/><use transform="matrix(0.06172839506172839,0,0,0.06172839506172839,76.48148148148148,0)" xlink:href="#L"/><use transform="matrix(0.06172839506172839,0,0,0.06172839506172839,88.82716049382717,0)" xlink:href="#X"/><use transform="matrix(0.06172839506172839,0,0,0.06172839506172839,96.17283950617285,0)" xlink:href="#X"/><use transform="matrix(0.06172839506172839,0,0,0.06172839506172839,103.51851851851853,0)" xlink:href="#R"/><use transform="matrix(0.06172839506172839,0,0,0.06172839506172839,115.86419753086422,0)" xlink:href="#W"/><use transform="matrix(0.06172839506172839,0,0,0.06172839506172839,126.97530864197533,0)" xlink:href="#Z"/><use transform="matrix(0.06172839506172839,0,0,0.06172839506172839,133.14814814814818,0)" xlink:href="#P"/></g><g id="J"><use transform="matrix(0.06172839506172839,0,0,0.06172839506172839,0,0)" xlink:href="#ao"/><use transform="matrix(0.06172839506172839,0,0,0.06172839506172839,10.679012345679013,0)" xlink:href="#ao"/></g></defs></g></svg>