<svg xmlns="http://www.w3.org/2000/svg" xmlns:xlink="http://www.w3.org/1999/xlink" xmlns:lucid="lucid" width="2360" height="440"><g transform="translate(-140 -60)" lucid:page-tab-id="0_0"><path d="M0 0h3456v1360H0z" fill="#fff"/><path d="M160 166c0-3.3 2.7-6 6-6h508c3.3 0 6 2.7 6 6v308c0 3.3-2.7 6-6 6H166c-3.3 0-6-2.7-6-6z" stroke="#5e5e5e" stroke-width="3" fill="#fff"/><use xlink:href="#a" transform="matrix(1,0,0,1,172,172) translate(0 17.77777777777778)"/><use xlink:href="#b" transform="matrix(1,0,0,1,172,172) translate(0 44.44444444444444)"/><use xlink:href="#c" transform="matrix(1,0,0,1,172,172) translate(0 71.11111111111111)"/><use xlink:href="#b" transform="matrix(1,0,0,1,172,172) translate(0 97.77777777777777)"/><use xlink:href="#d" transform="matrix(1,0,0,1,172,172) translate(0 124.44444444444446)"/><path d="M160 86c0-3.3 2.7-6 6-6h508c3.3 0 6 2.7 6 6v68c0 3.3-2.7 6-6 6H166c-3.3 0-6-2.7-6-6z" stroke="#5e5e5e" stroke-width="3" fill="#a3d977"/><use xlink:href="#e" transform="matrix(1,0,0,1,172,92) translate(194.9753086419753 31.77777777777778)"/><use xlink:href="#f" transform="matrix(1,0,0,1,172,92) translate(249.23456790123456 31.77777777777778)"/><path d="M760 86c0-3.3 2.7-6 6-6h508c3.3 0 6 2.7 6 6v68c0 3.3-2.7 6-6 6H766c-3.3 0-6-2.7-6-6z" stroke="#5e5e5e" stroke-width="3" fill="#ffeca9"/><use xlink:href="#g" transform="matrix(1,0,0,1,772,92) translate(184.48148148148147 31.77777777777778)"/><use xlink:href="#f" transform="matrix(1,0,0,1,772,92) translate(259.7283950617284 31.77777777777778)"/><path d="M1360 86c0-3.3 2.7-6 6-6h508c3.3 0 6 2.7 6 6v68c0 3.3-2.7 6-6 6h-508c-3.3 0-6-2.7-6-6z" stroke="#5e5e5e" stroke-width="3" fill="#ffc374"/><use xlink:href="#h" transform="matrix(1,0,0,1,1372,92) translate(190.0679012345679 31.77777777777778)"/><use xlink:href="#f" transform="matrix(1,0,0,1,1372,92) translate(254.14197530864197 31.77777777777778)"/><path d="M1960 86c0-3.3 2.7-6 6-6h508c3.3 0 6 2.7 6 6v68c0 3.3-2.7 6-6 6h-508c-3.3 0-6-2.7-6-6z" stroke="#5e5e5e" stroke-width="3" fill="#ff8f80"/><use xlink:href="#i" transform="matrix(1,0,0,1,1972,92) translate(191.24074074074073 31.77777777777778)"/><use xlink:href="#f" transform="matrix(1,0,0,1,1972,92) translate(252.96913580246914 31.77777777777778)"/><path d="M760 166c0-3.3 2.7-6 6-6h508c3.3 0 6 2.7 6 6v308c0 3.3-2.7 6-6 6H766c-3.3 0-6-2.7-6-6z" stroke="#5e5e5e" stroke-width="3" fill="#fff"/><use xlink:href="#a" transform="matrix(1,0,0,1,772,172) translate(0 17.77777777777778)"/><use xlink:href="#b" transform="matrix(1,0,0,1,772,172) translate(0 44.44444444444444)"/><use xlink:href="#c" transform="matrix(1,0,0,1,772,172) translate(0 71.11111111111111)"/><use xlink:href="#b" transform="matrix(1,0,0,1,772,172) translate(0 97.77777777777777)"/><use xlink:href="#d" transform="matrix(1,0,0,1,772,172) translate(0 124.44444444444446)"/><path d="M1360 166c0-3.3 2.7-6 6-6h508c3.3 0 6 2.7 6 6v308c0 3.3-2.7 6-6 6h-508c-3.3 0-6-2.7-6-6z" stroke="#5e5e5e" stroke-width="3" fill="#fff"/><use xlink:href="#a" transform="matrix(1,0,0,1,1372,172) translate(0 17.77777777777778)"/><use xlink:href="#b" transform="matrix(1,0,0,1,1372,172) translate(0 44.44444444444444)"/><use xlink:href="#c" transform="matrix(1,0,0,1,1372,172) translate(0 71.11111111111111)"/><use xlink:href="#b" transform="matrix(1,0,0,1,1372,172) translate(0 97.77777777777777)"/><use xlink:href="#d" transform="matrix(1,0,0,1,1372,172) translate(0 124.44444444444446)"/><path d="M1960 166c0-3.3 2.7-6 6-6h508c3.3 0 6 2.7 6 6v308c0 3.3-2.7 6-6 6h-508c-3.3 0-6-2.7-6-6z" stroke="#5e5e5e" stroke-width="3" fill="#fff"/><g><use xlink:href="#a" transform="matrix(1,0,0,1,1972,172) translate(0 17.77777777777778)"/><use xlink:href="#b" transform="matrix(1,0,0,1,1972,172) translate(0 44.44444444444444)"/><use xlink:href="#c" transform="matrix(1,0,0,1,1972,172) translate(0 71.11111111111111)"/><use xlink:href="#b" transform="matrix(1,0,0,1,1972,172) translate(0 97.77777777777777)"/><use xlink:href="#d" transform="matrix(1,0,0,1,1972,172) translate(0 124.44444444444446)"/></g><path d="M682.5 320H740" stroke="#5e5e5e" stroke-width="2" fill="none"/><path d="M682.53 321h-1.03v-2h1.03" fill="#5e5e5e"/><path d="M755.26 320L741 324.64v-9.28z" stroke="#5e5e5e" stroke-width="2" fill="#5e5e5e"/><path d="M1282.5 320h57.5" stroke="#5e5e5e" stroke-width="2" fill="none"/><path d="M1282.53 321h-1.03v-2h1.03" fill="#5e5e5e"/><path d="M1355.26 320l-14.26 4.64v-9.28z" stroke="#5e5e5e" stroke-width="2" fill="#5e5e5e"/><path d="M1882.5 320h57.5" stroke="#5e5e5e" stroke-width="2" fill="none"/><path d="M1882.53 321h-1.03v-2h1.03" fill="#5e5e5e"/><path d="M1955.26 320l-14.26 4.64v-9.28z" stroke="#5e5e5e" stroke-width="2" fill="#5e5e5e"/><defs><path fill="#333" d="M27 0v-27h64v-190l-56 39v-29l58-41h29v221h61V0H27" id="j"/><path fill="#333" d="M33-261c38 41 65 92 65 168S71 34 33 75H2C39 34 66-17 66-93S39-220 2-261h31" id="k"/><g id="a"><use transform="matrix(0.06172839506172839,0,0,0.06172839506172839,0,0)" xlink:href="#j"/><use transform="matrix(0.06172839506172839,0,0,0.06172839506172839,12.345679012345679,0)" xlink:href="#k"/></g><path fill="#333" d="M101-251c82-7 93 87 43 132L82-64C71-53 59-42 53-27h129V0H18c2-99 128-94 128-182 0-28-16-43-45-43s-46 15-49 41l-32-3c6-41 34-60 81-64" id="l"/><g id="c"><use transform="matrix(0.06172839506172839,0,0,0.06172839506172839,0,0)" xlink:href="#l"/><use transform="matrix(0.06172839506172839,0,0,0.06172839506172839,12.345679012345679,0)" xlink:href="#k"/></g><path fill="#333" d="M126-127c33 6 58 20 58 59 0 88-139 92-164 29-3-8-5-16-6-25l32-3c6 27 21 44 54 44 32 0 52-15 52-46 0-38-36-46-79-43v-28c39 1 72-4 72-42 0-27-17-43-46-43-28 0-47 15-49 41l-32-3c6-42 35-63 81-64 48-1 79 21 79 65 0 36-21 52-52 59" id="m"/><g id="d"><use transform="matrix(0.06172839506172839,0,0,0.06172839506172839,0,0)" xlink:href="#m"/><use transform="matrix(0.06172839506172839,0,0,0.06172839506172839,12.345679012345679,0)" xlink:href="#k"/></g><path fill="#333" d="M240 0l2-218c-23 76-54 145-80 218h-23L58-218 59 0H30v-248h44l77 211c21-75 51-140 76-211h43V0h-30" id="n"/><path fill="#333" d="M84 4C-5 8 30-112 23-190h32v120c0 31 7 50 39 49 72-2 45-101 50-169h31l1 190h-30c-1-10 1-25-2-33-11 22-28 36-60 37" id="o"/><path fill="#333" d="M135-143c-3-34-86-38-87 0 15 53 115 12 119 90S17 21 10-45l28-5c4 36 97 45 98 0-10-56-113-15-118-90-4-57 82-63 122-42 12 7 21 19 24 35" id="p"/><path fill="#333" d="M59-47c-2 24 18 29 38 22v24C64 9 27 4 27-40v-127H5v-23h24l9-43h21v43h35v23H59v120" id="q"/><g id="e"><use transform="matrix(0.06172839506172839,0,0,0.06172839506172839,0,0)" xlink:href="#n"/><use transform="matrix(0.06172839506172839,0,0,0.06172839506172839,18.456790123456788,0)" xlink:href="#o"/><use transform="matrix(0.06172839506172839,0,0,0.06172839506172839,30.80246913580247,0)" xlink:href="#p"/><use transform="matrix(0.06172839506172839,0,0,0.06172839506172839,41.91358024691358,0)" xlink:href="#q"/></g><path fill="#333" d="M197 0v-115H63V0H30v-248h33v105h134v-105h34V0h-34" id="r"/><path fill="#333" d="M141-36C126-15 110 5 73 4 37 3 15-17 15-53c-1-64 63-63 125-63 3-35-9-54-41-54-24 1-41 7-42 31l-33-3c5-37 33-52 76-52 45 0 72 20 72 64v82c-1 20 7 32 28 27v20c-31 9-61-2-59-35zM48-53c0 20 12 33 32 33 41-3 63-29 60-74-43 2-92-5-92 41" id="s"/><path fill="#333" d="M108 0H70L1-190h34L89-25l56-165h34" id="t"/><path fill="#333" d="M100-194c63 0 86 42 84 106H49c0 40 14 67 53 68 26 1 43-12 49-29l28 8c-11 28-37 45-77 45C44 4 14-33 15-96c1-61 26-98 85-98zm52 81c6-60-76-77-97-28-3 7-6 17-6 28h103" id="u"/><g id="f"><use transform="matrix(0.06172839506172839,0,0,0.06172839506172839,0,0)" xlink:href="#r"/><use transform="matrix(0.06172839506172839,0,0,0.06172839506172839,15.987654320987653,0)" xlink:href="#s"/><use transform="matrix(0.06172839506172839,0,0,0.06172839506172839,28.333333333333332,0)" xlink:href="#t"/><use transform="matrix(0.06172839506172839,0,0,0.06172839506172839,39.44444444444444,0)" xlink:href="#u"/></g><path fill="#333" d="M185-189c-5-48-123-54-124 2 14 75 158 14 163 119 3 78-121 87-175 55-17-10-28-26-33-46l33-7c5 56 141 63 141-1 0-78-155-14-162-118-5-82 145-84 179-34 5 7 8 16 11 25" id="v"/><path fill="#333" d="M106-169C34-169 62-67 57 0H25v-261h32l-1 103c12-21 28-36 61-36 89 0 53 116 60 194h-32v-121c2-32-8-49-39-48" id="w"/><path fill="#333" d="M100-194c62-1 85 37 85 99 1 63-27 99-86 99S16-35 15-95c0-66 28-99 85-99zM99-20c44 1 53-31 53-75 0-43-8-75-51-75s-53 32-53 75 10 74 51 75" id="x"/><path fill="#333" d="M24 0v-261h32V0H24" id="y"/><path fill="#333" d="M85-194c31 0 48 13 60 33l-1-100h32l1 261h-30c-2-10 0-23-3-31C134-8 116 4 85 4 32 4 16-35 15-94c0-66 23-100 70-100zm9 24c-40 0-46 34-46 75 0 40 6 74 45 74 42 0 51-32 51-76 0-42-9-74-50-73" id="z"/><g id="g"><use transform="matrix(0.06172839506172839,0,0,0.06172839506172839,0,0)" xlink:href="#v"/><use transform="matrix(0.06172839506172839,0,0,0.06172839506172839,14.814814814814813,0)" xlink:href="#w"/><use transform="matrix(0.06172839506172839,0,0,0.06172839506172839,27.160493827160494,0)" xlink:href="#x"/><use transform="matrix(0.06172839506172839,0,0,0.06172839506172839,39.50617283950617,0)" xlink:href="#o"/><use transform="matrix(0.06172839506172839,0,0,0.06172839506172839,51.85185185185185,0)" xlink:href="#y"/><use transform="matrix(0.06172839506172839,0,0,0.06172839506172839,56.72839506172839,0)" xlink:href="#z"/></g><path fill="#333" d="M212-179c-10-28-35-45-73-45-59 0-87 40-87 99 0 60 29 101 89 101 43 0 62-24 78-52l27 14C228-24 195 4 139 4 59 4 22-46 18-125c-6-104 99-153 187-111 19 9 31 26 39 46" id="A"/><g id="h"><use transform="matrix(0.06172839506172839,0,0,0.06172839506172839,0,0)" xlink:href="#A"/><use transform="matrix(0.06172839506172839,0,0,0.06172839506172839,15.987654320987653,0)" xlink:href="#x"/><use transform="matrix(0.06172839506172839,0,0,0.06172839506172839,28.333333333333332,0)" xlink:href="#o"/><use transform="matrix(0.06172839506172839,0,0,0.06172839506172839,40.67901234567901,0)" xlink:href="#y"/><use transform="matrix(0.06172839506172839,0,0,0.06172839506172839,45.55555555555556,0)" xlink:href="#z"/></g><path fill="#333" d="M266 0h-40l-56-210L115 0H75L2-248h35L96-30l15-64 43-154h32l59 218 59-218h35" id="B"/><path fill="#333" d="M117-194c89-4 53 116 60 194h-32v-121c0-31-8-49-39-48C34-167 62-67 57 0H25l-1-190h30c1 10-1 24 2 32 11-22 29-35 61-36" id="C"/><path fill="#333" d="M47-170H22l-4-78h33" id="D"/><g id="i"><use transform="matrix(0.06172839506172839,0,0,0.06172839506172839,0,0)" xlink:href="#B"/><use transform="matrix(0.06172839506172839,0,0,0.06172839506172839,20.493827160493826,0)" xlink:href="#x"/><use transform="matrix(0.06172839506172839,0,0,0.06172839506172839,32.839506172839506,0)" xlink:href="#C"/><use transform="matrix(0.06172839506172839,0,0,0.06172839506172839,45.18518518518518,0)" xlink:href="#D"/><use transform="matrix(0.06172839506172839,0,0,0.06172839506172839,49.382716049382715,0)" xlink:href="#q"/></g></defs></g></svg>