<svg xmlns="http://www.w3.org/2000/svg" xmlns:xlink="http://www.w3.org/1999/xlink" xmlns:lucid="lucid" width="3280" height="352.5"><g transform="translate(-20 -39.00000000000001)" lucid:page-tab-id="0_0"><path d="M0 0h3456v1360H0z" fill="#fff"/><path d="M136 130c13.25 0 24 13.43 24 30s-10.75 30-24 30H64c-13.25 0-24-13.43-24-30s10.75-30 24-30z" stroke="#5e5e5e" stroke-width="3" fill="#0c7cba"/><use xlink:href="#a" transform="matrix(1,0,0,1,45,135) translate(31.574074074074076 30.27777777777778)"/><path d="M240 66c0-3.3 2.7-6 6-6h428c3.3 0 6 2.7 6 6v68c0 3.3-2.7 6-6 6H246c-3.3 0-6-2.7-6-6z" stroke="#5e5e5e" fill="#b2d6ef"/><use xlink:href="#b" transform="matrix(1,0,0,1,252.00000000000003,72) translate(76.73456790123456 31.77777777777778)"/><use xlink:href="#c" transform="matrix(1,0,0,1,252.00000000000003,72) translate(220.93209876543207 31.77777777777778)"/><path d="M240 186c0-3.3 2.7-6 6-6h148c3.3 0 6 2.7 6 6v28c0 3.3-2.7 6-6 6H246c-3.3 0-6-2.7-6-6z" stroke="#5e5e5e" fill="#fff"/><use xlink:href="#d" transform="matrix(1,0,0,1,251.99999999999977,192) translate(23.24691358024691 17.77777777777778)"/><use xlink:href="#e" transform="matrix(1,0,0,1,251.99999999999977,192) translate(72.1358024691358 17.77777777777778)"/><path d="M240 226c0-3.3 2.7-6 6-6h148c3.3 0 6 2.7 6 6v48c0 3.3-2.7 6-6 6H246c-3.3 0-6-2.7-6-6z" stroke="#5e5e5e" fill="#fff"/><use xlink:href="#f" transform="matrix(1,0,0,1,251.99999999999986,232) translate(15.623456790123456 22.27777777777778)"/><use xlink:href="#g" transform="matrix(1,0,0,1,251.99999999999986,232) translate(67.41358024691357 22.27777777777778)"/><path d="M240 286c0-3.3 2.7-6 6-6h148c3.3 0 6 2.7 6 6v68c0 3.3-2.7 6-6 6H246c-3.3 0-6-2.7-6-6z" stroke="#5e5e5e" fill="#fff"/><use xlink:href="#h" transform="matrix(1,0,0,1,252.00000000000003,292) translate(41.51851851851852 31.77777777777778)"/><path d="M400 186c0-3.3 2.7-6 6-6h268c3.3 0 6 2.7 6 6v28c0 3.3-2.7 6-6 6H406c-3.3 0-6-2.7-6-6zM400 226c0-3.3 2.7-6 6-6h268c3.3 0 6 2.7 6 6v128c0 3.3-2.7 6-6 6H406c-3.3 0-6-2.7-6-6z" stroke="#5e5e5e" fill="#fff"/><use xlink:href="#i" transform="matrix(1,0,0,1,411.99999999999966,232) translate(0 17.77777777777778)"/><path d="M760 66c0-3.3 2.7-6 6-6h428c3.3 0 6 2.7 6 6v68c0 3.3-2.7 6-6 6H766c-3.3 0-6-2.7-6-6z" stroke="#5e5e5e" fill="#b2d6ef"/><use xlink:href="#j" transform="matrix(1,0,0,1,772,72) translate(118.03086419753086 31.77777777777778)"/><use xlink:href="#k" transform="matrix(1,0,0,1,772,72) translate(169.75925925925924 31.77777777777778)"/><use xlink:href="#l" transform="matrix(1,0,0,1,772,72) translate(228.95679012345678 31.77777777777778)"/><path d="M1201.5 159.5h38.25c.14 0 .25.1.25.25 0 .14.1.25.25.25H1261" stroke="#5e5e5e" stroke-width="2" fill="none"/><path d="M1201.53 160.5h-1.03v-2h1.03" fill="#5e5e5e"/><path d="M1276.26 160l-14.26 4.64v-9.28z" stroke="#5e5e5e" stroke-width="2" fill="#5e5e5e"/><path d="M1280 66c0-3.3 2.7-6 6-6h428c3.3 0 6 2.7 6 6v68c0 3.3-2.7 6-6 6h-428c-3.3 0-6-2.7-6-6z" stroke="#5e5e5e" fill="#b2d6ef"/><use xlink:href="#m" transform="matrix(1,0,0,1,1292,72) translate(120.46913580246914 31.77777777777778)"/><use xlink:href="#k" transform="matrix(1,0,0,1,1292,72) translate(167.320987654321 31.77777777777778)"/><use xlink:href="#l" transform="matrix(1,0,0,1,1292,72) translate(226.51851851851853 31.77777777777778)"/><path d="M1800 66c0-3.3 2.7-6 6-6h428c3.3 0 6 2.7 6 6v68c0 3.3-2.7 6-6 6h-428c-3.3 0-6-2.7-6-6z" stroke="#5e5e5e" fill="#b2d6ef"/><use xlink:href="#n" transform="matrix(1,0,0,1,1812,72) translate(142.6604938271605 31.77777777777778)"/><path d="M1721.5 160h59.5" stroke="#5e5e5e" stroke-width="2" fill="none"/><path d="M1721.53 161h-1.03v-2h1.03" fill="#5e5e5e"/><path d="M1796.26 160l-14.26 4.64v-9.28z" stroke="#5e5e5e" stroke-width="2" fill="#5e5e5e"/><path d="M240 146c0-3.3 2.7-6 6-6h148c3.3 0 6 2.7 6 6v28c0 3.3-2.7 6-6 6H246c-3.3 0-6-2.7-6-6z" stroke="#5e5e5e" fill="#fff"/><use xlink:href="#o" transform="matrix(1,0,0,1,251.99999999999977,152) translate(5.160493827160501 17.77777777777778)"/><use xlink:href="#p" transform="matrix(1,0,0,1,251.99999999999977,152) translate(80.34567901234567 17.77777777777778)"/><path d="M400 146c0-3.3 2.7-6 6-6h268c3.3 0 6 2.7 6 6v28c0 3.3-2.7 6-6 6H406c-3.3 0-6-2.7-6-6z" stroke="#5e5e5e" fill="#fff"/><use xlink:href="#q" transform="matrix(1,0,0,1,411.99999999999955,152) translate(72.26543209876543 17.77777777777778)"/><use xlink:href="#r" transform="matrix(1,0,0,1,411.99999999999955,152) translate(127.32716049382717 17.77777777777778)"/><path d="M540 360.5" stroke="#5e5e5e" stroke-width="2" fill="none"/><path fill="#5e5e5e"/><path d="M536.76 360.5l-14.26 4.64v-9.28z" stroke="#5e5e5e" stroke-width="2" fill="#5e5e5e"/><path d="M760 185.5c0-3.3 2.7-6 6-6h148c3.3 0 6 2.7 6 6v28c0 3.3-2.7 6-6 6H766c-3.3 0-6-2.7-6-6z" stroke="#5e5e5e" fill="#fff"/><use xlink:href="#d" transform="matrix(1,0,0,1,772,191.5) translate(23.24691358024691 17.77777777777778)"/><use xlink:href="#e" transform="matrix(1,0,0,1,772,191.5) translate(72.1358024691358 17.77777777777778)"/><path d="M760 225.5c0-3.3 2.7-6 6-6h148c3.3 0 6 2.7 6 6v48c0 3.3-2.7 6-6 6H766c-3.3 0-6-2.7-6-6z" stroke="#5e5e5e" fill="#fff"/><use xlink:href="#f" transform="matrix(1,0,0,1,772.0000000000001,231.5) translate(15.623456790123456 22.27777777777778)"/><use xlink:href="#g" transform="matrix(1,0,0,1,772.0000000000001,231.5) translate(67.41358024691357 22.27777777777778)"/><path d="M760 285.5c0-3.3 2.7-6 6-6h148c3.3 0 6 2.7 6 6v68c0 3.3-2.7 6-6 6H766c-3.3 0-6-2.7-6-6z" stroke="#5e5e5e" fill="#fff"/><use xlink:href="#h" transform="matrix(1,0,0,1,772.0000000000002,291.5) translate(41.51851851851852 31.77777777777778)"/><path d="M920 185.5c0-3.3 2.7-6 6-6h268c3.3 0 6 2.7 6 6v28c0 3.3-2.7 6-6 6H926c-3.3 0-6-2.7-6-6zM920 225.5c0-3.3 2.7-6 6-6h268c3.3 0 6 2.7 6 6v128c0 3.3-2.7 6-6 6H926c-3.3 0-6-2.7-6-6z" stroke="#5e5e5e" fill="#fff"/><use xlink:href="#i" transform="matrix(1,0,0,1,932,231.5) translate(0 17.77777777777778)"/><path d="M760 145.5c0-3.3 2.7-6 6-6h148c3.3 0 6 2.7 6 6v28c0 3.3-2.7 6-6 6H766c-3.3 0-6-2.7-6-6z" stroke="#5e5e5e" fill="#fff"/><use xlink:href="#o" transform="matrix(1,0,0,1,772,151.5) translate(5.160493827160501 17.77777777777778)"/><use xlink:href="#p" transform="matrix(1,0,0,1,772,151.5) translate(80.34567901234567 17.77777777777778)"/><path d="M920 145.5c0-3.3 2.7-6 6-6h268c3.3 0 6 2.7 6 6v28c0 3.3-2.7 6-6 6H926c-3.3 0-6-2.7-6-6z" stroke="#5e5e5e" fill="#fff"/><use xlink:href="#q" transform="matrix(1,0,0,1,931.9999999999999,151.5) translate(72.26543209876543 17.77777777777778)"/><use xlink:href="#r" transform="matrix(1,0,0,1,931.9999999999999,151.5) translate(127.32716049382717 17.77777777777778)"/><path d="M1060 360" stroke="#5e5e5e" stroke-width="2" fill="none"/><path fill="#5e5e5e"/><path d="M1056.76 360l-14.26 4.64v-9.28z" stroke="#5e5e5e" stroke-width="2" fill="#5e5e5e"/><path d="M1280 186c0-3.3 2.7-6 6-6h148c3.3 0 6 2.7 6 6v28c0 3.3-2.7 6-6 6h-148c-3.3 0-6-2.7-6-6z" stroke="#5e5e5e" fill="#fff"/><use xlink:href="#d" transform="matrix(1,0,0,1,1292,192) translate(23.24691358024691 17.77777777777778)"/><use xlink:href="#e" transform="matrix(1,0,0,1,1292,192) translate(72.1358024691358 17.77777777777778)"/><path d="M1280 226c0-3.3 2.7-6 6-6h148c3.3 0 6 2.7 6 6v48c0 3.3-2.7 6-6 6h-148c-3.3 0-6-2.7-6-6z" stroke="#5e5e5e" fill="#fff"/><use xlink:href="#f" transform="matrix(1,0,0,1,1292,232) translate(15.623456790123456 22.27777777777778)"/><use xlink:href="#g" transform="matrix(1,0,0,1,1292,232) translate(67.41358024691357 22.27777777777778)"/><path d="M1280 286c0-3.3 2.7-6 6-6h148c3.3 0 6 2.7 6 6v68c0 3.3-2.7 6-6 6h-148c-3.3 0-6-2.7-6-6z" stroke="#5e5e5e" fill="#fff"/><use xlink:href="#h" transform="matrix(1,0,0,1,1292.0000000000002,292) translate(41.51851851851852 31.77777777777778)"/><path d="M1440 186c0-3.3 2.7-6 6-6h268c3.3 0 6 2.7 6 6v28c0 3.3-2.7 6-6 6h-268c-3.3 0-6-2.7-6-6zM1440 226c0-3.3 2.7-6 6-6h268c3.3 0 6 2.7 6 6v128c0 3.3-2.7 6-6 6h-268c-3.3 0-6-2.7-6-6z" stroke="#5e5e5e" fill="#fff"/><use xlink:href="#i" transform="matrix(1,0,0,1,1452,232) translate(0 17.77777777777778)"/><path d="M1280 146c0-3.3 2.7-6 6-6h148c3.3 0 6 2.7 6 6v28c0 3.3-2.7 6-6 6h-148c-3.3 0-6-2.7-6-6z" stroke="#5e5e5e" fill="#fff"/><use xlink:href="#o" transform="matrix(1,0,0,1,1292,152) translate(5.160493827160501 17.77777777777778)"/><use xlink:href="#p" transform="matrix(1,0,0,1,1292,152) translate(80.34567901234567 17.77777777777778)"/><path d="M1440 146c0-3.3 2.7-6 6-6h268c3.3 0 6 2.7 6 6v28c0 3.3-2.7 6-6 6h-268c-3.3 0-6-2.7-6-6z" stroke="#5e5e5e" fill="#fff"/><use xlink:href="#q" transform="matrix(1,0,0,1,1452,152) translate(72.26543209876543 17.77777777777778)"/><use xlink:href="#r" transform="matrix(1,0,0,1,1452,152) translate(127.32716049382717 17.77777777777778)"/><path d="M1580 360.5" stroke="#5e5e5e" stroke-width="2" fill="none"/><path fill="#5e5e5e"/><path d="M1576.76 360.5l-14.26 4.64v-9.28z" stroke="#5e5e5e" stroke-width="2" fill="#5e5e5e"/><path d="M1800 186c0-3.3 2.7-6 6-6h148c3.3 0 6 2.7 6 6v28c0 3.3-2.7 6-6 6h-148c-3.3 0-6-2.7-6-6z" stroke="#5e5e5e" fill="#fff"/><use xlink:href="#d" transform="matrix(1,0,0,1,1812,192) translate(23.24691358024691 17.77777777777778)"/><use xlink:href="#e" transform="matrix(1,0,0,1,1812,192) translate(72.1358024691358 17.77777777777778)"/><path d="M1800 226c0-3.3 2.7-6 6-6h148c3.3 0 6 2.7 6 6v48c0 3.3-2.7 6-6 6h-148c-3.3 0-6-2.7-6-6z" stroke="#5e5e5e" fill="#fff"/><use xlink:href="#f" transform="matrix(1,0,0,1,1812,232) translate(15.623456790123456 22.27777777777778)"/><use xlink:href="#g" transform="matrix(1,0,0,1,1812,232) translate(67.41358024691357 22.27777777777778)"/><path d="M1800 286c0-3.3 2.7-6 6-6h148c3.3 0 6 2.7 6 6v68c0 3.3-2.7 6-6 6h-148c-3.3 0-6-2.7-6-6z" stroke="#5e5e5e" fill="#fff"/><use xlink:href="#h" transform="matrix(1,0,0,1,1812.0000000000002,292) translate(41.51851851851852 31.77777777777778)"/><path d="M1960 186c0-3.3 2.7-6 6-6h268c3.3 0 6 2.7 6 6v28c0 3.3-2.7 6-6 6h-268c-3.3 0-6-2.7-6-6zM1960 226c0-3.3 2.7-6 6-6h268c3.3 0 6 2.7 6 6v128c0 3.3-2.7 6-6 6h-268c-3.3 0-6-2.7-6-6z" stroke="#5e5e5e" fill="#fff"/><use xlink:href="#i" transform="matrix(1,0,0,1,1972,232) translate(0 17.77777777777778)"/><path d="M1800 146c0-3.3 2.7-6 6-6h148c3.3 0 6 2.7 6 6v28c0 3.3-2.7 6-6 6h-148c-3.3 0-6-2.7-6-6z" stroke="#5e5e5e" fill="#fff"/><use xlink:href="#o" transform="matrix(1,0,0,1,1812,152) translate(5.160493827160501 17.77777777777778)"/><use xlink:href="#p" transform="matrix(1,0,0,1,1812,152) translate(80.34567901234567 17.77777777777778)"/><path d="M1960 146c0-3.3 2.7-6 6-6h268c3.3 0 6 2.7 6 6v28c0 3.3-2.7 6-6 6h-268c-3.3 0-6-2.7-6-6z" stroke="#5e5e5e" fill="#fff"/><use xlink:href="#q" transform="matrix(1,0,0,1,1972,152) translate(72.26543209876543 17.77777777777778)"/><use xlink:href="#r" transform="matrix(1,0,0,1,1972,152) translate(127.32716049382717 17.77777777777778)"/><path d="M2100 360.5" stroke="#5e5e5e" stroke-width="2" fill="none"/><path fill="#5e5e5e"/><path d="M2096.76 360.5l-14.26 4.64v-9.28z" stroke="#5e5e5e" stroke-width="2" fill="#5e5e5e"/><path d="M2320 65c0-3.3 2.7-6 6-6h428c3.3 0 6 2.7 6 6v68c0 3.3-2.7 6-6 6h-428c-3.3 0-6-2.7-6-6z" stroke="#5e5e5e" fill="#b2d6ef"/><use xlink:href="#s" transform="matrix(1,0,0,1,2332,71) translate(148.83333333333334 31.77777777777778)"/><path d="M2320 185c0-3.3 2.7-6 6-6h148c3.3 0 6 2.7 6 6v28c0 3.3-2.7 6-6 6h-148c-3.3 0-6-2.7-6-6z" stroke="#5e5e5e" fill="#fff"/><use xlink:href="#d" transform="matrix(1,0,0,1,2332,191) translate(23.24691358024691 17.77777777777778)"/><use xlink:href="#e" transform="matrix(1,0,0,1,2332,191) translate(72.1358024691358 17.77777777777778)"/><path d="M2320 225c0-3.3 2.7-6 6-6h148c3.3 0 6 2.7 6 6v48c0 3.3-2.7 6-6 6h-148c-3.3 0-6-2.7-6-6z" stroke="#5e5e5e" fill="#fff"/><use xlink:href="#f" transform="matrix(1,0,0,1,2332,231) translate(15.623456790123456 22.27777777777778)"/><use xlink:href="#g" transform="matrix(1,0,0,1,2332,231) translate(67.41358024691357 22.27777777777778)"/><path d="M2320 285c0-3.3 2.7-6 6-6h148c3.3 0 6 2.7 6 6v68c0 3.3-2.7 6-6 6h-148c-3.3 0-6-2.7-6-6z" stroke="#5e5e5e" fill="#fff"/><use xlink:href="#h" transform="matrix(1,0,0,1,2332,291) translate(41.51851851851852 31.77777777777778)"/><path d="M2480 185c0-3.3 2.7-6 6-6h268c3.3 0 6 2.7 6 6v28c0 3.3-2.7 6-6 6h-268c-3.3 0-6-2.7-6-6zM2480 225c0-3.3 2.7-6 6-6h268c3.3 0 6 2.7 6 6v128c0 3.3-2.7 6-6 6h-268c-3.3 0-6-2.7-6-6z" stroke="#5e5e5e" fill="#fff"/><use xlink:href="#i" transform="matrix(1,0,0,1,2492,231) translate(0 17.77777777777778)"/><path d="M2320 145c0-3.3 2.7-6 6-6h148c3.3 0 6 2.7 6 6v28c0 3.3-2.7 6-6 6h-148c-3.3 0-6-2.7-6-6z" stroke="#5e5e5e" fill="#fff"/><use xlink:href="#o" transform="matrix(1,0,0,1,2332,151) translate(5.160493827160501 17.77777777777778)"/><use xlink:href="#p" transform="matrix(1,0,0,1,2332,151) translate(80.34567901234567 17.77777777777778)"/><path d="M2480 145c0-3.3 2.7-6 6-6h268c3.3 0 6 2.7 6 6v28c0 3.3-2.7 6-6 6h-268c-3.3 0-6-2.7-6-6z" stroke="#5e5e5e" fill="#fff"/><use xlink:href="#q" transform="matrix(1,0,0,1,2492,151) translate(72.26543209876543 17.77777777777778)"/><use xlink:href="#r" transform="matrix(1,0,0,1,2492,151) translate(127.32716049382717 17.77777777777778)"/><path d="M2620 359.5" stroke="#5e5e5e" stroke-width="2" fill="none"/><path fill="#5e5e5e"/><path d="M2616.76 359.5l-14.26 4.64v-9.28z" stroke="#5e5e5e" stroke-width="2" fill="#5e5e5e"/><path d="M2241.5 160h59.5" stroke="#5e5e5e" stroke-width="2" fill="none"/><path d="M2241.53 161h-1.03v-2h1.03" fill="#5e5e5e"/><path d="M2316.26 160l-14.26 4.64v-9.28z" stroke="#5e5e5e" stroke-width="2" fill="#5e5e5e"/><path d="M2840 66c0-3.3 2.7-6 6-6h428c3.3 0 6 2.7 6 6v68c0 3.3-2.7 6-6 6h-428c-3.3 0-6-2.7-6-6z" stroke="#5e5e5e" fill="#b2d6ef"/><use xlink:href="#t" transform="matrix(1,0,0,1,2852,72) translate(144.48148148148147 31.77777777777778)"/><path d="M2840 186c0-3.3 2.7-6 6-6h148c3.3 0 6 2.7 6 6v28c0 3.3-2.7 6-6 6h-148c-3.3 0-6-2.7-6-6z" stroke="#5e5e5e" fill="#fff"/><g><use xlink:href="#d" transform="matrix(1,0,0,1,2852,192) translate(23.24691358024691 17.77777777777778)"/><use xlink:href="#e" transform="matrix(1,0,0,1,2852,192) translate(72.1358024691358 17.77777777777778)"/></g><path d="M2840 226c0-3.3 2.7-6 6-6h148c3.3 0 6 2.7 6 6v48c0 3.3-2.7 6-6 6h-148c-3.3 0-6-2.7-6-6z" stroke="#5e5e5e" fill="#fff"/><g><use xlink:href="#f" transform="matrix(1,0,0,1,2852,232) translate(15.623456790123456 22.27777777777778)"/><use xlink:href="#g" transform="matrix(1,0,0,1,2852,232) translate(67.41358024691357 22.27777777777778)"/></g><path d="M2840 286c0-3.3 2.7-6 6-6h148c3.3 0 6 2.7 6 6v68c0 3.3-2.7 6-6 6h-148c-3.3 0-6-2.7-6-6z" stroke="#5e5e5e" fill="#fff"/><g><use xlink:href="#h" transform="matrix(1,0,0,1,2852,292) translate(41.51851851851852 31.77777777777778)"/></g><path d="M3000 186c0-3.3 2.7-6 6-6h268c3.3 0 6 2.7 6 6v28c0 3.3-2.7 6-6 6h-268c-3.3 0-6-2.7-6-6zM3000 226c0-3.3 2.7-6 6-6h268c3.3 0 6 2.7 6 6v128c0 3.3-2.7 6-6 6h-268c-3.3 0-6-2.7-6-6z" stroke="#5e5e5e" fill="#fff"/><g><use xlink:href="#i" transform="matrix(1,0,0,1,3012,232) translate(0 17.77777777777778)"/></g><path d="M2840 146c0-3.3 2.7-6 6-6h148c3.3 0 6 2.7 6 6v28c0 3.3-2.7 6-6 6h-148c-3.3 0-6-2.7-6-6z" stroke="#5e5e5e" fill="#fff"/><g><use xlink:href="#o" transform="matrix(1,0,0,1,2852,152) translate(5.160493827160501 17.77777777777778)"/><use xlink:href="#p" transform="matrix(1,0,0,1,2852,152) translate(80.34567901234567 17.77777777777778)"/></g><path d="M3000 146c0-3.3 2.7-6 6-6h268c3.3 0 6 2.7 6 6v28c0 3.3-2.7 6-6 6h-268c-3.3 0-6-2.7-6-6z" stroke="#5e5e5e" fill="#fff"/><g><use xlink:href="#q" transform="matrix(1,0,0,1,3012,152) translate(72.26543209876543 17.77777777777778)"/><use xlink:href="#r" transform="matrix(1,0,0,1,3012,152) translate(127.32716049382717 17.77777777777778)"/></g><path d="M3140 360.5" stroke="#5e5e5e" stroke-width="2" fill="none"/><path fill="#5e5e5e"/><path d="M3136.76 360.5l-14.26 4.64v-9.28z" stroke="#5e5e5e" stroke-width="2" fill="#5e5e5e"/><path d="M2761.5 159h59.5" stroke="#5e5e5e" stroke-width="2" fill="none"/><path d="M2761.53 160h-1.03v-2h1.03" fill="#5e5e5e"/><path d="M2836.26 159l-14.26 4.64v-9.28z" stroke="#5e5e5e" stroke-width="2" fill="#5e5e5e"/><path d="M162.5 160H221" stroke="#5e5e5e" stroke-width="2" fill="none"/><path d="M162.53 161h-1.1l.07-.96-.03-1.04h1.06" fill="#5e5e5e"/><path d="M236.26 160L222 164.64v-9.28z" stroke="#5e5e5e" stroke-width="2" fill="#5e5e5e"/><path d="M681.5 160H741" stroke="#5e5e5e" stroke-width="2" fill="none"/><path d="M681.53 161h-1.03v-2h1.03" fill="#5e5e5e"/><path d="M756.26 160L742 164.64v-9.28z" stroke="#5e5e5e" stroke-width="2" fill="#5e5e5e"/><defs><path fill="#fff" d="M185-189c-5-48-123-54-124 2 14 75 158 14 163 119 3 78-121 87-175 55-17-10-28-26-33-46l33-7c5 56 141 63 141-1 0-78-155-14-162-118-5-82 145-84 179-34 5 7 8 16 11 25" id="u"/><path fill="#fff" d="M59-47c-2 24 18 29 38 22v24C64 9 27 4 27-40v-127H5v-23h24l9-43h21v43h35v23H59v120" id="v"/><path fill="#fff" d="M141-36C126-15 110 5 73 4 37 3 15-17 15-53c-1-64 63-63 125-63 3-35-9-54-41-54-24 1-41 7-42 31l-33-3c5-37 33-52 76-52 45 0 72 20 72 64v82c-1 20 7 32 28 27v20c-31 9-61-2-59-35zM48-53c0 20 12 33 32 33 41-3 63-29 60-74-43 2-92-5-92 41" id="w"/><path fill="#fff" d="M114-163C36-179 61-72 57 0H25l-1-190h30c1 12-1 29 2 39 6-27 23-49 58-41v29" id="x"/><g id="a"><use transform="matrix(0.06172839506172839,0,0,0.06172839506172839,0,0)" xlink:href="#u"/><use transform="matrix(0.06172839506172839,0,0,0.06172839506172839,14.814814814814813,0)" xlink:href="#v"/><use transform="matrix(0.06172839506172839,0,0,0.06172839506172839,20.98765432098765,0)" xlink:href="#w"/><use transform="matrix(0.06172839506172839,0,0,0.06172839506172839,33.33333333333333,0)" xlink:href="#x"/><use transform="matrix(0.06172839506172839,0,0,0.06172839506172839,40.679012345679006,0)" xlink:href="#v"/></g><path fill="#333" d="M233-177c-1 41-23 64-60 70L243 0h-38l-65-103H63V0H30v-248c88 3 205-21 203 71zM63-129c60-2 137 13 137-47 0-61-80-42-137-45v92" id="y"/><path fill="#333" d="M100-194c63 0 86 42 84 106H49c0 40 14 67 53 68 26 1 43-12 49-29l28 8c-11 28-37 45-77 45C44 4 14-33 15-96c1-61 26-98 85-98zm52 81c6-60-76-77-97-28-3 7-6 17-6 28h103" id="z"/><path fill="#333" d="M145-31C134-9 116 4 85 4 32 4 16-35 15-94c0-59 17-99 70-100 32-1 48 14 60 33 0-11-1-24 2-32h30l-1 268h-32zM93-21c41 0 51-33 51-76s-8-73-50-73c-40 0-46 35-46 75s5 74 45 74" id="A"/><path fill="#333" d="M84 4C-5 8 30-112 23-190h32v120c0 31 7 50 39 49 72-2 45-101 50-169h31l1 190h-30c-1-10 1-25-2-33-11 22-28 36-60 37" id="B"/><path fill="#333" d="M24-231v-30h32v30H24zM24 0v-190h32V0H24" id="C"/><path fill="#333" d="M114-163C36-179 61-72 57 0H25l-1-190h30c1 12-1 29 2 39 6-27 23-49 58-41v29" id="D"/><path fill="#333" d="M210-169c-67 3-38 105-44 169h-31v-121c0-29-5-50-35-48C34-165 62-65 56 0H25l-1-190h30c1 10-1 24 2 32 10-44 99-50 107 0 11-21 27-35 58-36 85-2 47 119 55 194h-31v-121c0-29-5-49-35-48" id="E"/><path fill="#333" d="M117-194c89-4 53 116 60 194h-32v-121c0-31-8-49-39-48C34-167 62-67 57 0H25l-1-190h30c1 10-1 24 2 32 11-22 29-35 61-36" id="F"/><path fill="#333" d="M59-47c-2 24 18 29 38 22v24C64 9 27 4 27-40v-127H5v-23h24l9-43h21v43h35v23H59v120" id="G"/><path fill="#333" d="M135-143c-3-34-86-38-87 0 15 53 115 12 119 90S17 21 10-45l28-5c4 36 97 45 98 0-10-56-113-15-118-90-4-57 82-63 122-42 12 7 21 19 24 35" id="H"/><g id="b"><use transform="matrix(0.06172839506172839,0,0,0.06172839506172839,0,0)" xlink:href="#y"/><use transform="matrix(0.06172839506172839,0,0,0.06172839506172839,15.987654320987653,0)" xlink:href="#z"/><use transform="matrix(0.06172839506172839,0,0,0.06172839506172839,28.333333333333332,0)" xlink:href="#A"/><use transform="matrix(0.06172839506172839,0,0,0.06172839506172839,40.67901234567901,0)" xlink:href="#B"/><use transform="matrix(0.06172839506172839,0,0,0.06172839506172839,53.02469135802469,0)" xlink:href="#C"/><use transform="matrix(0.06172839506172839,0,0,0.06172839506172839,57.901234567901234,0)" xlink:href="#D"/><use transform="matrix(0.06172839506172839,0,0,0.06172839506172839,65.24691358024691,0)" xlink:href="#z"/><use transform="matrix(0.06172839506172839,0,0,0.06172839506172839,77.5925925925926,0)" xlink:href="#E"/><use transform="matrix(0.06172839506172839,0,0,0.06172839506172839,96.04938271604938,0)" xlink:href="#z"/><use transform="matrix(0.06172839506172839,0,0,0.06172839506172839,108.39506172839506,0)" xlink:href="#F"/><use transform="matrix(0.06172839506172839,0,0,0.06172839506172839,120.74074074074075,0)" xlink:href="#G"/><use transform="matrix(0.06172839506172839,0,0,0.06172839506172839,126.91358024691357,0)" xlink:href="#H"/></g><path fill="#333" d="M30 0v-248h187v28H63v79h144v27H63v87h162V0H30" id="I"/><path fill="#333" d="M177-190C167-65 218 103 67 71c-23-6-38-20-44-43l32-5c15 47 100 32 89-28v-30C133-14 115 1 83 1 29 1 15-40 15-95c0-56 16-97 71-98 29-1 48 16 59 35 1-10 0-23 2-32h30zM94-22c36 0 50-32 50-73 0-42-14-75-50-75-39 0-46 34-46 75s6 73 46 73" id="J"/><g id="c"><use transform="matrix(0.06172839506172839,0,0,0.06172839506172839,0,0)" xlink:href="#I"/><use transform="matrix(0.06172839506172839,0,0,0.06172839506172839,14.814814814814813,0)" xlink:href="#F"/><use transform="matrix(0.06172839506172839,0,0,0.06172839506172839,27.160493827160494,0)" xlink:href="#J"/><use transform="matrix(0.06172839506172839,0,0,0.06172839506172839,39.50617283950617,0)" xlink:href="#C"/><use transform="matrix(0.06172839506172839,0,0,0.06172839506172839,44.382716049382715,0)" xlink:href="#F"/><use transform="matrix(0.06172839506172839,0,0,0.06172839506172839,56.72839506172839,0)" xlink:href="#z"/><use transform="matrix(0.06172839506172839,0,0,0.06172839506172839,69.07407407407408,0)" xlink:href="#z"/><use transform="matrix(0.06172839506172839,0,0,0.06172839506172839,81.41975308641976,0)" xlink:href="#D"/><use transform="matrix(0.06172839506172839,0,0,0.06172839506172839,88.76543209876544,0)" xlink:href="#C"/><use transform="matrix(0.06172839506172839,0,0,0.06172839506172839,93.64197530864199,0)" xlink:href="#F"/><use transform="matrix(0.06172839506172839,0,0,0.06172839506172839,105.98765432098767,0)" xlink:href="#J"/></g><path fill="#333" d="M185-189c-5-48-123-54-124 2 14 75 158 14 163 119 3 78-121 87-175 55-17-10-28-26-33-46l33-7c5 56 141 63 141-1 0-78-155-14-162-118-5-82 145-84 179-34 5 7 8 16 11 25" id="K"/><path fill="#333" d="M127-220V0H93v-220H8v-28h204v28h-85" id="L"/><g id="d"><use transform="matrix(0.06172839506172839,0,0,0.06172839506172839,0,0)" xlink:href="#I"/><use transform="matrix(0.06172839506172839,0,0,0.06172839506172839,14.814814814814813,0)" xlink:href="#K"/><use transform="matrix(0.06172839506172839,0,0,0.06172839506172839,29.629629629629626,0)" xlink:href="#L"/></g><path fill="#333" d="M240 0l2-218c-23 76-54 145-80 218h-23L58-218 59 0H30v-248h44l77 211c21-75 51-140 76-211h43V0h-30" id="M"/><path fill="#333" d="M197 0v-115H63V0H30v-248h33v105h134v-105h34V0h-34" id="N"/><path fill="#333" d="M33-154v-36h34v36H33zM33 0v-36h34V0H33" id="O"/><g id="e"><use transform="matrix(0.06172839506172839,0,0,0.06172839506172839,0,0)" xlink:href="#M"/><use transform="matrix(0.06172839506172839,0,0,0.06172839506172839,18.456790123456788,0)" xlink:href="#N"/><use transform="matrix(0.06172839506172839,0,0,0.06172839506172839,34.44444444444444,0)" xlink:href="#O"/></g><path fill="#333" d="M30-248c87 1 191-15 191 75 0 78-77 80-158 76V0H30v-248zm33 125c57 0 124 11 124-50 0-59-68-47-124-48v98" id="P"/><path fill="#333" d="M108 0H70L1-190h34L89-25l56-165h34" id="Q"/><g id="f"><use transform="matrix(0.06172839506172839,0,0,0.06172839506172839,0,0)" xlink:href="#P"/><use transform="matrix(0.06172839506172839,0,0,0.06172839506172839,14.814814814814813,0)" xlink:href="#D"/><use transform="matrix(0.06172839506172839,0,0,0.06172839506172839,22.160493827160494,0)" xlink:href="#z"/><use transform="matrix(0.06172839506172839,0,0,0.06172839506172839,34.50617283950617,0)" xlink:href="#Q"/></g><path fill="#333" d="M100-194c62-1 85 37 85 99 1 63-27 99-86 99S16-35 15-95c0-66 28-99 85-99zM99-20c44 1 53-31 53-75 0-43-8-75-51-75s-53 32-53 75 10 74 51 75" id="R"/><path fill="#333" d="M141-36C126-15 110 5 73 4 37 3 15-17 15-53c-1-64 63-63 125-63 3-35-9-54-41-54-24 1-41 7-42 31l-33-3c5-37 33-52 76-52 45 0 72 20 72 64v82c-1 20 7 32 28 27v20c-31 9-61-2-59-35zM48-53c0 20 12 33 32 33 41-3 63-29 60-74-43 2-92-5-92 41" id="S"/><path fill="#333" d="M24 0v-261h32V0H24" id="T"/><g id="g"><use transform="matrix(0.06172839506172839,0,0,0.06172839506172839,0,0)" xlink:href="#L"/><use transform="matrix(0.06172839506172839,0,0,0.06172839506172839,11.049382716049381,0)" xlink:href="#R"/><use transform="matrix(0.06172839506172839,0,0,0.06172839506172839,23.39506172839506,0)" xlink:href="#G"/><use transform="matrix(0.06172839506172839,0,0,0.06172839506172839,29.5679012345679,0)" xlink:href="#S"/><use transform="matrix(0.06172839506172839,0,0,0.06172839506172839,41.913580246913575,0)" xlink:href="#T"/><use transform="matrix(0.06172839506172839,0,0,0.06172839506172839,46.79012345679012,0)" xlink:href="#O"/></g><g id="h"><use transform="matrix(0.06172839506172839,0,0,0.06172839506172839,0,0)" xlink:href="#L"/><use transform="matrix(0.06172839506172839,0,0,0.06172839506172839,11.049382716049381,0)" xlink:href="#R"/><use transform="matrix(0.06172839506172839,0,0,0.06172839506172839,23.39506172839506,0)" xlink:href="#G"/><use transform="matrix(0.06172839506172839,0,0,0.06172839506172839,29.5679012345679,0)" xlink:href="#S"/><use transform="matrix(0.06172839506172839,0,0,0.06172839506172839,41.913580246913575,0)" xlink:href="#T"/><use transform="matrix(0.06172839506172839,0,0,0.06172839506172839,46.79012345679012,0)" xlink:href="#O"/></g><path fill="#333" d="M190 0L58-211 59 0H30v-248h39L202-35l-2-213h31V0h-41" id="U"/><g id="i"><use transform="matrix(0.06172839506172839,0,0,0.06172839506172839,0,0)" xlink:href="#U"/><use transform="matrix(0.06172839506172839,0,0,0.06172839506172839,15.987654320987653,0)" xlink:href="#R"/><use transform="matrix(0.06172839506172839,0,0,0.06172839506172839,28.333333333333332,0)" xlink:href="#G"/><use transform="matrix(0.06172839506172839,0,0,0.06172839506172839,34.50617283950617,0)" xlink:href="#z"/><use transform="matrix(0.06172839506172839,0,0,0.06172839506172839,46.85185185185185,0)" xlink:href="#H"/><use transform="matrix(0.06172839506172839,0,0,0.06172839506172839,57.96296296296296,0)" xlink:href="#O"/></g><path fill="#333" d="M106-169C34-169 62-67 57 0H25v-261h32l-1 103c12-21 28-36 61-36 89 0 53 116 60 194h-32v-121c2-32-8-49-39-48" id="V"/><g id="j"><use transform="matrix(0.06172839506172839,0,0,0.06172839506172839,0,0)" xlink:href="#N"/><use transform="matrix(0.06172839506172839,0,0,0.06172839506172839,15.987654320987653,0)" xlink:href="#C"/><use transform="matrix(0.06172839506172839,0,0,0.06172839506172839,20.864197530864196,0)" xlink:href="#J"/><use transform="matrix(0.06172839506172839,0,0,0.06172839506172839,33.20987654320987,0)" xlink:href="#V"/></g><path fill="#333" d="M30 0v-248h33v221h125V0H30" id="W"/><g id="k"><use transform="matrix(0.06172839506172839,0,0,0.06172839506172839,0,0)" xlink:href="#W"/><use transform="matrix(0.06172839506172839,0,0,0.06172839506172839,12.345679012345679,0)" xlink:href="#z"/><use transform="matrix(0.06172839506172839,0,0,0.06172839506172839,24.691358024691358,0)" xlink:href="#Q"/><use transform="matrix(0.06172839506172839,0,0,0.06172839506172839,35.80246913580247,0)" xlink:href="#z"/><use transform="matrix(0.06172839506172839,0,0,0.06172839506172839,48.148148148148145,0)" xlink:href="#T"/></g><path fill="#333" d="M30-248c118-7 216 8 213 122C240-48 200 0 122 0H30v-248zM63-27c89 8 146-16 146-99s-60-101-146-95v194" id="X"/><g id="l"><use transform="matrix(0.06172839506172839,0,0,0.06172839506172839,0,0)" xlink:href="#X"/><use transform="matrix(0.06172839506172839,0,0,0.06172839506172839,15.987654320987653,0)" xlink:href="#z"/><use transform="matrix(0.06172839506172839,0,0,0.06172839506172839,28.333333333333332,0)" xlink:href="#H"/><use transform="matrix(0.06172839506172839,0,0,0.06172839506172839,39.44444444444444,0)" xlink:href="#C"/><use transform="matrix(0.06172839506172839,0,0,0.06172839506172839,44.32098765432099,0)" xlink:href="#J"/><use transform="matrix(0.06172839506172839,0,0,0.06172839506172839,56.666666666666664,0)" xlink:href="#F"/></g><path fill="#333" d="M206 0h-36l-40-164L89 0H53L-1-190h32L70-26l43-164h34l41 164 42-164h31" id="Y"/><g id="m"><use transform="matrix(0.06172839506172839,0,0,0.06172839506172839,0,0)" xlink:href="#W"/><use transform="matrix(0.06172839506172839,0,0,0.06172839506172839,12.345679012345679,0)" xlink:href="#R"/><use transform="matrix(0.06172839506172839,0,0,0.06172839506172839,24.691358024691358,0)" xlink:href="#Y"/></g><path fill="#333" d="M115-194c55 1 70 41 70 98S169 2 115 4C84 4 66-9 55-30l1 105H24l-1-265h31l2 30c10-21 28-34 59-34zm-8 174c40 0 45-34 45-75s-6-73-45-74c-42 0-51 32-51 76 0 43 10 73 51 73" id="Z"/><g id="n"><use transform="matrix(0.06172839506172839,0,0,0.06172839506172839,0,0)" xlink:href="#X"/><use transform="matrix(0.06172839506172839,0,0,0.06172839506172839,15.987654320987653,0)" xlink:href="#z"/><use transform="matrix(0.06172839506172839,0,0,0.06172839506172839,28.333333333333332,0)" xlink:href="#Q"/><use transform="matrix(0.06172839506172839,0,0,0.06172839506172839,39.44444444444444,0)" xlink:href="#z"/><use transform="matrix(0.06172839506172839,0,0,0.06172839506172839,51.79012345679012,0)" xlink:href="#T"/><use transform="matrix(0.06172839506172839,0,0,0.06172839506172839,56.666666666666664,0)" xlink:href="#R"/><use transform="matrix(0.06172839506172839,0,0,0.06172839506172839,69.01234567901234,0)" xlink:href="#Z"/><use transform="matrix(0.06172839506172839,0,0,0.06172839506172839,81.35802469135803,0)" xlink:href="#E"/><use transform="matrix(0.06172839506172839,0,0,0.06172839506172839,99.81481481481481,0)" xlink:href="#z"/><use transform="matrix(0.06172839506172839,0,0,0.06172839506172839,112.1604938271605,0)" xlink:href="#F"/><use transform="matrix(0.06172839506172839,0,0,0.06172839506172839,124.50617283950618,0)" xlink:href="#G"/></g><path fill="#333" d="M24-248c93 1 206-16 204 79-1 75-69 88-152 82V0H24v-248zm52 121c47 0 100 7 100-41 0-47-54-39-100-39v80" id="aa"/><path fill="#333" d="M135-150c-39-12-60 13-60 57V0H25l-1-190h47c2 13-1 29 3 40 6-28 27-53 61-41v41" id="ab"/><path fill="#333" d="M185-48c-13 30-37 53-82 52C43 2 14-33 14-96s30-98 90-98c62 0 83 45 84 108H66c0 31 8 55 39 56 18 0 30-7 34-22zm-45-69c5-46-57-63-70-21-2 6-4 13-4 21h74" id="ac"/><path fill="#333" d="M88-194c31-1 46 15 58 34l-1-101h50l1 261h-48c-2-10 0-23-3-31C134-8 116 4 84 4 32 4 16-41 15-95c0-56 19-97 73-99zm17 164c33 0 40-30 41-66 1-37-9-64-41-64s-38 30-39 65c0 43 13 65 39 65" id="ad"/><path fill="#333" d="M137-138c1-29-70-34-71-4 15 46 118 7 119 86 1 83-164 76-172 9l43-7c4 19 20 25 44 25 33 8 57-30 24-41C81-84 22-81 20-136c-2-80 154-74 161-7" id="ae"/><path fill="#333" d="M35-132v-50h50v50H35zM35 0v-49h50V0H35" id="af"/><g id="o"><use transform="matrix(0.06172839506172839,0,0,0.06172839506172839,0,0)" xlink:href="#aa"/><use transform="matrix(0.06172839506172839,0,0,0.06172839506172839,14.814814814814813,0)" xlink:href="#ab"/><use transform="matrix(0.06172839506172839,0,0,0.06172839506172839,23.456790123456788,0)" xlink:href="#ac"/><use transform="matrix(0.06172839506172839,0,0,0.06172839506172839,35.80246913580247,0)" xlink:href="#ad"/><use transform="matrix(0.06172839506172839,0,0,0.06172839506172839,49.32098765432099,0)" xlink:href="#ae"/><use transform="matrix(0.06172839506172839,0,0,0.06172839506172839,61.666666666666664,0)" xlink:href="#af"/></g><path fill="#333" d="M169-182c-1-43-94-46-97-3 18 66 151 10 154 114 3 95-165 93-204 36-6-8-10-19-12-30l50-8c3 46 112 56 116 5-17-69-150-10-154-114-4-87 153-88 188-35 5 8 8 18 10 28" id="ag"/><path fill="#333" d="M115-3C79 11 28 4 28-45v-112H4v-33h27l15-45h31v45h36v33H77v99c-1 23 16 31 38 25v30" id="ah"/><path fill="#333" d="M133-34C117-15 103 5 69 4 32 3 11-16 11-54c-1-60 55-63 116-61 1-26-3-47-28-47-18 1-26 9-28 27l-52-2c7-38 36-58 82-57s74 22 75 68l1 82c-1 14 12 18 25 15v27c-30 8-71 5-69-32zm-48 3c29 0 43-24 42-57-32 0-66-3-65 30 0 17 8 27 23 27" id="ai"/><g id="p"><use transform="matrix(0.06172839506172839,0,0,0.06172839506172839,0,0)" xlink:href="#ag"/><use transform="matrix(0.06172839506172839,0,0,0.06172839506172839,14.814814814814813,0)" xlink:href="#ah"/><use transform="matrix(0.06172839506172839,0,0,0.06172839506172839,22.160493827160494,0)" xlink:href="#ai"/><use transform="matrix(0.06172839506172839,0,0,0.06172839506172839,34.50617283950617,0)" xlink:href="#ab"/><use transform="matrix(0.06172839506172839,0,0,0.06172839506172839,43.148148148148145,0)" xlink:href="#ah"/></g><path fill="#333" d="M136-208V0H84v-208H4v-40h212v40h-80" id="aj"/><path fill="#333" d="M147 0L96-86 75-71V0H25v-261h50v150l67-79h53l-66 74L201 0h-54" id="ak"/><g id="q"><use transform="matrix(0.06172839506172839,0,0,0.06172839506172839,0,0)" xlink:href="#aj"/><use transform="matrix(0.06172839506172839,0,0,0.06172839506172839,11.851851851851851,0)" xlink:href="#ai"/><use transform="matrix(0.06172839506172839,0,0,0.06172839506172839,24.19753086419753,0)" xlink:href="#ae"/><use transform="matrix(0.06172839506172839,0,0,0.06172839506172839,36.54320987654321,0)" xlink:href="#ak"/></g><path fill="#333" d="M123 10C108 53 80 86 19 72V37c35 8 53-11 59-39L3-190h52l48 148c12-52 28-100 44-148h51" id="al"/><path fill="#333" d="M135-194c53 0 70 44 70 98 0 56-19 98-73 100-31 1-45-17-59-34 3 33 2 69 2 105H25l-1-265h48c2 10 0 23 3 31 11-24 29-35 60-35zM114-30c33 0 39-31 40-66 0-38-9-64-40-64-56 0-55 130 0 130" id="am"/><g id="r"><use transform="matrix(0.06172839506172839,0,0,0.06172839506172839,0,0)" xlink:href="#aj"/><use transform="matrix(0.06172839506172839,0,0,0.06172839506172839,11.851851851851851,0)" xlink:href="#al"/><use transform="matrix(0.06172839506172839,0,0,0.06172839506172839,24.19753086419753,0)" xlink:href="#am"/><use transform="matrix(0.06172839506172839,0,0,0.06172839506172839,37.71604938271605,0)" xlink:href="#ac"/><use transform="matrix(0.06172839506172839,0,0,0.06172839506172839,50.06172839506173,0)" xlink:href="#af"/></g><path fill="#333" d="M179-190L93 31C79 59 56 82 12 73V49c39 6 53-20 64-50L1-190h34L92-34l54-156h33" id="an"/><g id="s"><use transform="matrix(0.06172839506172839,0,0,0.06172839506172839,0,0)" xlink:href="#X"/><use transform="matrix(0.06172839506172839,0,0,0.06172839506172839,15.987654320987653,0)" xlink:href="#z"/><use transform="matrix(0.06172839506172839,0,0,0.06172839506172839,28.333333333333332,0)" xlink:href="#Z"/><use transform="matrix(0.06172839506172839,0,0,0.06172839506172839,40.67901234567901,0)" xlink:href="#T"/><use transform="matrix(0.06172839506172839,0,0,0.06172839506172839,45.55555555555556,0)" xlink:href="#R"/><use transform="matrix(0.06172839506172839,0,0,0.06172839506172839,57.901234567901234,0)" xlink:href="#an"/><use transform="matrix(0.06172839506172839,0,0,0.06172839506172839,69.01234567901234,0)" xlink:href="#E"/><use transform="matrix(0.06172839506172839,0,0,0.06172839506172839,87.46913580246913,0)" xlink:href="#z"/><use transform="matrix(0.06172839506172839,0,0,0.06172839506172839,99.81481481481481,0)" xlink:href="#F"/><use transform="matrix(0.06172839506172839,0,0,0.06172839506172839,112.1604938271605,0)" xlink:href="#G"/></g><path fill="#333" d="M96-169c-40 0-48 33-48 73s9 75 48 75c24 0 41-14 43-38l32 2c-6 37-31 61-74 61-59 0-76-41-82-99-10-93 101-131 147-64 4 7 5 14 7 22l-32 3c-4-21-16-35-41-35" id="ao"/><g id="t"><use transform="matrix(0.06172839506172839,0,0,0.06172839506172839,0,0)" xlink:href="#M"/><use transform="matrix(0.06172839506172839,0,0,0.06172839506172839,18.456790123456788,0)" xlink:href="#S"/><use transform="matrix(0.06172839506172839,0,0,0.06172839506172839,30.80246913580247,0)" xlink:href="#C"/><use transform="matrix(0.06172839506172839,0,0,0.06172839506172839,35.67901234567901,0)" xlink:href="#F"/><use transform="matrix(0.06172839506172839,0,0,0.06172839506172839,48.02469135802469,0)" xlink:href="#G"/><use transform="matrix(0.06172839506172839,0,0,0.06172839506172839,54.19753086419753,0)" xlink:href="#z"/><use transform="matrix(0.06172839506172839,0,0,0.06172839506172839,66.54320987654322,0)" xlink:href="#F"/><use transform="matrix(0.06172839506172839,0,0,0.06172839506172839,78.8888888888889,0)" xlink:href="#S"/><use transform="matrix(0.06172839506172839,0,0,0.06172839506172839,91.23456790123458,0)" xlink:href="#F"/><use transform="matrix(0.06172839506172839,0,0,0.06172839506172839,103.58024691358027,0)" xlink:href="#ao"/><use transform="matrix(0.06172839506172839,0,0,0.06172839506172839,114.69135802469138,0)" xlink:href="#z"/></g></defs></g></svg>