<svg xmlns="http://www.w3.org/2000/svg" xmlns:xlink="http://www.w3.org/1999/xlink" xmlns:lucid="lucid" width="2320" height="1360"><g transform="translate(0 0)" lucid:page-tab-id="0_0"><path d="M0 0h2320v1360H0z" fill="#fff"/><path d="M453.15 78.58c0-4.42 3.58-8 8-8h836.75c4.4 0 8 3.58 8 8v25.15c0 4.42-3.6 8-8 8H461.15c-4.42 0-8-3.58-8-8z" stroke="#000" stroke-opacity="0" stroke-width="2" fill="#fff" fill-opacity="0"/><use xlink:href="#a" transform="matrix(1,0,0,1,457.14655278534315,74.57761197839864) translate(375.6235802469136 23.657777777777778)"/><use xlink:href="#b" transform="matrix(1,0,0,1,457.14655278534315,74.57761197839864) translate(443.94703703703703 23.657777777777778)"/><path d="M709.44 110.4h347.9M709.47 110.4h-1.03M1057.3 110.4h1.03" stroke="#a9afb8" stroke-width="2" fill="none"/><path d="M453.15 119.73c0-4.42 3.58-8 8-8h837.7c4.42 0 8 3.58 8 8v2.85c0 4.42-3.58 8-8 8h-837.7c-4.42 0-8-3.58-8-8z" stroke="#000" stroke-opacity="0" stroke-width="2" fill="#fff" fill-opacity="0"/><use xlink:href="#c" transform="matrix(1,0,0,1,457.1465527853436,115.73283593529744) translate(297.8423559670782 14.917037037037037)"/><use xlink:href="#d" transform="matrix(1,0,0,1,457.1465527853436,115.73283593529744) translate(335.10583333333335 14.917037037037037)"/><use xlink:href="#e" transform="matrix(1,0,0,1,457.1465527853436,115.73283593529744) translate(424.2492489711934 14.917037037037037)"/><use xlink:href="#f" transform="matrix(1,0,0,1,457.1465527853436,115.73283593529744) translate(436.6987345679013 14.917037037037037)"/><use xlink:href="#g" transform="matrix(1,0,0,1,457.1465527853436,115.73283593529744) translate(495.2920473251029 14.917037037037037)"/><use xlink:href="#h" transform="matrix(1,0,0,1,457.1465527853436,115.73283593529744) translate(520.7858744855968 14.917037037037037)"/><path d="M1080 248c0-4.42 3.58-8 8-8h144c4.42 0 8 3.58 8 8v104c0 4.42-3.58 8-8 8h-144c-4.42 0-8-3.58-8-8z" stroke="#333" fill="#e5e5e5"/><use xlink:href="#i" transform="matrix(1,0,0,1,1092,252) translate(47.225 40.8)"/><use xlink:href="#j" transform="matrix(1,0,0,1,1092,252) translate(23.049999999999997 62.4)"/><path d="M1224.1 447c0-4.42 3.6-8 8-8h144c4.42 0 8 3.58 8 8v104c0 4.42-3.58 8-8 8h-144c-4.4 0-8-3.58-8-8z" stroke="#333" fill="#ff8f80"/><use xlink:href="#k" transform="matrix(1,0,0,1,1236.103938746542,451) translate(48.574999999999996 30)"/><use xlink:href="#l" transform="matrix(1,0,0,1,1236.103938746542,451) translate(14.549999999999997 51.6)"/><use xlink:href="#m" transform="matrix(1,0,0,1,1236.103938746542,451) translate(91.45 51.6)"/><use xlink:href="#n" transform="matrix(1,0,0,1,1236.103938746542,451) translate(25.075000000000003 73.2)"/><path d="M730 447c0-4.42 3.58-8 8-8h144c4.42 0 8 3.58 8 8v104c0 4.42-3.58 8-8 8H738c-4.42 0-8-3.58-8-8z" stroke="#333" fill="#3aa6dd"/><use xlink:href="#o" transform="matrix(1,0,0,1,742.0000000000002,451) translate(47.025 30)"/><use xlink:href="#p" transform="matrix(1,0,0,1,742.0000000000002,451) translate(25.049999999999997 51.6)"/><use xlink:href="#m" transform="matrix(1,0,0,1,742.0000000000002,451) translate(80.94999999999999 51.6)"/><use xlink:href="#q" transform="matrix(1,0,0,1,742.0000000000002,451) translate(21.574999999999996 73.2)"/><path d="M230 447c0-4.42 3.58-8 8-8h144c4.42 0 8 3.58 8 8v104c0 4.42-3.58 8-8 8H238c-4.42 0-8-3.58-8-8z" stroke="#333" fill="#ef8d22"/><use xlink:href="#r" transform="matrix(1,0,0,1,242.00000000000023,451) translate(43.5 30)"/><use xlink:href="#s" transform="matrix(1,0,0,1,242.00000000000023,451) translate(6.049999999999997 51.6)"/><use xlink:href="#t" transform="matrix(1,0,0,1,242.00000000000023,451) translate(54.95 51.6)"/><use xlink:href="#m" transform="matrix(1,0,0,1,242.00000000000023,451) translate(99.95 51.6)"/><use xlink:href="#u" transform="matrix(1,0,0,1,242.00000000000023,451) translate(30.525 73.2)"/><path d="M1624.1 447c0-4.42 3.6-8 8-8h144c4.42 0 8 3.58 8 8v104c0 4.42-3.58 8-8 8h-144c-4.4 0-8-3.58-8-8z" stroke="#333" fill="#a3d977"/><use xlink:href="#v" transform="matrix(1,0,0,1,1636.103938746542,451) translate(44.5 30)"/><use xlink:href="#w" transform="matrix(1,0,0,1,1636.103938746542,451) translate(32.025 51.6)"/><use xlink:href="#x" transform="matrix(1,0,0,1,1636.103938746542,451) translate(37.025 51.6)"/><use xlink:href="#m" transform="matrix(1,0,0,1,1636.103938746542,451) translate(73.975 51.6)"/><use xlink:href="#y" transform="matrix(1,0,0,1,1636.103938746542,451) translate(10.049999999999997 73.2)"/><use xlink:href="#z" transform="matrix(1,0,0,1,1636.103938746542,451) translate(78 73.2)"/><path d="M2030 447.5c0-4.42 3.58-8 8-8h144c4.42 0 8 3.58 8 8v104c0 4.42-3.58 8-8 8h-144c-4.42 0-8-3.58-8-8z" stroke="#333" fill="#ffdf71"/><use xlink:href="#A" transform="matrix(1,0,0,1,2042,451.5) translate(27.025 51.6)"/><use xlink:href="#B" transform="matrix(1,0,0,1,2042,451.5) translate(88.975 51.6)"/><path d="M1160 361v26.5c0 6.63 5.37 12 12 12h120.1c6.63 0 12 5.37 12 12v10.62" stroke="#333" fill="none"/><path d="M1160.5 361h-1v-.5h1" fill="#333"/><path d="M1304.1 436.88l-4.63-14.26h9.27z" stroke="#333" fill="#333"/><path d="M1160 361v26.5c0 6.63-5.37 12-12 12H322c-6.63 0-12 5.37-12 12v10.62" stroke="#333" fill="none"/><path d="M1160.5 361h-1v-.5h1" fill="#333"/><path d="M310 436.88l-4.64-14.26h9.28z" stroke="#333" fill="#333"/><path d="M1160 361v26.5c0 6.63-5.37 12-12 12H822c-6.63 0-12 5.37-12 12v10.62" stroke="#333" fill="none"/><path d="M1160.5 361h-1v-.5h1" fill="#333"/><path d="M810 436.88l-4.64-14.26h9.28z" stroke="#333" fill="#333"/><path d="M1160 361v26.5c0 6.63 5.37 12 12 12h520.1c6.63 0 12 5.37 12 12v10.62" stroke="#333" fill="none"/><path d="M1160.5 361h-1v-.5h1" fill="#333"/><path d="M1704.1 436.88l-4.63-14.26h9.27z" stroke="#333" fill="#333"/><path d="M1160 361v26.75c0 6.63 5.37 12 12 12h926c6.63 0 12 5.37 12 12v10.87" stroke="#333" fill="none"/><path d="M1160.5 361h-1v-.5h1" fill="#333"/><path d="M2110 437.38l-4.64-14.26h9.28z" stroke="#333" fill="#333"/><path d="M330 647c0-4.42 3.58-8 8-8h144c4.42 0 8 3.58 8 8v104c0 4.42-3.58 8-8 8H338c-4.42 0-8-3.58-8-8z" stroke="#333" fill="#ffc374"/><use xlink:href="#C" transform="matrix(1,0,0,1,342.0000000000002,651) translate(31.549999999999997 51.6)"/><path d="M310 560v27c0 6.63 5.37 12 12 12h76c6.63 0 12 5.37 12 12v11.12" stroke="#333" fill="none"/><path d="M310.5 560h-1v-.5h1" fill="#333"/><path d="M410 636.88l-4.64-14.26h9.28z" stroke="#333" fill="#333"/><path d="M130 647c0-4.42 3.58-8 8-8h144c4.42 0 8 3.58 8 8v104c0 4.42-3.58 8-8 8H138c-4.42 0-8-3.58-8-8z" stroke="#333" fill="#ffc374"/><use xlink:href="#D" transform="matrix(1,0,0,1,142.00000000000023,651) translate(46.05 40.8)"/><use xlink:href="#E" transform="matrix(1,0,0,1,142.00000000000023,651) translate(1.125 62.4)"/><path d="M810 560v27c0 6.63-5.37 12-12 12H616.1c-6.62 0-12 5.37-12 12v11.12" stroke="#333" fill="none"/><path d="M810.5 560h-1v-.5h1" fill="#333"/><path d="M604.1 636.88l-4.63-14.26h9.27z" stroke="#333" fill="#333"/><path d="M524.1 647c0-4.42 3.6-8 8-8h144c4.42 0 8 3.58 8 8v104c0 4.42-3.58 8-8 8h-144c-4.4 0-8-3.58-8-8z" stroke="#333" fill="#99d2f2"/><use xlink:href="#F" transform="matrix(1,0,0,1,536.1039387465421,651) translate(49.025 19.19999999999999)"/><use xlink:href="#G" transform="matrix(1,0,0,1,536.1039387465421,651) translate(15.549999999999997 40.79999999999999)"/><use xlink:href="#H" transform="matrix(1,0,0,1,536.1039387465421,651) translate(38.025 62.39999999999999)"/><use xlink:href="#I" transform="matrix(1,0,0,1,536.1039387465421,651) translate(9.649999999999991 84)"/><use xlink:href="#J" transform="matrix(1,0,0,1,536.1039387465421,651) translate(78.55 84)"/><path d="M730 647c0-4.42 3.58-8 8-8h144c4.42 0 8 3.58 8 8v104c0 4.42-3.58 8-8 8H738c-4.42 0-8-3.58-8-8z" stroke="#333" fill="#99d2f2"/><use xlink:href="#K" transform="matrix(1,0,0,1,742.0000000000002,651) translate(36.05 40.8)"/><use xlink:href="#L" transform="matrix(1,0,0,1,742.0000000000002,651) translate(7.574999999999996 62.4)"/><path d="M810 560v62.12" stroke="#333" fill="none"/><path d="M810.5 560h-1v-.5h1" fill="#333"/><path d="M810 636.88l-4.64-14.26h9.28z" stroke="#333" fill="#333"/><path d="M810 760v42.12" stroke="#333" fill="none"/><path d="M810.5 760h-1v-.5h1" fill="#333"/><path d="M810 816.88l-4.64-14.26h9.28z" stroke="#333" fill="#333"/><path d="M730 827c0-4.42 3.58-8 8-8h144c4.42 0 8 3.58 8 8v104c0 4.42-3.58 8-8 8H738c-4.42 0-8-3.58-8-8z" stroke="#333" fill="#c1e4f7"/><use xlink:href="#M" transform="matrix(1,0,0,1,742.0000000000002,831) translate(29.549999999999997 51.6)"/><path d="M1130 647c0-4.42 3.58-8 8-8h144c4.42 0 8 3.58 8 8v104c0 4.42-3.58 8-8 8h-144c-4.42 0-8-3.58-8-8z" stroke="#333" fill="#ffbbb1"/><use xlink:href="#N" transform="matrix(1,0,0,1,1142.0000000000002,651) translate(32.05 30)"/><use xlink:href="#O" transform="matrix(1,0,0,1,1142.0000000000002,651) translate(15.549999999999997 51.6)"/><use xlink:href="#P" transform="matrix(1,0,0,1,1142.0000000000002,651) translate(39.974999999999994 73.2)"/><path d="M1304.1 560v27c0 6.63-5.37 12-12 12H1222c-6.63 0-12 5.37-12 12v11.12" stroke="#333" fill="none"/><path d="M1304.6 560h-1v-.5h1" fill="#333"/><path d="M1210 636.88l-4.64-14.26h9.28z" stroke="#333" fill="#333"/><path d="M1324.1 647c0-4.42 3.6-8 8-8h144c4.42 0 8 3.58 8 8v104c0 4.42-3.58 8-8 8h-144c-4.4 0-8-3.58-8-8z" stroke="#333" fill="#ffbbb1"/><use xlink:href="#Q" transform="matrix(1,0,0,1,1336.103938746542,651) translate(46.05 40.8)"/><use xlink:href="#R" transform="matrix(1,0,0,1,1336.103938746542,651) translate(15.074999999999996 62.4)"/><path d="M1304.1 560v27c0 6.63 5.38 12 12 12h76c6.63 0 12 5.37 12 12v11.12" stroke="#333" fill="none"/><path d="M1304.6 560h-1v-.5h1" fill="#333"/><path d="M1404.1 636.88l-4.63-14.26h9.27z" stroke="#333" fill="#333"/><path d="M1524.1 647c0-4.42 3.6-8 8-8h144c4.42 0 8 3.58 8 8v104c0 4.42-3.58 8-8 8h-144c-4.4 0-8-3.58-8-8z" stroke="#333" fill="#a3d977"/><use xlink:href="#S" transform="matrix(1,0,0,1,1536.103938746542,651) translate(11.074999999999996 51.6)"/><use xlink:href="#T" transform="matrix(1,0,0,1,1536.103938746542,651) translate(48.025 51.6)"/><path d="M1724.1 647c0-4.42 3.6-8 8-8h144c4.42 0 8 3.58 8 8v104c0 4.42-3.58 8-8 8h-144c-4.4 0-8-3.58-8-8z" stroke="#333" fill="#a3d977"/><use xlink:href="#U" transform="matrix(1,0,0,1,1736.1039387465423,651) translate(13.024999999999999 40.8)"/><use xlink:href="#V" transform="matrix(1,0,0,1,1736.1039387465423,651) translate(80.975 40.8)"/><use xlink:href="#W" transform="matrix(1,0,0,1,1736.1039387465423,651) translate(90.975 40.8)"/><use xlink:href="#z" transform="matrix(1,0,0,1,1736.1039387465423,651) translate(44.025 62.4)"/><path d="M1704.1 560v27c0 6.63-5.37 12-12 12h-76c-6.62 0-12 5.37-12 12v11.12" stroke="#333" fill="none"/><path d="M1704.6 560h-1v-.5h1" fill="#333"/><path d="M1604.1 636.88l-4.63-14.26h9.27z" stroke="#333" fill="#333"/><path d="M1704.1 560v27c0 6.63 5.38 12 12 12h76c6.63 0 12 5.37 12 12v11.12" stroke="#333" fill="none"/><path d="M1704.6 560h-1v-.5h1" fill="#333"/><path d="M1804.1 636.88l-4.63-14.26h9.27z" stroke="#333" fill="#333"/><path d="M2110 560.5v27c0 6.63-5.37 12-12 12h-76c-6.63 0-12 5.37-12 12v11.12" stroke="#333" fill="none"/><path d="M2110.5 560.5h-1v-.5h1" fill="#333"/><path d="M2010 637.38l-4.64-14.26h9.28z" stroke="#333" fill="#333"/><path d="M1930 647.5c0-4.42 3.58-8 8-8h144c4.42 0 8 3.58 8 8v104c0 4.42-3.58 8-8 8h-144c-4.42 0-8-3.58-8-8z" stroke="#333" fill="#ffeca9"/><path d="M330 827c0-4.42 3.58-8 8-8h144c4.42 0 8 3.58 8 8v104c0 4.42-3.58 8-8 8H338c-4.42 0-8-3.58-8-8z" stroke="#333" fill="#ffdba9"/><g><use xlink:href="#s" transform="matrix(1,0,0,1,342.0000000000002,831) translate(7.099999999999994 51.6)"/><use xlink:href="#X" transform="matrix(1,0,0,1,342.0000000000002,831) translate(56 51.6)"/></g><path d="M310 560v27c0 6.63-5.37 12-12 12h-76c-6.63 0-12 5.37-12 12v11.12" stroke="#333" fill="none"/><path d="M310.5 560h-1v-.5h1" fill="#333"/><path d="M210 636.88l-4.64-14.26h9.28z" stroke="#333" fill="#333"/><path d="M410 760v42.12" stroke="#333" fill="none"/><path d="M410.5 760h-1v-.5h1" fill="#333"/><path d="M410 816.88l-4.64-14.26h9.28z" stroke="#333" fill="#333"/><path d="M330 1007c0-4.42 3.58-8 8-8h144c4.42 0 8 3.58 8 8v104c0 4.42-3.58 8-8 8H338c-4.42 0-8-3.58-8-8z" stroke="#333" fill="#ffdba9"/><g><use xlink:href="#Y" transform="matrix(1,0,0,1,342.0000000000002,1011) translate(15.099999999999994 40.8)"/><use xlink:href="#Z" transform="matrix(1,0,0,1,342.0000000000002,1011) translate(68.05 40.8)"/><use xlink:href="#X" transform="matrix(1,0,0,1,342.0000000000002,1011) translate(31.549999999999997 62.4)"/></g><path d="M410 940v42.12" stroke="#333" fill="none"/><path d="M410.5 940h-1v-.5h1" fill="#333"/><path d="M410 996.88l-4.64-14.26h9.28z" stroke="#333" fill="#333"/><path d="M1324.1 827.5c0-4.42 3.6-8 8-8h144c4.42 0 8 3.58 8 8v104c0 4.42-3.58 8-8 8h-144c-4.4 0-8-3.58-8-8z" stroke="#333" fill="#ffbbb1"/><g><use xlink:href="#aa" transform="matrix(1,0,0,1,1336.103938746542,831.5) translate(21.549999999999997 51.6)"/><use xlink:href="#ab" transform="matrix(1,0,0,1,1336.103938746542,831.5) translate(70.55 51.6)"/></g><path d="M1324.1 1008c0-4.42 3.6-8 8-8h144c4.42 0 8 3.58 8 8v104c0 4.42-3.58 8-8 8h-144c-4.4 0-8-3.58-8-8z" stroke="#333" fill="#fccdc6"/><g><use xlink:href="#ac" transform="matrix(1,0,0,1,1336.103938746542,1012) translate(27.074999999999996 51.6)"/><use xlink:href="#ab" transform="matrix(1,0,0,1,1336.103938746542,1012) translate(65.025 51.6)"/></g><path d="M1404.1 760v42.62" stroke="#333" fill="none"/><path d="M1404.6 760h-1v-.5h1" fill="#333"/><path d="M1404.1 817.38l-4.63-14.26h9.27z" stroke="#333" fill="#333"/><path d="M1404.1 940.5v42.62" stroke="#333" fill="none"/><path d="M1404.6 940.5h-1v-.5h1" fill="#333"/><path d="M1404.1 997.88l-4.63-14.26h9.27z" stroke="#333" fill="#333"/><path d="M1804.1 760v42.62" stroke="#333" fill="none"/><path d="M1804.6 760h-1v-.5h1" fill="#333"/><path d="M1804.1 817.38l-4.63-14.26h9.27z" stroke="#333" fill="#333"/><path d="M1724.1 827.5c0-4.42 3.6-8 8-8h144c4.42 0 8 3.58 8 8v104c0 4.42-3.58 8-8 8h-144c-4.4 0-8-3.58-8-8z" stroke="#333" fill="#a3d977"/><g><use xlink:href="#ad" transform="matrix(1,0,0,1,1736.1039387465423,831.5) translate(68 51.6)"/></g><path d="M935.9 647c0-4.42 3.58-8 8-8h144c4.4 0 8 3.58 8 8v104c0 4.42-3.6 8-8 8h-144c-4.42 0-8-3.58-8-8z" stroke="#333" fill="#99d2f2"/><g><use xlink:href="#ae" transform="matrix(1,0,0,1,947.8960612534584,651) translate(44.55 30)"/><use xlink:href="#af" transform="matrix(1,0,0,1,947.8960612534584,651) translate(21.574999999999996 51.6)"/><use xlink:href="#ag" transform="matrix(1,0,0,1,947.8960612534584,651) translate(27.049999999999997 73.2)"/></g><path d="M810 560v27c0 6.63 5.37 12 12 12h181.9c6.62 0 12 5.37 12 12v11.12" stroke="#333" fill="none"/><path d="M810.5 560h-1v-.5h1" fill="#333"/><path d="M1015.9 636.88l-4.64-14.26h9.27z" stroke="#333" fill="#333"/><defs><path fill="#a9afb8" d="M275 0h-61l-44-196L126 0H64L0-248h53L97-49l45-199h58l43 199 44-199h52" id="ah"/><path fill="#a9afb8" d="M182-130c37 4 62 22 62 59C244 23 116-4 24 0v-248c84 5 203-23 205 63 0 31-19 50-47 55zM76-148c40-3 101 13 101-30 0-44-60-28-101-31v61zm0 110c48-3 116 14 116-37 0-48-69-32-116-35v72" id="ai"/><path fill="#a9afb8" d="M169-182c-1-43-94-46-97-3 18 66 151 10 154 114 3 95-165 93-204 36-6-8-10-19-12-30l50-8c3 46 112 56 116 5-17-69-150-10-154-114-4-87 153-88 188-35 5 8 8 18 10 28" id="aj"/><g id="a"><use transform="matrix(0.0728395061728395,0,0,0.0728395061728395,0,0)" xlink:href="#ah"/><use transform="matrix(0.0728395061728395,0,0,0.0728395061728395,24.692592592592593,0)" xlink:href="#ai"/><use transform="matrix(0.0728395061728395,0,0,0.0728395061728395,43.558024691358035,0)" xlink:href="#aj"/></g><path fill="#a9afb8" d="M147 0H94L2-248h55l64 206c17-72 42-137 63-206h54" id="ak"/><path fill="#a9afb8" d="M23 0v-37h61v-169l-59 37v-38l62-41h46v211h57V0H23" id="al"/><g id="b"><use transform="matrix(0.0728395061728395,0,0,0.0728395061728395,0,0)" xlink:href="#ak"/><use transform="matrix(0.0728395061728395,0,0,0.0728395061728395,17.48148148148148,0)" xlink:href="#al"/></g><path fill="#a9afb8" d="M127-220V0H93v-220H8v-28h204v28h-85" id="am"/><path fill="#a9afb8" d="M179-190L93 31C79 59 56 82 12 73V49c39 6 53-20 64-50L1-190h34L92-34l54-156h33" id="an"/><path fill="#a9afb8" d="M24 0v-261h32V0H24" id="ao"/><path fill="#a9afb8" d="M100-194c63 0 86 42 84 106H49c0 40 14 67 53 68 26 1 43-12 49-29l28 8c-11 28-37 45-77 45C44 4 14-33 15-96c1-61 26-98 85-98zm52 81c6-60-76-77-97-28-3 7-6 17-6 28h103" id="ap"/><path fill="#a9afb8" d="M114-163C36-179 61-72 57 0H25l-1-190h30c1 12-1 29 2 39 6-27 23-49 58-41v29" id="aq"/><g id="c"><use transform="matrix(0.04248971193415638,0,0,0.04248971193415638,0,0)" xlink:href="#am"/><use transform="matrix(0.04248971193415638,0,0,0.04248971193415638,8.455452674897119,0)" xlink:href="#an"/><use transform="matrix(0.04248971193415638,0,0,0.04248971193415638,16.103600823045266,0)" xlink:href="#ao"/><use transform="matrix(0.04248971193415638,0,0,0.04248971193415638,19.46028806584362,0)" xlink:href="#ap"/><use transform="matrix(0.04248971193415638,0,0,0.04248971193415638,27.958230452674897,0)" xlink:href="#aq"/></g><path fill="#a9afb8" d="M30-248c118-7 216 8 213 122C240-48 200 0 122 0H30v-248zM63-27c89 8 146-16 146-99s-60-101-146-95v194" id="ar"/><path fill="#a9afb8" d="M135-143c-3-34-86-38-87 0 15 53 115 12 119 90S17 21 10-45l28-5c4 36 97 45 98 0-10-56-113-15-118-90-4-57 82-63 122-42 12 7 21 19 24 35" id="as"/><path fill="#a9afb8" d="M96-169c-40 0-48 33-48 73s9 75 48 75c24 0 41-14 43-38l32 2c-6 37-31 61-74 61-59 0-76-41-82-99-10-93 101-131 147-64 4 7 5 14 7 22l-32 3c-4-21-16-35-41-35" id="at"/><path fill="#a9afb8" d="M106-169C34-169 62-67 57 0H25v-261h32l-1 103c12-21 28-36 61-36 89 0 53 116 60 194h-32v-121c2-32-8-49-39-48" id="au"/><path fill="#a9afb8" d="M141-36C126-15 110 5 73 4 37 3 15-17 15-53c-1-64 63-63 125-63 3-35-9-54-41-54-24 1-41 7-42 31l-33-3c5-37 33-52 76-52 45 0 72 20 72 64v82c-1 20 7 32 28 27v20c-31 9-61-2-59-35zM48-53c0 20 12 33 32 33 41-3 63-29 60-74-43 2-92-5-92 41" id="av"/><path fill="#a9afb8" d="M210-169c-67 3-38 105-44 169h-31v-121c0-29-5-50-35-48C34-165 62-65 56 0H25l-1-190h30c1 10-1 24 2 32 10-44 99-50 107 0 11-21 27-35 58-36 85-2 47 119 55 194h-31v-121c0-29-5-49-35-48" id="aw"/><path fill="#a9afb8" d="M115-194c55 1 70 41 70 98S169 2 115 4C84 4 66-9 55-30l1 105H24l-1-265h31l2 30c10-21 28-34 59-34zm-8 174c40 0 45-34 45-75s-6-73-45-74c-42 0-51 32-51 76 0 43 10 73 51 73" id="ax"/><g id="d"><use transform="matrix(0.04248971193415638,0,0,0.04248971193415638,0,0)" xlink:href="#ar"/><use transform="matrix(0.04248971193415638,0,0,0.04248971193415638,11.004835390946502,0)" xlink:href="#ap"/><use transform="matrix(0.04248971193415638,0,0,0.04248971193415638,19.502777777777776,0)" xlink:href="#as"/><use transform="matrix(0.04248971193415638,0,0,0.04248971193415638,27.150925925925925,0)" xlink:href="#at"/><use transform="matrix(0.04248971193415638,0,0,0.04248971193415638,34.79907407407407,0)" xlink:href="#au"/><use transform="matrix(0.04248971193415638,0,0,0.04248971193415638,43.29701646090535,0)" xlink:href="#av"/><use transform="matrix(0.04248971193415638,0,0,0.04248971193415638,51.79495884773662,0)" xlink:href="#aw"/><use transform="matrix(0.04248971193415638,0,0,0.04248971193415638,64.49938271604938,0)" xlink:href="#ax"/><use transform="matrix(0.04248971193415638,0,0,0.04248971193415638,72.99732510288065,0)" xlink:href="#as"/></g><path fill="#a9afb8" d="M32 76v-337h29V76H32" id="ay"/><use transform="matrix(0.04248971193415638,0,0,0.04248971193415638,0,0)" xlink:href="#ay" id="e"/><path fill="#a9afb8" d="M153-248C145-148 188 4 80 4 36 3 13-21 6-62l32-5c4 25 16 42 43 43 27 0 39-20 39-49v-147H72v-28h81" id="az"/><path fill="#a9afb8" d="M117-194c89-4 53 116 60 194h-32v-121c0-31-8-49-39-48C34-167 62-67 57 0H25l-1-190h30c1 10-1 24 2 32 11-22 29-35 61-36" id="aA"/><path fill="#a9afb8" d="M84 4C-5 8 30-112 23-190h32v120c0 31 7 50 39 49 72-2 45-101 50-169h31l1 190h-30c-1-10 1-25-2-33-11 22-28 36-60 37" id="aB"/><g id="f"><use transform="matrix(0.04248971193415638,0,0,0.04248971193415638,0,0)" xlink:href="#az"/><use transform="matrix(0.04248971193415638,0,0,0.04248971193415638,7.648148148148148,0)" xlink:href="#av"/><use transform="matrix(0.04248971193415638,0,0,0.04248971193415638,16.14609053497942,0)" xlink:href="#aA"/><use transform="matrix(0.04248971193415638,0,0,0.04248971193415638,24.644032921810698,0)" xlink:href="#aB"/><use transform="matrix(0.04248971193415638,0,0,0.04248971193415638,33.141975308641975,0)" xlink:href="#av"/><use transform="matrix(0.04248971193415638,0,0,0.04248971193415638,41.63991769547325,0)" xlink:href="#aq"/><use transform="matrix(0.04248971193415638,0,0,0.04248971193415638,46.69619341563786,0)" xlink:href="#an"/></g><path fill="#a9afb8" d="M101-251c82-7 93 87 43 132L82-64C71-53 59-42 53-27h129V0H18c2-99 128-94 128-182 0-28-16-43-45-43s-46 15-49 41l-32-3c6-41 34-60 81-64" id="aC"/><path fill="#a9afb8" d="M155-56V0h-30v-56H8v-25l114-167h33v167h35v25h-35zm-30-156c-27 46-58 90-88 131h88v-131" id="aD"/><path fill="#a9afb8" d="M68-38c1 34 0 65-14 84H32c9-13 17-26 17-46H33v-38h35" id="aE"/><g id="g"><use transform="matrix(0.04248971193415638,0,0,0.04248971193415638,0,0)" xlink:href="#aC"/><use transform="matrix(0.04248971193415638,0,0,0.04248971193415638,8.497942386831275,0)" xlink:href="#aD"/><use transform="matrix(0.04248971193415638,0,0,0.04248971193415638,16.99588477366255,0)" xlink:href="#aE"/></g><path fill="#a9afb8" d="M101-251c68 0 85 55 85 127S166 4 100 4C33 4 14-52 14-124c0-73 17-127 87-127zm-1 229c47 0 54-49 54-102s-4-102-53-102c-51 0-55 48-55 102 0 53 5 102 54 102" id="aF"/><g id="h"><use transform="matrix(0.04248971193415638,0,0,0.04248971193415638,0,0)" xlink:href="#aC"/><use transform="matrix(0.04248971193415638,0,0,0.04248971193415638,8.497942386831275,0)" xlink:href="#aF"/><use transform="matrix(0.04248971193415638,0,0,0.04248971193415638,16.99588477366255,0)" xlink:href="#aC"/><use transform="matrix(0.04248971193415638,0,0,0.04248971193415638,25.493827160493822,0)" xlink:href="#aC"/></g><path fill="#333" d="M266 0h-40l-56-210L115 0H75L2-248h35L96-30l15-64 43-154h32l59 218 59-218h35" id="aG"/><path fill="#333" d="M100-194c62-1 85 37 85 99 1 63-27 99-86 99S16-35 15-95c0-66 28-99 85-99zM99-20c44 1 53-31 53-75 0-43-8-75-51-75s-53 32-53 75 10 74 51 75" id="aH"/><path fill="#333" d="M114-163C36-179 61-72 57 0H25l-1-190h30c1 12-1 29 2 39 6-27 23-49 58-41v29" id="aI"/><path fill="#333" d="M143 0L79-87 56-68V0H24v-261h32v163l83-92h37l-77 82L181 0h-38" id="aJ"/><g id="i"><use transform="matrix(0.05,0,0,0.05,0,0)" xlink:href="#aG"/><use transform="matrix(0.05,0,0,0.05,16.599999999999998,0)" xlink:href="#aH"/><use transform="matrix(0.05,0,0,0.05,26.599999999999994,0)" xlink:href="#aI"/><use transform="matrix(0.05,0,0,0.05,32.55,0)" xlink:href="#aJ"/></g><path fill="#333" d="M160-131c35 5 61 23 61 61C221 17 115-2 30 0v-248c76 3 177-17 177 60 0 33-19 50-47 57zm-97-11c50-1 110 9 110-42 0-47-63-36-110-37v79zm0 115c55-2 124 14 124-45 0-56-70-42-124-44v89" id="aK"/><path fill="#333" d="M100-194c63 0 86 42 84 106H49c0 40 14 67 53 68 26 1 43-12 49-29l28 8c-11 28-37 45-77 45C44 4 14-33 15-96c1-61 26-98 85-98zm52 81c6-60-76-77-97-28-3 7-6 17-6 28h103" id="aL"/><path fill="#333" d="M141-36C126-15 110 5 73 4 37 3 15-17 15-53c-1-64 63-63 125-63 3-35-9-54-41-54-24 1-41 7-42 31l-33-3c5-37 33-52 76-52 45 0 72 20 72 64v82c-1 20 7 32 28 27v20c-31 9-61-2-59-35zM48-53c0 20 12 33 32 33 41-3 63-29 60-74-43 2-92-5-92 41" id="aM"/><path fill="#333" d="M85-194c31 0 48 13 60 33l-1-100h32l1 261h-30c-2-10 0-23-3-31C134-8 116 4 85 4 32 4 16-35 15-94c0-66 23-100 70-100zm9 24c-40 0-46 34-46 75 0 40 6 74 45 74 42 0 51-32 51-76 0-42-9-74-50-73" id="aN"/><path fill="#333" d="M206 0h-36l-40-164L89 0H53L-1-190h32L70-26l43-164h34l41 164 42-164h31" id="aO"/><path fill="#333" d="M117-194c89-4 53 116 60 194h-32v-121c0-31-8-49-39-48C34-167 62-67 57 0H25l-1-190h30c1 10-1 24 2 32 11-22 29-35 61-36" id="aP"/><g id="j"><use transform="matrix(0.05,0,0,0.05,0,0)" xlink:href="#aK"/><use transform="matrix(0.05,0,0,0.05,12,0)" xlink:href="#aI"/><use transform="matrix(0.05,0,0,0.05,17.95,0)" xlink:href="#aL"/><use transform="matrix(0.05,0,0,0.05,27.950000000000003,0)" xlink:href="#aM"/><use transform="matrix(0.05,0,0,0.05,37.95,0)" xlink:href="#aJ"/><use transform="matrix(0.05,0,0,0.05,46.95,0)" xlink:href="#aN"/><use transform="matrix(0.05,0,0,0.05,56.95,0)" xlink:href="#aH"/><use transform="matrix(0.05,0,0,0.05,66.95,0)" xlink:href="#aO"/><use transform="matrix(0.05,0,0,0.05,79.9,0)" xlink:href="#aP"/></g><path fill="#333" d="M127-220V0H93v-220H8v-28h204v28h-85" id="aQ"/><path fill="#333" d="M179-190L93 31C79 59 56 82 12 73V49c39 6 53-20 64-50L1-190h34L92-34l54-156h33" id="aR"/><path fill="#333" d="M24 0v-261h32V0H24" id="aS"/><g id="k"><use transform="matrix(0.05,0,0,0.05,0,0)" xlink:href="#aQ"/><use transform="matrix(0.05,0,0,0.05,9.950000000000001,0)" xlink:href="#aR"/><use transform="matrix(0.05,0,0,0.05,18.950000000000003,0)" xlink:href="#aS"/><use transform="matrix(0.05,0,0,0.05,22.900000000000002,0)" xlink:href="#aL"/><use transform="matrix(0.05,0,0,0.05,32.900000000000006,0)" xlink:href="#aI"/></g><path fill="#333" d="M30-248c87 1 191-15 191 75 0 78-77 80-158 76V0H30v-248zm33 125c57 0 124 11 124-50 0-59-68-47-124-48v98" id="aT"/><path fill="#333" d="M177-190C167-65 218 103 67 71c-23-6-38-20-44-43l32-5c15 47 100 32 89-28v-30C133-14 115 1 83 1 29 1 15-40 15-95c0-56 16-97 71-98 29-1 48 16 59 35 1-10 0-23 2-32h30zM94-22c36 0 50-32 50-73 0-42-14-75-50-75-39 0-46 34-46 75s6 73 46 73" id="aU"/><path fill="#333" d="M135-143c-3-34-86-38-87 0 15 53 115 12 119 90S17 21 10-45l28-5c4 36 97 45 98 0-10-56-113-15-118-90-4-57 82-63 122-42 12 7 21 19 24 35" id="aV"/><g id="l"><use transform="matrix(0.05,0,0,0.05,0,0)" xlink:href="#aT"/><use transform="matrix(0.05,0,0,0.05,12,0)" xlink:href="#aI"/><use transform="matrix(0.05,0,0,0.05,17.95,0)" xlink:href="#aH"/><use transform="matrix(0.05,0,0,0.05,27.950000000000003,0)" xlink:href="#aU"/><use transform="matrix(0.05,0,0,0.05,37.95,0)" xlink:href="#aI"/><use transform="matrix(0.05,0,0,0.05,43.900000000000006,0)" xlink:href="#aL"/><use transform="matrix(0.05,0,0,0.05,53.900000000000006,0)" xlink:href="#aV"/><use transform="matrix(0.05,0,0,0.05,62.900000000000006,0)" xlink:href="#aV"/></g><g id="m"><use transform="matrix(0.05,0,0,0.05,0,0)" xlink:href="#aM"/><use transform="matrix(0.05,0,0,0.05,10,0)" xlink:href="#aP"/><use transform="matrix(0.05,0,0,0.05,20,0)" xlink:href="#aN"/></g><path fill="#333" d="M240 0l2-218c-23 76-54 145-80 218h-23L58-218 59 0H30v-248h44l77 211c21-75 51-140 76-211h43V0h-30" id="aW"/><path fill="#333" d="M24-231v-30h32v30H24zM24 0v-190h32V0H24" id="aX"/><path fill="#333" d="M59-47c-2 24 18 29 38 22v24C64 9 27 4 27-40v-127H5v-23h24l9-43h21v43h35v23H59v120" id="aY"/><g id="n"><use transform="matrix(0.05,0,0,0.05,0,0)" xlink:href="#aW"/><use transform="matrix(0.05,0,0,0.05,14.950000000000001,0)" xlink:href="#aX"/><use transform="matrix(0.05,0,0,0.05,18.900000000000002,0)" xlink:href="#aS"/><use transform="matrix(0.05,0,0,0.05,22.85,0)" xlink:href="#aL"/><use transform="matrix(0.05,0,0,0.05,32.85,0)" xlink:href="#aV"/><use transform="matrix(0.05,0,0,0.05,41.85,0)" xlink:href="#aY"/><use transform="matrix(0.05,0,0,0.05,46.85,0)" xlink:href="#aH"/><use transform="matrix(0.05,0,0,0.05,56.85,0)" xlink:href="#aP"/><use transform="matrix(0.05,0,0,0.05,66.85,0)" xlink:href="#aL"/><use transform="matrix(0.05,0,0,0.05,76.85,0)" xlink:href="#aV"/></g><path fill="#333" d="M212-179c-10-28-35-45-73-45-59 0-87 40-87 99 0 60 29 101 89 101 43 0 62-24 78-52l27 14C228-24 195 4 139 4 59 4 22-46 18-125c-6-104 99-153 187-111 19 9 31 26 39 46" id="aZ"/><g id="o"><use transform="matrix(0.05,0,0,0.05,0,0)" xlink:href="#aZ"/><use transform="matrix(0.05,0,0,0.05,12.950000000000001,0)" xlink:href="#aH"/><use transform="matrix(0.05,0,0,0.05,22.950000000000003,0)" xlink:href="#aN"/><use transform="matrix(0.05,0,0,0.05,32.95,0)" xlink:href="#aR"/></g><path fill="#333" d="M185-189c-5-48-123-54-124 2 14 75 158 14 163 119 3 78-121 87-175 55-17-10-28-26-33-46l33-7c5 56 141 63 141-1 0-78-155-14-162-118-5-82 145-84 179-34 5 7 8 16 11 25" id="ba"/><path fill="#333" d="M96-169c-40 0-48 33-48 73s9 75 48 75c24 0 41-14 43-38l32 2c-6 37-31 61-74 61-59 0-76-41-82-99-10-93 101-131 147-64 4 7 5 14 7 22l-32 3c-4-21-16-35-41-35" id="bb"/><path fill="#333" d="M115-194c53 0 69 39 70 98 0 66-23 100-70 100C84 3 66-7 56-30L54 0H23l1-261h32v101c10-23 28-34 59-34zm-8 174c40 0 45-34 45-75 0-40-5-75-45-74-42 0-51 32-51 76 0 43 10 73 51 73" id="bc"/><g id="p"><use transform="matrix(0.05,0,0,0.05,0,0)" xlink:href="#ba"/><use transform="matrix(0.05,0,0,0.05,12,0)" xlink:href="#bb"/><use transform="matrix(0.05,0,0,0.05,21,0)" xlink:href="#aI"/><use transform="matrix(0.05,0,0,0.05,26.950000000000003,0)" xlink:href="#aX"/><use transform="matrix(0.05,0,0,0.05,30.899999999999995,0)" xlink:href="#bc"/><use transform="matrix(0.05,0,0,0.05,40.9,0)" xlink:href="#aL"/></g><path fill="#333" d="M233-177c-1 41-23 64-60 70L243 0h-38l-65-103H63V0H30v-248c88 3 205-21 203 71zM63-129c60-2 137 13 137-47 0-61-80-42-137-45v92" id="bd"/><path fill="#333" d="M106-169C34-169 62-67 57 0H25v-261h32l-1 103c12-21 28-36 61-36 89 0 53 116 60 194h-32v-121c2-32-8-49-39-48" id="be"/><g id="q"><use transform="matrix(0.05,0,0,0.05,0,0)" xlink:href="#bd"/><use transform="matrix(0.05,0,0,0.05,12.950000000000001,0)" xlink:href="#aL"/><use transform="matrix(0.05,0,0,0.05,22.950000000000003,0)" xlink:href="#aV"/><use transform="matrix(0.05,0,0,0.05,31.950000000000003,0)" xlink:href="#aL"/><use transform="matrix(0.05,0,0,0.05,41.95,0)" xlink:href="#aM"/><use transform="matrix(0.05,0,0,0.05,51.95,0)" xlink:href="#aI"/><use transform="matrix(0.05,0,0,0.05,57.900000000000006,0)" xlink:href="#bb"/><use transform="matrix(0.05,0,0,0.05,66.9,0)" xlink:href="#be"/><use transform="matrix(0.05,0,0,0.05,76.9,0)" xlink:href="#aL"/><use transform="matrix(0.05,0,0,0.05,86.9,0)" xlink:href="#aI"/></g><path fill="#333" d="M153-248C145-148 188 4 80 4 36 3 13-21 6-62l32-5c4 25 16 42 43 43 27 0 39-20 39-49v-147H72v-28h81" id="bf"/><g id="r"><use transform="matrix(0.05,0,0,0.05,0,0)" xlink:href="#bf"/><use transform="matrix(0.05,0,0,0.05,9,0)" xlink:href="#aM"/><use transform="matrix(0.05,0,0,0.05,19,0)" xlink:href="#aN"/><use transform="matrix(0.05,0,0,0.05,29,0)" xlink:href="#aL"/><use transform="matrix(0.05,0,0,0.05,39,0)" xlink:href="#aP"/></g><path fill="#333" d="M210-169c-67 3-38 105-44 169h-31v-121c0-29-5-50-35-48C34-165 62-65 56 0H25l-1-190h30c1 10-1 24 2 32 10-44 99-50 107 0 11-21 27-35 58-36 85-2 47 119 55 194h-31v-121c0-29-5-49-35-48" id="bg"/><g id="s"><use transform="matrix(0.05,0,0,0.05,0,0)" xlink:href="#aQ"/><use transform="matrix(0.05,0,0,0.05,8.950000000000001,0)" xlink:href="#aL"/><use transform="matrix(0.05,0,0,0.05,18.950000000000003,0)" xlink:href="#aM"/><use transform="matrix(0.05,0,0,0.05,28.950000000000003,0)" xlink:href="#bg"/></g><path fill="#333" d="M30 0v-248h33v221h125V0H30" id="bh"/><g id="t"><use transform="matrix(0.05,0,0,0.05,0,0)" xlink:href="#bh"/><use transform="matrix(0.05,0,0,0.05,10,0)" xlink:href="#aL"/><use transform="matrix(0.05,0,0,0.05,20,0)" xlink:href="#aM"/><use transform="matrix(0.05,0,0,0.05,30,0)" xlink:href="#aN"/></g><path fill="#333" d="M84 4C-5 8 30-112 23-190h32v120c0 31 7 50 39 49 72-2 45-101 50-169h31l1 190h-30c-1-10 1-25-2-33-11 22-28 36-60 37" id="bi"/><g id="u"><use transform="matrix(0.05,0,0,0.05,0,0)" xlink:href="#ba"/><use transform="matrix(0.05,0,0,0.05,12,0)" xlink:href="#bb"/><use transform="matrix(0.05,0,0,0.05,21,0)" xlink:href="#be"/><use transform="matrix(0.05,0,0,0.05,31,0)" xlink:href="#aL"/><use transform="matrix(0.05,0,0,0.05,41,0)" xlink:href="#aN"/><use transform="matrix(0.05,0,0,0.05,51,0)" xlink:href="#bi"/><use transform="matrix(0.05,0,0,0.05,61,0)" xlink:href="#aS"/><use transform="matrix(0.05,0,0,0.05,64.95,0)" xlink:href="#aL"/></g><path fill="#333" d="M30 0v-248h187v28H63v79h144v27H63v87h162V0H30" id="bj"/><g id="v"><use transform="matrix(0.05,0,0,0.05,0,0)" xlink:href="#bj"/><use transform="matrix(0.05,0,0,0.05,12,0)" xlink:href="#aY"/><use transform="matrix(0.05,0,0,0.05,17,0)" xlink:href="#be"/><use transform="matrix(0.05,0,0,0.05,27,0)" xlink:href="#aM"/><use transform="matrix(0.05,0,0,0.05,37,0)" xlink:href="#aP"/></g><path fill="#333" d="M143 4C61 4 22-44 18-125c-5-107 100-154 193-111 17 8 29 25 37 43l-32 9c-13-25-37-40-76-40-61 0-88 39-88 99 0 61 29 100 91 101 35 0 62-11 79-27v-45h-74v-28h105v86C228-13 192 4 143 4" id="bk"/><path fill="#333" d="M232-93c-1 65-40 97-104 97C67 4 28-28 28-90v-158h33c8 89-33 224 67 224 102 0 64-133 71-224h33v155" id="bl"/><path fill="#333" d="M33 0v-248h34V0H33" id="bm"/><g id="x"><use transform="matrix(0.05,0,0,0.05,0,0)" xlink:href="#bk"/><use transform="matrix(0.05,0,0,0.05,14,0)" xlink:href="#bl"/><use transform="matrix(0.05,0,0,0.05,26.950000000000003,0)" xlink:href="#bm"/></g><g id="y"><use transform="matrix(0.05,0,0,0.05,0,0)" xlink:href="#aZ"/><use transform="matrix(0.05,0,0,0.05,12.950000000000001,0)" xlink:href="#be"/><use transform="matrix(0.05,0,0,0.05,22.950000000000003,0)" xlink:href="#aM"/><use transform="matrix(0.05,0,0,0.05,32.95,0)" xlink:href="#aP"/><use transform="matrix(0.05,0,0,0.05,42.95,0)" xlink:href="#aU"/><use transform="matrix(0.05,0,0,0.05,52.95,0)" xlink:href="#aL"/></g><g id="z"><use transform="matrix(0.05,0,0,0.05,0,0)" xlink:href="#aK"/><use transform="matrix(0.05,0,0,0.05,12,0)" xlink:href="#aH"/><use transform="matrix(0.05,0,0,0.05,22,0)" xlink:href="#aM"/><use transform="matrix(0.05,0,0,0.05,32,0)" xlink:href="#aI"/><use transform="matrix(0.05,0,0,0.05,37.95,0)" xlink:href="#aN"/></g><g id="A"><use transform="matrix(0.05,0,0,0.05,0,0)" xlink:href="#aT"/><use transform="matrix(0.05,0,0,0.05,12,0)" xlink:href="#aL"/><use transform="matrix(0.05,0,0,0.05,22,0)" xlink:href="#aI"/><use transform="matrix(0.05,0,0,0.05,27.950000000000003,0)" xlink:href="#aV"/><use transform="matrix(0.05,0,0,0.05,36.95,0)" xlink:href="#aH"/><use transform="matrix(0.05,0,0,0.05,46.95,0)" xlink:href="#aP"/></g><path fill="#333" d="M54-142c48-35 137-8 131 61C196 18 31 33 14-55l32-4c7 23 22 37 52 37 35-1 51-22 54-58 4-55-73-65-99-34H22l8-134h141v27H59" id="bn"/><path fill="#333" d="M103-251c84 0 111 97 45 133-19 10-37 24-39 52H78c0-63 77-55 77-114 0-30-21-42-52-43-32 0-53 17-56 46l-32-2c7-45 34-72 88-72zM77 0v-35h34V0H77" id="bo"/><g id="B"><use transform="matrix(0.05,0,0,0.05,0,0)" xlink:href="#bn"/><use transform="matrix(0.05,0,0,0.05,10,0)" xlink:href="#bo"/></g><g id="C"><use transform="matrix(0.05,0,0,0.05,0,0)" xlink:href="#aW"/><use transform="matrix(0.05,0,0,0.05,14.950000000000001,0)" xlink:href="#aL"/><use transform="matrix(0.05,0,0,0.05,24.950000000000003,0)" xlink:href="#aL"/><use transform="matrix(0.05,0,0,0.05,34.95,0)" xlink:href="#aY"/><use transform="matrix(0.05,0,0,0.05,39.95,0)" xlink:href="#aX"/><use transform="matrix(0.05,0,0,0.05,43.900000000000006,0)" xlink:href="#aP"/><use transform="matrix(0.05,0,0,0.05,53.900000000000006,0)" xlink:href="#aU"/><use transform="matrix(0.05,0,0,0.05,63.900000000000006,0)" xlink:href="#aV"/></g><g id="D"><use transform="matrix(0.05,0,0,0.05,0,0)" xlink:href="#aQ"/><use transform="matrix(0.05,0,0,0.05,8.950000000000001,0)" xlink:href="#aL"/><use transform="matrix(0.05,0,0,0.05,18.950000000000003,0)" xlink:href="#aM"/><use transform="matrix(0.05,0,0,0.05,28.950000000000003,0)" xlink:href="#bg"/></g><g id="E"><use transform="matrix(0.05,0,0,0.05,0,0)" xlink:href="#aZ"/><use transform="matrix(0.05,0,0,0.05,12.950000000000001,0)" xlink:href="#aH"/><use transform="matrix(0.05,0,0,0.05,22.950000000000003,0)" xlink:href="#bg"/><use transform="matrix(0.05,0,0,0.05,37.900000000000006,0)" xlink:href="#bg"/><use transform="matrix(0.05,0,0,0.05,52.85,0)" xlink:href="#bi"/><use transform="matrix(0.05,0,0,0.05,62.85,0)" xlink:href="#aP"/><use transform="matrix(0.05,0,0,0.05,72.85000000000001,0)" xlink:href="#aX"/><use transform="matrix(0.05,0,0,0.05,76.80000000000001,0)" xlink:href="#bb"/><use transform="matrix(0.05,0,0,0.05,85.80000000000001,0)" xlink:href="#aM"/><use transform="matrix(0.05,0,0,0.05,95.80000000000001,0)" xlink:href="#aY"/><use transform="matrix(0.05,0,0,0.05,100.80000000000001,0)" xlink:href="#aX"/><use transform="matrix(0.05,0,0,0.05,104.75,0)" xlink:href="#aH"/><use transform="matrix(0.05,0,0,0.05,114.75,0)" xlink:href="#aP"/><use transform="matrix(0.05,0,0,0.05,124.75,0)" xlink:href="#aV"/></g><path fill="#333" d="M30-248c118-7 216 8 213 122C240-48 200 0 122 0H30v-248zM63-27c89 8 146-16 146-99s-60-101-146-95v194" id="bp"/><g id="F"><use transform="matrix(0.05,0,0,0.05,0,0)" xlink:href="#bp"/><use transform="matrix(0.05,0,0,0.05,12.950000000000001,0)" xlink:href="#aM"/><use transform="matrix(0.05,0,0,0.05,22.950000000000003,0)" xlink:href="#aY"/><use transform="matrix(0.05,0,0,0.05,27.950000000000003,0)" xlink:href="#aM"/></g><g id="G"><use transform="matrix(0.05,0,0,0.05,0,0)" xlink:href="#aW"/><use transform="matrix(0.05,0,0,0.05,14.950000000000001,0)" xlink:href="#aM"/><use transform="matrix(0.05,0,0,0.05,24.950000000000003,0)" xlink:href="#aP"/><use transform="matrix(0.05,0,0,0.05,34.95,0)" xlink:href="#aM"/><use transform="matrix(0.05,0,0,0.05,44.95,0)" xlink:href="#aU"/><use transform="matrix(0.05,0,0,0.05,54.95,0)" xlink:href="#aL"/><use transform="matrix(0.05,0,0,0.05,64.95,0)" xlink:href="#bg"/><use transform="matrix(0.05,0,0,0.05,79.9,0)" xlink:href="#aL"/><use transform="matrix(0.05,0,0,0.05,89.9,0)" xlink:href="#aP"/><use transform="matrix(0.05,0,0,0.05,99.9,0)" xlink:href="#aY"/></g><g id="H"><use transform="matrix(0.05,0,0,0.05,0,0)" xlink:href="#ba"/><use transform="matrix(0.05,0,0,0.05,12,0)" xlink:href="#aR"/><use transform="matrix(0.05,0,0,0.05,21,0)" xlink:href="#aV"/><use transform="matrix(0.05,0,0,0.05,30,0)" xlink:href="#aY"/><use transform="matrix(0.05,0,0,0.05,35,0)" xlink:href="#aL"/><use transform="matrix(0.05,0,0,0.05,45,0)" xlink:href="#bg"/></g><path fill="#333" d="M87 75C49 33 22-17 22-94c0-76 28-126 65-167h31c-38 41-64 92-64 168S80 34 118 75H87" id="bq"/><g id="I"><use transform="matrix(0.05,0,0,0.05,0,0)" xlink:href="#bq"/><use transform="matrix(0.05,0,0,0.05,5.95,0)" xlink:href="#bk"/><use transform="matrix(0.05,0,0,0.05,19.95,0)" xlink:href="#aH"/><use transform="matrix(0.05,0,0,0.05,29.950000000000003,0)" xlink:href="#aH"/><use transform="matrix(0.05,0,0,0.05,39.95,0)" xlink:href="#aU"/><use transform="matrix(0.05,0,0,0.05,49.95,0)" xlink:href="#aS"/><use transform="matrix(0.05,0,0,0.05,53.900000000000006,0)" xlink:href="#aL"/></g><path fill="#333" d="M108 0H70L1-190h34L89-25l56-165h34" id="br"/><path fill="#333" d="M33-261c38 41 65 92 65 168S71 34 33 75H2C39 34 66-17 66-93S39-220 2-261h31" id="bs"/><g id="J"><use transform="matrix(0.05,0,0,0.05,0,0)" xlink:href="#bp"/><use transform="matrix(0.05,0,0,0.05,12.950000000000001,0)" xlink:href="#aI"/><use transform="matrix(0.05,0,0,0.05,18.900000000000002,0)" xlink:href="#aX"/><use transform="matrix(0.05,0,0,0.05,22.85,0)" xlink:href="#br"/><use transform="matrix(0.05,0,0,0.05,31.85,0)" xlink:href="#aL"/><use transform="matrix(0.05,0,0,0.05,41.85,0)" xlink:href="#bs"/></g><g id="K"><use transform="matrix(0.05,0,0,0.05,0,0)" xlink:href="#aW"/><use transform="matrix(0.05,0,0,0.05,14.950000000000001,0)" xlink:href="#aL"/><use transform="matrix(0.05,0,0,0.05,24.950000000000003,0)" xlink:href="#aL"/><use transform="matrix(0.05,0,0,0.05,34.95,0)" xlink:href="#aY"/><use transform="matrix(0.05,0,0,0.05,39.95,0)" xlink:href="#aX"/><use transform="matrix(0.05,0,0,0.05,43.900000000000006,0)" xlink:href="#aP"/><use transform="matrix(0.05,0,0,0.05,53.900000000000006,0)" xlink:href="#aU"/></g><g id="L"><use transform="matrix(0.05,0,0,0.05,0,0)" xlink:href="#bp"/><use transform="matrix(0.05,0,0,0.05,12.950000000000001,0)" xlink:href="#aH"/><use transform="matrix(0.05,0,0,0.05,22.950000000000003,0)" xlink:href="#bb"/><use transform="matrix(0.05,0,0,0.05,31.950000000000003,0)" xlink:href="#bi"/><use transform="matrix(0.05,0,0,0.05,41.95,0)" xlink:href="#bg"/><use transform="matrix(0.05,0,0,0.05,56.900000000000006,0)" xlink:href="#aL"/><use transform="matrix(0.05,0,0,0.05,66.9,0)" xlink:href="#aP"/><use transform="matrix(0.05,0,0,0.05,76.9,0)" xlink:href="#aY"/><use transform="matrix(0.05,0,0,0.05,81.9,0)" xlink:href="#aM"/><use transform="matrix(0.05,0,0,0.05,91.9,0)" xlink:href="#aY"/><use transform="matrix(0.05,0,0,0.05,96.9,0)" xlink:href="#aX"/><use transform="matrix(0.05,0,0,0.05,100.85000000000001,0)" xlink:href="#aH"/><use transform="matrix(0.05,0,0,0.05,110.85000000000001,0)" xlink:href="#aP"/></g><g id="M"><use transform="matrix(0.05,0,0,0.05,0,0)" xlink:href="#bd"/><use transform="matrix(0.05,0,0,0.05,12.950000000000001,0)" xlink:href="#aL"/><use transform="matrix(0.05,0,0,0.05,22.950000000000003,0)" xlink:href="#aV"/><use transform="matrix(0.05,0,0,0.05,31.950000000000003,0)" xlink:href="#aL"/><use transform="matrix(0.05,0,0,0.05,41.95,0)" xlink:href="#aM"/><use transform="matrix(0.05,0,0,0.05,51.95,0)" xlink:href="#aI"/><use transform="matrix(0.05,0,0,0.05,57.900000000000006,0)" xlink:href="#bb"/><use transform="matrix(0.05,0,0,0.05,66.9,0)" xlink:href="#be"/></g><g id="N"><use transform="matrix(0.05,0,0,0.05,0,0)" xlink:href="#aT"/><use transform="matrix(0.05,0,0,0.05,12,0)" xlink:href="#aI"/><use transform="matrix(0.05,0,0,0.05,17.95,0)" xlink:href="#aH"/><use transform="matrix(0.05,0,0,0.05,27.950000000000003,0)" xlink:href="#aU"/><use transform="matrix(0.05,0,0,0.05,37.95,0)" xlink:href="#aI"/><use transform="matrix(0.05,0,0,0.05,43.900000000000006,0)" xlink:href="#aL"/><use transform="matrix(0.05,0,0,0.05,53.900000000000006,0)" xlink:href="#aV"/><use transform="matrix(0.05,0,0,0.05,62.900000000000006,0)" xlink:href="#aV"/></g><g id="O"><use transform="matrix(0.05,0,0,0.05,0,0)" xlink:href="#aW"/><use transform="matrix(0.05,0,0,0.05,14.950000000000001,0)" xlink:href="#aM"/><use transform="matrix(0.05,0,0,0.05,24.950000000000003,0)" xlink:href="#aP"/><use transform="matrix(0.05,0,0,0.05,34.95,0)" xlink:href="#aM"/><use transform="matrix(0.05,0,0,0.05,44.95,0)" xlink:href="#aU"/><use transform="matrix(0.05,0,0,0.05,54.95,0)" xlink:href="#aL"/><use transform="matrix(0.05,0,0,0.05,64.95,0)" xlink:href="#bg"/><use transform="matrix(0.05,0,0,0.05,79.9,0)" xlink:href="#aL"/><use transform="matrix(0.05,0,0,0.05,89.9,0)" xlink:href="#aP"/><use transform="matrix(0.05,0,0,0.05,99.9,0)" xlink:href="#aY"/></g><g id="P"><use transform="matrix(0.05,0,0,0.05,0,0)" xlink:href="#bq"/><use transform="matrix(0.05,0,0,0.05,5.95,0)" xlink:href="#aQ"/><use transform="matrix(0.05,0,0,0.05,16.25,0)" xlink:href="#aI"/><use transform="matrix(0.05,0,0,0.05,22.2,0)" xlink:href="#aL"/><use transform="matrix(0.05,0,0,0.05,32.2,0)" xlink:href="#aS"/><use transform="matrix(0.05,0,0,0.05,36.150000000000006,0)" xlink:href="#aS"/><use transform="matrix(0.05,0,0,0.05,40.10000000000001,0)" xlink:href="#aH"/><use transform="matrix(0.05,0,0,0.05,50.10000000000001,0)" xlink:href="#bs"/></g><g id="Q"><use transform="matrix(0.05,0,0,0.05,0,0)" xlink:href="#aZ"/><use transform="matrix(0.05,0,0,0.05,12.950000000000001,0)" xlink:href="#be"/><use transform="matrix(0.05,0,0,0.05,22.950000000000003,0)" xlink:href="#aM"/><use transform="matrix(0.05,0,0,0.05,32.95,0)" xlink:href="#aI"/><use transform="matrix(0.05,0,0,0.05,38.900000000000006,0)" xlink:href="#aY"/></g><path fill="#333" d="M115-194c55 1 70 41 70 98S169 2 115 4C84 4 66-9 55-30l1 105H24l-1-265h31l2 30c10-21 28-34 59-34zm-8 174c40 0 45-34 45-75s-6-73-45-74c-42 0-51 32-51 76 0 43 10 73 51 73" id="bt"/><g id="R"><use transform="matrix(0.05,0,0,0.05,0,0)" xlink:href="#bp"/><use transform="matrix(0.05,0,0,0.05,12.950000000000001,0)" xlink:href="#aL"/><use transform="matrix(0.05,0,0,0.05,22.950000000000003,0)" xlink:href="#br"/><use transform="matrix(0.05,0,0,0.05,31.950000000000003,0)" xlink:href="#aL"/><use transform="matrix(0.05,0,0,0.05,41.95,0)" xlink:href="#aS"/><use transform="matrix(0.05,0,0,0.05,45.900000000000006,0)" xlink:href="#aH"/><use transform="matrix(0.05,0,0,0.05,55.900000000000006,0)" xlink:href="#bt"/><use transform="matrix(0.05,0,0,0.05,65.9,0)" xlink:href="#bg"/><use transform="matrix(0.05,0,0,0.05,80.85000000000001,0)" xlink:href="#aL"/><use transform="matrix(0.05,0,0,0.05,90.85000000000001,0)" xlink:href="#aP"/><use transform="matrix(0.05,0,0,0.05,100.85000000000001,0)" xlink:href="#aY"/></g><g id="S"><use transform="matrix(0.05,0,0,0.05,0,0)" xlink:href="#bk"/><use transform="matrix(0.05,0,0,0.05,14,0)" xlink:href="#bl"/><use transform="matrix(0.05,0,0,0.05,26.950000000000003,0)" xlink:href="#bm"/></g><g id="T"><use transform="matrix(0.05,0,0,0.05,0,0)" xlink:href="#bd"/><use transform="matrix(0.05,0,0,0.05,12.950000000000001,0)" xlink:href="#aL"/><use transform="matrix(0.05,0,0,0.05,22.950000000000003,0)" xlink:href="#aV"/><use transform="matrix(0.05,0,0,0.05,31.950000000000003,0)" xlink:href="#aL"/><use transform="matrix(0.05,0,0,0.05,41.95,0)" xlink:href="#aM"/><use transform="matrix(0.05,0,0,0.05,51.95,0)" xlink:href="#aI"/><use transform="matrix(0.05,0,0,0.05,57.900000000000006,0)" xlink:href="#bb"/><use transform="matrix(0.05,0,0,0.05,66.9,0)" xlink:href="#be"/></g><g id="U"><use transform="matrix(0.05,0,0,0.05,0,0)" xlink:href="#aZ"/><use transform="matrix(0.05,0,0,0.05,12.950000000000001,0)" xlink:href="#be"/><use transform="matrix(0.05,0,0,0.05,22.950000000000003,0)" xlink:href="#aM"/><use transform="matrix(0.05,0,0,0.05,32.95,0)" xlink:href="#aP"/><use transform="matrix(0.05,0,0,0.05,42.95,0)" xlink:href="#aU"/><use transform="matrix(0.05,0,0,0.05,52.95,0)" xlink:href="#aL"/></g><path fill="#333" d="M0 4l72-265h28L28 4H0" id="bu"/><use transform="matrix(0.05,0,0,0.05,0,0)" xlink:href="#bu" id="V"/><g id="W"><use transform="matrix(0.05,0,0,0.05,0,0)" xlink:href="#aK"/><use transform="matrix(0.05,0,0,0.05,12,0)" xlink:href="#bi"/><use transform="matrix(0.05,0,0,0.05,22,0)" xlink:href="#aU"/></g><g id="X"><use transform="matrix(0.05,0,0,0.05,0,0)" xlink:href="#aW"/><use transform="matrix(0.05,0,0,0.05,14.950000000000001,0)" xlink:href="#aL"/><use transform="matrix(0.05,0,0,0.05,24.950000000000003,0)" xlink:href="#aL"/><use transform="matrix(0.05,0,0,0.05,34.95,0)" xlink:href="#aY"/><use transform="matrix(0.05,0,0,0.05,39.95,0)" xlink:href="#aX"/><use transform="matrix(0.05,0,0,0.05,43.900000000000006,0)" xlink:href="#aP"/><use transform="matrix(0.05,0,0,0.05,53.900000000000006,0)" xlink:href="#aU"/><use transform="matrix(0.05,0,0,0.05,63.900000000000006,0)" xlink:href="#aV"/></g><g id="Y"><use transform="matrix(0.05,0,0,0.05,0,0)" xlink:href="#ba"/><use transform="matrix(0.05,0,0,0.05,12,0)" xlink:href="#be"/><use transform="matrix(0.05,0,0,0.05,22,0)" xlink:href="#aM"/><use transform="matrix(0.05,0,0,0.05,32,0)" xlink:href="#aI"/><use transform="matrix(0.05,0,0,0.05,37.95,0)" xlink:href="#aL"/></g><path fill="#333" d="M197 0v-115H63V0H30v-248h33v105h134v-105h34V0h-34" id="bv"/><g id="Z"><use transform="matrix(0.05,0,0,0.05,0,0)" xlink:href="#bv"/><use transform="matrix(0.05,0,0,0.05,12.950000000000001,0)" xlink:href="#aH"/><use transform="matrix(0.05,0,0,0.05,22.950000000000003,0)" xlink:href="#aS"/><use transform="matrix(0.05,0,0,0.05,26.900000000000002,0)" xlink:href="#aN"/><use transform="matrix(0.05,0,0,0.05,36.900000000000006,0)" xlink:href="#aL"/><use transform="matrix(0.05,0,0,0.05,46.900000000000006,0)" xlink:href="#aI"/></g><g id="aa"><use transform="matrix(0.05,0,0,0.05,0,0)" xlink:href="#bk"/><use transform="matrix(0.05,0,0,0.05,14,0)" xlink:href="#aM"/><use transform="matrix(0.05,0,0,0.05,24,0)" xlink:href="#aP"/><use transform="matrix(0.05,0,0,0.05,34,0)" xlink:href="#aY"/><use transform="matrix(0.05,0,0,0.05,39,0)" xlink:href="#aY"/></g><g id="ab"><use transform="matrix(0.05,0,0,0.05,0,0)" xlink:href="#aZ"/><use transform="matrix(0.05,0,0,0.05,12.950000000000001,0)" xlink:href="#be"/><use transform="matrix(0.05,0,0,0.05,22.950000000000003,0)" xlink:href="#aM"/><use transform="matrix(0.05,0,0,0.05,32.95,0)" xlink:href="#aI"/><use transform="matrix(0.05,0,0,0.05,38.900000000000006,0)" xlink:href="#aY"/></g><g id="ac"><use transform="matrix(0.05,0,0,0.05,0,0)" xlink:href="#aT"/><use transform="matrix(0.05,0,0,0.05,12,0)" xlink:href="#aL"/><use transform="matrix(0.05,0,0,0.05,22,0)" xlink:href="#aI"/><use transform="matrix(0.05,0,0,0.05,27.950000000000003,0)" xlink:href="#aY"/></g><g id="ae"><use transform="matrix(0.05,0,0,0.05,0,0)" xlink:href="#ba"/><use transform="matrix(0.05,0,0,0.05,12,0)" xlink:href="#bt"/><use transform="matrix(0.05,0,0,0.05,22,0)" xlink:href="#aI"/><use transform="matrix(0.05,0,0,0.05,27.950000000000003,0)" xlink:href="#aX"/><use transform="matrix(0.05,0,0,0.05,31.899999999999995,0)" xlink:href="#aP"/><use transform="matrix(0.05,0,0,0.05,41.9,0)" xlink:href="#aY"/></g><g id="af"><use transform="matrix(0.05,0,0,0.05,0,0)" xlink:href="#ba"/><use transform="matrix(0.05,0,0,0.05,12,0)" xlink:href="#bi"/><use transform="matrix(0.05,0,0,0.05,22,0)" xlink:href="#bc"/><use transform="matrix(0.05,0,0,0.05,32,0)" xlink:href="#bg"/><use transform="matrix(0.05,0,0,0.05,46.95,0)" xlink:href="#aX"/><use transform="matrix(0.05,0,0,0.05,50.900000000000006,0)" xlink:href="#aV"/><use transform="matrix(0.05,0,0,0.05,59.900000000000006,0)" xlink:href="#aV"/><use transform="matrix(0.05,0,0,0.05,68.9,0)" xlink:href="#aX"/><use transform="matrix(0.05,0,0,0.05,72.85000000000001,0)" xlink:href="#aH"/><use transform="matrix(0.05,0,0,0.05,82.85000000000001,0)" xlink:href="#aP"/></g><g id="ag"><use transform="matrix(0.05,0,0,0.05,0,0)" xlink:href="#bp"/><use transform="matrix(0.05,0,0,0.05,12.950000000000001,0)" xlink:href="#aH"/><use transform="matrix(0.05,0,0,0.05,22.950000000000003,0)" xlink:href="#bb"/><use transform="matrix(0.05,0,0,0.05,31.950000000000003,0)" xlink:href="#bi"/><use transform="matrix(0.05,0,0,0.05,41.95,0)" xlink:href="#bg"/><use transform="matrix(0.05,0,0,0.05,56.900000000000006,0)" xlink:href="#aL"/><use transform="matrix(0.05,0,0,0.05,66.9,0)" xlink:href="#aP"/><use transform="matrix(0.05,0,0,0.05,76.9,0)" xlink:href="#aY"/></g></defs></g></svg>